<?xml version="1.0" standalone="no"?>
<!DOCTYPE svg PUBLIC "-//W3C//DTD SVG 1.1//EN" "http://www.w3.org/Graphics/SVG/1.1/DTD/svg11.dtd" >
<svg xmlns="http://www.w3.org/2000/svg">
<metadata>
Created by FontPrep 20130207 at Fri Dec 23 12:40:55 2016
 By Nick Villapiano
Copyright (C) 2002, 2007 Hoefler &#38; Frere-Jones. http://www.typography.com
</metadata>
<defs>
<font id="689855d1d3f3568ace151fae6fede3ec" horiz-adv-x='1024' >
  <font-face 
    font-family="ChronicleDispCond-Semi"
    font-weight="300"
    font-stretch="condensed"
    units-per-em="2048"
    panose-1="0 0 0 0 0 0 0 0 0 0"
    ascent="1638"
    descent="-410"
    x-height="944"
    cap-height="1427"
    bbox="-160 -592 2062 2310"
    underline-thickness="102"
    underline-position="-102"
    unicode-range="U+000D-FB04"
  />
<missing-glyph horiz-adv-x="1024" 
d="M145 -307h734l-367 799zM569 614l353 -770v1540zM455 614l-353 770v-1540zM512 737l367 799h-734zM0 1638h1024v-2048h-1024v2048z" />
    <glyph glyph-name="f_f" unicode="ff" horiz-adv-x="1107" 
d="M375 1141v-201h319v76q0 89 11 141q-37 6 -64 35t-27 83t45 105q-35 58 -110 58q-74 0 -109 -40q-65 -74 -65 -257zM1051 1309q0 58 34 104q-25 31 -69 31t-69 -32q-52 -64 -52 -267v-205h225v-59h-225v-775q0 -51 34 -65t130 -16v-25h-473v25q63 2 85.5 16t22.5 63v777
h-319v-775q0 -51 24.5 -65t94.5 -16v-25h-443v25q76 2 99.5 16t23.5 63v775h-149v24l149 41v70q0 233 102 352q101 109 274 109t247 -97l2 2q92 100 222 100t190.5 -49t60.5 -109t-29 -93t-77 -33t-81.5 27.5t-33.5 85.5z" />
    <glyph glyph-name="fi" unicode="fi" horiz-adv-x="1052" 
d="M721 1368q-39 76 -166 76q-120 0 -150 -96.5t-30 -212.5v-195h284l238 8v-844q0 -49 23.5 -63t103.5 -16v-25h-436v25q59 2 83.5 16t24.5 63v777h-321v-775q0 -51 24.5 -65t94.5 -16v-25h-443v25q76 2 99.5 16t23.5 63v775h-149v24l149 41v68q0 469 397 469
q148 0 236 -64t88 -153q0 -55 -29.5 -91t-79.5 -36t-85 30.5t-35 93.5t55 107z" />
    <glyph glyph-name="fl" unicode="fl" horiz-adv-x="1056" 
d="M614 1278q0 65 48 106q-34 60 -110 60q-77 0 -127 -57t-50 -242v-205h323v223q-84 19 -84 115zM375 881v-775q0 -51 24.5 -65t94.5 -16v-25h-443v25q76 2 99.5 16t23.5 63v775h-149v24l149 41v72q0 244 102 354q99 111 277 111q106 0 174 -39l172 33v-1371
q0 -49 23.5 -63t101.5 -16v-25h-432v25q59 2 82.5 16t23.5 63v777h-323z" />
    <glyph glyph-name="f_f_i" unicode="ffi" horiz-adv-x="1572" 
d="M705 1157q-93 13 -93 124q0 58 47 99q-35 58 -110 58q-74 0 -109 -40q-65 -74 -65 -257v-201h319v72q0 93 11 145zM1241 1368q-39 76 -165 76q-120 0 -150.5 -96.5t-30.5 -212.5v-195h285l237 8v-844q0 -49 23.5 -63t103.5 -16v-25h-436v25q59 2 84 16t25 63v777h-322
v-775q0 -51 24.5 -65t94.5 -16v-25h-428v25q63 2 85.5 16t22.5 63v777h-319v-775q0 -51 24.5 -65t94.5 -16v-25h-441v25q74 2 97.5 16t23.5 63v775h-149v24l149 41v70q0 233 102 352q101 109 279 109t246 -105q100 111 291 111q147 0 235 -64t88 -153q0 -55 -29.5 -91
t-79.5 -36t-85 30.5t-35 92.5t55 108z" />
    <glyph glyph-name="f_f_l" unicode="ffl" horiz-adv-x="1576" 
d="M375 1141v-201h319v78q0 87 11 139q-37 6 -64 35t-27 83t45 105q-35 58 -110 58q-74 0 -109 -40q-65 -74 -65 -257zM1219 1165q-84 14 -84 119q0 59 47 100q-34 60 -110 60q-77 0 -127 -57t-50 -242v-205h324v225zM1073 1481q106 0 174 -39l172 33v-1371q0 -49 23.5 -63
t101.5 -16v-25h-432v25q59 2 83 16t24 63v777h-324v-775q0 -51 24.5 -65t94.5 -16v-25h-428v25q63 2 85.5 16t22.5 63v777h-319v-775q0 -51 24.5 -65t94.5 -16v-25h-441v25q74 2 97.5 16t23.5 63v775h-149v24l149 41v70q0 233 102 352q101 109 279 109t244 -103
q101 109 274 109z" />
    <glyph glyph-name="f_b" unicode="fb" horiz-adv-x="1548" 
d="M698 881h-323v-775q0 -51 33.5 -65t130.5 -16v-25h-486v25q74 2 97.5 16t23.5 63v775h-149v24l149 41v74q0 242 102 352q99 111 277 111q98 0 174 -37l172 31v-644q117 130 266 130t236.5 -128t87.5 -339t-105 -360.5t-273 -149.5t-288 98l-100 -111h-29l4 185v725z
M1065 881q-80 0 -166 -95v-600q29 -84 78 -123.5t173 -39.5t124 460q0 180 -52.5 289t-156.5 109zM698 1165q-84 14 -84 119q0 59 48 100q-34 60 -110 60q-77 0 -127 -57t-50 -242v-205h323v225z" />
    <glyph glyph-name="f_f_b" unicode="ffb" horiz-adv-x="2068" 
d="M375 1141v-201h319v78q0 87 11 139q-37 6 -64 35t-27 83t45 105q-35 58 -110 58q-74 0 -109 -40q-65 -74 -65 -257zM1219 1165q-84 14 -84 119q0 59 47 100q-34 60 -110 60q-77 0 -127 -57t-50 -242v-205h324v225zM1585 881q-80 0 -166 -95v-600q29 -84 78 -123.5
t173 -39.5t124 460q0 180 -52 289t-157 109zM1219 881h-324v-775q0 -51 34 -65t130 -16v-25h-473v25q63 2 85.5 16t22.5 63v777h-319v-775q0 -51 24.5 -65t94.5 -16v-25h-441v25q74 2 97.5 16t23.5 63v775h-149v24l149 41v70q0 233 102 352q101 109 279 109t244 -103
q101 109 274 109q106 0 174 -39l172 33v-644q117 130 266 130t236.5 -128t87.5 -339t-104 -360.5t-273 -149.5t-289 98l-100 -111h-29l5 185v725z" />
    <glyph glyph-name="f_f_h" unicode="ffh" horiz-adv-x="2072" 
d="M375 1141v-201h319v78q0 87 11 139q-37 6 -64 35t-27 83t45 105q-35 58 -110 58q-74 0 -109 -40q-65 -74 -65 -257zM1219 1165q-84 14 -84 119q0 59 47 100q-34 60 -110 60q-77 0 -127 -57t-50 -242v-205h324v225zM1604 852q-107 0 -185 -164v-584q0 -49 23.5 -63
t89.5 -16v-25h-420v25q59 2 83 16t24 63v777h-324v-775q0 -51 24.5 -65t94.5 -16v-25h-428v25q63 2 85.5 16t22.5 63v777h-319v-775q0 -51 24.5 -65t94.5 -16v-25h-441v25q74 2 97.5 16t23.5 63v775h-149v24l149 41v70q0 233 102 352q101 109 279 109t244 -103
q101 109 274 109q106 0 174 -39l172 33v-732q119 213 303 213q104 0 160.5 -66.5t56.5 -193.5v-592q0 -49 24 -63t99 -16v-25h-426v25q59 2 81 16t22 63v547q0 98 -31 149.5t-104 51.5z" />
    <glyph glyph-name="f_f_j" unicode="ffj" horiz-adv-x="1556" 
d="M705 1157q-93 13 -93 124q0 58 47 99q-35 58 -110 58q-74 0 -109 -40q-65 -74 -65 -257v-201h319v72q0 93 11 145zM1241 1368q-39 76 -165 76q-120 0 -150.5 -96.5t-30.5 -212.5v-195h285l235 8v-901q0 -147 -19.5 -227t-66.5 -131q-83 -90 -204 -90t-179.5 43t-58.5 101
t31.5 92t79.5 34t77 -31t29 -82t-45 -96q25 -25 61 -25q97 0 97 189v1057h-322v-775q0 -51 34 -65t130 -16v-25h-473v25q63 2 85.5 16t22.5 63v777h-319v-775q0 -51 24.5 -65t94.5 -16v-25h-441v25q74 2 97.5 16t23.5 63v775h-149v24l149 41v70q0 233 102 352
q101 109 279 109t246 -105q100 111 291 111q147 0 235 -64t88 -153q0 -55 -29.5 -91t-79.5 -36t-85 30.5t-35 92.5t55 108z" />
    <glyph glyph-name="f_f_k" unicode="ffk" horiz-adv-x="2019" 
d="M375 1141v-201h319v78q0 87 11 139q-37 6 -64 35t-27 83t45 105q-35 58 -110 58q-74 0 -109 -40q-65 -74 -65 -257zM1219 1165q-84 14 -84 119q0 59 47 100q-34 60 -110 60q-77 0 -127 -57t-50 -242v-205h324v225zM1073 1481q106 0 174 -39l172 33v-1035l252 301
q121 143 -59 181v22h383v-24q-74 -12 -131.5 -52.5t-143.5 -138.5l-94 -106l258 -441q59 -100 86.5 -124.5t87.5 -32.5v-25h-428v25q70 8 79 35.5t-21 80.5l-191 332l-78 -88v-281q0 -49 22.5 -63t86.5 -16v-25h-416v25q59 2 83 16t24 63v777h-324v-775q0 -51 24.5 -65
t94.5 -16v-25h-428v25q63 2 85.5 16t22.5 63v777h-319v-775q0 -51 24.5 -65t94.5 -16v-25h-441v25q74 2 97.5 16t23.5 63v775h-149v24l149 41v70q0 233 102 352q101 109 279 109t244 -103q101 109 274 109z" />
    <glyph glyph-name="f_h" unicode="fh" horiz-adv-x="1552" 
d="M1083 852q-106 0 -184 -164v-584q0 -49 23.5 -63t89.5 -16v-25h-420v25q59 2 82.5 16t23.5 63v777h-323v-775q0 -51 24.5 -65t94.5 -16v-25h-443v25q76 2 99.5 16t23.5 63v775h-149v24l149 41v72q0 244 102 354q99 111 277 111q106 0 174 -39l172 33v-732
q119 213 303 213q104 0 160.5 -66.5t56.5 -193.5v-592q0 -49 23.5 -63t99.5 -16v-25h-426v25q59 2 81 16t22 63v547q0 98 -31 149.5t-105 51.5zM614 1278q0 65 48 106q-34 60 -110 60q-77 0 -127 -57t-50 -242v-205h323v223q-84 19 -84 115z" />
    <glyph glyph-name="f_j" unicode="fj" horiz-adv-x="1036" 
d="M721 1368q-39 76 -166 76q-120 0 -150 -96.5t-30 -212.5v-195h284l236 8v-901q0 -147 -19.5 -227t-66.5 -131q-83 -90 -204 -90t-179.5 43t-58.5 101t31.5 92t79.5 34t77 -31t29 -82t-45 -96q25 -25 61 -25q96 0 96 189v1057h-321v-775q0 -51 33.5 -65t130.5 -16v-25
h-486v25q74 2 97.5 16t23.5 63v775h-149v24l149 41v68q0 469 397 469q148 0 236 -64t88 -153q0 -55 -29.5 -91t-79.5 -36t-85 30.5t-35 93.5t55 107z" />
    <glyph glyph-name="f_k" unicode="fk" horiz-adv-x="1499" 
d="M592 0v25q59 2 82.5 16t23.5 63v777h-323v-775q0 -51 24.5 -65t94.5 -16v-25h-443v25q76 2 99.5 16t23.5 63v775h-149v24l149 41v72q0 244 102 354q99 111 277 111q106 0 174 -39l172 33v-1035l252 301q121 143 -59 181v22h383v-24q-74 -12 -131.5 -52.5t-143.5 -138.5
l-94 -106l258 -441q59 -99 86 -124t88 -33v-25h-428v25q70 8 79 35.5t-22 80.5l-190 332l-78 -88v-281q0 -49 22.5 -63t86.5 -16v-25h-416zM614 1278q0 65 48 106q-34 60 -110 60q-77 0 -127 -57t-50 -242v-205h323v223q-84 19 -84 115z" />
    <glyph glyph-name=".notdef" horiz-adv-x="1024" 
d="M145 -307h734l-367 799zM569 614l353 -770v1540zM455 614l-353 770v-1540zM512 737l367 799h-734zM0 1638h1024v-2048h-1024v2048z" />
    <glyph glyph-name=".null" horiz-adv-x="0" 
 />
    <glyph glyph-name=".null" horiz-adv-x="0" 
 />
    <glyph glyph-name="nonmarkingreturn" unicode="&#xd;" horiz-adv-x="512" 
 />
    <glyph glyph-name="space" unicode=" " horiz-adv-x="325" 
 />
    <glyph glyph-name="exclam" unicode="!" horiz-adv-x="491" 
d="M246 -31q-55 0 -91 40t-36 95.5t37 95.5t92 40t91 -40t36 -95.5t-37 -95.5t-92 -40zM123 1319q0 162 124 162t124 -162q0 -87 -46 -390.5t-63 -533.5h-31q-17 230 -62.5 530t-45.5 394z" />
    <glyph glyph-name="quotedbl" unicode="&#x22;" horiz-adv-x="774" 
d="M616 1440q43 0 72 -24.5t29 -62.5q1 -37 -15 -69t-25 -48.5t-21.5 -38t-29 -50.5t-40.5 -70l-115 -182l-31 10l37 213q38 221 49 252q25 70 90 70zM291 1440q43 0 71.5 -24.5t28.5 -62.5q0 -37 -15 -69t-24.5 -48.5t-22 -38t-28.5 -50.5t-41 -70l-115 -182l-30 10l37 213
q18 104 28 163.5t21 88.5q25 70 90 70z" />
    <glyph glyph-name="numbersign" unicode="#" horiz-adv-x="1236" 
d="M393 426h365l86 514h-365zM1176 983v-43h-283l-86 -514h293v-43h-301l-78 -469h-49l78 469h-365l-78 -469h-49l78 469h-270v43h278l86 514h-287v43h293l78 463h51l-78 -463h365l78 463h49l-78 -463h275z" />
    <glyph glyph-name="dollar" unicode="$" horiz-adv-x="999" 
d="M303 1070q0 -91 44 -141t142 -100v455q-84 -10 -135 -66.5t-51 -147.5zM741 305q0 94 -48 148.5t-158 107.5v-489q104 10 155 74.5t51 158.5zM328 311q0 -81 -82 -127q25 -43 87 -76.5t148 -37.5v516l-37 16q-159 68 -215.5 123t-82 110.5t-25.5 131.5q0 147 106.5 247
t261.5 113v139h54v-137q153 -4 253.5 -75.5t100.5 -178.5q0 -51 -28.5 -89t-84.5 -38t-85 36t-29 78t20.5 74.5t52.5 47.5q-65 96 -200 104v-485q10 -4 22.5 -10.5t52.5 -22.5q123 -51 209 -131.5t86 -224.5q0 -145 -97.5 -257.5t-278.5 -127.5v-160h-56v160
q-161 0 -277 76.5t-116 197.5q0 47 31 90t89 43t89 -37t31 -88z" />
    <glyph glyph-name="percent" unicode="%" horiz-adv-x="1454" 
d="M807 1217q174 0 338 198h51l-868 -1468h-88l823 1329l-6 6q-127 -123 -295 -123q-51 0 -90 8q2 -12 2 -15v-38q0 -68 -21.5 -159t-94 -228t-226.5 -137q-119 0 -185.5 82t-66.5 194t31.5 200.5t86 158t125 113.5t146.5 44q133 0 180 -129q74 -36 158 -36zM605.5 956
q19.5 82 19.5 136t-4 88q-98 35 -179 110q-88 -49 -141 -190t-53 -255q0 -202 117 -202q101 0 161 115.5t79.5 197.5zM782 252q0 112 32 200.5t86 158t125 113.5t157 44t140 -69.5t54 -198.5q0 -68 -21.5 -159t-94 -229.5t-226.5 -138.5q-119 0 -185.5 83.5t-66.5 195.5z
M1327 496q0 200 -117 200q-111 0 -185.5 -161.5t-74.5 -327.5q0 -90 33 -134t86 -44t100.5 46t102.5 153.5t55 267.5z" />
    <glyph glyph-name="ampersand" unicode="&#x26;" horiz-adv-x="1347" 
d="M84 309q0 145 88 240.5t242 157.5q-72 88 -111 161.5t-39 155.5q0 158 92 250t237 92t225.5 -76t80.5 -184t-63.5 -186t-208.5 -156q167 -175 256 -350q59 172 134 256t145 84t107.5 -39t37.5 -97t-32 -95.5t-82 -37.5t-79 34t-29 70t11 52l-6 6q-96 -55 -183 -272
q81 -163 124.5 -210.5t72.5 -62t70 -14.5t112 68l19 -19q-140 -170 -269 -170q-92 0 -145 53.5t-109 163.5q-133 -219 -356 -219q-160 0 -251 99.5t-91 244.5zM293 358q0 -127 68.5 -201.5t175.5 -74.5q68 0 121 30.5t106 108.5q-57 117 -145.5 241t-180.5 218
q-145 -116 -145 -322zM731 1114q0 221 -145 221q-68 0 -110 -55.5t-42 -145.5t43 -169.5t121 -169.5q76 74 104.5 147.5t28.5 171.5z" />
    <glyph glyph-name="quotesingle" unicode="'" horiz-adv-x="446" 
d="M291 1440q43 0 71.5 -24.5t28.5 -62.5q0 -37 -15 -69t-24.5 -48.5t-22 -38t-28.5 -50.5t-41 -70l-115 -182l-30 10l37 213q18 104 28 163.5t21 88.5q25 70 90 70z" />
    <glyph glyph-name="parenleft" unicode="(" horiz-adv-x="696" 
d="M127 691q0 271 172 512t426 362l12 -23q-299 -200 -350 -468.5t-51 -546t102.5 -495.5t298.5 -349l-12 -23q-403 189 -500.5 474.5t-97.5 556.5z" />
    <glyph glyph-name="parenright" unicode=")" horiz-adv-x="696" 
d="M258.5 1191.5q-101.5 217.5 -299.5 350.5l12 23q403 -189 500.5 -474.5t97.5 -556.5t-173 -513.5t-425 -360.5l-12 23q197 132 299 348.5t102 579.5t-101.5 580.5z" />
    <glyph glyph-name="asterisk" unicode="*" horiz-adv-x="704" 
d="M664 1186q0 -66 -80 -66q-31 0 -107 24.5t-94 31.5l-10 -13q40 -47 75 -103t42 -81t-1 -51.5t-36.5 -36.5t-52 6.5t-30.5 40.5q-12 42 -12 59v162l-16 4q-12 -14 -53 -75t-76 -87q-66 -49 -102 5q-39 49 26 98q37 24 106.5 44.5t88.5 27.5v16q-18 6 -46 15.5t-77 25
t-76 34.5q-27 20 -34 47t10 50q52 68 108.5 2.5t84.5 -105.5t40 -57l16 6v92t10 122t33 46.5t52 7.5t38 -36.5t1 -51.5t-21.5 -47.5t-32 -49t-37 -49t-30.5 -40.5l10 -12q171 57 205 57t56 -17.5t22 -45.5z" />
    <glyph glyph-name="plus" unicode="+" horiz-adv-x="995" 
d="M96 690h377v432h53v-432h375v-45h-375v-438h-53v438h-377v45z" />
    <glyph glyph-name="comma" unicode="," horiz-adv-x="423" 
d="M180 -18q-37 0 -69.5 33.5t-32.5 87.5t34.5 95.5t96.5 41.5t100.5 -48.5t38.5 -143.5t-69.5 -190.5t-217.5 -160.5l-18 27q98 55 148.5 132.5t54.5 137.5l-6 4q-23 -16 -60 -16z" />
    <glyph glyph-name="hyphen" unicode="-" horiz-adv-x="645" 
d="M98 571h451v-84h-451v84z" />
    <glyph glyph-name="period" unicode="." horiz-adv-x="423" 
d="M211 -31q-55 0 -91 40t-36 95.5t37 95.5t92 40t91 -40t36 -95.5t-37 -95.5t-92 -40z" />
    <glyph glyph-name="slash" unicode="/" horiz-adv-x="794" 
d="M373 543l362 985h62l-371 -985l-363 -983h-61z" />
    <glyph glyph-name="zero" unicode="0" horiz-adv-x="1087" 
d="M550.5 12q63.5 0 106.5 35t69 114t36 206t10 311t-13.5 311t-42 206t-73.5 115t-108.5 36t-105.5 -36t-67.5 -115t-37 -206t-11.5 -311t13.5 -311t42 -206t73.5 -114t108.5 -35zM204.5 1179.5q134.5 202.5 342.5 202.5t339.5 -199t131.5 -502t-135.5 -505.5
t-340.5 -202.5q-105 0 -193.5 53.5t-183.5 198.5t-95 448.5t134.5 506z" />
    <glyph glyph-name="one" unicode="1" horiz-adv-x="761" 
d="M283 158v981q0 93 -41.5 125.5t-182.5 38.5v24l441 43v-1212q0 -72 47 -100.5t172 -30.5v-27h-653v27q123 2 170 30.5t47 100.5z" />
    <glyph glyph-name="two" unicode="2" horiz-adv-x="987" 
d="M457 1346q-63 0 -123 -37t-86 -95q109 -49 108 -151q0 -59 -33 -103.5t-95 -44.5t-100 43t-38 112q0 133 118 222.5t293 89.5t284.5 -102t109.5 -248q0 -145 -91 -264t-343 -344l-248 -227v-9h451q97 0 135.5 38.5t81.5 176.5l26 -2l-8 -401h-807v145l248 238
q191 187 259.5 321.5t68.5 312.5q0 179 -58.5 254t-152.5 75z" />
    <glyph glyph-name="three" unicode="3" horiz-adv-x="985" 
d="M59 238q0 61 37 105t96.5 44t91 -42t31.5 -94t-26.5 -87t-59.5 -53q25 -39 84.5 -69t141.5 -30q123 0 177 83t54 255t-70.5 249t-236.5 77h-49v45h35q166 0 231.5 79t65.5 245t-52.5 233.5t-158.5 67.5q-63 0 -115.5 -29t-81.5 -70q39 -14 66.5 -51t27.5 -90t-30 -95
t-88 -42t-95 40t-37 100q0 115 112 194t288 79t283.5 -89.5t107.5 -222.5q0 -132 -95.5 -228.5t-293.5 -139.5v-6q193 -10 304 -94t111 -246t-121.5 -272.5t-319.5 -110.5q-179 0 -297 75t-118 190z" />
    <glyph glyph-name="four" unicode="4" horiz-adv-x="1024" 
d="M543 557v602h-8l-408 -602h416zM758 424v-266q0 -74 36.5 -101.5t120.5 -29.5v-27h-542v27q88 2 129 28.5t41 100.5v268h-506v94l575 842h146v-803h243v-133h-243z" />
    <glyph glyph-name="five" unicode="5" horiz-adv-x="966" 
d="M195 717q129 117 315 117t288.5 -113.5t102.5 -297t-123 -317t-323 -133.5q-158 0 -270.5 75.5t-112.5 193.5q0 66 36 109.5t98 43.5t93 -39t31 -93t-31 -93t-66 -57q23 -39 78.5 -70t128.5 -31q123 0 176.5 96.5t53.5 305.5q0 368 -224 368q-78 0 -139 -32.5t-121 -94.5
l-39 19l23 684h692l-24 -199h-627z" />
    <glyph glyph-name="six" unicode="6" horiz-adv-x="1017" 
d="M538 10q104 0 146.5 114t42.5 320t-46 296.5t-141 90.5t-166 -106.5t-71 -308.5q0 -203 65.5 -304.5t169.5 -101.5zM76 532q0 367 213 584q160 172 319.5 216t263.5 59v-27q-259 -75 -402 -237t-173 -445l8 -2q41 104 123 155.5t169 51.5q163 0 261 -115t98 -313
t-119 -342t-314 -144q-201 0 -324 157.5t-123 401.5z" />
    <glyph glyph-name="seven" unicode="7" horiz-adv-x="919" 
d="M313 1167q-86 0 -122.5 -45.5t-73.5 -197.5h-27l12 434h793v-37l-514 -1341h-207v12l617 1175h-478z" />
    <glyph glyph-name="eight" unicode="8" horiz-adv-x="993" 
d="M709 1059q0 133 -55.5 208.5t-150.5 75.5t-149.5 -58t-54.5 -181t75 -195.5t214 -136.5l6 -4q115 96 115 291zM258 332q0 -150 62 -235t172 -85t173.5 60t63.5 194t-73.5 211.5t-225.5 145.5q-10 4 -17 8t-18 8q-137 -102 -137 -307zM344 664q-238 136 -238 328
q0 175 114 282.5t280.5 107.5t279.5 -88.5t113 -211.5q0 -122 -68.5 -197.5t-191.5 -134.5q147 -72 221 -162t74 -219q0 -163 -128.5 -279.5t-311.5 -116.5q-182 0 -300 96t-118 248q0 111 75.5 202t198.5 145z" />
    <glyph glyph-name="nine" unicode="9" horiz-adv-x="1017" 
d="M504 1348q-211 0 -211 -412t205 -412q83 0 151 112.5t68 308.5t-57.5 299.5t-155.5 103.5zM439 471q-165 0 -270.5 117t-105.5 311t126 338.5t325 144.5t314.5 -153t115.5 -408q0 -367 -213 -579q-157 -169 -318 -215.5t-266 -61.5v27q524 145 574 682l-8 2
q-37 -104 -113 -154.5t-161 -50.5z" />
    <glyph glyph-name="colon" unicode=":" horiz-adv-x="440" 
d="M219 -31q-55 0 -91 40t-36 95.5t37 95.5t92 40t91 -40t36 -95.5t-37 -95.5t-92 -40zM219 565q-55 0 -91 39t-36 95t37 96.5t92 40.5t91 -40t36 -95.5t-37 -95.5t-92 -40z" />
    <glyph glyph-name="semicolon" unicode=";" horiz-adv-x="440" 
d="M188 -18q-36 0 -68 33.5t-32 87.5t34 95.5t96 41.5t100 -48.5t38 -143.5t-69.5 -190.5t-216.5 -160.5l-17 27q98 55 147.5 132.5t55.5 137.5l-8 4q-24 -16 -60 -16zM219 565q-55 0 -91 39t-36 95t37 96.5t92 40.5t91 -40t36 -95.5t-37 -95.5t-92 -40z" />
    <glyph glyph-name="less" unicode="&#x3c;" horiz-adv-x="985" 
d="M147 688l691 438v-57l-635 -403l635 -398v-61l-691 438v43z" />
    <glyph glyph-name="equal" unicode="=" horiz-adv-x="985" 
d="M104 860h779v-45h-779v45zM104 516h779v-45h-779v45z" />
    <glyph glyph-name="greater" unicode="&#x3e;" horiz-adv-x="985" 
d="M147 209v57l635 404l-635 397v61l691 -438v-43z" />
    <glyph glyph-name="question" unicode="?" horiz-adv-x="860" 
d="M367 -31q-55 0 -91 40t-36 95.5t36.5 95.5t92 40t91.5 -40t36 -95.5t-37 -95.5t-92 -40zM821 1118q0 -336 -428 -432v-291h-57v318q147 41 206.5 135t59.5 263q0 333 -219 333q-72 0 -125 -35t-74 -78q51 -18 78 -58t27 -91t-32 -94.5t-93.5 -43.5t-99 45.5t-37.5 106.5
q0 124 108 204.5t286 80.5t289 -105t111 -258z" />
    <glyph glyph-name="at" unicode="@" horiz-adv-x="1587" 
d="M604 412q0 -193 109 -193q78 0 149 150l107 438q-29 125 -113 125q-55 0 -102 -56.5t-98.5 -181.5t-51.5 -282zM426 396q0 120 33 220.5t88 180.5t129 130t146 50t106.5 -28.5t56.5 -76.5h4l25 89l172 18l-80 -285l-70 -303q-23 -92 -4 -153.5t82 -61.5q126 0 224 151.5
t98 387.5q0 277 -167 462t-423 185q-156 0 -285 -65.5t-219 -178t-140 -263t-50 -409.5t181.5 -481.5t493.5 -222.5q143 0 241.5 45t191.5 123l22 -29q-96 -82 -202.5 -131t-261.5 -49q-314 0 -513 225.5t-199 597.5q0 188 54.5 349t209 344.5t484.5 183.5q263 0 445 -193
t182 -481t-120 -446t-282 -158q-111 0 -158 44t-55 128h-6q-100 -162 -221 -162q-94 0 -153.5 71.5t-59.5 191.5z" />
    <glyph glyph-name="A" unicode="A" horiz-adv-x="1204" 
d="M705 573l-179 619h-8l-196 -619h383zM362 0h-411v27q89 24 140.5 89.5t105.5 225.5l368 1120h101l374 -1231q33 -115 61.5 -144.5t61.5 -40.5t84 -19v-27h-588v27q125 8 153 43.5t3 128.5l-98 333h-408l-59 -182q-54 -173 -37.5 -222.5t52.5 -69t97 -31.5v-27z" />
    <glyph glyph-name="B" unicode="B" horiz-adv-x="1208" 
d="M911 399q0 336 -301 336h-147v-694h160q237 0 262.5 133t25.5 225zM606 774q145 0 202.5 81t57.5 227t-60 225t-208 79h-135v-612h143zM240 168v1094q0 66 -37 101.5t-150 39.5v24h559q260 0 372 -97t112 -231t-89.5 -227t-267.5 -112v-6q203 -14 304.5 -104.5
t101.5 -241.5q0 -272 -185.5 -340t-330.5 -68h-576v27q113 4 150 39.5t37 101.5z" />
    <glyph glyph-name="C" unicode="C" 
d="M666 -33q-257 0 -423.5 198t-166.5 530t137 492.5t249.5 216.5t237.5 56q175 0 304 -88l77 98h23v-497h-27q-82 219 -173 333.5t-220 114.5q-154 0 -255 -174.5t-101 -521.5t118 -515.5t272 -168.5t252.5 105.5t155.5 273.5l37 -17q-140 -436 -497 -436z" />
    <glyph glyph-name="D" unicode="D" horiz-adv-x="1343" 
d="M565 41q127 0 213 32.5t163 145t77 500.5q0 389 -85 499.5t-169 139t-195 28.5h-106v-1345h102zM240 168v1094q0 66 -37 101.5t-150 39.5v24h545q318 0 494 -190.5t176 -499.5t-165 -523t-482 -214h-568v27q113 4 150 39.5t37 101.5z" />
    <glyph glyph-name="E" unicode="E" 
d="M240 168v1094q0 66 -37 101.5t-150 39.5v24h1022l8 -450l-30 -4q-89 236 -166.5 324.5t-227.5 88.5h-196v-630h80q113 0 170.5 58t93.5 214h29v-586h-29q-49 230 -130 252.5t-134 22.5h-80v-676h190q179 0 271.5 97t177.5 339l31 -2l-11 -475h-1069v27q113 4 150 39.5
t37 101.5z" />
    <glyph glyph-name="F" unicode="F" horiz-adv-x="1157" 
d="M240 168v1094q0 66 -37 100.5t-150 38.5v26h1016l14 -460l-30 -2q-84 236 -169 328.5t-243 92.5h-178v-645h82q111 0 167.5 54.5t92.5 214.5h29v-582h-29q-49 226 -128 248t-132 22h-82v-530q0 -72 38 -104.5t150 -36.5v-27h-598v27q113 4 150 39.5t37 101.5z" />
    <glyph glyph-name="G" unicode="G" horiz-adv-x="1308" 
d="M930 502q0 66 -40 100.5t-153 40.5v27h545v-27q-80 -4 -101.5 -25.5t-26.5 -48t-5 -67.5v-402q-92 -63 -211.5 -98t-237.5 -35t-233 48t-252 197t-137 487t139 495.5t255 211.5t241 54q180 0 311 -84l78 94h22v-479h-26q-92 215 -183.5 322.5t-218.5 107.5
q-155 0 -261.5 -168.5t-106.5 -533.5q0 -364 111.5 -537.5t275.5 -173.5q137 0 215 78v416z" />
    <glyph glyph-name="H" unicode="H" horiz-adv-x="1449" 
d="M240 166v1098q0 66 -37 100.5t-150 38.5v24h582v-24q-149 -5 -160.5 -56t-11.5 -83v-502h526v502q0 74 -37.5 104.5t-136.5 34.5v24h582v-24q-113 -4 -150 -39t-37 -100v-1098q0 -66 37 -100.5t150 -38.5v-27h-582v27q150 5 162 55.5t12 83.5v553h-526v-553
q0 -73 33 -104t139 -35v-27h-582v27q113 4 150 38.5t37 100.5z" />
    <glyph glyph-name="I" unicode="I" horiz-adv-x="733" 
d="M256 168v1094q0 66 -36 101.5t-154 39.5v24h602v-24q-119 -4 -155 -40t-36 -101v-1094q0 -66 36 -101.5t155 -39.5v-27h-602v27q119 4 154.5 39.5t35.5 101.5z" />
    <glyph glyph-name="J" unicode="J" horiz-adv-x="985" 
d="M398 -33q-171 0 -263 77t-92 189q0 72 43 119t100 47t94 -38.5t37 -96.5t-35.5 -102.5t-101.5 -57.5q25 -41 72 -64.5t102 -23.5q102 0 150.5 71t48.5 228v947q0 66 -37 101.5t-158 39.5v24h600v-24q-113 -4 -147.5 -40t-34.5 -101v-859q0 -219 -103.5 -327.5
t-274.5 -108.5z" />
    <glyph glyph-name="K" unicode="K" horiz-adv-x="1325" 
d="M815 1427h469v-24q-103 -23 -178.5 -81t-204.5 -208l-184 -221l360 -625q83 -142 118.5 -175.5t67 -45.5t76.5 -20v-27h-542v27q94 10 106 47t-41 129l-293 506l-110 -131v-416q0 -68 28.5 -99.5t128.5 -35.5v-27h-565v27q113 4 149 38.5t36 100.5v1098q0 66 -36 100.5
t-149 38.5v24h582v-24q-151 -5 -162.5 -56t-11.5 -83v-621l403 485q138 176 78.5 220.5t-125.5 54.5v24z" />
    <glyph glyph-name="L" unicode="L" horiz-adv-x="1105" 
d="M236 168v1094q0 66 -36 101.5t-149 39.5v24h586v-24q-158 -5 -168 -57t-10 -84v-1221h123q90 0 155.5 18.5t138.5 87t166 324.5l31 -2l-18 -469h-1004v27q113 4 149 39.5t36 101.5z" />
    <glyph glyph-name="M" unicode="M" horiz-adv-x="1703" 
d="M256 328v837q0 104 -47 169t-160 69v24h459l362 -1083h9l348 1083h424v-24q-113 -4 -150 -40t-37 -101v-1094q0 -66 37 -101.5t150 -39.5v-27h-582v27q150 5 162 56.5t12 84.5v1128h-8l-416 -1300h-55l-451 1302h-8v-970q0 -150 43 -215.5t170 -85.5v-27h-469v27
q119 23 163 87t44 214z" />
    <glyph glyph-name="N" unicode="N" horiz-adv-x="1372" 
d="M305 1194v-866q0 -150 43 -216t172 -85v-27h-471v27q119 23 163 87t44 214v835q0 104 -47 169t-160 71v24h379l682 -1065h4v740q0 143 -48 211.5t-181 89.5v24h475v-24q-118 -23 -157.5 -89t-39.5 -212v-1122h-73l-783 1214h-2z" />
    <glyph glyph-name="O" unicode="O" horiz-adv-x="1329" 
d="M716.5 8q124.5 0 204.5 164t80 541q0 557 -131 632.5t-256 75.5t-205.5 -164.5t-80.5 -541.5q0 -556 132 -631.5t256.5 -75.5zM203 229q-125 153 -125 480t126 484t233.5 212t229.5 55t229.5 -54t232 -210t124.5 -480t-172 -536.5t-416 -212.5q-122 0 -229.5 54.5
t-232.5 207.5z" />
    <glyph glyph-name="P" unicode="P" horiz-adv-x="1150" 
d="M573 655q237 0 262 145.5t25 226.5q0 174 -61.5 266.5t-218.5 92.5h-117v-731h110zM240 168v1094q0 66 -37 101.5t-150 39.5v24h533q399 0 456.5 -154.5t57.5 -233.5q0 -175 -127 -299t-393 -124h-117v-448q0 -73 39.5 -105t154.5 -36v-27h-604v27q113 4 150 39.5
t37 101.5z" />
    <glyph glyph-name="Q" unicode="Q" horiz-adv-x="1329" 
d="M520 -113q-100 0 -235 -141l-25 23q143 172 293 215q-212 48 -343.5 244t-131.5 503q0 306 126 462.5t233.5 211.5t229.5 55t229.5 -54t232 -210t124.5 -469q0 -312 -151 -518t-367 -234q66 -27 115 -79t93 -104t85 -92t87 -40t46 49q0 20 -14 34.5t-45 43.5t-31 71
t27.5 74.5t75.5 32.5t80 -39t32 -92q0 -103 -81.5 -171.5t-190.5 -68.5t-174.5 46.5t-118.5 100.5t-100.5 100t-100.5 46zM716.5 8q124.5 0 204.5 165.5t80 539.5q0 557 -131 632.5t-256 75.5t-205.5 -164.5t-80.5 -541.5q0 -556 132 -631.5t256.5 -75.5z" />
    <glyph glyph-name="R" unicode="R" horiz-adv-x="1255" 
d="M1122 -12q-149 0 -196.5 57t-59.5 203l-16 194q-12 154 -64.5 204t-203.5 50h-119v-528q0 -68 33.5 -102.5t144.5 -38.5v-27h-588v27q113 4 150 39.5t37 101.5v1094q0 66 -37 101.5t-150 39.5v24h565q256 0 377 -95.5t121 -250.5q0 -212 -135 -279t-238 -83v-6
q184 -11 255.5 -99t91.5 -262l12 -100q20 -142 47 -171.5t61.5 -36.5t89.5 -7v-23q-98 -26 -178 -26zM598 735q162 0 220.5 84t58.5 246t-69 241.5t-233 79.5h-112v-651h135z" />
    <glyph glyph-name="S" unicode="S" horiz-adv-x="1030" 
d="M94 -37v508h31q92 -217 188.5 -338t223.5 -121t194.5 78.5t67.5 169.5t-23.5 142t-80 103t-228.5 122q-66 29 -209 97.5t-143 295.5q0 197 119.5 316.5t304.5 119.5q143 0 266 -65l61 77h27v-458h-31q-82 219 -166 313t-183 94t-163.5 -67t-64.5 -185q0 -171 123.5 -234
t191.5 -91q170 -69 261 -155t91 -259t-106 -314t-338 -141q-133 0 -283 90l-104 -98h-27z" />
    <glyph glyph-name="T" unicode="T" horiz-adv-x="1230" 
d="M506 168v1218h-62q-96 0 -179 -99t-171 -312l-31 2l13 450h1083l10 -450l-28 -2q-86 205 -169 308t-181 103h-64v-1218q0 -66 44 -101.5t161 -39.5v-27h-629v27q117 4 160 39.5t43 101.5z" />
    <glyph glyph-name="U" unicode="U" horiz-adv-x="1351" 
d="M440 420q0 -385 340 -385q219 0 265.5 149.5t46.5 266.5v651q0 144 -49 213t-181 88v24h479v-24q-122 -23 -161 -88.5t-39 -212.5v-670q0 -337 -163 -401t-280 -64q-233 0 -357 107.5t-124 320.5v867q0 66 -37 101.5t-149 39.5v24h581v-24q-146 -5 -159 -57t-13 -84v-842
z" />
    <glyph glyph-name="V" unicode="V" horiz-adv-x="1243" 
d="M-16 1427h585v-24q-125 -8 -151.5 -47t0.5 -129l299 -977h8l274 872q40 141 17 199t-142 82v24h410v-24q-90 -20 -138 -81t-108 -235l-360 -1118h-94l-389 1221q-36 114 -66.5 146t-63 45.5t-81.5 21.5v24z" />
    <glyph glyph-name="W" unicode="W" horiz-adv-x="1800" 
d="M662 1427h546v-24q-107 -8 -132 -43.5t-1 -130.5l244 -938h8l215 821q39 147 10 207t-141 84v24h418v-24q-97 -20 -145 -83t-97 -230l-299 -1121h-94l-272 975l-308 -975h-96l-328 1223q-27 110 -58.5 143t-64 46.5t-81.5 21.5v24h551v-24q-102 -8 -123 -49t0 -125
l237 -942h8l240 741l-41 164q-32 121 -62 152.5t-59.5 42t-74.5 16.5v24z" />
    <glyph glyph-name="X" unicode="X" horiz-adv-x="1243" 
d="M780 1427h449v-24q-98 -15 -163 -73t-163 -214l-194 -319l331 -602q51 -91 89 -119.5t145 -48.5v-27h-586v27q117 8 135.5 46t-24.5 122l-228 434l-204 -342q-134 -232 79 -260v-27h-448v27q98 16 147.5 58t88 93t90.5 133l219 357l-307 567q-46 86 -87.5 117.5
t-148.5 50.5v24h586v-24q-113 -8 -131.5 -53t22.5 -123l203 -389l182 303q135 231 -82 262v24z" />
    <glyph glyph-name="Y" unicode="Y" horiz-adv-x="1191" 
d="M813 1427h412v-24q-93 -21 -147.5 -72t-127.5 -194l-245 -502v-467q0 -66 36.5 -101.5t153.5 -39.5v-27h-600v27q119 4 154.5 39.5t35.5 101.5v442l-305 629q-36 78 -77 113t-121 51v24h577v-24q-123 -12 -147 -50t14 -120l254 -539l221 453q63 133 51 171t-45 55.5
t-94 29.5v24z" />
    <glyph glyph-name="Z" unicode="Z" horiz-adv-x="1144" 
d="M522 1386q-101 0 -187.5 -92t-197.5 -323l-31 4l31 452h946v-26l-761 -1360h342q104 0 183 90t204 346l32 -4l-28 -473h-996l-2 27l764 1359h-299z" />
    <glyph glyph-name="bracketleft" unicode="[" horiz-adv-x="661" 
d="M174 1565h524v-43h-346v-1817h346v-43h-524v1903z" />
    <glyph glyph-name="backslash" unicode="\" horiz-adv-x="794" 
d="M367 543l-371 985h61l363 -985l371 -983h-60z" />
    <glyph glyph-name="bracketright" unicode="]" horiz-adv-x="661" 
d="M-37 -295h346v1817h-346v43h526v-1903h-526v43z" />
    <glyph glyph-name="asciicircum" unicode="^" horiz-adv-x="632" 
d="M301 1561h39l260 -465h-51l-232 274l-231 -274h-51z" />
    <glyph glyph-name="underscore" unicode="_" horiz-adv-x="784" 
d="M-4 63h792v-63h-792v63z" />
    <glyph glyph-name="grave" unicode="`" horiz-adv-x="432" 
d="M45 1418q0 32 26.5 58.5t69.5 26.5t66.5 -41t56.5 -145l78 -234h-37l-151 162q-59 68 -84 104.5t-25 68.5z" />
    <glyph glyph-name="a" unicode="a" horiz-adv-x="874" 
d="M396 86q92 0 157 104v320q-160 -38 -218.5 -94.5t-58.5 -147.5q0 -90 32 -136t88 -46zM297 -12q-111 0 -171 65t-60 145q0 154 99 216t233 93.5t155 41.5v149q0 117 -36 168.5t-119 51.5t-130 -56q49 -53 49 -108t-28.5 -89t-80.5 -34t-81 35.5t-29 83.5q0 92 92 149
t248 57t235 -67.5t79 -220.5v-490q0 -78 26.5 -103.5t104.5 3.5l8 -21q-95 -67 -170 -67q-74 0 -112 34.5t-48 114.5h-6q-113 -151 -258 -151z" />
    <glyph glyph-name="b" unicode="b" horiz-adv-x="966" 
d="M483 881q-80 0 -166 -95v-600q29 -84 78 -123.5t173 -39.5t124 460q0 180 -52 289t-157 109zM117 1329q0 53 -23.5 78t-113.5 27v24l337 10v-637q117 130 268 130t236.5 -128.5t85.5 -339.5q0 -210 -104 -359.5t-273 -149.5t-288 98l-101 -111h-28l4 185v1173z" />
    <glyph glyph-name="c" unicode="c" horiz-adv-x="825" 
d="M486 924q-92 0 -154 -114t-62 -308t67 -316.5t198 -122.5q76 0 132 45.5t109 127.5l25 -17q-53 -100 -136 -167.5t-216 -67.5q-176 0 -285 133t-109 347t122.5 355.5t307.5 141.5q142 0 221.5 -65t79.5 -148q0 -53 -27.5 -91.5t-81.5 -38.5t-85 34t-31 82q0 86 62 124
q-45 66 -137 66z" />
    <glyph glyph-name="d" unicode="d" horiz-adv-x="970" 
d="M270 486q0 -196 54 -307t165 -111q53 0 87 23.5t63 58.5v679q-61 91 -162 91q-100 0 -153.5 -119t-53.5 -315zM643 104q-102 -120 -252 -120t-243 133t-93 346t113.5 355.5t292.5 142.5q104 0 178 -46v414q0 53 -23.5 78t-113.5 27v24l338 10v-1366q0 -39 24.5 -59
t100.5 -20v-23l-322 -8v112z" />
    <glyph glyph-name="e" unicode="e" horiz-adv-x="860" 
d="M446 924q-164 0 -176 -379h330q12 168 -23 273.5t-131 105.5zM270 508v-29q0 -186 70.5 -301t200.5 -115q80 0 138 48.5t107 134.5l25 -17q-51 -104 -134 -174.5t-195 -70.5q-203 0 -315 133.5t-112 346.5q0 212 117.5 354.5t288.5 142.5q172 0 266 -131.5t82 -321.5
h-539z" />
    <glyph glyph-name="f" unicode="f" horiz-adv-x="587" 
d="M530 1309q0 58 35 104q-25 31 -69 31t-69 -32q-52 -64 -52 -267v-205h225v-59h-225v-775q0 -51 33.5 -65t130.5 -16v-25h-488v25q76 2 99.5 16t23.5 63v775h-149v24l149 41v72q0 249 98 356q98 108 229 108q130 0 190.5 -49t60.5 -109t-29 -93t-76 -33t-82 27.5t-35 85.5
z" />
    <glyph glyph-name="g" unicode="g" horiz-adv-x="839" 
d="M74 635q0 141 100.5 231t245.5 90q82 0 164 -38q71 161 182 161q51 0 77.5 -28.5t26.5 -67.5t-21 -64.5t-55 -25.5t-59.5 26.5t-25.5 75.5q-49 -13 -93 -94q146 -91 146 -246t-103 -244t-206 -89t-166 22q-90 -43 -90 -96q0 -31 31.5 -54.5t136.5 -23.5h141
q164 0 247 -57.5t83 -191.5t-118.5 -227t-306.5 -93t-285 55t-97 135t56 133t157 70v6q-84 29 -118 71t-34 97q0 115 154 192q-170 83 -170 275zM561 639q0 283 -151 283q-74 0 -106 -70t-32 -213q0 -283 152 -283q74 0 105.5 70t31.5 213zM709 -152q0 140 -228 140h-190
q-121 -47 -121 -158q0 -86 63.5 -141.5t191.5 -55.5t206 57.5t78 157.5z" />
    <glyph glyph-name="h" unicode="h" horiz-adv-x="993" 
d="M526 852q-109 0 -186 -166v-582q0 -49 22.5 -63t79.5 -16v-25h-424v25q74 2 98.5 16t24.5 63v1225q0 53 -23.5 78t-115.5 27v24l338 10v-727q121 213 303 213q217 0 217 -260v-590q0 -49 23.5 -63t99.5 -16v-25h-426v25q59 2 82 16t23 63v547q0 98 -31 149.5t-105 51.5z
" />
    <glyph glyph-name="i" unicode="i" horiz-adv-x="522" 
d="M168 104v707q0 47 -24.5 73.5t-102.5 28.5v25l328 10v-844q0 -49 23.5 -63t103.5 -16v-25h-455v25q76 2 101.5 16t25.5 63zM260 1124q-55 0 -89 35t-34 94.5t34 98.5t89 39t89 -37t34 -96.5t-34 -96.5t-89 -37z" />
    <glyph glyph-name="j" unicode="j" horiz-adv-x="509" 
d="M76 -365q94 0 94 191v985q0 47 -28.5 74.5t-114.5 27.5v25l344 10v-901q0 -145 -20.5 -226t-68.5 -132q-82 -88 -203 -88q-122 0 -180.5 42t-58.5 101t33 92t80 33t75.5 -31t28.5 -83t-45 -95q25 -25 64 -25zM262 1124q-55 0 -89 35t-34 94.5t34 98.5t89 39t88 -37
t33 -96.5t-33 -96.5t-88 -37z" />
    <glyph glyph-name="k" unicode="k" horiz-adv-x="942" 
d="M344 104q0 -49 20.5 -63t67.5 -16v-25h-414v25q76 2 100.5 16t24.5 63v1225q0 53 -24.5 78t-114.5 27v24l340 10v-1028l252 301q117 143 -59 181v22h383v-24q-76 -12 -133.5 -52.5t-143.5 -138.5l-94 -106l258 -441q58 -98 86.5 -123.5t89.5 -33.5v-25h-428v25
q68 8 77 35.5t-22 80.5l-190 332l-76 -88v-281z" />
    <glyph glyph-name="l" unicode="l" horiz-adv-x="522" 
d="M162 104v1225q0 53 -23.5 78t-113.5 27v24l337 10v-1364q0 -49 24 -63t101 -16v-25h-448v25q76 2 99.5 16t23.5 63z" />
    <glyph glyph-name="m" unicode="m" horiz-adv-x="1501" 
d="M1169 651q0 201 -112 201t-193 -147v-601q0 -49 21.5 -63t87.5 -16v-25h-408v25q57 2 78 16t21 63v547q0 98 -30 149.5t-99 51.5q-100 0 -177 -166v-582q0 -49 17.5 -63t75.5 -16v-25h-416v25q76 2 99.5 16t23.5 63v707q0 47 -22.5 73.5t-100.5 28.5v25l319 10v-207
q117 213 299 213t207 -196q55 92 133 144t164 52q213 0 213 -260v-590q0 -49 23.5 -63t99.5 -16v-25h-416v25q57 2 74.5 16t17.5 63v547z" />
    <glyph glyph-name="n" unicode="n" horiz-adv-x="1009" 
d="M545 852q-110 0 -187 -166v-582q0 -49 22.5 -63t80.5 -16v-25h-426v25q76 2 99.5 16t23.5 63v705q0 47 -22.5 74.5t-100.5 29.5v25l319 10v-207q121 213 308 213q104 0 159.5 -65.5t55.5 -194.5v-590q0 -49 23.5 -63t98.5 -16v-25h-424v25q57 2 79 16t22 63v549
q0 98 -29 148.5t-102 50.5z" />
    <glyph glyph-name="o" unicode="o" horiz-adv-x="946" 
d="M478 20q99 0 145.5 106.5t46.5 346.5q0 355 -78 403t-126 48q-99 0 -145.5 -104t-46.5 -347q0 -354 78 -403.5t126 -49.5zM57 470q0 216 122.5 353.5t297.5 137.5t293.5 -135t118.5 -351t-121.5 -353.5t-295.5 -137.5q-181 0 -298 135t-117 351z" />
    <glyph glyph-name="p" unicode="p" horiz-adv-x="974" 
d="M483.5 879q-71.5 0 -151.5 -105v-604q29 -84 73 -115.5t103 -31.5q195 0 194 450q0 286 -73.5 346t-145 60zM332 -274q0 -49 31.5 -64.5t130.5 -17.5v-25h-486v25q76 4 99.5 17t23.5 63v1087q0 47 -23.5 73.5t-99.5 28.5v25l320 10v-131q120 144 269 144t235 -130.5
t86 -345.5t-104.5 -358t-287.5 -143q-99 0 -194 55v-313z" />
    <glyph glyph-name="q" unicode="q" horiz-adv-x="964" 
d="M485 68q78 0 160 86v602q-55 168 -168 168q-154 0 -180.5 -180.5t-26.5 -282.5q0 -174 54.5 -283.5t160.5 -109.5zM846 -279q0 -47 23.5 -61t99.5 -16v-25h-488v25q98 2 131 16t33 61v385q-122 -122 -268.5 -122t-234 130.5t-87.5 337.5t111 358t287 151q146 0 268 -101
l100 111h29l-4 -185v-1065z" />
    <glyph glyph-name="r" unicode="r" horiz-adv-x="741" 
d="M596 961q74 0 108.5 -43.5t34.5 -99.5t-31.5 -92t-81.5 -36t-82 33t-32 76t10 69q-88 -18 -164 -176v-586q0 -51 30 -65t120 -16v-25h-473v25q76 2 99.5 16t23.5 63v707q0 47 -22.5 73.5t-100.5 28.5v25l319 10v-198q103 211 242 211z" />
    <glyph glyph-name="s" unicode="s" horiz-adv-x="747" 
d="M364 961q128 0 209 -60l45 60h27v-302h-31q-80 148 -119.5 192t-70.5 58.5t-80 14.5t-90 -43t-41 -115t58.5 -111t136.5 -67q157 -56 218.5 -115.5t61.5 -182.5t-81 -214.5t-224 -91.5q-49 0 -116.5 20.5t-108.5 50.5l-64 -71h-26v333h32q90 -168 138.5 -218t84 -64.5
t93.5 -14.5t96.5 51t38.5 121t-54.5 114t-142.5 74q-159 55 -221.5 111.5t-62.5 179.5q0 122 83 206t211 84z" />
    <glyph glyph-name="t" unicode="t" horiz-adv-x="626" 
d="M465 66q81 0 139 131l27 -15q-80 -200 -246 -200q-104 0 -162.5 60t-58.5 202v635h-162v22l164 43v260l199 74v-338h251v-59h-251v-662q0 -86 24.5 -119.5t75.5 -33.5z" />
    <glyph glyph-name="u" unicode="u" horiz-adv-x="993" 
d="M139 250v565q0 47 -23.5 72.5t-99.5 27.5v25l324 8v-655q0 -98 30.5 -149.5t104.5 -51.5q106 0 180 162v561q0 47 -24.5 72.5t-98.5 27.5v25l324 8v-844q0 -41 23.5 -59t99.5 -20v-25h-320v199q-118 -211 -294 -211q-106 0 -166 66.5t-60 195.5z" />
    <glyph glyph-name="v" unicode="v" horiz-adv-x="870" 
d="M317 848q0 -29 15 -72l178 -565h8l152 446q37 118 37 163q0 46 -31 67.5t-90 32.5v24h317v-24q-97 -14 -153 -177l-269 -757h-88l-266 776q-29 86 -58.5 118.5t-93.5 39.5v24h445v-24q-103 -7 -103 -72z" />
    <glyph glyph-name="w" unicode="w" horiz-adv-x="1318" 
d="M313 844q0 -23 11 -60l176 -569h8l156 436l-31 111q-24 89 -52.5 121.5t-86.5 36.5v24h426v-24q-103 -7 -103 -76q0 -27 8 -60l154 -563h8l127 436q31 109 31 158t-29 71.5t-88 33.5v24h324v-24q-49 -6 -93.5 -47.5t-70.5 -129.5l-232 -757h-94l-178 594l-213 -594h-90
l-252 776q-28 89 -60.5 121.5t-91.5 36.5v24h435v-24q-99 -7 -99 -76z" />
    <glyph glyph-name="x" unicode="x" horiz-adv-x="903" 
d="M553 944h352v-24q-74 -12 -126 -56.5t-122 -148.5l-131 -187l224 -364q51 -80 79 -103.5t91 -35.5v-25h-437v25q84 12 92.5 37.5t-24.5 80.5l-145 254l-109 -159q-66 -100 -52.5 -148.5t105.5 -64.5v-25h-354v25q70 13 117 53t123 149l145 207l-211 348q-47 73 -78.5 100
t-97.5 38v24h436v-24q-80 -12 -86 -38t25 -79l133 -238l94 140q63 98 52 148t-95 67v24z" />
    <glyph glyph-name="y" unicode="y" horiz-adv-x="872" 
d="M252 -260q0 -55 -35 -90q52 5 99 66t104 221l16 47l-307 778q-31 84 -63 116t-97 42v24h453v-24q-78 -6 -94.5 -39t6.5 -95l194 -544l150 426q47 133 26.5 185.5t-116.5 66.5v24h321v-24q-95 -13 -155 -181l-295 -819q-96 -270 -166.5 -294.5t-122.5 -24.5t-91.5 41
t-39.5 93t27.5 90t76.5 38t79 -34t30 -89z" />
    <glyph glyph-name="z" unicode="z" horiz-adv-x="833" 
d="M397 903q-108 0 -172.5 -103.5t-107.5 -185.5l-29 4l23 326h680l2 -26l-521 -877h189q80 0 143 66t146 235l30 -4l-24 -338h-707l-2 27l520 876h-170z" />
    <glyph glyph-name="braceleft" unicode="{" horiz-adv-x="749" 
d="M311 61q0 46 16.5 156t16.5 155q0 110 -61.5 169.5t-229.5 74.5v33q169 15 230 71.5t61 176.5q0 55 -16.5 135t-16.5 156q0 188 119 278t344 99v-27q-149 -15 -201.5 -95t-52.5 -239l8 -237q0 -158 -79.5 -230t-284.5 -100v-10q202 -24 283 -101t81 -235l-8 -248
q0 -161 51.5 -244t202.5 -98v-27q-225 2 -344 99.5t-119 287.5z" />
    <glyph glyph-name="bar" unicode="|" horiz-adv-x="536" 
d="M242 1528h53v-1968h-53v1968z" />
    <glyph glyph-name="braceright" unicode="}" horiz-adv-x="749" 
d="M438 1188q0 -76 -16 -156t-16 -136q0 -120 61.5 -176t228.5 -71v-33q-242 -22 -266 -110t-24 -130q0 -49 16 -156t16 -159q0 -190 -118.5 -287.5t-344.5 -99.5v27q154 15 204 95.5t50 246.5l-8 248q0 157 80.5 233.5t284.5 102.5v10q-206 28 -285.5 101.5t-79.5 228.5
l8 237q0 164 -51 241.5t-203 92.5v27q225 -8 344 -98.5t119 -278.5z" />
    <glyph glyph-name="asciitilde" unicode="~" horiz-adv-x="706" 
d="M197 690q-53 0 -82 -121h-37q14 141 53 203t117 62q43 0 109.5 -38t98 -55.5t56.5 -17.5q56 0 82 121h39q-14 -141 -54 -202.5t-118 -61.5q-48 0 -111 37.5t-96 55t-57 17.5z" />
    <glyph glyph-name="uni00A0" unicode="&#xa0;" horiz-adv-x="325" 
 />
    <glyph glyph-name="exclamdown" unicode="&#xa1;" horiz-adv-x="491" 
d="M244 -31q-123 0 -123 162q0 94 45.5 394t62.5 530h31q19 -256 63 -546.5t44 -377.5q0 -162 -123 -162zM243 1210q-56 0 -91 40t-35 95.5t35.5 95.5t91.5 40t92.5 -40t36.5 -95.5t-37 -95.5t-93 -40z" />
    <glyph glyph-name="cent" unicode="&#xa2;" horiz-adv-x="942" 
d="M313 512q0 -362 183 -432v835q-82 -25 -132.5 -130t-50.5 -273zM584 63q137 0 254 173l24 -17q-53 -92 -125.5 -157.5t-187.5 -75.5v-164h-53v162q-183 4 -290.5 138t-107.5 338.5t112 343t286 154.5v144h53v-141q138 -4 226.5 -76t88.5 -160q0 -53 -26.5 -92t-79.5 -39
t-83 34t-30 83q0 78 64 125q-18 35 -60.5 60.5t-99.5 27.5v-858q12 -3 35 -3z" />
    <glyph glyph-name="sterling" unicode="&#xa3;" horiz-adv-x="1071" 
d="M192 -27q-118 -1 -118 119q0 58 66.5 107t178.5 49h17q16 0 29 -2q20 58 20 138t-25.5 152t-58.5 142h-205v43h187q-66 144 -66 249q0 196 116.5 304t305.5 108q140 0 234 -73t94 -183q0 -59 -32 -102t-89 -43t-92 37t-35 114t82 130q-66 84 -163 84t-155.5 -64.5
t-58.5 -183.5t34 -205t64 -172h305v-43h-290q24 -84 24 -148q0 -165 -149 -292q82 -16 171 -41t163 -25t145.5 22t87.5 212l35 -3q0 -199 -70 -314.5t-194 -115.5q-156 0 -369 220q-29 -102 -79 -161t-110 -59z" />
    <glyph glyph-name="yen" unicode="&#xa5;" horiz-adv-x="1214" 
d="M145 680h304l-234 487q-37 76 -76 110t-116 54v27h561v-27q-165 -11 -152.5 -71t29.5 -97l227 -508l178 379q66 144 48.5 207t-130.5 90v27h402v-27q-78 -18 -135.5 -78.5t-116.5 -187.5l-182 -385h311v-45h-332l-20 -43v-113h352v-45h-352v-264q0 -72 39 -105.5
t153 -37.5v-27h-600v27q160 5 175.5 57.5t15.5 85.5v264h-349v45h349v109l-23 47h-326v45z" />
    <glyph glyph-name="brokenbar" unicode="&#xa6;" horiz-adv-x="536" 
d="M295 397v-837h-53v837h53zM242 690v838h53v-838h-53z" />
    <glyph glyph-name="section" unicode="&#xa7;" horiz-adv-x="1001" 
d="M760 502q0 74 -63.5 122t-140.5 78t-109.5 45t-55.5 25q-139 -59 -139 -163t109.5 -153.5t166.5 -71.5t95 -42q70 31 103.5 74t33.5 86zM346 -43q0 -79 -74 -121q23 -35 82.5 -58.5t154.5 -23.5t155.5 53.5t60.5 132.5t-60 133t-227 122q-167 73 -219.5 118t-72 90
t-19.5 121t58.5 150t162.5 117v4q-90 47 -142 107.5t-52 145.5q0 158 103 246t249 88t242 -63.5t96 -155.5q0 -55 -28 -90t-79 -35t-79.5 34t-28.5 81q0 81 65 113q-16 27 -60 51t-130 24t-146.5 -49t-60.5 -127t58.5 -127t180.5 -101t178 -82t111.5 -83.5t55.5 -167.5
q0 -188 -211 -282v-5q96 -49 143 -112.5t47 -161.5q0 -145 -96 -237.5t-263 -92.5t-274.5 63t-107.5 143.5t29.5 119.5t83.5 39t84 -36t30 -85z" />
    <glyph glyph-name="dieresis" unicode="&#xa8;" horiz-adv-x="665" 
d="M161 1094q-50 0 -82 36.5t-32 92t32 92.5t83 37t82.5 -37t31.5 -92.5t-32.5 -92t-82.5 -36.5zM503 1094q-50 0 -82 36.5t-32 92t32 92.5t83 37t81.5 -37t30.5 -92.5t-31.5 -92t-81.5 -36.5z" />
    <glyph glyph-name="copyright" unicode="&#xa9;" horiz-adv-x="1443" 
d="M766 1137q88 0 158 -56l39 58h22v-295h-29q-47 133 -96 196.5t-125 63.5t-128 -95.5t-52 -280.5t64.5 -277.5t145.5 -92.5t131 51.5t85 145.5l31 -12q-81 -238 -281 -238q-154 0 -245 106.5t-91 296.5t104 309.5t267 119.5zM721 -14q135 0 247.5 57t193.5 156.5
t126 232.5t45 282.5t-45 281.5t-126 231.5t-193.5 157t-247.5 57.5t-247 -57.5t-193.5 -157t-126.5 -231.5t-45 -281.5t45 -282.5t126.5 -232.5t193.5 -156.5t247 -57zM721 -49q-141 0 -261 57.5t-257 216.5t-137 487q0 329 137 488.5t257 218t261 58.5t262 -58.5
t257 -218.5t136 -488q0 -327 -136 -486.5t-257 -217t-262 -57.5z" />
    <glyph glyph-name="ordfeminine" unicode="&#xaa;" horiz-adv-x="772" 
d="M348 762q63 0 105 76v237q-166 -39 -181.5 -95t-15.5 -93q0 -125 92 -125zM453 1225q0 157 -94 157q-88 0 -117 -36q39 -44 39 -85q0 -42 -24 -69t-65 -27t-63.5 29t-22.5 66q0 68 72 112.5t194 44.5t182 -51t60 -168v-371q0 -57 19.5 -77.5t77.5 2.5l8 -19
q-78 -51 -135 -51q-110 0 -121 113h-6q-88 -115 -188 -115q-101 0 -144 52t-43 112q0 118 82 168q53 36 129 54.5t109.5 26t50.5 15.5v117z" />
    <glyph glyph-name="guillemotleft" unicode="&#xab;" horiz-adv-x="894" 
d="M94 408q-35 40 -35 53q0 12 35 49l334 350l27 -18l-222 -383l222 -383l-27 -17zM455 408q-37 37 -37 53t37 49l333 350l27 -18l-223 -383l223 -383l-27 -17z" />
    <glyph glyph-name="registered" unicode="&#xae;" horiz-adv-x="735" 
d="M487 1001q-32 0 -45.5 15.5t-15.5 50.5l-2 37q0 41 -14.5 55.5t-49.5 14.5h-24v-127q0 -14 8 -20.5t35 -6.5v-14h-154v14q43 0 43 27v268q0 14 -8 19t-35 5v17h144q133 0 133 -86q0 -67 -90 -82v-6q43 -4 60 -22.5t22 -53.5l4 -47q2 -23 12 -31t33 -8v-14q-24 -5 -56 -5z
M362 1190q41 0 54.5 19.5t13.5 58.5t-15.5 55t-56.5 16h-22v-149h26zM366.5 866q59.5 0 107.5 23.5t83 65.5t53.5 97.5t18.5 119t-18.5 119t-53.5 95t-83 63.5t-107.5 24t-107.5 -24t-82 -63.5t-52.5 -95t-18.5 -119t18.5 -119t52.5 -97.5t82 -65.5t107.5 -23.5zM366.5 844
q-63.5 0 -116.5 24.5t-92 67.5t-60.5 103.5t-21.5 132t21.5 132t60.5 103.5t92 66.5t116.5 23.5t118 -23.5t93 -66.5t60 -103.5t21.5 -132t-21.5 -132t-60 -103.5t-93 -67.5t-118 -24.5z" />
    <glyph glyph-name="macron" unicode="&#xaf;" horiz-adv-x="575" 
d="M45 1233h487v-88h-487v88z" />
    <glyph glyph-name="degree" unicode="&#xb0;" horiz-adv-x="696" 
d="M309.5 1427q-100.5 0 -100.5 -253q0 -133 38.5 -197t102.5 -64q134 0 135 256q0 131 -37.5 194.5t-138 63.5zM153.5 1379q75.5 87 195.5 87t194.5 -82.5t74.5 -209.5t-76 -213.5t-195 -86.5t-194 86t-75 209t75.5 210z" />
    <glyph glyph-name="plusminus" unicode="&#xb1;" horiz-adv-x="954" 
d="M104 45h748v-45h-748v45zM104 688h349v395h53v-395h346v-45h-346v-401h-53v401h-349v45z" />
    <glyph glyph-name="acute" unicode="&#xb4;" horiz-adv-x="432" 
d="M281 1503q43 0 69.5 -26.5t26.5 -58.5t-24.5 -68.5t-84.5 -104.5l-151 -162h-37l78 234q33 104 56.5 145t66.5 41z" />
    <glyph glyph-name="paragraph" unicode="&#xb6;" horiz-adv-x="1183" 
d="M243.5 1221q147.5 137 413.5 137h459v-25q-122 -8 -152 -29.5t-38 -44t-8 -55.5v-1405h-52v1518h-161v-1518h-56v578q-247 8 -400 136.5t-153 349.5t147.5 358z" />
    <glyph glyph-name="periodcentered" unicode="&#xb7;" horiz-adv-x="423" 
d="M211 535q-55 0 -91 39.5t-36 95t37 95.5t92 40t91 -39t36 -95t-37 -96t-92 -40z" />
    <glyph glyph-name="cedilla" unicode="&#xb8;" horiz-adv-x="503" 
d="M216 -483q-97 0 -169 61l21 27q59 -47 114 -47q105 0 105 110q0 53 -33 83t-73 30t-75 -10l-12 16l193 209h49l-121 -137l4 -9q102 0 151.5 -47t49.5 -117t-53.5 -119.5t-150.5 -49.5z" />
    <glyph glyph-name="ordmasculine" unicode="&#xba;" horiz-adv-x="786" 
d="M397 709q74 0 108 76.5t34 261t-38 260t-113 75.5t-107.5 -75.5t-32.5 -258.5t37.5 -261t111.5 -78zM72 1004q0 124 24.5 193t68.5 118t103.5 75.5t162 26.5t193.5 -102t91 -266t-91.5 -268.5t-229.5 -104.5q-140 0 -231 102t-91 226z" />
    <glyph glyph-name="guillemotright" unicode="&#xbb;" horiz-adv-x="894" 
d="M440 510q35 -35 35 -52t-35 -50l-334 -351l-26 19l223 383l-223 385l26 16zM801 510q35 -40 35 -52t-35 -50l-334 -351l-27 19l222 383l-222 385l27 16z" />
    <glyph glyph-name="questiondown" unicode="&#xbf;" horiz-adv-x="860" 
d="M151 73.5q-112 104.5 -112 265.5t109.5 269.5t318.5 155.5v291h55v-318q-147 -41 -206.5 -135t-59.5 -263q0 -333 219 -333q72 0 126 35t75 78q-51 18 -79 58t-28 91t33 94.5t94.5 43.5t98 -45.5t36.5 -106.5t-29.5 -114.5t-108 -112t-254.5 -58.5t-288 104.5zM491 1210
q-56 0 -91 40t-35 95.5t35.5 95.5t91 40t92.5 -40t37 -95.5t-37 -95.5t-93 -40z" />
    <glyph glyph-name="Agrave" unicode="&#xc0;" horiz-adv-x="1204" 
d="M389 1906q0 32 26.5 58.5t69.5 26.5t66.5 -41t56.5 -146l78 -233h-37l-151 162q-59 68 -84 104.5t-25 68.5zM705 573l-179 619h-8l-196 -619h383zM362 0h-411v27q89 24 140.5 89.5t105.5 225.5l368 1120h101l374 -1231q33 -115 61.5 -144.5t61.5 -40.5t84 -19v-27h-588
v27q125 8 153 43.5t3 128.5l-98 333h-408l-59 -182q-54 -173 -37.5 -222.5t52.5 -69t97 -31.5v-27z" />
    <glyph glyph-name="Aacute" unicode="&#xc1;" horiz-adv-x="1204" 
d="M756 1991q43 0 69.5 -26.5t26.5 -58.5t-24.5 -69t-84.5 -104l-151 -162h-37l78 233q33 104 56.5 145.5t66.5 41.5zM705 573l-179 619h-8l-196 -619h383zM362 0h-411v27q89 24 140.5 89.5t105.5 225.5l368 1120h101l374 -1231q33 -115 61.5 -144.5t61.5 -40.5t84 -19v-27
h-588v27q125 8 153 43.5t3 128.5l-98 333h-408l-59 -182q-54 -173 -37.5 -222.5t52.5 -69t97 -31.5v-27z" />
    <glyph glyph-name="Acircumflex" unicode="&#xc2;" horiz-adv-x="1204" 
d="M600 1956h35l225 -387h-37l-209 186l-211 -186h-36zM705 573l-179 619h-8l-196 -619h383zM362 0h-411v27q89 24 140.5 89.5t105.5 225.5l368 1120h101l374 -1231q33 -115 61.5 -144.5t61.5 -40.5t84 -19v-27h-588v27q125 8 153 43.5t3 128.5l-98 333h-408l-59 -182
q-54 -173 -37.5 -222.5t52.5 -69t97 -31.5v-27z" />
    <glyph glyph-name="Atilde" unicode="&#xc3;" horiz-adv-x="1204" 
d="M453 1690q-56 0 -86 -121h-37q14 141 53 201.5t115 60.5q48 0 115 -37t101 -53.5t58 -16.5q56 0 86 121h35q-14 -141 -53 -201.5t-101 -60.5t-128 37t-100 53.5t-58 16.5zM705 573l-179 619h-8l-196 -619h383zM362 0h-411v27q89 24 140.5 89.5t105.5 225.5l368 1120h101
l374 -1231q33 -115 61.5 -144.5t61.5 -40.5t84 -19v-27h-588v27q125 8 153 43.5t3 128.5l-98 333h-408l-59 -182q-54 -173 -37.5 -222.5t52.5 -69t97 -31.5v-27z" />
    <glyph glyph-name="Adieresis" unicode="&#xc4;" horiz-adv-x="1204" 
d="M441 1581q-50 0 -81.5 37t-31.5 92t31.5 92t83 37t83 -37t31.5 -92t-33 -92t-83 -37zM783 1581q-50 0 -81.5 37t-31.5 92t31.5 92t83 37t82 -37t30.5 -92t-32 -92t-82 -37zM705 573l-179 619h-8l-196 -619h383zM362 0h-411v27q89 24 140.5 89.5t105.5 225.5l368 1120h101
l374 -1231q33 -115 61.5 -144.5t61.5 -40.5t84 -19v-27h-588v27q125 8 153 43.5t3 128.5l-98 333h-408l-59 -182q-54 -173 -37.5 -222.5t52.5 -69t97 -31.5v-27z" />
    <glyph glyph-name="Aring" unicode="&#xc5;" horiz-adv-x="1204" 
d="M526 1192h-8l-194 -619h381zM362 0h-411v27q89 24 140.5 89.5t105.5 225.5l358 1094q-70 16 -109.5 74t-39.5 138t55 145t151.5 65t151.5 -64t55 -144t-39 -137t-106 -77l15 -52q15 -51 42 -136t59 -192.5t90 -296.5t117 -386t74.5 -234t43.5 -66.5t132 -45.5v-27h-588
v27q125 8 153 43.5t3 128.5l-98 333h-408l-59 -182q-54 -173 -37.5 -222.5t52.5 -69t97 -31.5v-27zM518 1640q0 -182 94 -182t95 182q0 96 -21.5 140.5t-73 44.5t-73 -43t-21.5 -142z" />
    <glyph glyph-name="AE" unicode="&#xc6;" horiz-adv-x="1816" 
d="M834 1350h-11l-387 -734h398v734zM215 141q0 -49 27.5 -73.5t89.5 -40.5v-27h-410v27q94 29 170 110.5t152 227.5l454 845q31 61 31 90q0 76 -186 103v24h1128l6 -450l-30 -4q-89 236 -166.5 324.5t-227.5 88.5h-196v-630h80q113 0 170.5 58t93.5 214h29v-586h-29
q-49 230 -130 252.5t-134 22.5h-80v-676h190q182 0 273.5 97.5t175.5 338.5l28 -2l-6 -475h-1071v27q113 4 150 39.5t37 101.5v407h-418l-129 -241q-72 -144 -72 -193z" />
    <glyph glyph-name="Ccedilla" unicode="&#xc7;" 
d="M700 1460q175 0 304 -88l77 98h23v-497h-27q-82 219 -173 333.5t-220 114.5q-154 0 -255 -174.5t-101 -521.5t118 -515.5t272 -168.5t252.5 105.5t155.5 273.5l37 -17q-131 -406 -448 -434l-97 -110l5 -9q102 0 151 -47t49 -117t-53 -119.5t-150 -49.5t-169 61l20 27
q59 -47 115 -47q104 0 104 110q0 53 -33 83t-73 30t-74 -10l-12 16l166 180q-257 0 -422.5 197t-165.5 530q0 334 137 494t249.5 216t237.5 56z" />
    <glyph glyph-name="Egrave" unicode="&#xc8;" 
d="M410 1906q0 32 26.5 58.5t69.5 26.5t66.5 -41t56.5 -146l78 -233h-37l-152 162q-59 68 -83.5 104.5t-24.5 68.5zM240 168v1094q0 66 -37 101.5t-150 39.5v24h1022l8 -450l-30 -4q-89 236 -166.5 324.5t-227.5 88.5h-196v-630h80q113 0 170.5 58t93.5 214h29v-586h-29
q-49 230 -130 252.5t-134 22.5h-80v-676h190q179 0 271.5 97t177.5 339l31 -2l-11 -475h-1069v27q113 4 150 39.5t37 101.5z" />
    <glyph glyph-name="Eacute" unicode="&#xc9;" 
d="M240 168v1094q0 66 -37 101.5t-150 39.5v24h1022l8 -450l-30 -4q-89 236 -166.5 324.5t-227.5 88.5h-196v-630h80q113 0 170.5 58t93.5 214h29v-586h-29q-49 230 -130 252.5t-134 22.5h-80v-676h190q179 0 271.5 97t177.5 339l31 -2l-11 -475h-1069v27q113 4 150 39.5
t37 101.5zM776 1991q43 0 69.5 -26.5t26.5 -58.5t-24.5 -69t-83.5 -104l-152 -162h-37l78 233q33 104 56.5 145.5t66.5 41.5z" />
    <glyph glyph-name="Ecircumflex" unicode="&#xca;" 
d="M240 168v1094q0 66 -37 101.5t-150 39.5v24h1022l8 -450l-30 -4q-89 236 -166.5 324.5t-227.5 88.5h-196v-630h80q113 0 170.5 58t93.5 214h29v-586h-29q-49 230 -130 252.5t-134 22.5h-80v-676h190q179 0 271.5 97t177.5 339l31 -2l-11 -475h-1069v27q113 4 150 39.5
t37 101.5zM602 1958h35l225 -387h-37l-209 186l-210 -186h-37z" />
    <glyph glyph-name="Edieresis" unicode="&#xcb;" 
d="M240 168v1094q0 66 -37 101.5t-150 39.5v24h1022l8 -450l-30 -4q-89 236 -166.5 324.5t-227.5 88.5h-196v-630h80q113 0 170.5 58t93.5 214h29v-586h-29q-49 230 -130 252.5t-134 22.5h-80v-676h190q179 0 271.5 97t177.5 339l31 -2l-11 -475h-1069v27q113 4 150 39.5
t37 101.5zM458 1581q-50 0 -82 37t-32 92t32 92t83 37t82.5 -37t31.5 -92t-32.5 -92t-82.5 -37zM800 1581q-50 0 -82 37t-32 92t32 92t83 37t81.5 -37t30.5 -92t-31.5 -92t-81.5 -37z" />
    <glyph glyph-name="Igrave" unicode="&#xcc;" horiz-adv-x="733" 
d="M150 1906q0 32 26.5 58.5t69.5 26.5t66.5 -41t56.5 -146l77 -233h-36l-152 162q-59 68 -83.5 104.5t-24.5 68.5zM256 168v1094q0 66 -36 101.5t-154 39.5v24h602v-24q-119 -4 -155 -40t-36 -101v-1094q0 -66 36 -101.5t155 -39.5v-27h-602v27q119 4 154.5 39.5
t35.5 101.5z" />
    <glyph glyph-name="Iacute" unicode="&#xcd;" horiz-adv-x="733" 
d="M510 1991q43 0 69.5 -26.5t26.5 -58.5t-24.5 -69t-83.5 -104l-152 -162h-37l78 233q33 104 56.5 145.5t66.5 41.5zM256 168v1094q0 66 -36 101.5t-154 39.5v24h602v-24q-119 -4 -155 -40t-36 -101v-1094q0 -66 36 -101.5t155 -39.5v-27h-602v27q119 4 154.5 39.5
t35.5 101.5z" />
    <glyph glyph-name="Icircumflex" unicode="&#xce;" horiz-adv-x="733" 
d="M352 1958h35l225 -387h-37l-208 186l-211 -186h-37zM256 168v1094q0 66 -36 101.5t-154 39.5v24h602v-24q-119 -4 -155 -40t-36 -101v-1094q0 -66 36 -101.5t155 -39.5v-27h-602v27q119 4 154.5 39.5t35.5 101.5z" />
    <glyph glyph-name="Idieresis" unicode="&#xcf;" horiz-adv-x="733" 
d="M196 1581q-50 0 -82 37t-32 92t31.5 92t83 37t83 -37t31.5 -92t-32.5 -92t-82.5 -37zM538 1581q-50 0 -82 37t-32 92t31.5 92t83 37t82 -37t30.5 -92t-31.5 -92t-81.5 -37zM256 168v1094q0 66 -36 101.5t-154 39.5v24h602v-24q-119 -4 -155 -40t-36 -101v-1094
q0 -66 36 -101.5t155 -39.5v-27h-602v27q119 4 154.5 39.5t35.5 101.5z" />
    <glyph glyph-name="Eth" unicode="&#xd0;" horiz-adv-x="1343" 
d="M565 41q127 0 213 32.5t163 145t77 500.5q0 389 -85 499.5t-169 139t-195 28.5h-106v-616h239v-53h-239v-676h102zM240 168v549h-177v53h177v492q0 66 -37 101.5t-150 39.5v24h545q318 0 494 -190.5t176 -499.5t-165 -523t-482 -214h-568v27q113 4 150 39.5t37 101.5z
" />
    <glyph glyph-name="Ntilde" unicode="&#xd1;" horiz-adv-x="1372" 
d="M891 1724q56 0 86 121h35q-14 -141 -53 -201.5t-101 -60.5t-128 37t-100 53.5t-61 16.5q-52 0 -84 -121h-36q14 141 53 201.5t101 60.5t129 -37t100.5 -53.5t58.5 -16.5zM305 1194v-866q0 -150 43 -216t172 -85v-27h-471v27q119 23 163 87t44 214v835q0 104 -47 169
t-160 71v24h379l682 -1065h4v740q0 143 -48 211.5t-181 89.5v24h475v-24q-118 -23 -157.5 -89t-39.5 -212v-1122h-73l-783 1214h-2z" />
    <glyph glyph-name="Ograve" unicode="&#xd2;" horiz-adv-x="1329" 
d="M438 1906q0 32 27 58.5t69 26.5t66.5 -41t56.5 -146l78 -233h-37l-151 162q-59 68 -84 104.5t-25 68.5zM716.5 8q124.5 0 204.5 164t80 541q0 557 -131 632.5t-256 75.5t-205.5 -164.5t-80.5 -541.5q0 -556 132 -631.5t256.5 -75.5zM203 229q-125 153 -125 480t126 484
t233.5 212t229.5 55t229.5 -54t232 -210t124.5 -480t-172 -536.5t-416 -212.5q-122 0 -229.5 54.5t-232.5 207.5z" />
    <glyph glyph-name="Oacute" unicode="&#xd3;" horiz-adv-x="1329" 
d="M716.5 8q124.5 0 204.5 164t80 541q0 557 -131 632.5t-256 75.5t-205.5 -164.5t-80.5 -541.5q0 -556 132 -631.5t256.5 -75.5zM203 229q-125 153 -125 480t126 484t233.5 212t229.5 55t229.5 -54t232 -210t124.5 -480t-172 -536.5t-416 -212.5q-122 0 -229.5 54.5
t-232.5 207.5zM805 1991q43 0 69.5 -26.5t26.5 -58.5t-24.5 -69t-83.5 -104l-152 -162h-37l78 233q33 104 56.5 145.5t66.5 41.5z" />
    <glyph glyph-name="Ocircumflex" unicode="&#xd4;" horiz-adv-x="1329" 
d="M716.5 8q124.5 0 204.5 164t80 541q0 557 -131 632.5t-256 75.5t-205.5 -164.5t-80.5 -541.5q0 -556 132 -631.5t256.5 -75.5zM203 229q-125 153 -125 480t126 484t233.5 212t229.5 55t229.5 -54t232 -210t124.5 -480t-172 -536.5t-416 -212.5q-122 0 -229.5 54.5
t-232.5 207.5zM651 1958h35l225 -387h-37l-208 186l-211 -186h-37z" />
    <glyph glyph-name="Otilde" unicode="&#xd5;" horiz-adv-x="1329" 
d="M838 1724q54 0 86 121h34q-14 -141 -53 -201.5t-100 -60.5t-128 37t-100.5 53.5t-60.5 16.5q-52 0 -84 -121h-37q14 141 53 201.5t102 60.5t129 -37t100 -53.5t59 -16.5zM716.5 8q124.5 0 204.5 164t80 541q0 557 -131 632.5t-256 75.5t-205.5 -164.5t-80.5 -541.5
q0 -556 132 -631.5t256.5 -75.5zM203 229q-125 153 -125 480t126 484t233.5 212t229.5 55t229.5 -54t232 -210t124.5 -480t-172 -536.5t-416 -212.5q-122 0 -229.5 54.5t-232.5 207.5z" />
    <glyph glyph-name="Odieresis" unicode="&#xd6;" horiz-adv-x="1329" 
d="M716.5 8q124.5 0 204.5 164t80 541q0 557 -131 632.5t-256 75.5t-205.5 -164.5t-80.5 -541.5q0 -556 132 -631.5t256.5 -75.5zM203 229q-125 153 -125 480t126 484t233.5 212t229.5 55t229.5 -54t232 -210t124.5 -480t-172 -536.5t-416 -212.5q-122 0 -229.5 54.5
t-232.5 207.5zM493 1581q-50 0 -82 37t-32 92t31.5 92t83 37t83 -37t31.5 -92t-32.5 -92t-82.5 -37zM835 1581q-50 0 -82 37t-32 92t31.5 92t83 37t82 -37t30.5 -92t-31.5 -92t-81.5 -37z" />
    <glyph glyph-name="multiply" unicode="&#xd7;" horiz-adv-x="995" 
d="M852 1063l-322 -399l322 -398l-39 -30l-315 389l-314 -389l-37 30l320 398l-320 399l37 31l314 -392l315 392z" />
    <glyph glyph-name="Oslash" unicode="&#xd8;" horiz-adv-x="1329" 
d="M1006 713q0 234 -39 403l-586 -868q79 -240 281 -240q90 0 152.5 36t127 159t64.5 510zM666 1421q-91 0 -215.5 -72.5t-124.5 -633.5q0 -252 36 -406l586 871q-79 241 -282 241zM1075 1266q180 -210 180 -545t-173 -544.5t-416 -209.5q-213 0 -375 154l-129 -191h-66
l158 232q-178 208 -178 542q0 335 127 491.5t234.5 210.5t228.5 54q217 0 372 -155l131 192h66z" />
    <glyph glyph-name="Ugrave" unicode="&#xd9;" horiz-adv-x="1351" 
d="M494 1906q0 32 26.5 58.5t69.5 26.5t66.5 -41t56.5 -146l78 -233h-37l-152 162q-59 68 -83.5 104.5t-24.5 68.5zM440 420q0 -385 340 -385q219 0 265.5 149.5t46.5 266.5v651q0 144 -49 213t-181 88v24h479v-24q-122 -23 -161 -88.5t-39 -212.5v-670q0 -337 -163 -401
t-280 -64q-233 0 -357 107.5t-124 320.5v867q0 66 -37 101.5t-149 39.5v24h581v-24q-146 -5 -159 -57t-13 -84v-842z" />
    <glyph glyph-name="Uacute" unicode="&#xda;" horiz-adv-x="1351" 
d="M440 420q0 -385 340 -385q219 0 265.5 149.5t46.5 266.5v651q0 144 -49 213t-181 88v24h479v-24q-122 -23 -161 -88.5t-39 -212.5v-670q0 -337 -163 -401t-280 -64q-233 0 -357 107.5t-124 320.5v867q0 66 -37 101.5t-149 39.5v24h581v-24q-146 -5 -159 -57t-13 -84v-842
zM872 1991q44 0 70.5 -26.5t26.5 -58.5t-24.5 -69t-84.5 -104l-151 -162h-37l78 233q33 104 55.5 145.5t66.5 41.5z" />
    <glyph glyph-name="Ucircumflex" unicode="&#xdb;" horiz-adv-x="1351" 
d="M440 420q0 -385 340 -385q219 0 265.5 149.5t46.5 266.5v651q0 144 -49 213t-181 88v24h479v-24q-122 -23 -161 -88.5t-39 -212.5v-670q0 -337 -163 -401t-280 -64q-233 0 -357 107.5t-124 320.5v867q0 66 -37 101.5t-149 39.5v24h581v-24q-146 -5 -159 -57t-13 -84v-842
zM725 1958h35l225 -387h-37l-209 186l-211 -186h-36z" />
    <glyph glyph-name="Udieresis" unicode="&#xdc;" horiz-adv-x="1351" 
d="M440 420q0 -385 340 -385q219 0 265.5 149.5t46.5 266.5v651q0 144 -49 213t-181 88v24h479v-24q-122 -23 -161 -88.5t-39 -212.5v-670q0 -337 -163 -401t-280 -64q-233 0 -357 107.5t-124 320.5v867q0 66 -37 101.5t-149 39.5v24h581v-24q-146 -5 -159 -57t-13 -84v-842
zM552 1581q-50 0 -82 37t-32 92t32 92t83 37t83 -37t32 -92t-33 -92t-83 -37zM894 1581q-50 0 -82 37t-32 92t32 92t83 37t82 -37t31 -92t-32 -92t-82 -37z" />
    <glyph glyph-name="Yacute" unicode="&#xdd;" horiz-adv-x="1191" 
d="M817 1991q43 0 69.5 -26.5t26.5 -58.5t-24.5 -69t-83.5 -104l-152 -162h-37l78 233q33 104 56.5 145.5t66.5 41.5zM813 1427h412v-24q-93 -21 -147.5 -72t-127.5 -194l-245 -502v-467q0 -66 36.5 -101.5t153.5 -39.5v-27h-600v27q119 4 154.5 39.5t35.5 101.5v442
l-305 629q-36 78 -77 113t-121 51v24h577v-24q-123 -12 -147 -50t14 -120l254 -539l221 453q63 133 51 171t-45 55.5t-94 29.5v24z" />
    <glyph glyph-name="Thorn" unicode="&#xde;" horiz-adv-x="1150" 
d="M571 373q167 0 225 89t58 275q0 257 -96 306t-180 49h-115v-719h108zM240 168v1094q0 66 -37 100.5t-150 38.5v26h604v-26q-167 -5 -180.5 -56t-13.5 -85v-127h123q268 0 388 -106t120 -280t-123.5 -294.5t-392.5 -120.5h-115v-164q0 -73 39.5 -105t154.5 -36v-27h-604
v27q113 4 150 39.5t37 101.5z" />
    <glyph glyph-name="germandbls" unicode="&#xdf;" horiz-adv-x="1058" 
d="M719 1176q0 268 -174 268q-94 0 -132 -69.5t-38 -225.5v-1149h-324v25q76 2 99.5 16t23.5 63v775h-149v24l149 41v78q0 217 95.5 338t277.5 121t274 -77t92 -200q0 -74 -42.5 -132t-116.5 -120t-93.5 -92.5t-19.5 -80.5t49 -94t132 -98t143.5 -122t60.5 -183t-81 -206.5
t-199 -91.5t-193.5 49.5t-75.5 132.5q0 45 26.5 77.5t72.5 32.5t69 -30.5t23 -69.5q0 -64 -62 -102q41 -54 121 -54q156 -1 156 173q0 78 -48.5 130t-134.5 106t-137 108.5t-51 126.5t27 118t71 92q69 72 89 133.5t20 168.5z" />
    <glyph glyph-name="agrave" unicode="&#xe0;" horiz-adv-x="874" 
d="M201 1418q0 32 26.5 58.5t69.5 26.5t66.5 -41t56.5 -145l78 -234h-37l-152 162q-59 68 -83.5 104.5t-24.5 68.5zM396 86q92 0 157 104v320q-160 -38 -218.5 -94.5t-58.5 -147.5q0 -90 32 -136t88 -46zM297 -12q-111 0 -171 65t-60 145q0 154 99 216t233 93.5t155 41.5
v149q0 117 -36 168.5t-119 51.5t-130 -56q49 -53 49 -108t-28.5 -89t-80.5 -34t-81 35.5t-29 83.5q0 92 92 149t248 57t235 -67.5t79 -220.5v-490q0 -78 26.5 -103.5t104.5 3.5l8 -21q-95 -67 -170 -67q-74 0 -112 34.5t-48 114.5h-6q-113 -151 -258 -151z" />
    <glyph glyph-name="aacute" unicode="&#xe1;" horiz-adv-x="874" 
d="M592 1503q43 0 69.5 -26.5t26.5 -58.5t-24.5 -68.5t-83.5 -104.5l-152 -162h-37l78 234q33 104 56.5 145t66.5 41zM396 86q92 0 157 104v320q-160 -38 -218.5 -94.5t-58.5 -147.5q0 -90 32 -136t88 -46zM297 -12q-111 0 -171 65t-60 145q0 154 99 216t233 93.5t155 41.5
v149q0 117 -36 168.5t-119 51.5t-130 -56q49 -53 49 -108t-28.5 -89t-80.5 -34t-81 35.5t-29 83.5q0 92 92 149t248 57t235 -67.5t79 -220.5v-490q0 -78 26.5 -103.5t104.5 3.5l8 -21q-95 -67 -170 -67q-74 0 -112 34.5t-48 114.5h-6q-113 -151 -258 -151z" />
    <glyph glyph-name="acircumflex" unicode="&#xe2;" horiz-adv-x="874" 
d="M434 1470h35l225 -387h-37l-208 187l-211 -187h-37zM396 86q92 0 157 104v320q-160 -38 -218.5 -94.5t-58.5 -147.5q0 -90 32 -136t88 -46zM297 -12q-111 0 -171 65t-60 145q0 154 99 216t233 93.5t155 41.5v149q0 117 -36 168.5t-119 51.5t-130 -56q49 -53 49 -108
t-28.5 -89t-80.5 -34t-81 35.5t-29 83.5q0 92 92 149t248 57t235 -67.5t79 -220.5v-490q0 -78 26.5 -103.5t104.5 3.5l8 -21q-95 -67 -170 -67q-74 0 -112 34.5t-48 114.5h-6q-113 -151 -258 -151z" />
    <glyph glyph-name="atilde" unicode="&#xe3;" horiz-adv-x="874" 
d="M291 1202q-57 0 -86 -121h-37q14 141 53 201.5t102 60.5t129 -36.5t100 -53t58 -16.5q57 0 86 121h35q-14 -141 -53 -201.5t-101 -60.5t-128 36.5t-100 53t-58 16.5zM396 86q92 0 157 104v320q-160 -38 -218.5 -94.5t-58.5 -147.5q0 -90 32 -136t88 -46zM297 -12
q-111 0 -171 65t-60 145q0 154 99 216t233 93.5t155 41.5v149q0 117 -36 168.5t-119 51.5t-130 -56q49 -53 49 -108t-28.5 -89t-80.5 -34t-81 35.5t-29 83.5q0 92 92 149t248 57t235 -67.5t79 -220.5v-490q0 -78 26.5 -103.5t104.5 3.5l8 -21q-95 -67 -170 -67
q-74 0 -112 34.5t-48 114.5h-6q-113 -151 -258 -151z" />
    <glyph glyph-name="adieresis" unicode="&#xe4;" horiz-adv-x="874" 
d="M278 1094q-50 0 -82 36.5t-32 92t31.5 92.5t83 37t83 -37t31.5 -92.5t-32.5 -92t-82.5 -36.5zM620 1094q-50 0 -82 36.5t-32 92t31.5 92.5t83 37t82 -37t30.5 -92.5t-31.5 -92t-81.5 -36.5zM396 86q92 0 157 104v320q-160 -38 -218.5 -94.5t-58.5 -147.5q0 -90 32 -136
t88 -46zM297 -12q-111 0 -171 65t-60 145q0 154 99 216t233 93.5t155 41.5v149q0 117 -36 168.5t-119 51.5t-130 -56q49 -53 49 -108t-28.5 -89t-80.5 -34t-81 35.5t-29 83.5q0 92 92 149t248 57t235 -67.5t79 -220.5v-490q0 -78 26.5 -103.5t104.5 3.5l8 -21
q-95 -67 -170 -67q-74 0 -112 34.5t-48 114.5h-6q-113 -151 -258 -151z" />
    <glyph glyph-name="aring" unicode="&#xe5;" horiz-adv-x="874" 
d="M352 1311q0 -183 95.5 -183t95.5 183q0 96 -22.5 139t-72.5 43t-73 -43t-23 -139zM448 1094q-97 0 -151.5 64.5t-54.5 152.5t55 152.5t150 64.5t150.5 -64.5t55.5 -152.5t-54 -152.5t-151 -64.5zM396 86q92 0 157 104v320q-160 -38 -218.5 -94.5t-58.5 -147.5
q0 -90 32 -136t88 -46zM297 -12q-111 0 -171 65t-60 145q0 154 99 216t233 93.5t155 41.5v149q0 117 -36 168.5t-119 51.5t-130 -56q49 -53 49 -108t-28.5 -89t-80.5 -34t-81 35.5t-29 83.5q0 92 92 149t248 57t235 -67.5t79 -220.5v-490q0 -78 26.5 -103.5t104.5 3.5l8 -21
q-95 -67 -170 -67q-74 0 -112 34.5t-48 114.5h-6q-113 -151 -258 -151z" />
    <glyph glyph-name="ae" unicode="&#xe6;" horiz-adv-x="1357" 
d="M396 86q56 0 102.5 33t70.5 84v307q-238 -58 -265.5 -131t-27.5 -137t32 -110t88 -46zM944 924q-164 0 -176 -379h330q14 168 -22 273.5t-132 105.5zM692 836q112 125 276 125q163 0 256 -130t85 -323h-541v-29q0 -185 69.5 -300.5t200.5 -115.5q80 0 138.5 48.5
t107.5 134.5l25 -17q-51 -104 -134 -174.5t-209 -70.5t-214 59t-131 162h-9q-47 -92 -129 -154.5t-193 -62.5t-167.5 65t-56.5 145q0 154 106 220q73 46 178 73t152 37.5t67 20.5v149q0 117 -44 168.5t-127 51.5t-130 -56q49 -53 49 -108t-28.5 -89t-80.5 -34t-81 35.5
t-29 83.5q0 92 92.5 149t245.5 57q193 0 256 -120z" />
    <glyph glyph-name="ccedilla" unicode="&#xe7;" horiz-adv-x="825" 
d="M486 924q-92 0 -154 -114t-62 -308t67 -316.5t198 -122.5q76 0 132 45.5t109 127.5l25 -17q-45 -82 -106.5 -142.5t-153.5 -82.5l-119 -135l4 -9q102 0 151.5 -47t49.5 -117t-53.5 -119.5t-150.5 -49.5t-169 61l20 27q58 -47 114 -47q106 0 106 110q0 53 -33 83t-73 30
t-75 -10l-12 16l182 199l-34 -2q-176 0 -285 133t-109 347t122.5 355.5t307.5 141.5q142 0 221.5 -65t79.5 -148q0 -53 -27.5 -91.5t-81.5 -38.5t-85 34t-31 82q0 86 62 124q-45 66 -137 66z" />
    <glyph glyph-name="egrave" unicode="&#xe8;" horiz-adv-x="860" 
d="M213 1418q0 32 26.5 58.5t69.5 26.5t66.5 -41t56.5 -145l78 -234h-37l-151 162q-59 68 -84 104.5t-25 68.5zM446 924q-164 0 -176 -379h330q12 168 -23 273.5t-131 105.5zM270 508v-29q0 -186 70.5 -301t200.5 -115q80 0 138 48.5t107 134.5l25 -17q-51 -104 -134 -174.5
t-195 -70.5q-203 0 -315 133.5t-112 346.5q0 212 117.5 354.5t288.5 142.5q172 0 266 -131.5t82 -321.5h-539z" />
    <glyph glyph-name="eacute" unicode="&#xe9;" horiz-adv-x="860" 
d="M600 1503q43 0 69.5 -26.5t26.5 -58.5t-24.5 -68.5t-83.5 -104.5l-152 -162h-37l78 234q33 104 56.5 145t66.5 41zM446 924q-164 0 -176 -379h330q12 168 -23 273.5t-131 105.5zM270 508v-29q0 -186 70.5 -301t200.5 -115q80 0 138 48.5t107 134.5l25 -17
q-51 -104 -134 -174.5t-195 -70.5q-203 0 -315 133.5t-112 346.5q0 212 117.5 354.5t288.5 142.5q172 0 266 -131.5t82 -321.5h-539z" />
    <glyph glyph-name="ecircumflex" unicode="&#xea;" horiz-adv-x="860" 
d="M442 1470h35l225 -387h-36l-209 187l-211 -187h-37zM446 924q-164 0 -176 -379h330q12 168 -23 273.5t-131 105.5zM270 508v-29q0 -186 70.5 -301t200.5 -115q80 0 138 48.5t107 134.5l25 -17q-51 -104 -134 -174.5t-195 -70.5q-203 0 -315 133.5t-112 346.5
q0 212 117.5 354.5t288.5 142.5q172 0 266 -131.5t82 -321.5h-539z" />
    <glyph glyph-name="edieresis" unicode="&#xeb;" horiz-adv-x="860" 
d="M626 1094q-50 0 -82 36.5t-32 92t31.5 92.5t83 37t82 -37t30.5 -92.5t-31.5 -92t-81.5 -36.5zM284 1094q-50 0 -82 36.5t-32 92t31.5 92.5t83 37t83 -37t31.5 -92.5t-32.5 -92t-82.5 -36.5zM446 924q-164 0 -176 -379h330q12 168 -23 273.5t-131 105.5zM270 508v-29
q0 -186 70.5 -301t200.5 -115q80 0 138 48.5t107 134.5l25 -17q-51 -104 -134 -174.5t-195 -70.5q-203 0 -315 133.5t-112 346.5q0 212 117.5 354.5t288.5 142.5q172 0 266 -131.5t82 -321.5h-539z" />
    <glyph glyph-name="igrave" unicode="&#xec;" horiz-adv-x="522" 
d="M8 1418q0 32 26.5 58.5t69.5 26.5t67 -41t56 -145l78 -234h-37l-151 162q-59 68 -84 104.5t-25 68.5zM166 104v707q0 47 -24.5 73.5t-102.5 28.5v25l328 10v-844q0 -49 23.5 -63t103.5 -16v-25h-455v25q76 2 101.5 16t25.5 63z" />
    <glyph glyph-name="iacute" unicode="&#xed;" horiz-adv-x="522" 
d="M166 104v707q0 47 -24.5 73.5t-102.5 28.5v25l328 10v-844q0 -49 23.5 -63t103.5 -16v-25h-455v25q76 2 101.5 16t25.5 63zM387 1503q43 0 69.5 -26.5t26.5 -58.5t-24.5 -68.5t-83.5 -104.5l-152 -162h-37l78 234q33 104 56.5 145t66.5 41z" />
    <glyph glyph-name="icircumflex" unicode="&#xee;" horiz-adv-x="522" 
d="M166 104v707q0 47 -24.5 73.5t-102.5 28.5v25l328 10v-844q0 -49 23.5 -63t103.5 -16v-25h-455v25q76 2 101.5 16t25.5 63zM231 1470h35l226 -387h-37l-209 187l-211 -187h-37z" />
    <glyph glyph-name="idieresis" unicode="&#xef;" horiz-adv-x="522" 
d="M166 104v707q0 47 -24.5 73.5t-102.5 28.5v25l328 10v-844q0 -49 23.5 -63t103.5 -16v-25h-455v25q76 2 101.5 16t25.5 63zM77 1094q-50 0 -82 36.5t-32 92t32 92.5t83 37t83 -37t32 -92.5t-33 -92t-83 -36.5zM419 1094q-50 0 -82 36.5t-32 92t32 92.5t83 37t81.5 -37
t30.5 -92.5t-31.5 -92t-81.5 -36.5z" />
    <glyph glyph-name="eth" unicode="&#xf0;" horiz-adv-x="954" 
d="M670 508q0 412 -137.5 412t-193.5 -104t-56 -334q0 -462 204 -462q183 0 183 488zM889 633q0 -294 -113 -471.5t-313 -177.5q-162 0 -281 134t-119 343t120 353t263.5 144t204.5 -116l6 4q-25 205 -133 358l-219 -114l-18 38l213 111q-100 127 -248 205l14 29
q200 -67 334 -183l176 92l19 -36l-162 -84q256 -243 256 -629z" />
    <glyph glyph-name="ntilde" unicode="&#xf1;" horiz-adv-x="1005" 
d="M676 1237q55 0 86 121h35q-14 -141 -53 -201.5t-102 -60.5t-128 36.5t-99 53t-61 16.5q-53 0 -84 -121h-37q14 141 53.5 201.5t102.5 60.5t129 -36.5t99.5 -53t58.5 -16.5zM541 852q-110 0 -187 -166v-582q0 -49 22.5 -63t80.5 -16v-25h-426v25q76 2 99.5 16t23.5 63v705
q0 47 -22.5 74.5t-100.5 29.5v25l319 10v-207q121 213 307 213q104 0 159.5 -65.5t55.5 -194.5v-590q0 -49 24 -63t99 -16v-25h-424v25q57 2 79 16t22 63v549q0 98 -29 148.5t-102 50.5z" />
    <glyph glyph-name="ograve" unicode="&#xf2;" horiz-adv-x="946" 
d="M227 1418q0 32 27.5 58.5t69.5 26.5t66 -41t56 -145l78 -234h-37l-151 162q-59 68 -84 104.5t-25 68.5zM478 20q99 0 145.5 106.5t46.5 346.5q0 355 -78 403t-126 48q-99 0 -145.5 -104t-46.5 -347q0 -354 78 -403.5t126 -49.5zM57 470q0 216 122.5 353.5t297.5 137.5
t293.5 -135t118.5 -351t-121.5 -353.5t-295.5 -137.5q-181 0 -298 135t-117 351z" />
    <glyph glyph-name="oacute" unicode="&#xf3;" horiz-adv-x="946" 
d="M478 20q99 0 145.5 106.5t46.5 346.5q0 355 -78 403t-126 48q-99 0 -145.5 -104t-46.5 -347q0 -354 78 -403.5t126 -49.5zM57 470q0 216 122.5 353.5t297.5 137.5t293.5 -135t118.5 -351t-121.5 -353.5t-295.5 -137.5q-181 0 -298 135t-117 351zM618 1503
q44 0 70.5 -26.5t26.5 -58.5t-24.5 -68.5t-84.5 -104.5l-151 -162h-37l78 234q33 104 55.5 145t66.5 41z" />
    <glyph glyph-name="ocircumflex" unicode="&#xf4;" horiz-adv-x="946" 
d="M478 20q99 0 145.5 106.5t46.5 346.5q0 355 -78 403t-126 48q-99 0 -145.5 -104t-46.5 -347q0 -354 78 -403.5t126 -49.5zM57 470q0 216 122.5 353.5t297.5 137.5t293.5 -135t118.5 -351t-121.5 -353.5t-295.5 -137.5q-181 0 -298 135t-117 351zM461 1470h35l225 -387
h-37l-209 187l-211 -187h-37z" />
    <glyph glyph-name="otilde" unicode="&#xf5;" horiz-adv-x="946" 
d="M631 1237q55 0 86 121h35q-14 -141 -53.5 -201.5t-101.5 -60.5t-128 36.5t-99.5 53t-60.5 16.5q-53 0 -84 -121h-37q14 141 53.5 201.5t102.5 60.5t129 -36.5t99.5 -53t58.5 -16.5zM478 20q99 0 145.5 106.5t46.5 346.5q0 355 -78 403t-126 48q-99 0 -145.5 -104
t-46.5 -347q0 -354 78 -403.5t126 -49.5zM57 470q0 216 122.5 353.5t297.5 137.5t293.5 -135t118.5 -351t-121.5 -353.5t-295.5 -137.5q-181 0 -298 135t-117 351z" />
    <glyph glyph-name="odieresis" unicode="&#xf6;" horiz-adv-x="946" 
d="M478 20q99 0 145.5 106.5t46.5 346.5q0 355 -78 403t-126 48q-99 0 -145.5 -104t-46.5 -347q0 -354 78 -403.5t126 -49.5zM57 470q0 216 122.5 353.5t297.5 137.5t293.5 -135t118.5 -351t-121.5 -353.5t-295.5 -137.5q-181 0 -298 135t-117 351zM300 1094q-50 0 -82 36.5
t-32 92t32 92.5t83 37t83 -37t32 -92.5t-33 -92t-83 -36.5zM642 1094q-50 0 -82 36.5t-32 92t32 92.5t83 37t82 -37t31 -92.5t-32 -92t-82 -36.5z" />
    <glyph glyph-name="divide" unicode="&#xf7;" horiz-adv-x="1026" 
d="M514 252q-47 0 -79 35t-32 84t32 83.5t79 34.5t79 -34.5t32 -83.5t-32 -84t-79 -35zM514 846q-47 0 -79 34.5t-32 84t32 84t79 34.5t79 -34.5t32 -84t-32 -84t-79 -34.5zM96 690h834v-45h-834v45z" />
    <glyph glyph-name="oslash" unicode="&#xf8;" horiz-adv-x="946" 
d="M465 924q-191 0 -191 -404q0 -196 17 -276l350 512q-46 168 -176 168zM653 700l-350 -512q46 -168 176 -168q98 0 144.5 106.5t46.5 295.5t-17 278zM186 104q-129 138 -129 360t122.5 359.5t293.5 137.5q138 0 250 -91l84 123h57l-106 -153q131 -147 131 -364
t-121.5 -354.5t-280.5 -137.5t-266 90l-84 -123h-55z" />
    <glyph glyph-name="ugrave" unicode="&#xf9;" horiz-adv-x="993" 
d="M254 1418q0 32 26.5 58.5t69.5 26.5t66.5 -41t56.5 -145l78 -234h-37l-152 162q-59 68 -83.5 104.5t-24.5 68.5zM139 250v565q0 47 -23.5 72.5t-99.5 27.5v25l324 8v-655q0 -98 30.5 -149.5t104.5 -51.5q106 0 180 162v561q0 47 -24.5 72.5t-98.5 27.5v25l324 8v-844
q0 -41 23.5 -59t99.5 -20v-25h-320v199q-118 -211 -294 -211q-106 0 -166 66.5t-60 195.5z" />
    <glyph glyph-name="uacute" unicode="&#xfa;" horiz-adv-x="993" 
d="M139 250v565q0 47 -23.5 72.5t-99.5 27.5v25l324 8v-655q0 -98 30.5 -149.5t104.5 -51.5q106 0 180 162v561q0 47 -24.5 72.5t-98.5 27.5v25l324 8v-844q0 -41 23.5 -59t99.5 -20v-25h-320v199q-118 -211 -294 -211q-106 0 -166 66.5t-60 195.5zM612 1503q43 0 70 -26.5
t27 -58.5t-25 -68.5t-84 -104.5l-151 -162h-37l77 234q33 104 56.5 145t66.5 41z" />
    <glyph glyph-name="ucircumflex" unicode="&#xfb;" horiz-adv-x="993" 
d="M139 250v565q0 47 -23.5 72.5t-99.5 27.5v25l324 8v-655q0 -98 30.5 -149.5t104.5 -51.5q106 0 180 162v561q0 47 -24.5 72.5t-98.5 27.5v25l324 8v-844q0 -41 23.5 -59t99.5 -20v-25h-320v199q-118 -211 -294 -211q-106 0 -166 66.5t-60 195.5zM467 1470h35l225 -387
h-37l-209 187l-211 -187h-37z" />
    <glyph glyph-name="udieresis" unicode="&#xfc;" horiz-adv-x="993" 
d="M139 250v565q0 47 -23.5 72.5t-99.5 27.5v25l324 8v-655q0 -98 30.5 -149.5t104.5 -51.5q106 0 180 162v561q0 47 -24.5 72.5t-98.5 27.5v25l324 8v-844q0 -41 23.5 -59t99.5 -20v-25h-320v199q-118 -211 -294 -211q-106 0 -166 66.5t-60 195.5zM308 1094
q-50 0 -81.5 36.5t-31.5 92t31.5 92.5t82.5 37t83 -37t32 -92.5t-33 -92t-83 -36.5zM650 1094q-50 0 -81.5 36.5t-31.5 92t31.5 92.5t82.5 37t82 -37t31 -92.5t-32 -92t-82 -36.5z" />
    <glyph glyph-name="yacute" unicode="&#xfd;" horiz-adv-x="872" 
d="M653 1503q43 0 70 -26.5t27 -58.5t-25 -68.5t-84 -104.5l-152 -162h-36l77 234q33 104 56.5 145t66.5 41zM252 -260q0 -55 -35 -90q52 5 99 66t104 221l16 47l-307 778q-31 84 -63 116t-97 42v24h453v-24q-78 -6 -94.5 -39t6.5 -95l194 -544l150 426q47 133 26.5 185.5
t-116.5 66.5v24h321v-24q-95 -13 -155 -181l-295 -819q-96 -270 -166.5 -294.5t-122.5 -24.5t-91.5 41t-39.5 93t27.5 90t76.5 38t79 -34t30 -89z" />
    <glyph glyph-name="thorn" unicode="&#xfe;" horiz-adv-x="962" 
d="M489 879q-88 0 -172 -105v-604q29 -84 73.5 -115.5t103.5 -31.5q195 0 194 450q0 284 -73.5 345t-125.5 61zM317 817q116 144 265 144t235 -129.5t86 -346.5t-104 -359t-275 -142q-109 0 -207 55v-313q0 -49 32 -64.5t130 -17.5v-25h-485v25q76 4 99.5 17t23.5 63v1605
q0 53 -23.5 78t-113.5 27v24l337 10v-651z" />
    <glyph glyph-name="ydieresis" unicode="&#xff;" horiz-adv-x="872" 
d="M321 1094q-50 0 -82 36.5t-32 92t31.5 92.5t83 37t83 -37t31.5 -92.5t-32.5 -92t-82.5 -36.5zM663 1094q-50 0 -82 36.5t-32 92t31.5 92.5t83 37t82 -37t30.5 -92.5t-31.5 -92t-81.5 -36.5zM252 -260q0 -55 -35 -90q52 5 99 66t104 221l16 47l-307 778q-31 84 -63 116
t-97 42v24h453v-24q-78 -6 -94.5 -39t6.5 -95l194 -544l150 426q47 133 26.5 185.5t-116.5 66.5v24h321v-24q-95 -13 -155 -181l-295 -819q-96 -270 -166.5 -294.5t-122.5 -24.5t-91.5 41t-39.5 93t27.5 90t76.5 38t79 -34t30 -89z" />
    <glyph glyph-name="Amacron" unicode="&#x100;" horiz-adv-x="1204" 
d="M371 1720h487v-88h-487v88zM705 573l-179 619h-8l-196 -619h383zM362 0h-411v27q89 24 140.5 89.5t105.5 225.5l368 1120h101l374 -1231q33 -115 61.5 -144.5t61.5 -40.5t84 -19v-27h-588v27q125 8 153 43.5t3 128.5l-98 333h-408l-59 -182q-54 -173 -37.5 -222.5
t52.5 -69t97 -31.5v-27z" />
    <glyph glyph-name="amacron" unicode="&#x101;" horiz-adv-x="874" 
d="M205 1233h487v-88h-487v88zM396 86q92 0 157 104v320q-160 -38 -218.5 -94.5t-58.5 -147.5q0 -90 32 -136t88 -46zM297 -12q-111 0 -171 65t-60 145q0 154 99 216t233 93.5t155 41.5v149q0 117 -36 168.5t-119 51.5t-130 -56q49 -53 49 -108t-28.5 -89t-80.5 -34
t-81 35.5t-29 83.5q0 92 92 149t248 57t235 -67.5t79 -220.5v-490q0 -78 26.5 -103.5t104.5 3.5l8 -21q-95 -67 -170 -67q-74 0 -112 34.5t-48 114.5h-6q-113 -151 -258 -151z" />
    <glyph glyph-name="Abreve" unicode="&#x102;" horiz-adv-x="1204" 
d="M614.5 1581q-102.5 0 -168 84t-73.5 238h35q47 -183 165.5 -183t171 47.5t72.5 135.5h37q-8 -154 -72.5 -238t-167 -84zM705 573l-179 619h-8l-196 -619h383zM362 0h-411v27q89 24 140.5 89.5t105.5 225.5l368 1120h101l374 -1231q33 -115 61.5 -144.5t61.5 -40.5t84 -19
v-27h-588v27q125 8 153 43.5t3 128.5l-98 333h-408l-59 -182q-54 -173 -37.5 -222.5t52.5 -69t97 -31.5v-27z" />
    <glyph glyph-name="abreve" unicode="&#x103;" horiz-adv-x="874" 
d="M446.5 1094q-102.5 0 -168 84t-73.5 237h35q47 -182 165.5 -182t171 47t72.5 135h37q-8 -154 -72.5 -237.5t-167 -83.5zM396 86q92 0 157 104v320q-160 -38 -218.5 -94.5t-58.5 -147.5q0 -90 32 -136t88 -46zM297 -12q-111 0 -171 65t-60 145q0 154 99 216t233 93.5
t155 41.5v149q0 117 -36 168.5t-119 51.5t-130 -56q49 -53 49 -108t-28.5 -89t-80.5 -34t-81 35.5t-29 83.5q0 92 92 149t248 57t235 -67.5t79 -220.5v-490q0 -78 26.5 -103.5t104.5 3.5l8 -21q-95 -67 -170 -67q-74 0 -112 34.5t-48 114.5h-6q-113 -151 -258 -151z" />
    <glyph glyph-name="Aogonek" unicode="&#x104;" horiz-adv-x="1204" 
d="M705 573l-179 619h-8l-196 -619h383zM974 -459q-85 0 -132 41.5t-47 107.5t42 123.5t140 143.5l51 43h-369v27q125 8 153 43.5t3 128.5l-98 333h-408l-59 -182q-54 -173 -37.5 -222.5t52.5 -69t97 -31.5v-27h-411v27q89 24 140.5 89.5t105.5 225.5l368 1120h101
l374 -1231q33 -115 61.5 -144.5t61.5 -40.5t84 -19v-27h-176l-29 -35q-106 -129 -106 -239q0 -59 27.5 -89t75.5 -30t98 35l14 -25q-92 -76 -177 -76z" />
    <glyph glyph-name="aogonek" unicode="&#x105;" horiz-adv-x="874" 
d="M396 86q92 0 157 104v320q-160 -38 -218.5 -94.5t-58.5 -147.5q0 -90 32 -136t88 -46zM799 -31q-129 -133 -129 -247q0 -115 103 -115q50 0 99 35l15 -25q-93 -76 -179 -76t-132 42t-46 111t51.5 128t151.5 137l55 41q-37 -10 -89 -10t-90 34.5t-48 114.5h-6
q-113 -151 -258 -151q-111 0 -171 65t-60 145q0 154 99 216t233 93.5t155 41.5v149q0 117 -36 168.5t-119 51.5t-130 -56q49 -53 49 -108t-28.5 -89t-80.5 -34t-81 35.5t-29 83.5q0 92 92 149t248 57t235 -67.5t79 -220.5v-490q0 -78 26.5 -103.5t104.5 3.5l8 -21z" />
    <glyph glyph-name="Cacute" unicode="&#x106;" 
d="M666 -33q-257 0 -423.5 198t-166.5 530t137 492.5t249.5 216.5t237.5 56q175 0 304 -88l77 98h23v-497h-27q-82 219 -173 333.5t-220 114.5q-154 0 -255 -174.5t-101 -521.5t118 -515.5t272 -168.5t252.5 105.5t155.5 273.5l37 -17q-140 -436 -497 -436zM813 1991
q43 0 69.5 -26.5t26.5 -58.5t-24.5 -69t-83.5 -104l-152 -162h-37l78 233q33 104 56.5 145.5t66.5 41.5z" />
    <glyph glyph-name="cacute" unicode="&#x107;" horiz-adv-x="825" 
d="M486 924q-92 0 -154 -114t-62 -308t67 -316.5t198 -122.5q76 0 132 45.5t109 127.5l25 -17q-53 -100 -136 -167.5t-216 -67.5q-176 0 -285 133t-109 347t122.5 355.5t307.5 141.5q142 0 221.5 -65t79.5 -148q0 -53 -27.5 -91.5t-81.5 -38.5t-85 34t-31 82q0 86 62 124
q-45 66 -137 66zM598 1503q43 0 69.5 -26.5t26.5 -58.5t-24.5 -68.5t-83.5 -104.5l-152 -162h-37l78 234q33 104 56.5 145t66.5 41z" />
    <glyph glyph-name="Cdotaccent" unicode="&#x10a;" 
d="M676 1575q-55 0 -88 36t-33 95t34 97t89 38t88 -36t33 -95t-34 -97t-89 -38zM666 -33q-257 0 -423.5 198t-166.5 530t137 492.5t249.5 216.5t237.5 56q175 0 304 -88l77 98h23v-497h-27q-82 219 -173 333.5t-220 114.5q-154 0 -255 -174.5t-101 -521.5t118 -515.5
t272 -168.5t252.5 105.5t155.5 273.5l37 -17q-140 -436 -497 -436z" />
    <glyph glyph-name="cdotaccent" unicode="&#x10b;" horiz-adv-x="825" 
d="M469 1094q-55 0 -88 35.5t-33 95t34 97.5t89 38t88 -36t33 -95.5t-34 -97t-89 -37.5zM486 924q-92 0 -154 -114t-62 -308t67 -316.5t198 -122.5q76 0 132 45.5t109 127.5l25 -17q-53 -100 -136 -167.5t-216 -67.5q-176 0 -285 133t-109 347t122.5 355.5t307.5 141.5
q142 0 221.5 -65t79.5 -148q0 -53 -27.5 -91.5t-81.5 -38.5t-85 34t-31 82q0 86 62 124q-45 66 -137 66z" />
    <glyph glyph-name="Ccaron" unicode="&#x10c;" 
d="M666 -33q-257 0 -423.5 198t-166.5 530t137 492.5t249.5 216.5t237.5 56q175 0 304 -88l77 98h23v-497h-27q-82 219 -173 333.5t-220 114.5q-154 0 -255 -174.5t-101 -521.5t118 -515.5t272 -168.5t252.5 105.5t155.5 273.5l37 -17q-140 -436 -497 -436zM432 1952h37
l211 -185l211 185h35l-234 -387h-35z" />
    <glyph glyph-name="ccaron" unicode="&#x10d;" horiz-adv-x="825" 
d="M486 924q-92 0 -154 -114t-62 -308t67 -316.5t198 -122.5q76 0 132 45.5t109 127.5l25 -17q-53 -100 -136 -167.5t-216 -67.5q-176 0 -285 133t-109 347t122.5 355.5t307.5 141.5q142 0 221.5 -65t79.5 -148q0 -53 -27.5 -91.5t-81.5 -38.5t-85 34t-31 82q0 86 62 124
q-45 66 -137 66zM223 1470h37l211 -184l211 184h35l-234 -387h-34z" />
    <glyph glyph-name="Dcaron" unicode="&#x10e;" horiz-adv-x="1343" 
d="M565 41q127 0 213 32.5t163 145t77 500.5q0 389 -85 499.5t-169 139t-195 28.5h-106v-1345h102zM240 168v1094q0 66 -37 101.5t-150 39.5v24h545q318 0 494 -190.5t176 -499.5t-165 -523t-482 -214h-568v27q113 4 150 39.5t37 101.5zM428 1958h37l211 -184l211 184h35
l-234 -387h-35z" />
    <glyph glyph-name="dcaron" unicode="&#x10f;" horiz-adv-x="970" 
d="M270 486q0 -196 54 -307t165 -111q53 0 87 23.5t63 58.5v679q-61 91 -162 91q-100 0 -153.5 -119t-53.5 -315zM643 104q-102 -120 -252 -120t-243 133t-93 346t113.5 355.5t292.5 142.5q104 0 178 -46v414q0 53 -23.5 78t-113.5 27v24l338 10v-1366q0 -39 24.5 -59
t100.5 -20v-23l-322 -8v112zM1080 1561q32 0 56.5 -19.5t24.5 -59.5t-35 -136l-96 -248h-24l-13 237l-2 117q0 66 28.5 87.5t60.5 21.5z" />
    <glyph glyph-name="Dcroat" unicode="&#x110;" horiz-adv-x="1343" 
d="M565 41q127 0 213 32.5t163 145t77 500.5q0 389 -85 499.5t-169 139t-195 28.5h-106v-616h239v-53h-239v-676h102zM240 168v549h-177v53h177v492q0 66 -37 101.5t-150 39.5v24h545q318 0 494 -190.5t176 -499.5t-165 -523t-482 -214h-568v27q113 4 150 39.5t37 101.5z
" />
    <glyph glyph-name="dcroat" unicode="&#x111;" horiz-adv-x="970" 
d="M270 486q0 -196 54 -307t165 -111q53 0 87 23.5t63 58.5v679q-61 91 -162 91q-100 0 -153.5 -119t-53.5 -315zM643 104q-102 -120 -252 -120t-243 133t-93 346t113.5 355.5t292.5 142.5q104 0 178 -46v256h-233v46h233v112q0 53 -23.5 78t-113.5 27v24l338 10v-251h118
v-46h-118v-1069q0 -39 24.5 -59t100.5 -20v-23l-322 -8v112z" />
    <glyph glyph-name="Emacron" unicode="&#x112;" 
d="M387 1720h487v-88h-487v88zM240 168v1094q0 66 -37 101.5t-150 39.5v24h1022l8 -450l-30 -4q-89 236 -166.5 324.5t-227.5 88.5h-196v-630h80q113 0 170.5 58t93.5 214h29v-586h-29q-49 230 -130 252.5t-134 22.5h-80v-676h190q179 0 271.5 97t177.5 339l31 -2l-11 -475
h-1069v27q113 4 150 39.5t37 101.5z" />
    <glyph glyph-name="emacron" unicode="&#x113;" horiz-adv-x="860" 
d="M215 1233h487v-88h-487v88zM446 924q-164 0 -176 -379h330q12 168 -23 273.5t-131 105.5zM270 508v-29q0 -186 70.5 -301t200.5 -115q80 0 138 48.5t107 134.5l25 -17q-51 -104 -134 -174.5t-195 -70.5q-203 0 -315 133.5t-112 346.5q0 212 117.5 354.5t288.5 142.5
q172 0 266 -131.5t82 -321.5h-539z" />
    <glyph glyph-name="Ebreve" unicode="&#x114;" 
d="M630.5 1581q-102.5 0 -168 84t-73.5 238h35q47 -183 166 -183t171 47.5t73 135.5h36q-8 -154 -72.5 -238t-167 -84zM240 168v1094q0 66 -37 101.5t-150 39.5v24h1022l8 -450l-30 -4q-89 236 -166.5 324.5t-227.5 88.5h-196v-630h80q113 0 170.5 58t93.5 214h29v-586h-29
q-49 230 -130 252.5t-134 22.5h-80v-676h190q179 0 271.5 97t177.5 339l31 -2l-11 -475h-1069v27q113 4 150 39.5t37 101.5z" />
    <glyph glyph-name="ebreve" unicode="&#x115;" horiz-adv-x="860" 
d="M416 1233q119 0 171 47t72 135h37q-8 -154 -72.5 -237.5t-167 -83.5t-168 84t-73.5 237h35q47 -182 166 -182zM446 924q-164 0 -176 -379h330q12 168 -23 273.5t-131 105.5zM270 508v-29q0 -186 70.5 -301t200.5 -115q80 0 138 48.5t107 134.5l25 -17
q-51 -104 -134 -174.5t-195 -70.5q-203 0 -315 133.5t-112 346.5q0 212 117.5 354.5t288.5 142.5q172 0 266 -131.5t82 -321.5h-539z" />
    <glyph glyph-name="Edotaccent" unicode="&#x116;" 
d="M628.5 1581q-55.5 0 -88 36t-32.5 95.5t33.5 97t89 37.5t88.5 -35.5t33 -95t-34 -97.5t-89.5 -38zM240 168v1094q0 66 -37 101.5t-150 39.5v24h1022l8 -450l-30 -4q-89 236 -166.5 324.5t-227.5 88.5h-196v-630h80q113 0 170.5 58t93.5 214h29v-586h-29
q-49 230 -130 252.5t-134 22.5h-80v-676h190q179 0 271.5 97t177.5 339l31 -2l-11 -475h-1069v27q113 4 150 39.5t37 101.5z" />
    <glyph glyph-name="edotaccent" unicode="&#x117;" horiz-adv-x="860" 
d="M454.5 1094q-55.5 0 -88 35.5t-32.5 95t33.5 97.5t89 38t88.5 -36t33 -95.5t-34 -97t-89.5 -37.5zM446 924q-164 0 -176 -379h330q12 168 -23 273.5t-131 105.5zM270 508v-29q0 -186 70.5 -301t200.5 -115q80 0 138 48.5t107 134.5l25 -17q-51 -104 -134 -174.5
t-195 -70.5q-203 0 -315 133.5t-112 346.5q0 212 117.5 354.5t288.5 142.5q172 0 266 -131.5t82 -321.5h-539z" />
    <glyph glyph-name="Eogonek" unicode="&#x118;" 
d="M918 -459q-85 0 -132 41.5t-47 107.5t42 123.5t141 143.5l51 43h-920v27q113 4 150 39.5t37 101.5v1094q0 66 -37 101.5t-150 39.5v24h1022l8 -450l-30 -4q-89 236 -166.5 324.5t-227.5 88.5h-196v-630h80q113 0 170.5 58t93.5 214h29v-586h-29q-49 230 -130 252.5
t-134 22.5h-80v-676h190q179 0 271.5 97t177.5 339l31 -2l-11 -475h-106l-29 -35q-106 -129 -106 -239q0 -59 27.5 -89t75.5 -30t97 35l15 -25q-93 -76 -178 -76z" />
    <glyph glyph-name="eogonek" unicode="&#x119;" horiz-adv-x="860" 
d="M446 924q-164 0 -176 -379h330q12 168 -23 273.5t-131 105.5zM270 508v-29q0 -186 70.5 -301t200.5 -115q80 0 138 48.5t107 134.5l25 -17q-36 -71 -90 -137l-111 -129q-106 -129 -106 -237q0 -59 27.5 -89t75.5 -30t98 35l14 -25q-93 -76 -179 -76t-132 41.5t-46 107.5
t42 122.5t139 142.5l78 65q-79 -36 -165 -36q-177 0 -289 133.5t-112 346.5q0 212 117.5 354.5t288.5 142.5q172 0 266 -131.5t82 -321.5h-539z" />
    <glyph glyph-name="Ecaron" unicode="&#x11a;" 
d="M240 168v1094q0 66 -37 101.5t-150 39.5v24h1022l8 -450l-30 -4q-89 236 -166.5 324.5t-227.5 88.5h-196v-630h80q113 0 170.5 58t93.5 214h29v-586h-29q-49 230 -130 252.5t-134 22.5h-80v-676h190q179 0 271.5 97t177.5 339l31 -2l-11 -475h-1069v27q113 4 150 39.5
t37 101.5zM383 1958h37l211 -184l211 184h35l-234 -387h-35z" />
    <glyph glyph-name="ecaron" unicode="&#x11b;" horiz-adv-x="860" 
d="M209 1470h37l211 -184l211 184h34l-233 -387h-35zM446 924q-164 0 -176 -379h330q12 168 -23 273.5t-131 105.5zM270 508v-29q0 -186 70.5 -301t200.5 -115q80 0 138 48.5t107 134.5l25 -17q-51 -104 -134 -174.5t-195 -70.5q-203 0 -315 133.5t-112 346.5
q0 212 117.5 354.5t288.5 142.5q172 0 266 -131.5t82 -321.5h-539z" />
    <glyph glyph-name="Gbreve" unicode="&#x11e;" horiz-adv-x="1308" 
d="M692.5 1581q-102.5 0 -168 84t-73.5 238h34q47 -183 166 -183t171 47.5t73 135.5h37q-8 -154 -72.5 -238t-167 -84zM930 502q0 66 -40 100.5t-153 40.5v27h545v-27q-80 -4 -101.5 -25.5t-26.5 -48t-5 -67.5v-402q-92 -63 -211.5 -98t-237.5 -35t-233 48t-252 197
t-137 487t139 495.5t255 211.5t241 54q180 0 311 -84l78 94h22v-479h-26q-92 215 -183.5 322.5t-218.5 107.5q-155 0 -261.5 -168.5t-106.5 -533.5q0 -364 111.5 -537.5t275.5 -173.5q137 0 215 78v416z" />
    <glyph glyph-name="gbreve" unicode="&#x11f;" horiz-adv-x="839" 
d="M389 1233q119 0 171 47t73 135h37q-8 -154 -73 -237.5t-167 -83.5t-167.5 84t-74.5 237h35q47 -182 166 -182zM74 635q0 141 100.5 231t245.5 90q82 0 164 -38q71 161 182 161q51 0 77.5 -28.5t26.5 -67.5t-21 -64.5t-55 -25.5t-59.5 26.5t-25.5 75.5q-49 -13 -93 -94
q146 -91 146 -246t-103 -244t-206 -89t-166 22q-90 -43 -90 -96q0 -31 31.5 -54.5t136.5 -23.5h141q164 0 247 -57.5t83 -191.5t-118.5 -227t-306.5 -93t-285 55t-97 135t56 133t157 70v6q-84 29 -118 71t-34 97q0 115 154 192q-170 83 -170 275zM561 639q0 283 -151 283
q-74 0 -106 -70t-32 -213q0 -283 152 -283q74 0 105.5 70t31.5 213zM709 -152q0 140 -228 140h-190q-121 -47 -121 -158q0 -86 63.5 -141.5t191.5 -55.5t206 57.5t78 157.5z" />
    <glyph glyph-name="Gdotaccent" unicode="&#x120;" horiz-adv-x="1308" 
d="M694.5 1581q-55.5 0 -88.5 36t-33 95.5t34 97t89.5 37.5t88 -35.5t32.5 -95t-33.5 -97.5t-89 -38zM930 502q0 66 -40 100.5t-153 40.5v27h545v-27q-80 -4 -101.5 -25.5t-26.5 -48t-5 -67.5v-402q-92 -63 -211.5 -98t-237.5 -35t-233 48t-252 197t-137 487t139 495.5
t255 211.5t241 54q180 0 311 -84l78 94h22v-479h-26q-92 215 -183.5 322.5t-218.5 107.5q-155 0 -261.5 -168.5t-106.5 -533.5q0 -364 111.5 -537.5t275.5 -173.5q137 0 215 78v416z" />
    <glyph glyph-name="gdotaccent" unicode="&#x121;" horiz-adv-x="839" 
d="M428 1094q-55 0 -88 35.5t-33 95t34 97.5t89 38t88 -36t33 -95.5t-34 -97t-89 -37.5zM74 635q0 141 100.5 231t245.5 90q82 0 164 -38q71 161 182 161q51 0 77.5 -28.5t26.5 -67.5t-21 -64.5t-55 -25.5t-59.5 26.5t-25.5 75.5q-49 -13 -93 -94q146 -91 146 -246
t-103 -244t-206 -89t-166 22q-90 -43 -90 -96q0 -31 31.5 -54.5t136.5 -23.5h141q164 0 247 -57.5t83 -191.5t-118.5 -227t-306.5 -93t-285 55t-97 135t56 133t157 70v6q-84 29 -118 71t-34 97q0 115 154 192q-170 83 -170 275zM561 639q0 283 -151 283q-74 0 -106 -70
t-32 -213q0 -283 152 -283q74 0 105.5 70t31.5 213zM709 -152q0 140 -228 140h-190q-121 -47 -121 -158q0 -86 63.5 -141.5t191.5 -55.5t206 57.5t78 157.5z" />
    <glyph glyph-name="Gcommaaccent" unicode="&#x122;" horiz-adv-x="1308" 
d="M930 502q0 66 -40 100.5t-153 40.5v27h545v-27q-80 -4 -101.5 -25.5t-26.5 -48t-5 -67.5v-402q-92 -63 -211.5 -98t-237.5 -35t-233 48t-252 197t-137 487t139 495.5t255 211.5t241 54q180 0 311 -84l78 94h22v-479h-26q-92 215 -183.5 322.5t-218.5 107.5
q-155 0 -261.5 -168.5t-106.5 -533.5q0 -364 111.5 -537.5t275.5 -173.5q137 0 215 78v416zM659 -354q-34 0 -62 31.5t-28 78.5t31 84t86 37t90 -44t35 -126t-55.5 -162t-165.5 -137l-19 25q145 102 150 227l-8 2q-20 -16 -54 -16z" />
    <glyph glyph-name="gcommaaccent" unicode="&#x123;" horiz-adv-x="839" 
d="M74 635q0 141 100.5 231t245.5 90q82 0 164 -38q71 161 182 161q51 0 77.5 -28.5t26.5 -67.5t-21 -64.5t-55 -25.5t-59.5 26.5t-25.5 75.5q-49 -13 -93 -94q146 -91 146 -246t-103 -244t-206 -89t-166 22q-90 -43 -90 -96q0 -31 31.5 -54.5t136.5 -23.5h141
q164 0 247 -57.5t83 -191.5t-118.5 -227t-306.5 -93t-285 55t-97 135t56 133t157 70v6q-84 29 -118 71t-34 97q0 115 154 192q-170 83 -170 275zM561 639q0 283 -151 283q-74 0 -106 -70t-32 -213q0 -283 152 -283q74 0 105.5 70t31.5 213zM709 -152q0 140 -228 140h-190
q-121 -47 -121 -158q0 -86 63.5 -141.5t191.5 -55.5t206 57.5t78 157.5zM453 1333q34 0 62 -31.5t28 -78.5t-31 -84t-86 -37t-90 44t-35 126t55.5 161.5t165.5 137.5l19 -25q-145 -102 -150 -227l8 -2q20 16 54 16z" />
    <glyph glyph-name="Hbar" unicode="&#x126;" horiz-adv-x="1449" 
d="M989 762v285h-526v-285h526zM240 166v881h-174v49h174v168q0 66 -37 100.5t-150 38.5v24h582v-24q-149 -5 -160.5 -56t-11.5 -83v-168h526v168q0 74 -37.5 104.5t-136.5 34.5v24h582v-24q-113 -4 -150 -39t-37 -100v-168h176v-49h-176v-881q0 -66 37 -100.5t150 -38.5
v-27h-582v27q150 5 162 55.5t12 83.5v553h-526v-553q0 -73 33 -104t139 -35v-27h-582v27q113 4 150 38.5t37 100.5z" />
    <glyph glyph-name="hbar" unicode="&#x127;" horiz-adv-x="993" 
d="M526 852q-109 0 -186 -166v-582q0 -49 22.5 -63t79.5 -16v-25h-424v25q74 2 98.5 16t24.5 63v1067h-121v46h121v112q0 53 -23.5 78t-115.5 27v24l338 10v-251h235v-46h-235v-430q121 213 303 213q217 0 217 -260v-590q0 -49 23.5 -63t99.5 -16v-25h-426v25q59 2 82 16
t23 63v547q0 98 -31 149.5t-105 51.5z" />
    <glyph glyph-name="Imacron" unicode="&#x12a;" horiz-adv-x="733" 
d="M123 1720h487v-88h-487v88zM256 168v1094q0 66 -36 101.5t-154 39.5v24h602v-24q-119 -4 -155 -40t-36 -101v-1094q0 -66 36 -101.5t155 -39.5v-27h-602v27q119 4 154.5 39.5t35.5 101.5z" />
    <glyph glyph-name="imacron" unicode="&#x12b;" horiz-adv-x="522" 
d="M166 104v707q0 47 -24.5 73.5t-102.5 28.5v25l328 10v-844q0 -49 23.5 -63t103.5 -16v-25h-455v25q76 2 101.5 16t25.5 63zM29 1239h454v-88h-454v88z" />
    <glyph glyph-name="Ibreve" unicode="&#x12c;" horiz-adv-x="733" 
d="M366.5 1581q-102.5 0 -168 84t-73.5 238h35q47 -183 165.5 -183t171 47.5t72.5 135.5h37q-8 -154 -72.5 -238t-167 -84zM256 168v1094q0 66 -36 101.5t-154 39.5v24h602v-24q-119 -4 -155 -40t-36 -101v-1094q0 -66 36 -101.5t155 -39.5v-27h-602v27q119 4 154.5 39.5
t35.5 101.5z" />
    <glyph glyph-name="ibreve" unicode="&#x12d;" horiz-adv-x="522" 
d="M219 1233q119 0 171 47t73 135h37q-8 -154 -73 -237.5t-167 -83.5t-167.5 84t-74.5 237h35q47 -182 166 -182zM166 104v707q0 47 -24.5 73.5t-102.5 28.5v25l328 10v-844q0 -49 23.5 -63t103.5 -16v-25h-455v25q76 2 101.5 16t25.5 63z" />
    <glyph glyph-name="Iogonek" unicode="&#x12e;" horiz-adv-x="733" 
d="M345 -459q-85 0 -132 41.5t-47 107.5t42 123.5t140 143.5l51 43h-333v27q119 4 154.5 39.5t35.5 101.5v1094q0 66 -36 101.5t-154 39.5v24h602v-24q-119 -4 -155 -40t-36 -101v-1094q0 -66 36 -101.5t155 -39.5v-27h-226l-28 -35q-107 -131 -107 -239q0 -59 27.5 -89
t75.5 -30t98 35l14 -25q-92 -76 -177 -76z" />
    <glyph glyph-name="iogonek" unicode="&#x12f;" horiz-adv-x="522" 
d="M260 1124q-55 0 -89 35t-34 94.5t34 98.5t89 39t89 -37t34 -96.5t-34 -96.5t-89 -37zM259 -459q-85 0 -132 41.5t-47 107.5t42 123.5t140 143.5l51 43h-272v25q76 2 101.5 16t25.5 63v707q0 47 -24.5 73.5t-102.5 28.5v25l328 10v-844q0 -49 23.5 -63t103.5 -16v-25h-140
l-28 -35q-107 -131 -107 -239q0 -59 27.5 -89t75.5 -30t98 35l14 -25q-92 -76 -177 -76z" />
    <glyph glyph-name="Idotaccent" unicode="&#x130;" horiz-adv-x="733" 
d="M364.5 1581q-55.5 0 -88 36t-32.5 95.5t33.5 97t89 37.5t88 -35.5t32.5 -95t-33.5 -97.5t-89 -38zM256 168v1094q0 66 -36 101.5t-154 39.5v24h602v-24q-119 -4 -155 -40t-36 -101v-1094q0 -66 36 -101.5t155 -39.5v-27h-602v27q119 4 154.5 39.5t35.5 101.5z" />
    <glyph glyph-name="dotlessi" unicode="&#x131;" horiz-adv-x="522" 
d="M166 104v707q0 47 -24.5 73.5t-102.5 28.5v25l328 10v-844q0 -49 23.5 -63t103.5 -16v-25h-455v25q76 2 101.5 16t25.5 63z" />
    <glyph glyph-name="Kcommaaccent" unicode="&#x136;" horiz-adv-x="1325" 
d="M815 1427h469v-24q-103 -23 -178.5 -81t-204.5 -208l-184 -221l360 -625q83 -142 118.5 -175.5t67 -45.5t76.5 -20v-27h-542v27q94 10 106 47t-41 129l-293 506l-110 -131v-416q0 -68 28.5 -99.5t128.5 -35.5v-27h-565v27q113 4 149 38.5t36 100.5v1098q0 66 -36 100.5
t-149 38.5v24h582v-24q-151 -5 -162.5 -56t-11.5 -83v-621l403 485q138 176 78.5 220.5t-125.5 54.5v24zM630 -354q-34 0 -61.5 31.5t-27.5 78.5t30.5 84t85.5 37t90 -44t35 -126t-55 -162t-166 -137l-18 25q144 102 149 227l-8 2q-20 -16 -54 -16z" />
    <glyph glyph-name="kcommaaccent" unicode="&#x137;" horiz-adv-x="942" 
d="M344 104q0 -49 20.5 -63t67.5 -16v-25h-414v25q76 2 100.5 16t24.5 63v1225q0 53 -24.5 78t-114.5 27v24l340 10v-1028l252 301q117 143 -59 181v22h383v-24q-76 -12 -133.5 -52.5t-143.5 -138.5l-94 -106l258 -441q58 -98 86.5 -123.5t89.5 -33.5v-25h-428v25
q68 8 77 35.5t-22 80.5l-190 332l-76 -88v-281zM427 -354q-34 0 -61.5 31.5t-27.5 78.5t30 84t86 37t91 -44t35 -126t-55.5 -162t-166.5 -137l-18 25q144 102 149 227l-8 2q-20 -16 -54 -16z" />
    <glyph glyph-name="Lacute" unicode="&#x139;" horiz-adv-x="1105" 
d="M236 168v1094q0 66 -36 101.5t-149 39.5v24h586v-24q-158 -5 -168 -57t-10 -84v-1221h123q90 0 155.5 18.5t138.5 87t166 324.5l31 -2l-18 -469h-1004v27q113 4 149 39.5t36 101.5zM520 1995q43 0 69.5 -26.5t26.5 -58.5t-24.5 -69t-83.5 -104l-152 -162h-37l78 233
q33 104 56.5 145.5t66.5 41.5z" />
    <glyph glyph-name="lacute" unicode="&#x13a;" horiz-adv-x="522" 
d="M162 104v1225q0 53 -23.5 78t-113.5 27v24l337 10v-1364q0 -49 24 -63t101 -16v-25h-448v25q76 2 99.5 16t23.5 63zM397 1999q43 0 70 -26.5t27 -58.5t-25 -69t-84 -104l-152 -162h-36l77 233q33 104 56.5 145.5t66.5 41.5z" />
    <glyph glyph-name="Lcommaaccent" unicode="&#x13b;" horiz-adv-x="1105" 
d="M236 168v1094q0 66 -36 101.5t-149 39.5v24h586v-24q-158 -5 -168 -57t-10 -84v-1221h123q90 0 155.5 18.5t138.5 87t166 324.5l31 -2l-18 -469h-1004v27q113 4 149 39.5t36 101.5zM560 -354q-34 0 -61.5 31.5t-27.5 78.5t30.5 84t86.5 37t90.5 -44t34.5 -126t-55.5 -162
t-165.5 -137l-19 25q145 102 150 227l-9 2q-20 -16 -54 -16z" />
    <glyph glyph-name="lcommaaccent" unicode="&#x13c;" horiz-adv-x="522" 
d="M162 104v1225q0 53 -23.5 78t-113.5 27v24l337 10v-1364q0 -49 24 -63t101 -16v-25h-448v25q76 2 99.5 16t23.5 63zM231 -354q-34 0 -62 31.5t-28 78.5t31 84t86 37t90 -44t35 -126t-55.5 -162t-165.5 -137l-19 25q145 102 150 227l-8 2q-20 -16 -54 -16z" />
    <glyph glyph-name="Lcaron" unicode="&#x13d;" horiz-adv-x="1105" 
d="M236 168v1094q0 66 -36 101.5t-149 39.5v24h586v-24q-158 -5 -168 -57t-10 -84v-1221h123q90 0 155.5 18.5t138.5 87t166 324.5l31 -2l-18 -469h-1004v27q113 4 149 39.5t36 101.5zM854 1540q33 0 57.5 -19.5t24.5 -59.5t-35 -136l-96 -248h-25l-12 238l-2 117
q0 66 27.5 87t60.5 21z" />
    <glyph glyph-name="lcaron" unicode="&#x13e;" horiz-adv-x="522" 
d="M162 104v1225q0 53 -23.5 78t-113.5 27v24l337 10v-1364q0 -49 24 -63t101 -16v-25h-448v25q76 2 99.5 16t23.5 63zM602 1561q33 0 57.5 -19.5t24.5 -59.5t-35 -136l-96 -248h-25l-12 237l-2 117q0 66 27.5 87.5t60.5 21.5z" />
    <glyph glyph-name="Ldot" unicode="&#x13f;" horiz-adv-x="1105" 
d="M889 639q-55 0 -88 36t-33 95t34 97t89 38t88 -35.5t33 -95t-34 -97.5t-89 -38zM236 168v1094q0 66 -36 101.5t-149 39.5v24h586v-24q-158 -5 -168 -57t-10 -84v-1221h123q180 0 273 84t187 334l31 -2l-18 -457h-1004v27q113 4 149 39.5t36 101.5z" />
    <glyph glyph-name="ldot" unicode="&#x140;" horiz-adv-x="681" 
d="M162 104v1225q0 53 -23.5 78t-113.5 27v24l337 10v-1364q0 -49 24 -63t101 -16v-25h-448v25q76 2 99.5 16t23.5 63zM604 559q-53 0 -86 35t-33 92t33 96t87 39t86 -36.5t32 -94t-33 -94.5t-86 -37z" />
    <glyph glyph-name="Lslash" unicode="&#x141;" horiz-adv-x="1105" 
d="M236 168v471l-148 -51l-18 49l166 57v568q0 66 -36 101.5t-149 39.5v24h586v-24q-158 -5 -168 -57t-10 -84v-492l248 86l16 -47l-264 -92v-676h123q90 0 155.5 18.5t138.5 87t166 324.5l31 -2l-18 -469h-1004v27q113 4 149 39.5t36 101.5z" />
    <glyph glyph-name="lslash" unicode="&#x142;" horiz-adv-x="552" 
d="M184 104v555l-145 -51l-16 43l161 56v622q0 53 -23.5 78t-113.5 27v24l338 10v-692l156 55l14 -43l-170 -59v-625q0 -49 23.5 -63t101.5 -16v-25h-449v25q76 2 99.5 16t23.5 63z" />
    <glyph glyph-name="Nacute" unicode="&#x143;" horiz-adv-x="1372" 
d="M305 1194v-866q0 -150 43 -216t172 -85v-27h-471v27q119 23 163 87t44 214v835q0 104 -47 169t-160 71v24h379l682 -1065h4v740q0 143 -48 211.5t-181 89.5v24h475v-24q-118 -23 -157.5 -89t-39.5 -212v-1122h-73l-783 1214h-2zM868 1980q43 0 70 -26.5t27 -58.5
t-25 -68.5t-84 -104.5l-151 -161h-37l77 233q33 104 56.5 145t66.5 41z" />
    <glyph glyph-name="nacute" unicode="&#x144;" horiz-adv-x="1005" 
d="M541 852q-110 0 -187 -166v-582q0 -49 22.5 -63t80.5 -16v-25h-426v25q76 2 99.5 16t23.5 63v705q0 47 -22.5 74.5t-100.5 29.5v25l319 10v-207q121 213 307 213q104 0 159.5 -65.5t55.5 -194.5v-590q0 -49 24 -63t99 -16v-25h-424v25q57 2 79 16t22 63v549
q0 98 -29 148.5t-102 50.5zM662 1503q44 0 70 -26.5t26 -58.5t-24.5 -68.5t-84.5 -104.5l-151 -162h-37l78 234q33 104 56 145t67 41z" />
    <glyph glyph-name="Ncommaaccent" unicode="&#x145;" horiz-adv-x="1372" 
d="M305 1194v-866q0 -150 43 -216t172 -85v-27h-471v27q119 23 163 87t44 214v835q0 104 -47 169t-160 71v24h379l682 -1065h4v740q0 143 -48 211.5t-181 89.5v24h475v-24q-118 -23 -157.5 -89t-39.5 -212v-1122h-73l-783 1214h-2zM673 -354q-34 0 -61.5 31.5t-27.5 78.5
t30.5 84t85.5 37t90 -44t35 -126t-55 -162t-166 -137l-18 25q144 102 149 227l-8 2q-20 -16 -54 -16z" />
    <glyph glyph-name="ncommaaccent" unicode="&#x146;" horiz-adv-x="1005" 
d="M541 852q-110 0 -187 -166v-582q0 -49 22.5 -63t80.5 -16v-25h-426v25q76 2 99.5 16t23.5 63v705q0 47 -22.5 74.5t-100.5 29.5v25l319 10v-207q121 213 307 213q104 0 159.5 -65.5t55.5 -194.5v-590q0 -49 24 -63t99 -16v-25h-424v25q57 2 79 16t22 63v549
q0 98 -29 148.5t-102 50.5zM470 -354q-34 0 -61.5 31.5t-27.5 78.5t30.5 84t86.5 37t90.5 -44t34.5 -126t-55.5 -162t-166.5 -137l-18 25q144 102 149 227l-8 2q-20 -16 -54 -16z" />
    <glyph glyph-name="Ncaron" unicode="&#x147;" horiz-adv-x="1372" 
d="M305 1194v-866q0 -150 43 -216t172 -85v-27h-471v27q119 23 163 87t44 214v835q0 104 -47 169t-160 71v24h379l682 -1065h4v740q0 143 -48 211.5t-181 89.5v24h475v-24q-118 -23 -157.5 -89t-39.5 -212v-1122h-73l-783 1214h-2zM467 1948h37l211 -185l211 185h35
l-234 -387h-35z" />
    <glyph glyph-name="ncaron" unicode="&#x148;" horiz-adv-x="1005" 
d="M541 852q-110 0 -187 -166v-582q0 -49 22.5 -63t80.5 -16v-25h-426v25q76 2 99.5 16t23.5 63v705q0 47 -22.5 74.5t-100.5 29.5v25l319 10v-207q121 213 307 213q104 0 159.5 -65.5t55.5 -194.5v-590q0 -49 24 -63t99 -16v-25h-424v25q57 2 79 16t22 63v549
q0 98 -29 148.5t-102 50.5zM272 1470h37l211 -184l211 184h35l-234 -387h-34z" />
    <glyph glyph-name="Omacron" unicode="&#x14c;" horiz-adv-x="1329" 
d="M716.5 8q124.5 0 204.5 164t80 541q0 557 -131 632.5t-256 75.5t-205.5 -164.5t-80.5 -541.5q0 -556 132 -631.5t256.5 -75.5zM203 229q-125 153 -125 480t126 484t233.5 212t229.5 55t229.5 -54t232 -210t124.5 -480t-172 -536.5t-416 -212.5q-122 0 -229.5 54.5
t-232.5 207.5zM422 1720h487v-88h-487v88z" />
    <glyph glyph-name="omacron" unicode="&#x14d;" horiz-adv-x="946" 
d="M478 20q99 0 145.5 106.5t46.5 346.5q0 355 -78 403t-126 48q-99 0 -145.5 -104t-46.5 -347q0 -354 78 -403.5t126 -49.5zM57 470q0 216 122.5 353.5t297.5 137.5t293.5 -135t118.5 -351t-121.5 -353.5t-295.5 -137.5q-181 0 -298 135t-117 351zM229 1233h488v-88h-488
v88z" />
    <glyph glyph-name="Obreve" unicode="&#x14e;" horiz-adv-x="1329" 
d="M624.5 1720q118.5 0 171 47.5t72.5 135.5h37q-8 -154 -72.5 -238t-167 -84t-168 84t-73.5 238h35q47 -183 165.5 -183zM716.5 8q124.5 0 204.5 164t80 541q0 557 -131 632.5t-256 75.5t-205.5 -164.5t-80.5 -541.5q0 -556 132 -631.5t256.5 -75.5zM203 229
q-125 153 -125 480t126 484t233.5 212t229.5 55t229.5 -54t232 -210t124.5 -480t-172 -536.5t-416 -212.5q-122 0 -229.5 54.5t-232.5 207.5z" />
    <glyph glyph-name="obreve" unicode="&#x14f;" horiz-adv-x="946" 
d="M473 1094q-102 0 -167.5 84t-74.5 237h35q47 -182 166 -182t171 47t73 135h37q-8 -154 -73 -237.5t-167 -83.5zM478 20q99 0 145.5 106.5t46.5 346.5q0 355 -78 403t-126 48q-99 0 -145.5 -104t-46.5 -347q0 -354 78 -403.5t126 -49.5zM57 470q0 216 122.5 353.5
t297.5 137.5t293.5 -135t118.5 -351t-121.5 -353.5t-295.5 -137.5q-181 0 -298 135t-117 351z" />
    <glyph glyph-name="Ohungarumlaut" unicode="&#x150;" horiz-adv-x="1329" 
d="M716.5 8q124.5 0 204.5 164t80 541q0 557 -131 632.5t-256 75.5t-205.5 -164.5t-80.5 -541.5q0 -556 132 -631.5t256.5 -75.5zM203 229q-125 153 -125 480t126 484t233.5 212t229.5 55t229.5 -54t232 -210t124.5 -480t-172 -536.5t-416 -212.5q-122 0 -229.5 54.5
t-232.5 207.5zM697 1989q40 0 65.5 -23.5t25.5 -55.5t-24.5 -69t-87.5 -106l-158 -164h-35l88 235q35 104 60.5 143.5t65.5 39.5zM988 1989q40 0 65.5 -23.5t25.5 -55.5t-23.5 -68t-88.5 -107l-158 -164h-35l88 235q35 104 60.5 143.5t65.5 39.5z" />
    <glyph glyph-name="ohungarumlaut" unicode="&#x151;" horiz-adv-x="946" 
d="M478 20q99 0 145.5 106.5t46.5 346.5q0 355 -78 403t-126 48q-99 0 -145.5 -104t-46.5 -347q0 -354 78 -403.5t126 -49.5zM57 470q0 216 122.5 353.5t297.5 137.5t293.5 -135t118.5 -351t-121.5 -353.5t-295.5 -137.5q-181 0 -298 135t-117 351zM501 1501
q40 0 65.5 -23.5t25.5 -55.5t-24.5 -68.5t-88.5 -106.5l-157 -164h-35l88 236q35 104 60.5 143t65.5 39zM792 1501q40 0 65.5 -23.5t25.5 -55.5t-23.5 -67.5t-89.5 -107.5l-158 -164h-34l88 236q35 104 60.5 143t65.5 39z" />
    <glyph glyph-name="OE" unicode="&#x152;" horiz-adv-x="1867" 
d="M737 41q150 0 150 129v1090q0 129 -146 129q-104 0 -181 -31t-129 -109t-77.5 -209t-25.5 -333.5t29.5 -331.5t84 -204t129 -102.5t166.5 -27.5zM748 0q-320 0 -495 190t-175 501t165 523.5t490 212.5h989l9 -450l-31 -4q-89 236 -166.5 324.5t-228.5 88.5h-197v-630h82
q113 0 171.5 59.5t92.5 212.5h29v-586h-29q-49 230 -130 252.5t-134 22.5h-82v-676h192q179 0 271.5 97t177.5 339l31 -2l-11 -475h-1021z" />
    <glyph glyph-name="oe" unicode="&#x153;" horiz-adv-x="1472" 
d="M1061 924q-164 0 -176 -379h327q14 168 -21.5 273.5t-129.5 105.5zM618 821.5q-52 102.5 -151 102.5q-100 0 -146.5 -104t-46.5 -347q0 -354 78 -403.5t126 -49.5t84 24t72 106.5t36 325.5t-52 345.5zM885 508v-29q0 -292 100 -354t174 -62q136 0 240 183l26 -17
q-51 -104 -134 -174.5t-216 -70.5q-194 0 -299 161q-114 -161 -299 -161t-303.5 134.5t-118.5 348.5q0 215 122 354.5t296 139.5q96 0 175 -44.5t132 -121.5q113 166 290 166t272 -132t81 -321h-538z" />
    <glyph glyph-name="Racute" unicode="&#x154;" horiz-adv-x="1255" 
d="M1122 -12q-149 0 -196.5 57t-59.5 203l-16 194q-12 154 -64.5 204t-203.5 50h-119v-528q0 -68 33.5 -102.5t144.5 -38.5v-27h-588v27q113 4 150 39.5t37 101.5v1094q0 66 -37 101.5t-150 39.5v24h565q256 0 377 -95.5t121 -250.5q0 -212 -135 -279t-238 -83v-6
q184 -11 255.5 -99t91.5 -262l12 -100q20 -142 47 -171.5t61.5 -36.5t89.5 -7v-23q-98 -26 -178 -26zM598 735q162 0 220.5 84t58.5 246t-69 241.5t-233 79.5h-112v-651h135zM774 1991q43 0 69.5 -26.5t26.5 -58.5t-24.5 -69t-83.5 -104l-152 -162h-37l78 233
q33 104 56.5 145.5t66.5 41.5z" />
    <glyph glyph-name="racute" unicode="&#x155;" horiz-adv-x="741" 
d="M596 961q74 0 108.5 -43.5t34.5 -99.5t-31.5 -92t-81.5 -36t-82 33t-32 76t10 69q-88 -18 -164 -176v-586q0 -51 30 -65t120 -16v-25h-473v25q76 2 99.5 16t23.5 63v707q0 47 -22.5 73.5t-100.5 28.5v25l319 10v-198q103 211 242 211zM520 1503q43 0 69.5 -26.5
t26.5 -58.5t-24.5 -68.5t-83.5 -104.5l-152 -162h-37l78 234q33 104 56.5 145t66.5 41z" />
    <glyph glyph-name="Rcommaaccent" unicode="&#x156;" horiz-adv-x="1255" 
d="M1122 -12q-149 0 -196.5 57t-59.5 203l-16 194q-12 154 -64.5 204t-203.5 50h-119v-528q0 -68 33.5 -102.5t144.5 -38.5v-27h-588v27q113 4 150 39.5t37 101.5v1094q0 66 -37 101.5t-150 39.5v24h565q256 0 377 -95.5t121 -250.5q0 -212 -135 -279t-238 -83v-6
q184 -11 255.5 -99t91.5 -262l12 -100q20 -142 47 -171.5t61.5 -36.5t89.5 -7v-23q-98 -26 -178 -26zM598 735q162 0 220.5 84t58.5 246t-69 241.5t-233 79.5h-112v-651h135zM610 -354q-34 0 -62 31.5t-28 78.5t31 84t86 37t90 -44t35 -126t-55.5 -162t-165.5 -137l-19 25
q145 102 150 227l-8 2q-20 -16 -54 -16z" />
    <glyph glyph-name="rcommaaccent" unicode="&#x157;" horiz-adv-x="741" 
d="M596 961q74 0 108.5 -43.5t34.5 -99.5t-31.5 -92t-81.5 -36t-82 33t-32 76t10 69q-88 -18 -164 -176v-586q0 -51 30 -65t120 -16v-25h-473v25q76 2 99.5 16t23.5 63v707q0 47 -22.5 73.5t-100.5 28.5v25l319 10v-198q103 211 242 211zM231 -354q-34 0 -62 31.5t-28 78.5
t31 84t86 37t90 -44t35 -126t-55.5 -162t-165.5 -137l-19 25q145 102 150 227l-8 2q-20 -16 -54 -16z" />
    <glyph glyph-name="Rcaron" unicode="&#x158;" horiz-adv-x="1255" 
d="M1122 -12q-149 0 -196.5 57t-59.5 203l-16 194q-12 154 -64.5 204t-203.5 50h-119v-528q0 -68 33.5 -102.5t144.5 -38.5v-27h-588v27q113 4 150 39.5t37 101.5v1094q0 66 -37 101.5t-150 39.5v24h565q256 0 377 -95.5t121 -250.5q0 -212 -135 -279t-238 -83v-6
q184 -11 255.5 -99t91.5 -262l12 -100q20 -142 47 -171.5t61.5 -36.5t89.5 -7v-23q-98 -26 -178 -26zM598 735q162 0 220.5 84t58.5 246t-69 241.5t-233 79.5h-112v-651h135zM379 1958h37l211 -184l211 184h34l-233 -387h-35z" />
    <glyph glyph-name="rcaron" unicode="&#x159;" horiz-adv-x="741" 
d="M596 961q74 0 108.5 -43.5t34.5 -99.5t-31.5 -92t-81.5 -36t-82 33t-32 76t10 69q-88 -18 -164 -176v-586q0 -51 30 -65t120 -16v-25h-473v25q76 2 99.5 16t23.5 63v707q0 47 -22.5 73.5t-100.5 28.5v25l319 10v-198q103 211 242 211zM147 1470h37l211 -184l211 184h35
l-233 -387h-35z" />
    <glyph glyph-name="Sacute" unicode="&#x15a;" horiz-adv-x="1030" 
d="M94 -37v508h31q92 -217 188.5 -338t223.5 -121t194.5 78.5t67.5 169.5t-23.5 142t-80 103t-228.5 122q-66 29 -209 97.5t-143 295.5q0 197 119.5 316.5t304.5 119.5q143 0 266 -65l61 77h27v-458h-31q-82 219 -166 313t-183 94t-163.5 -67t-64.5 -185q0 -171 123.5 -234
t191.5 -91q170 -69 261 -155t91 -259t-106 -314t-338 -141q-133 0 -283 90l-104 -98h-27zM674 1991q43 0 69.5 -26.5t26.5 -58.5t-24.5 -69t-83.5 -104l-152 -162h-37l78 233q33 104 56.5 145.5t66.5 41.5z" />
    <glyph glyph-name="sacute" unicode="&#x15b;" horiz-adv-x="747" 
d="M364 961q128 0 209 -60l45 60h27v-302h-31q-80 148 -119.5 192t-70.5 58.5t-80 14.5t-90 -43t-41 -115t58.5 -111t136.5 -67q157 -56 218.5 -115.5t61.5 -182.5t-81 -214.5t-224 -91.5q-49 0 -116.5 20.5t-108.5 50.5l-64 -71h-26v333h32q90 -168 138.5 -218t84 -64.5
t93.5 -14.5t96.5 51t38.5 121t-54.5 114t-142.5 74q-159 55 -221.5 111.5t-62.5 179.5q0 122 83 206t211 84zM516 1503q43 0 69.5 -26.5t26.5 -58.5t-24.5 -68.5t-83.5 -104.5l-152 -162h-37l78 234q33 104 56.5 145t66.5 41z" />
    <glyph glyph-name="Scedilla" unicode="&#x15e;" horiz-adv-x="1030" 
d="M566 1456q117 0 239 -65l61 77h27v-458h-31q-82 219 -166 313t-183 94t-163.5 -67t-64.5 -185q0 -171 123.5 -234t191.5 -91q170 -69 261 -155t91 -247q0 -279 -137 -366.5t-240 -96.5l-100 -116l4 -9q102 0 151.5 -47t49.5 -117t-53.5 -119.5t-150.5 -49.5t-169 61
l21 27q58 -47 114 -47q104 0 105 110q0 53 -33 83t-73 30t-74 -10l-13 16l170 184q-149 0 -299 90l-104 -98h-27v508h31q92 -217 188.5 -338t223.5 -121t194.5 78.5t67.5 169.5t-23.5 142t-80 103t-228.5 122q-66 29 -209 97.5t-143 295.5q0 197 119.5 316.5t331.5 119.5z
" />
    <glyph glyph-name="scedilla" unicode="&#x15f;" horiz-adv-x="747" 
d="M364 961q128 0 209 -60l45 60h27v-302h-31q-80 148 -119.5 192t-70.5 58.5t-80 14.5t-90 -43t-41 -115t58.5 -111t136.5 -67q157 -56 218.5 -115.5t61.5 -174.5q0 -116 -62.5 -203t-181.5 -105l-114 -131l4 -9q102 0 151.5 -47t49.5 -117t-53.5 -119.5t-150.5 -49.5
t-169 61l20 27q58 -47 114 -47q104 0 105 110q0 53 -32.5 83t-72.5 30t-75 -10l-12 16l180 197h-6q-49 0 -116.5 20.5t-108.5 50.5l-64 -71h-26v333h32q90 -168 138.5 -218t84 -64.5t93.5 -14.5t96.5 51t38.5 121t-54.5 114t-142.5 74q-159 55 -221.5 111.5t-62.5 179.5
q0 122 83 206t211 84z" />
    <glyph glyph-name="Scaron" unicode="&#x160;" horiz-adv-x="1030" 
d="M94 -37v508h31q92 -217 188.5 -338t223.5 -121t194.5 78.5t67.5 169.5t-23.5 142t-80 103t-228.5 122q-66 29 -209 97.5t-143 295.5q0 197 119.5 316.5t304.5 119.5q143 0 266 -65l61 77h27v-458h-31q-82 219 -166 313t-183 94t-163.5 -67t-64.5 -185q0 -171 123.5 -234
t191.5 -91q170 -69 261 -155t91 -259t-106 -314t-338 -141q-133 0 -283 90l-104 -98h-27zM293 1958h37l211 -184l211 184h34l-233 -387h-35z" />
    <glyph glyph-name="scaron" unicode="&#x161;" horiz-adv-x="747" 
d="M364 961q128 0 209 -60l45 60h27v-302h-31q-80 148 -119.5 192t-70.5 58.5t-80 14.5t-90 -43t-41 -115t58.5 -111t136.5 -67q157 -56 218.5 -115.5t61.5 -182.5t-81 -214.5t-224 -91.5q-49 0 -116.5 20.5t-108.5 50.5l-64 -71h-26v333h32q90 -168 138.5 -218t84 -64.5
t93.5 -14.5t96.5 51t38.5 121t-54.5 114t-142.5 74q-159 55 -221.5 111.5t-62.5 179.5q0 122 83 206t211 84zM145 1470h37l211 -184l211 184h35l-233 -387h-35z" />
    <glyph glyph-name="Tcommaaccent" unicode="&#x162;" horiz-adv-x="1230" 
d="M506 168v1218h-62q-96 0 -179 -99t-171 -312l-31 2l13 450h1083l10 -450l-28 -2q-86 205 -169 308t-181 103h-64v-1218q0 -66 44 -101.5t161 -39.5v-27h-629v27q117 4 160 39.5t43 101.5zM589 -354q-34 0 -61.5 31.5t-27.5 78.5t30.5 84t85.5 37t90 -44t35 -126t-55 -162
t-166 -137l-18 25q144 102 149 227l-8 2q-20 -16 -54 -16z" />
    <glyph glyph-name="tcommaaccent" unicode="&#x163;" horiz-adv-x="626" 
d="M465 66q81 0 139 131l27 -15q-80 -200 -246 -200q-104 0 -162.5 60t-58.5 202v635h-162v22l164 43v260l199 74v-338h251v-59h-251v-662q0 -86 24.5 -119.5t75.5 -33.5zM312 -354q-34 0 -61.5 31.5t-27.5 78.5t31 84t86 37t90 -44t35 -126t-55.5 -162t-165.5 -137l-19 25
q145 102 150 227l-8 2q-21 -16 -55 -16z" />
    <glyph glyph-name="Tcaron" unicode="&#x164;" horiz-adv-x="1230" 
d="M506 168v1218h-62q-96 0 -179 -99t-171 -312l-31 2l13 450h1083l10 -450l-28 -2q-86 205 -169 308t-181 103h-64v-1218q0 -66 44 -101.5t161 -39.5v-27h-629v27q117 4 160 39.5t43 101.5zM369 1958h37l210 -184l211 184h35l-233 -387h-35z" />
    <glyph glyph-name="tcaron" unicode="&#x165;" horiz-adv-x="626" 
d="M465 66q81 0 139 131l27 -15q-80 -200 -246 -200q-104 0 -162.5 60t-58.5 202v635h-162v22l164 43v260l199 74v-338h251v-59h-251v-662q0 -86 24.5 -119.5t75.5 -33.5zM592 1561q33 0 57.5 -19.5t24.5 -56.5t-35 -139l-96 -248h-25l-12 237l-2 117q0 66 27.5 87.5
t60.5 21.5z" />
    <glyph glyph-name="Umacron" unicode="&#x16a;" horiz-adv-x="1351" 
d="M475 1720h488v-88h-488v88zM440 420q0 -385 340 -385q219 0 265.5 149.5t46.5 266.5v651q0 144 -49 213t-181 88v24h479v-24q-122 -23 -161 -88.5t-39 -212.5v-670q0 -337 -163 -401t-280 -64q-233 0 -357 107.5t-124 320.5v867q0 66 -37 101.5t-149 39.5v24h581v-24
q-146 -5 -159 -57t-13 -84v-842z" />
    <glyph glyph-name="umacron" unicode="&#x16b;" horiz-adv-x="993" 
d="M254 1233h487v-88h-487v88zM139 250v565q0 47 -23.5 72.5t-99.5 27.5v25l324 8v-655q0 -98 30.5 -149.5t104.5 -51.5q106 0 180 162v561q0 47 -24.5 72.5t-98.5 27.5v25l324 8v-844q0 -41 23.5 -59t99.5 -20v-25h-320v199q-118 -211 -294 -211q-106 0 -166 66.5
t-60 195.5z" />
    <glyph glyph-name="Ubreve" unicode="&#x16c;" horiz-adv-x="1351" 
d="M682 1720q119 0 171 47.5t73 135.5h37q-8 -154 -73 -238t-167 -84t-168 84t-74 238h35q47 -183 166 -183zM440 420q0 -385 340 -385q219 0 265.5 149.5t46.5 266.5v651q0 144 -49 213t-181 88v24h479v-24q-122 -23 -161 -88.5t-39 -212.5v-670q0 -337 -163 -401t-280 -64
q-233 0 -357 107.5t-124 320.5v867q0 66 -37 101.5t-149 39.5v24h581v-24q-146 -5 -159 -57t-13 -84v-842z" />
    <glyph glyph-name="ubreve" unicode="&#x16d;" horiz-adv-x="993" 
d="M495.5 1094q-102.5 0 -168 84t-73.5 237h35q47 -182 165.5 -182t171 47t72.5 135h37q-8 -154 -72.5 -237.5t-167 -83.5zM139 250v565q0 47 -23.5 72.5t-99.5 27.5v25l324 8v-655q0 -98 30.5 -149.5t104.5 -51.5q106 0 180 162v561q0 47 -24.5 72.5t-98.5 27.5v25l324 8
v-844q0 -41 23.5 -59t99.5 -20v-25h-320v199q-118 -211 -294 -211q-106 0 -166 66.5t-60 195.5z" />
    <glyph glyph-name="Uring" unicode="&#x16e;" horiz-adv-x="1351" 
d="M440 420q0 -385 340 -385q219 0 265.5 149.5t46.5 266.5v651q0 144 -49 213t-181 88v24h479v-24q-122 -23 -161 -88.5t-39 -212.5v-670q0 -337 -163 -401t-280 -64q-233 0 -357 107.5t-124 320.5v867q0 66 -37 101.5t-149 39.5v24h581v-24q-146 -5 -159 -57t-13 -84v-842
zM627 1798q0 -182 95 -182t95 182q0 96 -22.5 139t-72.5 43t-72.5 -43t-22.5 -139zM722 1581q-97 0 -151.5 64.5t-54.5 152.5t55.5 152.5t150.5 64.5t150.5 -64.5t55.5 -152.5t-54.5 -152.5t-151.5 -64.5z" />
    <glyph glyph-name="uring" unicode="&#x16f;" horiz-adv-x="993" 
d="M139 250v565q0 47 -23.5 72.5t-99.5 27.5v25l324 8v-655q0 -98 30.5 -149.5t104.5 -51.5q106 0 180 162v561q0 47 -24.5 72.5t-98.5 27.5v25l324 8v-844q0 -41 23.5 -59t99.5 -20v-25h-320v199q-118 -211 -294 -211q-106 0 -166 66.5t-60 195.5zM399 1311
q0 -183 95.5 -183t95.5 183q0 96 -22.5 139t-72.5 43t-73 -43t-23 -139zM495 1094q-97 0 -151.5 64.5t-54.5 152.5t54.5 152.5t150.5 64.5t151 -64.5t55 -152.5t-54 -152.5t-151 -64.5z" />
    <glyph glyph-name="Uhungarumlaut" unicode="&#x170;" horiz-adv-x="1351" 
d="M745 1989q40 0 65.5 -23.5t25.5 -55.5t-25 -69t-88 -106l-158 -164h-35l88 235q35 104 61 143.5t66 39.5zM1035 1989q40 0 65.5 -23.5t25.5 -55.5t-23.5 -68t-88.5 -107l-158 -164h-35l88 235q35 104 60.5 143.5t65.5 39.5zM440 420q0 -385 340 -385q219 0 265.5 149.5
t46.5 266.5v651q0 144 -49 213t-181 88v24h479v-24q-122 -23 -161 -88.5t-39 -212.5v-670q0 -337 -163 -401t-280 -64q-233 0 -357 107.5t-124 320.5v867q0 66 -37 101.5t-149 39.5v24h581v-24q-146 -5 -159 -57t-13 -84v-842z" />
    <glyph glyph-name="uhungarumlaut" unicode="&#x171;" horiz-adv-x="993" 
d="M519 1501q40 0 65.5 -23.5t25.5 -55.5t-24.5 -68.5t-87.5 -106.5l-158 -164h-35l88 236q35 104 60.5 143t65.5 39zM810 1501q40 0 65.5 -23.5t25.5 -55.5t-23.5 -67.5t-89.5 -107.5l-157 -164h-35l88 236q35 104 60.5 143t65.5 39zM139 250v565q0 47 -23.5 72.5
t-99.5 27.5v25l324 8v-655q0 -98 30.5 -149.5t104.5 -51.5q106 0 180 162v561q0 47 -24.5 72.5t-98.5 27.5v25l324 8v-844q0 -41 23.5 -59t99.5 -20v-25h-320v199q-118 -211 -294 -211q-106 0 -166 66.5t-60 195.5z" />
    <glyph glyph-name="Uogonek" unicode="&#x172;" horiz-adv-x="1351" 
d="M524 -310q0 66 45.5 128t149.5 149h-21q-233 0 -357 107.5t-124 320.5v867q0 66 -37 101.5t-149 39.5v24h581v-24q-146 -5 -159 -57t-13 -84v-842q0 -385 340 -385q219 0 265.5 149.5t46.5 266.5v651q0 144 -49 213t-181 88v24h479v-24q-122 -23 -161 -88.5t-39 -212.5
v-670q0 -193 -86 -316.5t-279 -144.5l-4 -6q-106 -129 -106 -239q0 -59 27.5 -89t75.5 -30t97 35l15 -25q-93 -76 -178 -76t-132 41.5t-47 107.5z" />
    <glyph glyph-name="uogonek" unicode="&#x173;" horiz-adv-x="993" 
d="M139 250v565q0 47 -23.5 72.5t-99.5 27.5v25l324 8v-655q0 -98 30.5 -149.5t104.5 -51.5q106 0 180 162v561q0 47 -24.5 72.5t-98.5 27.5v25l324 8v-844q0 -41 23.5 -59t99.5 -20v-25h-80l-31 -35q-106 -129 -106 -239q0 -59 27.5 -89t75.5 -30t98 35l14 -25
q-93 -76 -179 -76t-131.5 41.5t-45.5 107.5t42 123.5t140 143.5l51 43h-195v199q-118 -211 -294 -211q-106 0 -166 66.5t-60 195.5z" />
    <glyph glyph-name="Wcircumflex" unicode="&#x174;" horiz-adv-x="1800" 
d="M662 1427h546v-24q-107 -8 -132 -43.5t-1 -130.5l244 -938h8l215 821q39 147 10 207t-141 84v24h418v-24q-97 -20 -145 -83t-97 -230l-299 -1121h-94l-272 975l-308 -975h-96l-328 1223q-27 110 -58.5 143t-64 46.5t-81.5 21.5v24h551v-24q-102 -8 -123 -49t0 -125
l237 -942h8l240 741l-41 164q-32 121 -62 152.5t-59.5 42t-74.5 16.5v24zM922 1958h34l226 -387h-37l-209 186l-211 -186h-37z" />
    <glyph glyph-name="wcircumflex" unicode="&#x175;" horiz-adv-x="1318" 
d="M313 844q0 -23 11 -60l176 -569h8l156 436l-31 111q-24 89 -52.5 121.5t-86.5 36.5v24h426v-24q-103 -7 -103 -76q0 -27 8 -60l154 -563h8l127 436q31 109 31 158t-29 71.5t-88 33.5v24h324v-24q-49 -6 -93.5 -47.5t-70.5 -129.5l-232 -757h-94l-178 594l-213 -594h-90
l-252 776q-28 89 -60.5 121.5t-91.5 36.5v24h435v-24q-99 -7 -99 -76zM690 1470h35l225 -387h-37l-208 187l-211 -187h-37z" />
    <glyph glyph-name="Ycircumflex" unicode="&#x176;" horiz-adv-x="1191" 
d="M625 1958h34l226 -387h-37l-209 186l-211 -186h-37zM813 1427h412v-24q-93 -21 -147.5 -72t-127.5 -194l-245 -502v-467q0 -66 36.5 -101.5t153.5 -39.5v-27h-600v27q119 4 154.5 39.5t35.5 101.5v442l-305 629q-36 78 -77 113t-121 51v24h577v-24q-123 -12 -147 -50
t14 -120l254 -539l221 453q63 133 51 171t-45 55.5t-94 29.5v24z" />
    <glyph glyph-name="ycircumflex" unicode="&#x177;" horiz-adv-x="872" 
d="M467 1470h35l225 -387h-37l-209 187l-211 -187h-37zM252 -260q0 -55 -35 -90q52 5 99 66t104 221l16 47l-307 778q-31 84 -63 116t-97 42v24h453v-24q-78 -6 -94.5 -39t6.5 -95l194 -544l150 426q47 133 26.5 185.5t-116.5 66.5v24h321v-24q-95 -13 -155 -181l-295 -819
q-96 -270 -166.5 -294.5t-122.5 -24.5t-91.5 41t-39.5 93t27.5 90t76.5 38t79 -34t30 -89z" />
    <glyph glyph-name="Ydieresis" unicode="&#x178;" horiz-adv-x="1191" 
d="M503 1581q-50 0 -82 37t-32 92t32 92t83 37t82.5 -37t31.5 -92t-32.5 -92t-82.5 -37zM845 1581q-50 0 -82 37t-32 92t32 92t83 37t81.5 -37t30.5 -92t-31.5 -92t-81.5 -37zM813 1427h412v-24q-93 -21 -147.5 -72t-127.5 -194l-245 -502v-467q0 -66 36.5 -101.5
t153.5 -39.5v-27h-600v27q119 4 154.5 39.5t35.5 101.5v442l-305 629q-36 78 -77 113t-121 51v24h577v-24q-123 -12 -147 -50t14 -120l254 -539l221 453q63 133 51 171t-45 55.5t-94 29.5v24z" />
    <glyph glyph-name="Zacute" unicode="&#x179;" horiz-adv-x="1144" 
d="M522 1386q-101 0 -187.5 -92t-197.5 -323l-31 4l31 452h946v-26l-761 -1360h342q104 0 183 90t204 346l32 -4l-28 -473h-996l-2 27l764 1359h-299zM725 1991q43 0 69.5 -26.5t26.5 -58.5t-24.5 -69t-83.5 -104l-152 -162h-37l78 233q33 104 56.5 145.5t66.5 41.5z" />
    <glyph glyph-name="zacute" unicode="&#x17a;" horiz-adv-x="833" 
d="M397 903q-108 0 -172.5 -103.5t-107.5 -185.5l-29 4l23 326h680l2 -26l-521 -877h189q80 0 143 66t146 235l30 -4l-24 -338h-707l-2 27l520 876h-170zM580 1503q43 0 69.5 -26.5t26.5 -58.5t-24.5 -68.5t-84.5 -104.5l-151 -162h-37l78 234q33 104 56.5 145t66.5 41z" />
    <glyph glyph-name="Zdotaccent" unicode="&#x17b;" horiz-adv-x="1144" 
d="M590 1581q-55 0 -88 36t-33 95.5t34 97t89 37.5t88 -35.5t33 -95t-34 -97.5t-89 -38zM522 1386q-101 0 -187.5 -92t-197.5 -323l-31 4l31 452h946v-26l-761 -1360h342q104 0 183 90t204 346l32 -4l-28 -473h-996l-2 27l764 1359h-299z" />
    <glyph glyph-name="zdotaccent" unicode="&#x17c;" horiz-adv-x="833" 
d="M440.5 1094q-55.5 0 -88.5 35.5t-33 95t34 97.5t89.5 38t88 -36t32.5 -95.5t-33.5 -97t-89 -37.5zM397 903q-108 0 -172.5 -103.5t-107.5 -185.5l-29 4l23 326h680l2 -26l-521 -877h189q80 0 143 66t146 235l30 -4l-24 -338h-707l-2 27l520 876h-170z" />
    <glyph glyph-name="Zcaron" unicode="&#x17d;" horiz-adv-x="1144" 
d="M522 1386q-101 0 -187.5 -92t-197.5 -323l-31 4l31 452h946v-26l-761 -1360h342q104 0 183 90t204 346l32 -4l-28 -473h-996l-2 27l764 1359h-299zM350 1958h37l211 -184l211 184h35l-234 -387h-35z" />
    <glyph glyph-name="zcaron" unicode="&#x17e;" horiz-adv-x="833" 
d="M397 903q-108 0 -172.5 -103.5t-107.5 -185.5l-29 4l23 326h680l2 -26l-521 -877h189q80 0 143 66t146 235l30 -4l-24 -338h-707l-2 27l520 876h-170zM197 1470h36l211 -184l211 184h35l-233 -387h-35z" />
    <glyph glyph-name="Aringacute" unicode="&#x1fa;" horiz-adv-x="1204" 
d="M526 1192h-8l-194 -619h381zM362 0h-411v27q89 24 140.5 89.5t105.5 225.5l358 1094q-70 16 -109.5 74t-39.5 138t55 145t151.5 65t151.5 -64t55 -144t-39 -137t-106 -77l15 -52q15 -51 42 -136t59 -192.5t90 -296.5t117 -386t74.5 -234t43.5 -66.5t132 -45.5v-27h-588
v27q125 8 153 43.5t3 128.5l-98 333h-408l-59 -182q-54 -173 -37.5 -222.5t52.5 -69t97 -31.5v-27zM518 1640q0 -182 94 -182t95 182q0 96 -21.5 140.5t-73 44.5t-73 -43t-21.5 -142zM733 2310q43 0 69.5 -26.5t26.5 -58.5t-24.5 -68.5t-83.5 -104.5l-152 -162h-37l78 234
q33 104 56.5 145t66.5 41z" />
    <glyph glyph-name="aringacute" unicode="&#x1fb;" horiz-adv-x="874" 
d="M352 1311q0 -183 95.5 -183t95.5 183q0 96 -22.5 139t-72.5 43t-73 -43t-23 -139zM448 1094q-97 0 -151.5 64.5t-54.5 152.5t55 152.5t150 64.5t150.5 -64.5t55.5 -152.5t-54 -152.5t-151 -64.5zM578 2013q43 0 69.5 -26.5t26.5 -58.5t-24.5 -68.5t-84.5 -104.5
l-151 -162h-37l78 234q33 104 56.5 145t66.5 41zM396 86q92 0 157 104v320q-160 -38 -218.5 -94.5t-58.5 -147.5q0 -90 32 -136t88 -46zM297 -12q-111 0 -171 65t-60 145q0 154 99 216t233 93.5t155 41.5v149q0 117 -36 168.5t-119 51.5t-130 -56q49 -53 49 -108t-28.5 -89
t-80.5 -34t-81 35.5t-29 83.5q0 92 92 149t248 57t235 -67.5t79 -220.5v-490q0 -78 26.5 -103.5t104.5 3.5l8 -21q-95 -67 -170 -67q-74 0 -112 34.5t-48 114.5h-6q-113 -151 -258 -151z" />
    <glyph glyph-name="AEacute" unicode="&#x1fc;" horiz-adv-x="1816" 
d="M834 1350h-11l-387 -734h398v734zM215 141q0 -49 27.5 -73.5t89.5 -40.5v-27h-410v27q94 29 170 110.5t152 227.5l454 845q31 61 31 90q0 76 -186 103v24h1128l6 -450l-30 -4q-89 236 -166.5 324.5t-227.5 88.5h-196v-630h80q113 0 170.5 58t93.5 214h29v-586h-29
q-49 230 -130 252.5t-134 22.5h-80v-676h190q182 0 273.5 97.5t175.5 338.5l28 -2l-6 -475h-1071v27q113 4 150 39.5t37 101.5v407h-418l-129 -241q-72 -144 -72 -193zM1157 1991q43 0 69.5 -26.5t26.5 -58.5t-24.5 -69t-83.5 -104l-152 -162h-37l78 233q33 104 56.5 145.5
t66.5 41.5z" />
    <glyph glyph-name="aeacute" unicode="&#x1fd;" horiz-adv-x="1357" 
d="M868 1503q43 0 70 -26.5t27 -58.5t-25 -68.5t-84 -104.5l-151 -162h-37l77 234q33 104 56.5 145t66.5 41zM396 86q56 0 102.5 33t70.5 84v307q-238 -58 -265.5 -131t-27.5 -137t32 -110t88 -46zM944 924q-164 0 -176 -379h330q14 168 -22 273.5t-132 105.5zM692 836
q112 125 276 125q163 0 256 -130t85 -323h-541v-29q0 -185 69.5 -300.5t200.5 -115.5q80 0 138.5 48.5t107.5 134.5l25 -17q-51 -104 -134 -174.5t-209 -70.5t-214 59t-131 162h-9q-47 -92 -129 -154.5t-193 -62.5t-167.5 65t-56.5 145q0 154 106 220q73 46 178 73t152 37.5
t67 20.5v149q0 117 -44 168.5t-127 51.5t-130 -56q49 -53 49 -108t-28.5 -89t-80.5 -34t-81 35.5t-29 83.5q0 92 92.5 149t245.5 57q193 0 256 -120z" />
    <glyph glyph-name="Oslashacute" unicode="&#x1fe;" horiz-adv-x="1329" 
d="M805 1991q43 0 69.5 -26.5t26.5 -58.5t-24.5 -69t-83.5 -104l-152 -162h-37l78 233q33 104 56.5 145.5t66.5 41.5zM1006 713q0 234 -39 403l-586 -868q79 -240 281 -240q90 0 152.5 36t127 159t64.5 510zM666 1421q-91 0 -215.5 -72.5t-124.5 -633.5q0 -252 36 -406
l586 871q-79 241 -282 241zM1075 1266q180 -210 180 -545t-173 -544.5t-416 -209.5q-213 0 -375 154l-129 -191h-66l158 232q-178 208 -178 542q0 335 127 491.5t234.5 210.5t228.5 54q217 0 372 -155l131 192h66z" />
    <glyph glyph-name="oslashacute" unicode="&#x1ff;" horiz-adv-x="946" 
d="M618 1503q44 0 70.5 -26.5t26.5 -58.5t-24.5 -68.5t-84.5 -104.5l-151 -162h-37l78 234q33 104 55.5 145t66.5 41zM465 924q-191 0 -191 -404q0 -196 17 -276l350 512q-46 168 -176 168zM653 700l-350 -512q46 -168 176 -168q98 0 144.5 106.5t46.5 295.5t-17 278z
M186 104q-129 138 -129 360t122.5 359.5t293.5 137.5q138 0 250 -91l84 123h57l-106 -153q131 -147 131 -364t-121.5 -354.5t-280.5 -137.5t-266 90l-84 -123h-55z" />
    <glyph glyph-name="Scommaaccent" unicode="&#x218;" horiz-adv-x="1030" 
d="M94 -37v508h31q92 -217 188.5 -338t223.5 -121t194.5 78.5t67.5 169.5t-23.5 142t-80 103t-228.5 122q-66 29 -209 97.5t-143 295.5q0 197 119.5 316.5t304.5 119.5q143 0 266 -65l61 77h27v-458h-31q-82 219 -166 313t-183 94t-163.5 -67t-64.5 -185q0 -171 123.5 -234
t191.5 -91q170 -69 261 -155t91 -259t-106 -314t-338 -141q-133 0 -283 90l-104 -98h-27zM491 -354q-34 0 -62 31.5t-28 78.5t31 84t86 37t90 -44t35 -126t-55.5 -162t-165.5 -137l-19 25q145 102 150 227l-8 2q-20 -16 -54 -16z" />
    <glyph glyph-name="scommaaccent" unicode="&#x219;" horiz-adv-x="747" 
d="M364 961q128 0 209 -60l45 60h27v-302h-31q-80 148 -119.5 192t-70.5 58.5t-80 14.5t-90 -43t-41 -115t58.5 -111t136.5 -67q157 -56 218.5 -115.5t61.5 -182.5t-81 -214.5t-224 -91.5q-49 0 -116.5 20.5t-108.5 50.5l-64 -71h-26v333h32q90 -168 138.5 -218t84 -64.5
t93.5 -14.5t96.5 51t38.5 121t-54.5 114t-142.5 74q-159 55 -221.5 111.5t-62.5 179.5q0 122 83 206t211 84zM335 -354q-34 0 -61.5 31.5t-27.5 78.5t30.5 84t85.5 37t90 -44t35 -126t-55 -162t-166 -137l-18 25q144 102 149 227l-8 2q-20 -16 -54 -16z" />
    <glyph glyph-name="schwa" unicode="&#x259;" horiz-adv-x="860" 
d="M404 20q174 0 182 379h-328q-12 -168 24 -273.5t122 -105.5zM588 436v29q0 290 -101.5 353t-175.5 63q-135 0 -239 -183l-25 17q53 104 135 175t194 71q202 0 314.5 -134t112.5 -347q0 -212 -117 -354t-289 -142t-266 131t-82 321h539z" />
    <glyph glyph-name="circumflex" unicode="&#x2c6;" horiz-adv-x="567" 
d="M270 1470h35l225 -387h-36l-209 187l-211 -187h-37z" />
    <glyph glyph-name="caron" unicode="&#x2c7;" horiz-adv-x="567" 
d="M37 1470h37l211 -184l211 184h34l-233 -387h-35z" />
    <glyph glyph-name="breve" unicode="&#x2d8;" horiz-adv-x="604" 
d="M262 1233q119 0 171 47t73 135h37q-8 -154 -72.5 -237.5t-167 -83.5t-168 84t-74.5 237h35q47 -182 166 -182z" />
    <glyph glyph-name="dotaccent" unicode="&#x2d9;" horiz-adv-x="391" 
d="M194.5 1094q-55.5 0 -88 35.5t-32.5 95t33.5 97.5t89 38t88 -36t32.5 -95.5t-33.5 -97t-89 -37.5z" />
    <glyph glyph-name="ring" unicode="&#x2da;" horiz-adv-x="489" 
d="M150 1311q0 -183 95 -183t95 183q0 96 -22.5 139t-72.5 43t-72.5 -43t-22.5 -139zM245 1094q-97 0 -151.5 64.5t-54.5 152.5t55.5 152.5t150.5 64.5t150.5 -64.5t55.5 -152.5t-54.5 -152.5t-151.5 -64.5z" />
    <glyph glyph-name="ogonek" unicode="&#x2db;" horiz-adv-x="479" 
d="M236 -459q-85 0 -132 41.5t-47 107.5t42 123.5t141 143.5l84 70h34l-53 -62q-106 -129 -106 -239q0 -59 27.5 -89t75.5 -30t97 35l15 -25q-93 -76 -178 -76z" />
    <glyph glyph-name="tilde" unicode="&#x2dc;" horiz-adv-x="606" 
d="M463 1237q55 0 86 121h35q-14 -141 -53 -201.5t-102 -60.5t-128 36.5t-99 53t-61 16.5q-53 0 -84 -121h-37q14 141 53.5 201.5t102.5 60.5t129 -36.5t99.5 -53t58.5 -16.5z" />
    <glyph glyph-name="hungarumlaut" unicode="&#x2dd;" horiz-adv-x="581" 
d="M208 1501q40 0 65.5 -23.5t25.5 -55.5t-24.5 -68.5t-88.5 -106.5l-157 -164h-35l88 236q35 104 60.5 143t65.5 39zM499 1501q40 0 65.5 -23.5t25.5 -55.5t-23.5 -67.5t-89.5 -107.5l-158 -164h-34l88 236q35 104 60.5 143t65.5 39z" />
    <glyph glyph-name="commaaccent" unicode="&#x326;" horiz-adv-x="460" 
d="M202 -354q-34 0 -61.5 31.5t-27.5 78.5t30.5 84t85.5 37t90 -44t35 -126t-55 -162t-166 -137l-18 25q144 102 149 227l-8 2q-20 -16 -54 -16z" />
    <glyph glyph-name="Wgrave" unicode="&#x1e80;" horiz-adv-x="1800" 
d="M684 1906q0 32 26.5 58.5t69.5 26.5t66.5 -41t56.5 -146l78 -233h-37l-151 162q-59 68 -84 104.5t-25 68.5zM662 1427h546v-24q-107 -8 -132 -43.5t-1 -130.5l244 -938h8l215 821q39 147 10 207t-141 84v24h418v-24q-97 -20 -145 -83t-97 -230l-299 -1121h-94l-272 975
l-308 -975h-96l-328 1223q-27 110 -58.5 143t-64 46.5t-81.5 21.5v24h551v-24q-102 -8 -123 -49t0 -125l237 -942h8l240 741l-41 164q-32 121 -62 152.5t-59.5 42t-74.5 16.5v24z" />
    <glyph glyph-name="wgrave" unicode="&#x1e81;" horiz-adv-x="1318" 
d="M440 1418q0 32 27 58.5t69 26.5t66.5 -41t56.5 -145l78 -234h-37l-151 162q-59 68 -84 104.5t-25 68.5zM313 844q0 -23 11 -60l176 -569h8l156 436l-31 111q-24 89 -52.5 121.5t-86.5 36.5v24h426v-24q-103 -7 -103 -76q0 -27 8 -60l154 -563h8l127 436q31 109 31 158
t-29 71.5t-88 33.5v24h324v-24q-49 -6 -93.5 -47.5t-70.5 -129.5l-232 -757h-94l-178 594l-213 -594h-90l-252 776q-28 89 -60.5 121.5t-91.5 36.5v24h435v-24q-99 -7 -99 -76z" />
    <glyph glyph-name="Wacute" unicode="&#x1e82;" horiz-adv-x="1800" 
d="M662 1427h546v-24q-107 -8 -132 -43.5t-1 -130.5l244 -938h8l215 821q39 147 10 207t-141 84v24h418v-24q-97 -20 -145 -83t-97 -230l-299 -1121h-94l-272 975l-308 -975h-96l-328 1223q-27 110 -58.5 143t-64 46.5t-81.5 21.5v24h551v-24q-102 -8 -123 -49t0 -125
l237 -942h8l240 741l-41 164q-32 121 -62 152.5t-59.5 42t-74.5 16.5v24zM1090 1991q43 0 69.5 -26.5t26.5 -58.5t-24.5 -69t-84.5 -104l-151 -162h-37l78 233q33 104 56.5 145.5t66.5 41.5z" />
    <glyph glyph-name="wacute" unicode="&#x1e83;" horiz-adv-x="1318" 
d="M313 844q0 -23 11 -60l176 -569h8l156 436l-31 111q-24 89 -52.5 121.5t-86.5 36.5v24h426v-24q-103 -7 -103 -76q0 -27 8 -60l154 -563h8l127 436q31 109 31 158t-29 71.5t-88 33.5v24h324v-24q-49 -6 -93.5 -47.5t-70.5 -129.5l-232 -757h-94l-178 594l-213 -594h-90
l-252 776q-28 89 -60.5 121.5t-91.5 36.5v24h435v-24q-99 -7 -99 -76zM864 1503q43 0 70 -26.5t27 -58.5t-25 -68.5t-84 -104.5l-152 -162h-36l77 234q33 104 56.5 145t66.5 41z" />
    <glyph glyph-name="Wdieresis" unicode="&#x1e84;" horiz-adv-x="1800" 
d="M662 1427h546v-24q-107 -8 -132 -43.5t-1 -130.5l244 -938h8l215 821q39 147 10 207t-141 84v24h418v-24q-97 -20 -145 -83t-97 -230l-299 -1121h-94l-272 975l-308 -975h-96l-328 1223q-27 110 -58.5 143t-64 46.5t-81.5 21.5v24h551v-24q-102 -8 -123 -49t0 -125
l237 -942h8l240 741l-41 164q-32 121 -62 152.5t-59.5 42t-74.5 16.5v24zM763 1581q-50 0 -82 37t-32 92t32 92t83 37t83 -37t32 -92t-33 -92t-83 -37zM1105 1581q-50 0 -82 37t-32 92t32 92t83 37t82 -37t31 -92t-32 -92t-82 -37z" />
    <glyph glyph-name="wdieresis" unicode="&#x1e85;" horiz-adv-x="1318" 
d="M313 844q0 -23 11 -60l176 -569h8l156 436l-31 111q-24 89 -52.5 121.5t-86.5 36.5v24h426v-24q-103 -7 -103 -76q0 -27 8 -60l154 -563h8l127 436q31 109 31 158t-29 71.5t-88 33.5v24h324v-24q-49 -6 -93.5 -47.5t-70.5 -129.5l-232 -757h-94l-178 594l-213 -594h-90
l-252 776q-28 89 -60.5 121.5t-91.5 36.5v24h435v-24q-99 -7 -99 -76zM531 1094q-50 0 -81.5 36.5t-31.5 92t31.5 92.5t83 37t83 -37t31.5 -92.5t-33 -92t-83 -36.5zM873 1094q-50 0 -81.5 36.5t-31.5 92t31.5 92.5t83 37t82 -37t30.5 -92.5t-32 -92t-82 -36.5z" />
    <glyph glyph-name="Ygrave" unicode="&#x1ef2;" horiz-adv-x="1191" 
d="M391 1906q0 32 26.5 58.5t69.5 26.5t67 -41t56 -146l78 -233h-37l-151 162q-59 68 -84 104.5t-25 68.5zM813 1427h412v-24q-93 -21 -147.5 -72t-127.5 -194l-245 -502v-467q0 -66 36.5 -101.5t153.5 -39.5v-27h-600v27q119 4 154.5 39.5t35.5 101.5v442l-305 629
q-36 78 -77 113t-121 51v24h577v-24q-123 -12 -147 -50t14 -120l254 -539l221 453q63 133 51 171t-45 55.5t-94 29.5v24z" />
    <glyph glyph-name="ygrave" unicode="&#x1ef3;" horiz-adv-x="872" 
d="M217 1418q0 32 26.5 58.5t69.5 26.5t66.5 -41t56.5 -145l78 -234h-37l-151 162q-59 68 -84 104.5t-25 68.5zM252 -260q0 -55 -35 -90q52 5 99 66t104 221l16 47l-307 778q-31 84 -63 116t-97 42v24h453v-24q-78 -6 -94.5 -39t6.5 -95l194 -544l150 426q47 133 26.5 185.5
t-116.5 66.5v24h321v-24q-95 -13 -155 -181l-295 -819q-96 -270 -166.5 -294.5t-122.5 -24.5t-91.5 41t-39.5 93t27.5 90t76.5 38t79 -34t30 -89z" />
    <glyph glyph-name="enspace" unicode="&#x2002;" horiz-adv-x="1024" 
 />
    <glyph glyph-name="emspace" unicode="&#x2003;" horiz-adv-x="2048" 
 />
    <glyph glyph-name="threeperemspace" unicode="&#x2004;" horiz-adv-x="681" 
 />
    <glyph glyph-name="fourperemspace" unicode="&#x2005;" horiz-adv-x="512" 
 />
    <glyph glyph-name="thinspace" unicode="&#x2009;" horiz-adv-x="272" 
 />
    <glyph glyph-name="hairspace" unicode="&#x200a;" horiz-adv-x="153" 
 />
    <glyph glyph-name="endash" unicode="&#x2013;" horiz-adv-x="952" 
d="M96 559h760v-45h-760v45z" />
    <glyph glyph-name="emdash" unicode="&#x2014;" horiz-adv-x="1392" 
d="M96 559h1200v-45h-1200v45z" />
    <glyph glyph-name="quoteleft" unicode="&#x2018;" horiz-adv-x="428" 
d="M214 918q-62 0 -100 48t-38 142t69.5 189.5t216.5 160.5l17 -26q-98 -55 -147.5 -133t-53.5 -138l6 -4q23 17 60 17t68.5 -33t31.5 -87t-34 -95t-96 -41z" />
    <glyph glyph-name="quoteright" unicode="&#x2019;" horiz-adv-x="428" 
d="M182 1198q-37 0 -68.5 33t-31.5 87t35 95t95 41t99 -48t39 -142t-69.5 -189.5t-217.5 -161.5l-16 27q98 53 147.5 132t55.5 138l-8 4q-23 -16 -60 -16z" />
    <glyph glyph-name="quotesinglbase" unicode="&#x201a;" horiz-adv-x="428" 
d="M182 -14q-37 0 -68.5 32.5t-31.5 86.5t35 95.5t95 41.5t99 -48.5t39 -142.5t-69.5 -189t-217.5 -161l-16 27q98 53 147.5 132t55.5 138l-8 4q-23 -16 -60 -16z" />
    <glyph glyph-name="quotedblleft" unicode="&#x201c;" horiz-adv-x="780" 
d="M214 918q-62 0 -100 48t-38 142t69.5 189.5t216.5 160.5l17 -26q-98 -55 -147.5 -133t-53.5 -138l6 -4q23 17 60 17t68.5 -33t31.5 -87t-34 -95t-96 -41zM566 918q-60 0 -99 48t-39 142t69.5 189.5t217.5 160.5l16 -26q-98 -55 -147 -133t-56 -138l9 -4q23 17 59 17
t68 -33t32 -87t-35 -95t-95 -41z" />
    <glyph glyph-name="quotedblright" unicode="&#x201d;" horiz-adv-x="780" 
d="M182 1198q-37 0 -68.5 33t-31.5 87t35 95t95 41t99 -48t39 -142t-69.5 -189.5t-217.5 -161.5l-16 27q98 53 147.5 132t55.5 138l-8 4q-23 -16 -60 -16zM534 1198q-36 0 -68 33t-32 87t34 95t96 41t100 -48t38 -142t-69.5 -189.5t-216.5 -161.5l-17 27q98 53 147.5 132
t53.5 138l-6 4q-24 -16 -60 -16z" />
    <glyph glyph-name="quotedblbase" unicode="&#x201e;" horiz-adv-x="780" 
d="M182 -14q-37 0 -68.5 32.5t-31.5 86.5t35 95.5t95 41.5t99 -48.5t39 -142.5t-69.5 -189t-217.5 -161l-16 27q98 53 147.5 132t55.5 138l-8 4q-23 -16 -60 -16zM534 -14q-36 0 -68 32.5t-32 86.5t34 95.5t96 41.5t100 -48.5t38 -142.5t-69.5 -189t-216.5 -161l-17 27
q98 53 147.5 132t53.5 138l-6 4q-24 -16 -60 -16z" />
    <glyph glyph-name="dagger" unicode="&#x2020;" horiz-adv-x="999" 
d="M618 948q-98 0 -98 -110q0 -41 27 -82l71 -121q-42 -146 -69 -426.5t-35 -427.5h-29q-22 408 -58 613.5t-46 240.5l72 121q26 33 26 82q0 110 -98 110q-49 0 -100.5 -27.5t-79 -40t-58.5 -12.5t-61.5 20.5t-30.5 64.5t42 73t108 29q109 0 278 -115l6 6l-41 213
q-36 179 -36 241t25.5 96t67.5 34t66.5 -34t24.5 -93t-37 -244l-41 -213l6 -6q171 115 279 115q68 0 108.5 -29t40.5 -73t-29.5 -64.5t-60.5 -20.5q-38 0 -114.5 40t-125.5 40z" />
    <glyph glyph-name="daggerdbl" unicode="&#x2021;" horiz-adv-x="1005" 
d="M801 231q-106 0 -279 113l-6 -6l43 -205q35 -175 35 -231t-24.5 -87.5t-66.5 -31.5t-66.5 30.5t-24.5 87.5t37 232l40 205l-6 6q-168 -113 -278 -113q-68 0 -110 28t-42 73t31 64.5t63 19.5t58 -12.5t77.5 -40t100.5 -27.5t74.5 25.5t25.5 71.5t-28 99l-60 123l60 125
q28 50 28 97q0 98 -100 98q-46 0 -99 -27.5t-79.5 -40t-58.5 -12.5t-62.5 20.5t-30.5 64.5t42 72.5t110 28.5q111 0 278 -114l6 6l-40 207q-37 180 -37 234t24.5 84t66.5 30t66.5 -30t24.5 -90t-35 -228l-43 -207l6 -6q175 114 279 114q68 0 109.5 -28.5t41.5 -72.5
t-30.5 -64.5t-61.5 -20.5q-38 0 -114 40t-123 40t-74 -24.5t-27 -69.5t31 -101l57 -125l-57 -123q-31 -60 -31 -102q0 -43 26 -68.5t68 -25.5q56 0 130 40t109 40q36 0 66.5 -19.5t30.5 -64.5t-42 -73t-109 -28z" />
    <glyph glyph-name="bullet" unicode="&#x2022;" horiz-adv-x="841" 
d="M250.5 482.5q-68.5 76.5 -68.5 191.5t68.5 192.5t171.5 77.5t170 -77t67 -193q0 -115 -66.5 -191.5t-170 -76.5t-172 76.5z" />
    <glyph glyph-name="ellipsis" unicode="&#x2026;" horiz-adv-x="1247" 
d="M211 -31q-55 0 -91 40t-36 95.5t37 95.5t92 40t91 -40t36 -95.5t-37 -95.5t-92 -40zM624 -31q-56 0 -92 40t-36 95.5t37 95.5t93 40t91 -40t35 -95.5t-36 -95.5t-92 -40zM1035 -31q-56 0 -92 40t-36 95.5t37 95.5t93 40t91 -40t35 -95.5t-36 -95.5t-92 -40z" />
    <glyph glyph-name="guilsinglleft" unicode="&#x2039;" horiz-adv-x="536" 
d="M94 408q-35 40 -35 53q0 12 35 49l336 350l27 -18l-224 -383l224 -383l-27 -17z" />
    <glyph glyph-name="guilsinglright" unicode="&#x203a;" horiz-adv-x="536" 
d="M440 510q35 -35 35 -52t-35 -50l-334 -351l-26 19l223 383l-223 385l26 16z" />
    <glyph glyph-name="fraction" unicode="&#x2044;" horiz-adv-x="1062" 
d="M502 662l424 727h63l-852 -1452h-63z" />
    <glyph glyph-name="Euro" unicode="&#x20ac;" horiz-adv-x="1187" 
d="M47 553v43h143q-2 16 -2 20v46q0 59 7 116h-148v43h154q40 243 191.5 404t365.5 161q150 0 253 -78t103 -190q0 -63 -35 -107t-91 -44t-93 36.5t-37 96.5t27.5 97.5t64.5 55.5q-18 35 -71.5 65t-118.5 30q-143 0 -232.5 -127t-105.5 -400h379v-43h-383v-78q0 -79 4 -104
h379v-43h-375q25 -223 121 -344t239 -121q189 0 308 240l34 -17q-142 -340 -428 -340q-214 0 -348 162t-159 420h-146z" />
    <glyph glyph-name="published" unicode="&#x2117;" horiz-adv-x="1443" 
d="M731 686q86 0 120 50t34 152t-34 153t-116 51h-59v-406h55zM535 410v624q0 31 -18.5 45.5t-80.5 18.5v24h307q156 0 223.5 -63.5t67.5 -164.5t-72.5 -170t-224.5 -69h-61v-245q0 -33 19.5 -46.5t84.5 -17.5v-24h-344v26q61 4 80 17.5t19 44.5zM721 -14q135 0 247.5 57
t193.5 156.5t126 232.5t45 282.5t-45 281.5t-126 231.5t-193.5 157t-247.5 57.5t-247 -57.5t-193.5 -157t-126.5 -231.5t-45 -281.5t45 -282.5t126.5 -232.5t193.5 -156.5t247 -57zM721 -49q-141 0 -261 57.5t-257 216.5t-137 487q0 329 137 488.5t257 218t261 58.5
t262 -58.5t257 -218.5t136 -488q0 -327 -136 -486.5t-257 -217t-262 -57.5z" />
    <glyph glyph-name="servicemark" unicode="&#x2120;" horiz-adv-x="1112" 
d="M537 1067v274q0 29 -13.5 47.5t-54.5 20.5v21h190l105 -334h10l103 334h186v-21q-39 -4 -54.5 -12t-15.5 -31v-354q0 -20 14.5 -27.5t55.5 -9.5v-25h-223v25q35 2 46 9t11 26v356h-8l-127 -416h-45l-137 416h-11v-299q0 -49 11.5 -69.5t56.5 -26.5v-21h-168v21
q43 4 55.5 25.5t12.5 70.5zM250 940q-51 0 -103 29l-32 -31h-17v174h23q35 -72 69.5 -108.5t78.5 -36.5t64.5 26.5t20.5 62.5t-31.5 56.5t-83.5 41.5t-93.5 47.5t-41.5 92.5t46.5 106t102.5 40t109 -21l19 25h16v-158h-22q-55 129 -121 129q-31 0 -54.5 -21.5t-23.5 -59.5
t30 -56t82 -38t92 -48.5t40 -90.5t-29 -97t-59.5 -49.5t-81.5 -14.5z" />
    <glyph glyph-name="trademark" unicode="&#x2122;" horiz-adv-x="1177" 
d="M158 975q45 0 60 8t15 27v395h-16q-39 0 -65.5 -39t-51.5 -111h-22l4 175h397l4 -175h-22q-23 72 -49.5 111t-67.5 39h-14v-395q0 -18 14 -26.5t59 -8.5v-25h-245v25zM602 1341q0 65 -70 68v21h191l106 -334h9l102 334h186v-21q-39 -4 -53 -12t-14 -31v-354
q0 -20 13 -27.5t54 -9.5v-25h-223v25q35 2 46.5 9t11.5 26v356h-9l-127 -416h-45l-137 416h-8v-299q0 -49 11 -69.5t54 -26.5v-21h-168v21q45 4 57.5 25.5t12.5 70.5v274z" />
    <glyph glyph-name="minus" unicode="&#x2212;" horiz-adv-x="954" 
d="M96 690h764v-45h-764v45z" />
    <glyph glyph-name="caron.alt" horiz-adv-x="280" 
d="M156 1561q33 0 57.5 -19.5t24.5 -56.5t-35 -139l-97 -248h-24l-12 237l-2 117q0 66 27.5 87.5t60.5 21.5z" />
    <glyph glyph-name="hfjslug" horiz-adv-x="1421" 
d="M880.5 648.5q24.5 -0.5 24.5 -34.5t-32.5 -34t-32.5 34q0 12 8 23.5t32.5 11zM975 612v35h22q20 0 21 -16q0 -18 -21 -19h-22zM659 823q-33 -1 -33 45t33 78l41 -80q-16 -43 -41 -43zM645 1047q0 39 29 38q27 -1 27 -35t-31 -69q-25 50 -25 66zM522 565h17l22 70h2
l23 -70h16l29 97h-17l-20 -72h-2l-23 72h-14l-23 -72h-2l-20 72h-16zM270 567h17v66l51 -66h14v95h-16v-66l-51 66h-15v-95zM395 567h70v15h-53v26h47v15h-47v24h53v15h-70v-95zM750 567h16v35l37 60h-19l-26 -46l-27 46h-18l37 -60v-35zM872.5 565q22.5 0 36 14.5
t13.5 33.5t-13.5 35t-36 16t-36 -15t-13.5 -35t13.5 -34.5t36 -14.5zM1034 631q0 31 -35 31h-41v-95h17v31h24l21 -31h18l-24 35q20 8 20 29zM1071 567h16v25l17 16l31 -41h20l-41 54l37 41h-21l-40 -50h-3v50h-16v-95zM729 1056.5q0 53.5 -55 53.5q-27 0 -42.5 -19.5
t-15.5 -44.5t29 -79q-47 -37 -47 -85q0 -88 59 -87q39 0 60 49h2l24 -49l25 12l-35 65q13 30 27 80l-27 6l-16 -61h-2l-33 64q47 42 47 95.5zM983 827q-19 0 -41 11v-31q20 -8 43 -8q63 0 64 73v281h-33v-281q0 -45 -33 -45zM377 801h31v162h96v-162h31v352h-31v-162h-96
v162h-31v-352zM819 801h31v160h78v28h-78v135h88v29h-119v-352zM102 -410v621q29 0 47.5 18.5t18.5 46.5t-18.5 47t-47.5 19v1135h205l62 161h684l59 -161h207v-1887h-426l-16 29h-334l-17 -29h-424z" />
    <glyph glyph-name="i.dot" horiz-adv-x="522" 
d="M168 104v707q0 47 -24.5 73.5t-102.5 28.5v25l328 10v-844q0 -49 23.5 -63t103.5 -16v-25h-455v25q76 2 101.5 16t25.5 63zM260 1124q-55 0 -89 35t-34 94.5t34 98.5t89 39t89 -37t34 -96.5t-34 -96.5t-89 -37z" />
    <glyph glyph-name="percent.alt" horiz-adv-x="1509" 
d="M1140 12q69 0 102.5 70t33.5 252t-38 252.5t-107 70.5t-102.5 -69.5t-33.5 -252.5t38 -253t107 -70zM917 591q90 103 222 103t218.5 -101t86.5 -257.5t-90 -259.5t-219 -103t-218.5 100.5t-89.5 257.5t90 260zM372 1346q-69 0 -102.5 -70t-33.5 -252t37.5 -253t105.5 -71
t101.5 71t33.5 253t-36.5 252t-105.5 70zM739 700l422 672h72l-459 -710l-426 -678h-72zM594 767q-88 -103 -219 -103t-219 100.5t-88 256.5t89.5 258.5t220.5 102.5t217.5 -99.5t86.5 -256t-88 -259.5z" />
    <glyph glyph-name="registered.alt" horiz-adv-x="1443" 
d="M1026 317q-102 0 -134 35t-36 109l-6 100q-4 86 -34 118t-114 32h-53v-301q0 -33 18.5 -45.5t75.5 -16.5v-26h-335v26q59 4 78.5 17.5t19.5 44.5v624q0 33 -19.5 46.5t-78.5 17.5v24h333q208 0 238.5 -77t30.5 -133t-41 -109t-152 -74v-4q102 -4 136 -51t42 -125l11 -98
q10 -66 25.5 -84.5t70.5 -20.5v-22q-32 -7 -76 -7zM711 739q90 0 119.5 39t29.5 131t-31.5 137.5t-117.5 45.5h-62v-353h62zM721 -14q135 0 247.5 57t193.5 156.5t126 232.5t45 282.5t-45 281.5t-126 231.5t-193.5 157t-247.5 57.5t-247 -57.5t-193.5 -157t-126.5 -231.5
t-45 -281.5t45 -282.5t126.5 -232.5t193.5 -156.5t247 -57zM721 -49q-141 0 -261 57.5t-257 216.5t-137 487q0 329 137 488.5t257 218t261 58.5t262 -58.5t257 -218.5t136 -488q0 -327 -136 -486.5t-257 -217t-262 -57.5z" />
    </font>
</defs>
</svg>
