<?xml version="1.0" standalone="no"?>
<!DOCTYPE svg PUBLIC "-//W3C//DTD SVG 1.1//EN" "http://www.w3.org/Graphics/SVG/1.1/DTD/svg11.dtd" >
<svg xmlns="http://www.w3.org/2000/svg">
<metadata>
Created by FontPrep 20130207 at Fri Dec 23 12:40:57 2016
 By Nick Villapiano
Copyright (C) 2002, 2007 Hoefler &#38; Frere-Jones. http://www.typography.com
</metadata>
<defs>
<font id="87e87bf81b7851d68c930f190a91ecea" horiz-adv-x='1024' >
  <font-face 
    font-family="ChronicleDispCond-SemiItalic"
    font-weight="300"
    font-style="italic"
    font-stretch="condensed"
    units-per-em="2048"
    panose-1="0 0 0 0 0 0 0 0 0 0"
    ascent="1638"
    descent="-410"
    x-height="944"
    cap-height="1427"
    bbox="-346 -582 2036 2329"
    underline-thickness="102"
    underline-position="-102"
    slope="-4.2"
    unicode-range="U+000D-FB04"
  />
<missing-glyph horiz-adv-x="1024" 
d="M145 -307h734l-367 799zM569 614l353 -770v1540zM455 614l-353 770v-1540zM512 737l367 799h-734zM0 1638h1024v-2048h-1024v2048z" />
    <glyph glyph-name="f_f" unicode="ff" horiz-adv-x="1085" 
d="M754 1286q0 58 51 105q-31 41 -99 41q-69 0 -120 -69t-86 -239l-37 -184h325l15 66q18 84 43 155q-41 4 -66.5 35.5t-25.5 89.5zM-98 -233q0 -69 -54 -107q20 -20 54 -20t79 20.5t101 296.5l188 942h-196l10 41h192l15 59q57 248 162.5 358.5t267.5 110.5
q84 0 145.5 -29.5t85.5 -82.5q104 125 254 125q104 0 164 -49.5t60 -111.5t-28 -99t-79 -37t-78.5 30.5t-27.5 70.5q0 84 47 124q-25 35 -76 35q-110 0 -174 -303l-41 -201h207l-11 -41h-204l-140 -717q-66 -331 -153 -456t-240 -125q-84 0 -137 36.5t-53 92.5t27.5 91.5
t75.5 35.5t72.5 -31t24.5 -70q0 -72 -53 -100q21 -16 43 -16q48 0 83 50t60 187l205 1022h-325l-140 -715q-66 -331 -157.5 -457t-253.5 -126q-94 0 -151.5 41t-57.5 100t29.5 94t78.5 35t74 -32t25 -72z" />
    <glyph glyph-name="fi" unicode="fi" horiz-adv-x="1044" 
d="M901 1153q-108 0 -108 125q0 64 55 108q-12 25 -46 41.5t-71 16.5q-86 0 -141 -74t-92 -262l-35 -168h303l219 10l-194 -741q-21 -74 -21 -108t37 -46t133 -4v-20q-127 -47 -211 -47q-151 0 -151 114q0 33 20 119l180 682h-323l-140 -715q-66 -331 -157.5 -457
t-253.5 -126q-94 0 -151.5 41t-57.5 100t29.5 94t78.5 35t74 -32t25 -72q0 -69 -54 -107q20 -20 54 -20t79 20.5t101 296.5l188 942h-196l10 41h192l21 88q57 244 166.5 348.5t269.5 104.5q123 0 200 -55.5t77 -141.5q0 -51 -29 -91t-80 -40z" />
    <glyph glyph-name="fl" unicode="fl" horiz-adv-x="1038" 
d="M762 1269q0 79 53 126q-12 18 -39.5 33.5t-62.5 15.5q-78 0 -127 -70.5t-84 -238.5l-39 -195h321l54 227q-76 23 -76 102zM731 -16q-149 0 -149 116q0 37 20 119l172 680h-319l-140 -715q-66 -331 -157.5 -457t-253.5 -126q-94 0 -151.5 41t-57.5 100t29.5 94t78.5 35
t74 -32t25 -72q0 -69 -54 -107q20 -20 54 -20t79 20.5t101 296.5l188 942h-196l10 41h192l15 66q53 252 161.5 363.5t264.5 111.5q109 0 178 -47l195 41l16 -5l-313 -1259q-19 -83 -19 -100q0 -41 37 -54.5t135 -5.5v-20q-94 -47 -215 -47z" />
    <glyph glyph-name="f_f_i" unicode="ffi" horiz-adv-x="1503" 
d="M754 1286q0 58 51 105q-31 41 -99 41q-69 0 -120 -69t-86 -239l-37 -184h325l19 88q8 37 18.5 69.5t20.5 63.5q-41 4 -66.5 35.5t-25.5 89.5zM1412 1153q-109 0 -109 125q0 64 57 108q-12 25 -46 41.5t-71 16.5q-86 0 -141 -74t-94 -262l-35 -168h303l221 10l-197 -741
q-18 -70 -18 -106t37 -48t131 -4v-20q-118 -47 -209 -47q-151 0 -151 114q0 33 20 119l178 682h-323l-140 -717q-66 -333 -154.5 -457t-240.5 -124q-82 0 -135 36.5t-53 92.5t27.5 91.5t75.5 35.5t72.5 -31t24.5 -70q0 -72 -53 -100q21 -16 43 -16q48 0 83 50t60 187
l205 1022h-325l-140 -715q-66 -331 -157.5 -457t-253.5 -126q-94 0 -151.5 41t-57.5 100t29.5 94t78.5 35t74 -32t25 -72q0 -69 -54 -107q20 -20 54 -20t79 20.5t101 296.5l188 942h-196l10 41h192l15 59q57 248 162.5 358.5t267.5 110.5q84 0 145.5 -30.5t85.5 -83.5
q110 127 291 127q123 0 201 -55.5t78 -141.5q0 -51 -29 -91t-81 -40z" />
    <glyph glyph-name="f_f_l" unicode="ffl" horiz-adv-x="1550" 
d="M754 1286q0 58 51 105q-31 41 -99 41q-69 0 -120 -69t-86 -239l-37 -184h325l15 66q18 84 43 155q-41 4 -66.5 35.5t-25.5 89.5zM1272 1269q0 79 53 126q-10 18 -39 33.5t-61 15.5q-78 0 -127 -70.5t-84 -238.5l-41 -195h323l54 227q-78 23 -78 102zM-98 -233
q0 -69 -54 -107q20 -20 54 -20t79 20.5t101 296.5l188 942h-196l10 41h192l15 59q57 248 162.5 358.5t267.5 110.5q84 0 145.5 -29.5t85.5 -82.5q106 125 277 125q106 0 176 -47l194 41l17 -5l-313 -1259q-17 -77 -17 -109t37 -45.5t135 -5.5v-20q-127 -47 -215 -47
q-151 0 -151 116q0 33 20 119l172 680h-319l-140 -717q-66 -331 -153 -456t-240 -125q-84 0 -137 36.5t-53 92.5t27.5 91.5t75.5 35.5t72.5 -31t24.5 -70q0 -72 -53 -100q21 -16 43 -16q48 0 83 50t60 187l205 1022h-325l-140 -715q-66 -331 -157.5 -457t-253.5 -126
q-94 0 -151.5 41t-57.5 100t29.5 94t78.5 35t74 -32t25 -72z" />
    <glyph glyph-name="f_b" unicode="fb" horiz-adv-x="1482" 
d="M911 18q129 0 202 171t96.5 284t23.5 199q0 193 -127 192q-77 0 -172 -100l-152 -662q16 -35 51 -59.5t78 -24.5zM762 1270q0 78 53 125q-12 18 -39.5 33.5t-62.5 15.5q-78 0 -127 -70.5t-84 -238.5l-39 -195h321l52 229q-74 23 -74 101zM1210 961q94 0 158 -72.5
t64 -208.5t-39 -255.5t-109 -217.5t-168 -160.5t-196 -62.5t-178 23.5t-158 86.5l106 428l84 377h-319l-140 -715q-66 -331 -157.5 -457t-253.5 -126q-94 0 -151.5 41t-57.5 100t29.5 94t78.5 35t74 -32t25 -72q0 -69 -54 -107q20 -20 54 -20t79 20.5t101 296.5l188 942
h-196l10 41h192l15 66q53 252 161.5 363.5t264.5 111.5q106 0 178 -45l190 39l17 -5l-160 -657l4 -4q133 152 264 152z" />
    <glyph glyph-name="f_f_b" unicode="ffb" horiz-adv-x="1992" 
d="M754 1286q0 58 51 105q-31 41 -99 41q-69 0 -120 -69t-86 -239l-37 -184h325l15 66q18 84 43 155q-41 4 -66.5 35.5t-25.5 89.5zM1272 1269q0 79 53 126q-10 18 -39 33.5t-61 15.5q-78 0 -127 -70.5t-84 -238.5l-41 -195h321l52 229q-74 21 -74 100zM1423 18
q70 0 129.5 70t102.5 171t66.5 214t23.5 199q0 193 -129 192q-72 0 -172 -100l-152 -662q16 -35 51 -59.5t80 -24.5zM-98 -233q0 -69 -54 -107q20 -20 54 -20t79 20.5t101 296.5l188 942h-196l10 41h192l15 59q57 248 162.5 358.5t267.5 110.5q84 0 145.5 -29.5t85.5 -82.5
q107 125 277 125q104 0 176 -45l192 39l17 -5l-162 -657l6 -4q129 152 264 152q92 0 157 -72.5t65 -208.5t-39 -255.5t-110 -217.5t-168 -160.5t-195 -62.5t-179.5 23.5t-158.5 86.5l106 428l86 377h-321l-140 -717q-66 -331 -153 -456t-240 -125q-84 0 -137 36.5t-53 92.5
t27.5 91.5t75.5 35.5t72.5 -31t24.5 -70q0 -72 -53 -100q21 -16 43 -16q48 0 83 50t60 187l205 1022h-325l-140 -715q-66 -331 -157.5 -457t-253.5 -126q-94 0 -151.5 41t-57.5 100t29.5 94t78.5 35t74 -32t25 -72z" />
    <glyph glyph-name="f_f_h" unicode="ffh" horiz-adv-x="2021" 
d="M754 1286q0 58 51 105q-31 41 -99 41q-69 0 -120 -69t-86 -239l-37 -184h325l15 66q18 84 43 155q-41 4 -66.5 35.5t-25.5 89.5zM1272 1269q0 79 53 126q-10 18 -39 33.5t-61 15.5q-78 0 -127 -70.5t-84 -238.5l-41 -195h321l52 229q-74 21 -74 100zM-98 -233
q0 -69 -54 -107q20 -20 54 -20t79 20.5t101 296.5l188 942h-196l10 41h192l15 59q57 248 162.5 358.5t267.5 110.5q84 0 145.5 -29.5t85.5 -82.5q106 125 277 125q104 0 176 -45l192 39l17 -5l-174 -704l6 -4q176 192 328 192q80 0 128 -46t48 -115t-29 -185l-117 -418
q-18 -63 -18 -100t37 -45t114 0v-20q-94 -41 -186 -41q-154 0 -154 116q0 41 19 111l108 389q29 114 29 160q0 88 -88 88t-233 -133l-158 -715h-203l86 334l129 565h-321l-140 -717q-66 -331 -153 -456t-240 -125q-84 0 -137 36.5t-53 92.5t27.5 91.5t75.5 35.5t72.5 -31
t24.5 -70q0 -72 -53 -100q21 -16 43 -16q48 0 83 50t60 187l205 1022h-325l-140 -715q-66 -331 -157.5 -457t-253.5 -126q-94 0 -151.5 41t-57.5 100t29.5 94t78.5 35t74 -32t25 -72z" />
    <glyph glyph-name="f_f_j" unicode="ffj" horiz-adv-x="1519" 
d="M754 1286q0 58 51 105q-31 41 -99 41q-69 0 -120 -69t-86 -239l-37 -184h325l19 88q8 37 18.5 69.5t20.5 63.5q-41 4 -66.5 35.5t-25.5 89.5zM863.5 -141q70.5 0 70.5 -114q0 -52 -51 -87q23 -18 53 -18q71 0 115 198l235 1061h-321l-140 -717q-66 -333 -154.5 -457
t-240.5 -124q-82 0 -135 36.5t-53 92.5t27.5 91.5t75.5 35.5t72.5 -31t24.5 -70q0 -72 -53 -100q21 -16 43 -16q48 0 83 50t60 187l205 1022h-325l-140 -715q-66 -331 -157.5 -457t-253.5 -126q-94 0 -151.5 41t-57.5 100t29.5 94t78.5 35t74 -32t25 -72q0 -69 -54 -107
q20 -20 54 -20t79 20.5t101 296.5l188 942h-196l10 41h192l15 59q57 248 162.5 358.5t267.5 110.5q84 0 146.5 -30.5t84.5 -83.5q110 127 291 127q123 0 201 -55.5t78 -141.5q0 -51 -29 -91t-81 -40q-109 0 -109 125q0 64 57 108q-12 25 -46 41.5t-71 16.5q-86 0 -141 -74
t-94 -262l-35 -168h305l215 10l-213 -934q-47 -211 -126 -313t-228 -102q-84 0 -137.5 38.5t-53.5 94.5t29 90.5t99.5 34.5z" />
    <glyph glyph-name="f_f_k" unicode="ffk" horiz-adv-x="1966" 
d="M754 1286q0 58 51 105q-31 41 -99 41q-69 0 -120 -69t-86 -239l-37 -184h325l15 66q18 84 43 155q-41 4 -66.5 35.5t-25.5 89.5zM1272 1269q0 79 53 126q-10 18 -39 33.5t-61 15.5q-78 0 -127 -70.5t-84 -238.5l-41 -195h321l52 229q-74 21 -74 100zM-98 -233
q0 -69 -54 -107q20 -20 54 -20t79 20.5t101 296.5l188 942h-196l10 41h192l15 59q57 248 162.5 358.5t267.5 110.5q84 0 145.5 -29.5t85.5 -82.5q106 125 277 125q104 0 176 -45l192 39l17 -5l-219 -917h45q76 0 124 74.5t75.5 127t79 127t136.5 74.5q61 0 91 -35.5
t30 -90.5t-29.5 -94.5t-76.5 -39.5t-74 24.5t-27 65.5t19 74q-33 -8 -62.5 -50t-60.5 -94t-65.5 -100.5t-77.5 -68.5v-4q205 -11 227.5 -91.5t22.5 -125.5l-7 -226q0 -43 24.5 -59t117.5 -12v-21q-70 -26 -175 -26q-104 0 -133.5 33.5t-29.5 99.5l14 237q0 98 -28.5 134
t-100.5 36h-63l-117 -522h-203l86 334l129 565h-321l-140 -717q-66 -331 -153 -456t-240 -125q-84 0 -137 36.5t-53 92.5t27.5 91.5t75.5 35.5t72.5 -31t24.5 -70q0 -72 -53 -100q21 -16 43 -16q48 0 83 50t60 187l205 1022h-325l-140 -715q-66 -331 -157.5 -457
t-253.5 -126q-94 0 -151.5 41t-57.5 100t29.5 94t78.5 35t74 -32t25 -72z" />
    <glyph glyph-name="f_h" unicode="fh" horiz-adv-x="1509" 
d="M762 1270q0 78 53 125q-12 18 -39.5 33.5t-62.5 15.5q-78 0 -127 -70.5t-84 -238.5l-39 -195h321l52 229q-74 23 -74 101zM1241 -16q-156 0 -156 116q0 38 21 111l106 389q29 114 29 160q0 88 -88 88t-233 -133l-156 -715h-205l86 334l129 565h-319l-142 -715
q-65 -329 -155.5 -456t-253.5 -127q-94 0 -151.5 41t-57.5 100t29.5 94t78.5 35t74 -32t25 -72q0 -68 -56 -107q25 -20 57 -20t78 22t101 295l188 942h-196l10 41h192l15 66q53 252 161.5 363.5t264.5 111.5q106 0 178 -45l190 39l17 -5l-172 -704l4 -4q180 192 328 192
q82 0 129 -46t47 -122t-29 -178l-117 -418q-16 -66 -16 -102t37 -43.5t114 0.5v-20q-102 -41 -186 -41z" />
    <glyph glyph-name="f_j" unicode="fj" horiz-adv-x="1007" 
d="M901 1153q-108 0 -108 125q0 64 55 108q-12 25 -46 41.5t-71 16.5q-86 0 -141 -74t-92 -262l-35 -168h305l213 10l-213 -934q-47 -211 -126 -313t-226 -102q-84 0 -138.5 38.5t-54.5 94.5t30 90.5t76 34.5t70.5 -31t24.5 -82t-53 -88q23 -18 53 -18t60 38.5t57 159.5
l235 1061h-321l-140 -715q-66 -331 -157.5 -457t-253.5 -126q-94 0 -151.5 41t-57.5 100t29.5 94t78.5 35t74 -32t25 -72q0 -69 -54 -107q20 -20 54 -20t79 20.5t101 296.5l188 942h-196l10 41h192l21 88q57 244 166.5 348.5t269.5 104.5q123 0 200 -55.5t77 -141.5
q0 -51 -29 -91t-80 -40z" />
    <glyph glyph-name="f_k" unicode="fk" horiz-adv-x="1456" 
d="M762 1270q0 78 53 125q-12 18 -39.5 33.5t-62.5 15.5q-78 0 -127 -70.5t-84 -238.5l-39 -195h321l52 229q-74 23 -74 101zM942 522h-63l-115 -522h-203l84 334l129 565h-319l-140 -715q-66 -331 -157.5 -457t-253.5 -126q-94 0 -151.5 41t-57.5 100t29.5 94t78.5 35
t74 -32t25 -72q0 -69 -54 -107q20 -20 54 -20t79 20.5t101 296.5l188 942h-196l10 41h192l15 66q53 252 161.5 363.5t264.5 111.5q106 0 178 -45l190 39l17 -5l-217 -917h45q74 0 122 74.5t75.5 127t79 127t136.5 74.5q61 0 92 -35.5t31 -90.5t-29.5 -94.5t-76.5 -39.5
t-75 24.5t-28 65.5t19 74q-33 -8 -61.5 -50t-59.5 -94t-65.5 -100.5t-79.5 -68.5v-4q207 -11 229.5 -91.5t22.5 -125.5l-9 -226q0 -44 26 -59.5t116 -11.5v-21q-65 -26 -172 -26t-135.5 33.5t-28.5 99.5l14 237q0 98 -29.5 134t-101.5 36z" />
    <glyph glyph-name=".notdef" horiz-adv-x="1024" 
d="M145 -307h734l-367 799zM569 614l353 -770v1540zM455 614l-353 770v-1540zM512 737l367 799h-734zM0 1638h1024v-2048h-1024v2048z" />
    <glyph glyph-name=".null" horiz-adv-x="0" 
 />
    <glyph glyph-name=".null" horiz-adv-x="0" 
 />
    <glyph glyph-name="nonmarkingreturn" unicode="&#xd;" horiz-adv-x="512" 
 />
    <glyph glyph-name="space" unicode=" " horiz-adv-x="323" 
 />
    <glyph glyph-name="exclam" unicode="!" horiz-adv-x="491" 
d="M166 -31q-55 0 -91 40t-36 95.5t37 95.5t92 40t91 -40t36 -95.5t-37 -95.5t-92 -40zM569 1361q0 -56 -27.5 -142t-129 -355t-166.5 -481l-29 6q41 250 70.5 558t40.5 386q25 147 131 148q47 0 78.5 -32t31.5 -88z" />
    <glyph glyph-name="quotedbl" unicode="&#x22;" horiz-adv-x="784" 
d="M822 1440q32 0 58.5 -24.5t26.5 -59.5t-24.5 -75t-83.5 -105l-248 -285l-25 12l64 158q94 241 127 295.5t53 69t52 14.5zM486 1440q32 0 58.5 -24.5t26.5 -59.5t-24.5 -75t-83.5 -105l-248 -285l-25 12l64 158q91 235 125.5 292.5t54.5 72t52 14.5z" />
    <glyph glyph-name="numbersign" unicode="#" horiz-adv-x="1234" 
d="M406 420h364l135 516h-364zM551 979h364l123 465h49l-122 -465h272l-4 -43h-279l-135 -516h291l-2 -43h-301l-121 -465h-49l121 465h-365l-121 -465h-49l121 465h-268l2 43h278l136 516h-289l2 43h297l123 465h49z" />
    <glyph glyph-name="dollar" unicode="$" horiz-adv-x="999" 
d="M672 1288q-106 0 -181 -59t-76 -153t40 -146.5t120 -106.5l115 465h-18zM719 310q0 100 -46 154t-120 105l-123 -499h29q123 0 191.5 70t68.5 170zM51 309q0 57 36 106.5t93 49.5t88 -32t31 -81t-29.5 -88t-74.5 -57q23 -51 75 -84t111 -45l129 520q-6 4 -12 7t-35 21
q-109 70 -171.5 137t-62.5 165q0 180 127.5 290.5t321.5 110.5h18l37 139l55 -6l-34 -139q119 -16 201.5 -88t82.5 -170q0 -57 -33 -102t-87 -45t-83.5 30.5t-29.5 74.5t22.5 83t67.5 57q-41 93 -156 117l-118 -485q5 -3 33 -21q115 -71 183 -146.5t68 -210.5t-122 -261.5
t-322 -126.5h-39l-41 -166l-55 6l41 166q-218 33 -267 125t-49 149z" />
    <glyph glyph-name="percent" unicode="%" horiz-adv-x="1449" 
d="M385 643q59 0 117.5 52.5t103.5 131t73 171t28 169.5v15q-88 31 -160 108q-102 -50 -181 -209.5t-79 -298.5t98 -139zM1018 29q61 0 118.5 53t130 180.5t72.5 280.5t-96 153q-59 0 -117.5 -53t-131 -180.5t-72.5 -280.5t96 -153zM1258.5 770q130.5 0 130.5 -211
q0 -80 -30 -182.5t-84 -191.5t-129 -150.5t-172 -61.5t-152.5 65.5t-55.5 169.5t38 203t100.5 179t143 130t211 50zM846 1157q-48 0 -92 8q-2 -82 -33 -182t-84 -188t-128 -147.5t-171 -59.5t-151.5 64.5t-55.5 168.5t38 202.5t100.5 178.5t143.5 130t167 50q132 0 163 -127
q61 -38 154 -38q173 0 360 198h56l-1034 -1468h-93l979 1327l-6 6q-150 -123 -313 -123z" />
    <glyph glyph-name="ampersand" unicode="&#x26;" horiz-adv-x="1294" 
d="M1163 735q63 0 98 -34.5t35 -92.5t-33.5 -99.5t-83.5 -41.5t-80 28.5t-30 66.5t12 59l-4 6q-94 -46 -229 -265q49 -171 84 -215.5t61.5 -55.5t69.5 -11t117 61l18 -18q-125 -156 -264 -156q-177 0 -238 213q-160 -213 -356 -213q-141 0 -221 84t-80 211q0 316 420 451
q-84 139 -84 290t107.5 257t245.5 106t215 -68.5t77 -177.5t-90 -203t-262 -161q117 -187 163 -357q178 336 332 336zM254 332q0 -108 52 -179t160 -71t220 133q-71 254 -209 471q-223 -144 -223 -354zM852 1164q0 174 -119 173q-72 0 -125 -65.5t-53 -199.5t94 -286
q104 74 153.5 179t49.5 199z" />
    <glyph glyph-name="quotesingle" unicode="'" horiz-adv-x="448" 
d="M486 1440q32 0 58.5 -24.5t26.5 -59.5t-24.5 -75t-83.5 -105l-248 -285l-25 12l64 158q91 235 125.5 292.5t54.5 72t52 14.5z" />
    <glyph glyph-name="parenleft" unicode="(" horiz-adv-x="696" 
d="M135 416q0 233 80 423.5t203 336t272.5 244t290.5 145.5l10 -23q-170 -80 -295 -219t-245.5 -390.5t-120.5 -613.5q0 -229 54 -377.5t179 -260.5l-12 -21q-287 170 -351.5 395.5t-64.5 360.5z" />
    <glyph glyph-name="parenright" unicode=")" horiz-adv-x="696" 
d="M430 940q0 196 -54 345t-179 261l12 21q288 -171 352 -396t64 -360q0 -233 -80 -423.5t-204 -336t-273.5 -244t-288.5 -145.5l-10 23q168 80 292.5 219t206.5 307t122 350.5t40 378.5z" />
    <glyph glyph-name="asterisk" unicode="*" horiz-adv-x="704" 
d="M492 1370q0 36 6 60t27 41.5t51 12.5t41.5 -32t6.5 -52t-17.5 -49t-29 -51.5t-33 -53t-26.5 -42.5l12 -10q18 6 45 18.5t79.5 32.5t80.5 24q29 3 51.5 -12.5t25.5 -46.5q6 -62 -75 -71q-53 0 -119.5 17.5t-85.5 21.5l-8 -13q12 -14 31.5 -37.5t69 -80t41.5 -96.5t-37 -51
q-63 -24 -92 50q-8 19 -16 100t-11 107l-16 4q-10 -16 -49.5 -81t-65.5 -91q-61 -55 -103 -6q-56 64 31.5 110.5t175.5 80.5v16q-18 4 -47.5 10t-59.5 14.5t-76 20.5t-59.5 47t3.5 59q51 85 140.5 -17.5t104.5 -121.5l17 6q-14 126 -14 162z" />
    <glyph glyph-name="plus" unicode="+" horiz-adv-x="991" 
d="M578 690h374l-10 -45h-375l-100 -438h-53l100 438h-377l10 45h377l101 432h53z" />
    <glyph glyph-name="comma" unicode="," horiz-adv-x="425" 
d="M4 102q0 57 38 97.5t94 40.5t93 -42t37 -108q0 -115 -94 -214t-287 -171l-12 27q127 63 185.5 127.5t74.5 117.5l-6 5q-55 -6 -89 28.5t-34 91.5z" />
    <glyph glyph-name="hyphen" unicode="-" horiz-adv-x="645" 
d="M121 571h450l-20 -84h-451z" />
    <glyph glyph-name="period" unicode="." horiz-adv-x="425" 
d="M136 -31q-56 0 -92 40t-36 95.5t37 95.5t93 40t91 -40t35 -95.5t-36 -95.5t-92 -40z" />
    <glyph glyph-name="slash" unicode="/" horiz-adv-x="794" 
d="M-217 -440l1190 1968h63l-598 -985l-590 -983h-65z" />
    <glyph glyph-name="zero" unicode="0" horiz-adv-x="1085" 
d="M1098 872q0 -140 -46 -303t-131 -295.5t-202 -216.5t-269 -84t-253 131t-101 363q0 158 46 320.5t130 294.5t201 216t269 84t254 -128.5t102 -381.5zM301 240q0 -110 42 -168t115 -58t131 57.5t127 194t122 395.5t53 412t-42 211.5t-115 58.5t-131 -57t-105 -150.5
t-84 -211t-61.5 -236.5t-38 -228.5t-13.5 -219.5z" />
    <glyph glyph-name="one" unicode="1" horiz-adv-x="757" 
d="M-35 27q140 8 173.5 24.5t47 37t21.5 52.5l227 987q25 99 2.5 125.5t-64.5 35.5t-118 14l6 24l449 43l-289 -1231q-15 -62 23 -83t180 -29l-5 -27h-657z" />
    <glyph glyph-name="two" unicode="2" horiz-adv-x="968" 
d="M793 1094q0 249 -187 249q-74 0 -133 -38.5t-94 -102.5q51 -16 80.5 -57t29.5 -97t-36.5 -102.5t-96 -46.5t-96.5 41.5t-37 109.5q0 134 120.5 233t293.5 99t273 -88.5t100 -231.5t-132 -285.5t-481 -387.5l-260 -196v-9h443q99 0 136.5 30t65 72t64.5 111l26 -2
l-96 -395h-794l28 145l375 293q316 257 362 411.5t46 244.5z" />
    <glyph glyph-name="three" unicode="3" horiz-adv-x="978" 
d="M811 1135q0 91 -44.5 151t-136.5 60t-147 -34t-77 -73q37 -16 65.5 -51t28.5 -88t-33 -97.5t-90 -44.5t-93 40t-36 98q0 122 111.5 204t290.5 82t274.5 -87t95.5 -223t-127.5 -242.5t-384.5 -127.5v-8q199 -16 291 -105t92 -220q0 -172 -138.5 -284t-327.5 -112
t-293.5 79t-104.5 196q0 70 39.5 118t97.5 48t88.5 -40t30.5 -94t-29 -93.5t-76 -57.5q20 -47 78 -82t126 -35q118 0 191 76q51 55 78 145.5t27 182.5q0 139 -81 200.5t-235 65.5l13 45q135 0 208.5 25.5t123.5 72.5q104 100 104 310z" />
    <glyph glyph-name="four" unicode="4" horiz-adv-x="1026" 
d="M145 551h416l141 606h-10zM743 416l-65 -291q-14 -57 14.5 -75.5t134.5 -22.5l-6 -27h-549l4 27q105 4 133.5 21.5t39 34.5t16.5 44l65 289h-505l20 94l772 850h144l-187 -809h242l-27 -135h-246z" />
    <glyph glyph-name="five" unicode="5" horiz-adv-x="968" 
d="M553 846q156 0 252 -88t96 -252q0 -218 -148 -375.5t-370 -157.5q-145 0 -244.5 78t-99.5 197q0 64 39.5 116t98.5 52q60 0 90 -39t30 -92t-28.5 -95.5t-75.5 -62.5q48 -115 198 -115q86 0 143.5 57.5t104.5 174t47 313.5t-74.5 218.5t-107.5 21.5q-139 0 -268 -133
l-41 14l174 680h684l-68 -197h-620l-117 -436q149 121 305 121z" />
    <glyph glyph-name="six" unicode="6" horiz-adv-x="1015" 
d="M459 14q72 0 129 61.5t116.5 202.5t59.5 351q0 129 -40 178t-98 49t-116.5 -44t-135.5 -169t-77 -356q0 -273 162 -273zM676 907q146 0 222.5 -99.5t76.5 -225.5q0 -245 -145.5 -427t-366.5 -182q-174 0 -270.5 127.5t-96.5 327.5q0 406 266.5 665.5t729.5 297.5l-2 -29
q-333 -65 -506 -240t-240 -426l6 -4q141 215 326 215z" />
    <glyph glyph-name="seven" unicode="7" horiz-adv-x="917" 
d="M469 1167q-85 0 -122.5 -35.5t-66 -85t-67.5 -128.5l-27 2l105 438h788l2 -37l-477 -780l-336 -561h-213v14l885 1173h-471z" />
    <glyph glyph-name="eight" unicode="8" horiz-adv-x="983" 
d="M844 1118q0 102 -46 163.5t-139 61.5t-158 -68.5t-65 -181.5q0 -112 62.5 -187t160.5 -146q90 63 137.5 159.5t47.5 198.5zM242 302q0 -136 60 -212t161 -76q102 0 172 75t70 199t-65.5 198.5t-174.5 150.5q-12 6 -21 14q-109 -74 -155.5 -175.5t-46.5 -173.5zM410 678
q-174 141 -174 304t122.5 281.5t300.5 118.5t272.5 -86t94.5 -207t-87 -212t-241 -146q103 -79 159 -157.5t56 -180.5q0 -189 -138 -304.5t-323 -115.5q-186 0 -290.5 93t-104.5 227q0 135 95.5 232.5t257.5 152.5z" />
    <glyph glyph-name="nine" unicode="9" horiz-adv-x="1009" 
d="M831 1071q0 272 -163 272q-70 0 -126.5 -60t-115.5 -200t-59 -348q0 -131 39.5 -182t99.5 -51q124 0 224.5 167t100.5 402zM457 451q-147 0 -225 98t-78 252q0 104 36.5 208.5t145.5 238.5t332 134q173 0 268.5 -127.5t95.5 -326.5q0 -401 -263 -662t-730 -299v29
q488 99 601.5 325t141.5 334l-6 4q-132 -208 -319 -208z" />
    <glyph glyph-name="colon" unicode=":" horiz-adv-x="442" 
d="M275 565q-56 0 -92 39t-36 95t37 96.5t93 40.5t91 -40t35 -95.5t-36 -95.5t-92 -40zM144 -31q-56 0 -92 40t-36 95.5t37 95.5t93 40t91 -40t35 -95.5t-36 -95.5t-92 -40z" />
    <glyph glyph-name="semicolon" unicode=";" horiz-adv-x="442" 
d="M12 102q0 57 38 97.5t95.5 40.5t93 -42t35.5 -108q0 -115 -93 -214t-285 -171l-13 27q127 63 185.5 127.5t74.5 117.5l-8 5q-55 -6 -89 28.5t-34 91.5zM275 565q-56 0 -92 39t-36 95t37 96.5t93 40.5t91 -40t35 -95.5t-36 -95.5t-92 -40z" />
    <glyph glyph-name="less" unicode="&#x3c;" horiz-adv-x="978" 
d="M188 645l9 43l792 440l-14 -63l-731 -403l553 -400l-13 -55z" />
    <glyph glyph-name="equal" unicode="=" horiz-adv-x="972" 
d="M176 815l8 45h779l-9 -45h-778zM96 471l10 45h779l-11 -45h-778z" />
    <glyph glyph-name="greater" unicode="&#x3e;" horiz-adv-x="978" 
d="M879 690l-9 -43l-792 -440l14 63l731 404l-553 399l13 55z" />
    <glyph glyph-name="question" unicode="?" horiz-adv-x="858" 
d="M270.5 -31q-55.5 0 -91.5 40t-36 95.5t37 95.5t92.5 40t91 -40t35.5 -95.5t-36.5 -95.5t-92 -40zM750 1212q0 232 -197 232q-82 0 -133 -37t-72 -76q91 -35 93 -141q1 -45 -31 -87t-90 -42t-91.5 39t-33.5 127t106.5 171t276.5 83t274 -96.5t104 -239.5q0 -182 -139 -309
t-395 -181l-66 -268l-55 6l72 295q200 59 288.5 203.5t88.5 320.5z" />
    <glyph glyph-name="at" unicode="@" horiz-adv-x="1587" 
d="M1008 803q-23 129 -122 129q-52 0 -102.5 -60.5t-111 -197.5t-60.5 -296t91.5 -159t164.5 150zM862 977q122 0 166 -111h4l33 95l174 18l-102 -285l-90 -297q-23 -68 -23 -121q0 -100 92 -100q59 0 121.5 43t146.5 172t84 386t-149.5 421t-386.5 164q-170 0 -310.5 -76
t-241.5 -205t-157.5 -301t-56.5 -343t40 -296t118.5 -214t192.5 -138t261.5 -49t252 46t200.5 124l20 -29q-102 -82 -212.5 -131t-262.5 -49q-305 0 -480 190.5t-175 522.5q0 211 61.5 391t170 312t258 208t301.5 76q277 0 440.5 -172t163.5 -457q0 -284 -100.5 -420.5
t-181.5 -182.5t-165 -46q-195 0 -203 172h-6q-99 -164 -225 -164q-88 0 -144.5 64.5t-56.5 180.5t37 221t96.5 190t137 137.5t157.5 52.5z" />
    <glyph glyph-name="A" unicode="A" horiz-adv-x="1206" 
d="M725 1194h-8l-332 -614h379zM-119 27q101 20 167.5 88.5t148.5 220.5l610 1112h106l103 -1219q8 -114 31.5 -143t55.5 -40t83 -19l-6 -27h-576l6 27q126 8 158.5 45t24.5 133l-25 334h-406l-116 -215q-86 -156 -73.5 -214.5t130.5 -82.5l-6 -27h-422z" />
    <glyph glyph-name="B" unicode="B" horiz-adv-x="1212" 
d="M788 1427q229 0 336 -78.5t107 -205.5q0 -224 -163 -297.5t-275 -89.5l-2 -8q180 -20 261 -100.5t81 -207.5q0 -178 -157 -309t-460 -131h-565l6 27q115 8 146.5 25.5t43 37t17.5 49.5l264 1145q12 63 -14.5 84t-143.5 33l6 26h512zM532 41q207 0 287 148t80 317
q0 113 -61.5 169t-210.5 56h-105l-160 -690h170zM662 774q178 0 262 127t84 289q0 106 -57.5 151t-184.5 45h-92l-142 -612h130z" />
    <glyph glyph-name="C" unicode="C" horiz-adv-x="1198" 
d="M1137 401q-217 -434 -557 -434q-208 0 -339.5 155.5t-131.5 412.5q0 174 54 340.5t153.5 297t236.5 209t300 78.5t296 -100l102 98h35l-119 -481h-34q-62 267 -100 333t-79 88.5t-102 22.5q-109 0 -202 -89t-162.5 -226t-108.5 -299t-39 -309q0 -231 87 -342t235 -111
q239 0 440 375z" />
    <glyph glyph-name="D" unicode="D" horiz-adv-x="1331" 
d="M510 41q185 0 319 133t205.5 380t71.5 453t-91 292.5t-278 86.5h-63l-309 -1345h145zM721 1427q319 0 465.5 -144.5t146.5 -406.5q0 -261 -134.5 -490.5t-320.5 -307.5t-370 -78h-555l4 27q117 8 148.5 25.5t43 37t17.5 49.5l262 1145q12 63 -14.5 84t-143.5 33l6 26h445
z" />
    <glyph glyph-name="E" unicode="E" 
d="M877 1386h-203l-142 -618h101q53 0 87 8t63.5 34t59 74t75.5 126h30l-123 -541h-30q-16 169 -40 205.5t-54.5 44.5t-84.5 8h-94l-157 -684h223q179 0 257.5 67.5t130.5 145.5t120 193h32l-114 -449h-1061l4 27q117 8 148.5 25.5t43 37t17.5 49.5l262 1145q12 63 -14.5 84
t-143.5 33l6 26h1006l-84 -419h-33q-23 111 -41 183.5t-46.5 115.5t-75 61t-125.5 18z" />
    <glyph glyph-name="F" unicode="F" horiz-adv-x="1148" 
d="M877 1386h-203l-148 -636h103q101 0 139.5 30.5t68 76.5t74.5 122h31l-121 -528h-30q-16 173 -38 207t-53.5 42.5t-85.5 8.5h-96l-131 -570q-6 -31 -3 -49t28.5 -34.5t152.5 -28.5l-6 -27h-606l4 27q117 8 148.5 25.5t43 37t17.5 49.5l262 1145q12 63 -14.5 84t-143.5 33
l6 26h1006l-86 -430h-33q-23 113 -41 188t-46.5 120t-75 63t-123.5 18z" />
    <glyph glyph-name="G" unicode="G" horiz-adv-x="1282" 
d="M871 1460q171 0 303 -98l100 96h35l-117 -467h-33q-72 264 -109.5 325.5t-79.5 83t-104 21.5q-117 0 -213 -92t-165.5 -234.5t-108.5 -312.5t-39 -353t78 -303t209 -120q104 0 190 66l109 460q12 60 -16 82.5t-142 30.5l4 27h531l-5 -27q-86 -8 -109.5 -25.5t-31.5 -37
t-16 -50.5l-105 -436q-214 -129 -431 -129t-356.5 161.5t-139.5 412.5q0 172 55 336.5t155.5 295t240.5 209t311 78.5z" />
    <glyph glyph-name="H" unicode="H" horiz-adv-x="1443" 
d="M711 27q111 8 139.5 25.5t39.5 37t17 49.5l133 580h-520l-133 -580q-14 -57 16.5 -79.5t141.5 -32.5l-6 -27h-588l6 27q115 8 146.5 25.5t43 37t17.5 49.5l264 1145q12 63 -14.5 84t-143.5 33l6 26h578l-6 -26q-106 -7 -138 -26t-42.5 -38.5t-16.5 -48.5l-121 -526h521
l123 528q12 54 -16 76.5t-144 34.5l6 26h588l-4 -26q-117 -8 -149 -26.5t-43 -38t-17 -48.5l-265 -1145q-16 -62 11.5 -83t146.5 -33l-6 -27h-577z" />
    <glyph glyph-name="I" unicode="I" horiz-adv-x="737" 
d="M879 1401q-117 -8 -150 -25.5t-45 -36t-18 -47.5l-267 -1153q-12 -61 17.5 -80t156.5 -32l-6 -27h-610l6 27q118 8 151 25.5t45.5 37t18.5 49.5l264 1145q13 65 -17.5 85t-150.5 32l5 26h606z" />
    <glyph glyph-name="J" unicode="J" horiz-adv-x="997" 
d="M314 -33q-164 0 -248 73t-84 191t62 152.5t107 34.5t79 -34t34 -91t-39 -106.5t-112 -63.5q14 -49 58 -83t121 -34q158 0 236 307l222 971q16 63 -16.5 84t-155.5 33l4 26h610l-4 -26q-114 -8 -149 -25.5t-46.5 -36t-17.5 -47.5l-205 -891q-53 -223 -172.5 -328.5
t-283.5 -105.5z" />
    <glyph glyph-name="K" unicode="K" horiz-adv-x="1331" 
d="M1485 1401q-112 -24 -170 -60t-108 -80t-122 -112l-272 -262l225 -645q44 -130 72.5 -158.5t58 -38.5t76.5 -18l-6 -27h-543l6 27q104 12 120 34.5t11.5 52t-20.5 76.5l-178 521l-150 -142l-98 -430q-14 -57 12.5 -79.5t124.5 -32.5l-4 -27h-569l6 27q115 8 146.5 25.5
t43 37t17.5 49.5l264 1145q12 63 -14.5 84t-143.5 33l6 26h578l-6 -26q-106 -7 -138 -26t-42.5 -38.5t-16.5 -48.5l-149 -649l516 498q117 123 113.5 184t-115.5 80l6 26h469z" />
    <glyph glyph-name="L" unicode="L" horiz-adv-x="1112" 
d="M537 43q86 0 146 18.5t112.5 65.5t107.5 128t131 204h37l-123 -459h-995l4 27q117 8 148.5 25.5t43 37t17.5 49.5l262 1145q12 63 -14.5 84t-143.5 33l6 26h582l-6 -26q-106 -7 -140 -26t-44.5 -38.5t-16.5 -48.5l-286 -1245h172z" />
    <glyph glyph-name="M" unicode="M" horiz-adv-x="1687" 
d="M264 1427h438l117 -1099h6l596 1099h430l-6 -26q-116 -8 -148 -26.5t-43.5 -38t-17.5 -48.5l-262 -1145q-16 -62 11.5 -83t146.5 -33l-6 -27h-576l4 27q109 8 139.5 25.5t41 37t16.5 49.5l270 1168h-8l-715 -1317h-57l-145 1317h-11l-231 -1008q-14 -70 -17.5 -117
t22 -91.5t151.5 -63.5l-4 -27h-472l5 27q121 16 175.5 72.5t88.5 199.5l215 940q21 85 -10 117.5t-148 44.5z" />
    <glyph glyph-name="N" unicode="N" horiz-adv-x="1370" 
d="M1069 322h2l186 804q33 147 2.5 201t-161.5 74l4 26h467l-6 -26q-126 -24 -174 -80t-80 -195l-267 -1146h-71l-506 1226h-2l-209 -903q-33 -147 -3 -202t161 -74l-6 -27h-469l4 27q129 25 178 79.5t84 196.5l203 879q20 90 -8.5 151.5t-137.5 67.5l4 26h348z" />
    <glyph glyph-name="O" unicode="O" horiz-adv-x="1316" 
d="M334 379q0 -373 246 -373q145 0 263 167t187.5 412t69.5 464q0 372 -246 372q-145 0 -263.5 -167t-187.5 -412t-69 -463zM586 -33q-206 0 -339.5 152t-133.5 418q0 166 54 330.5t150.5 296.5t232.5 214t298 82q202 0 337.5 -152t135.5 -417q0 -166 -54.5 -331
t-151.5 -297t-232 -214t-297 -82z" />
    <glyph glyph-name="P" unicode="P" horiz-adv-x="1142" 
d="M772 1427q236 0 344.5 -87.5t108.5 -233.5q0 -193 -152.5 -342.5t-451.5 -149.5h-123l-111 -475q-12 -58 17 -79t147 -33l-4 -27h-596l6 27q115 8 146.5 25.5t43 37t17.5 49.5l264 1145q12 63 -14.5 84t-143.5 33l6 26h496zM604 655q207 0 298 158.5t91 355.5
q0 106 -51 161.5t-174 55.5h-94l-168 -731h98z" />
    <glyph glyph-name="Q" unicode="Q" horiz-adv-x="1316" 
d="M334 381q0 -373 246 -373q145 0 263 167t187.5 412t69.5 462q0 372 -246 372q-145 0 -263.5 -167t-187.5 -412t-69 -461zM113 539q0 166 54 329.5t150.5 295.5t232.5 214t298 82q202 0 337.5 -152t135.5 -417q0 -164 -53.5 -328t-150.5 -295t-231 -214t-294 -85
q59 -29 102 -84t81 -108t74 -93t72 -40q66 0 66 57q0 25 -23.5 48.5t-33.5 39.5t-10 52t29.5 70t76.5 34t77 -35t30 -111.5t-89 -144.5t-201 -68t-174.5 48.5t-110.5 106.5t-89 106.5t-97 48.5t-108.5 -38t-118.5 -110l-22 23q164 199 319 221q-145 47 -237 185.5t-92 361.5
z" />
    <glyph glyph-name="R" unicode="R" horiz-adv-x="1245" 
d="M760 1427q475 0 475 -292q0 -154 -114 -268t-349 -148l-2 -6q170 -23 229.5 -98.5t51.5 -229.5l-7 -156q-8 -126 12.5 -158t53.5 -41.5t88 -11.5l-6 -28q-50 -4 -130 -4t-138 14t-85.5 46t-30.5 82t5 124l18 172q17 148 -26.5 209t-190.5 61h-100l-127 -555
q-14 -57 16.5 -79.5t143.5 -32.5l-6 -27h-590l6 27q115 8 146.5 25.5t43 37t17.5 49.5l264 1145q12 63 -14.5 84t-143.5 33l6 26h484zM631 735q195 0 285 144.5t90 304.5q0 115 -64.5 158.5t-187.5 43.5h-80l-150 -651h107z" />
    <glyph glyph-name="S" unicode="S" horiz-adv-x="1013" 
d="M756 304q0 118 -61.5 192.5t-190.5 150.5q-140 88 -202 161.5t-62 180.5q0 205 134 336t328 131q146 0 283 -80l100 92h33l-102 -448h-33q-59 237 -128 317t-172 80t-180 -78t-77 -191t55.5 -170t155.5 -123q100 -65 200.5 -145t100.5 -238q0 -215 -126 -358t-331 -143
t-354 103l-104 -111h-33l112 492h31q65 -245 142.5 -346t201 -101t201.5 89t78 207z" />
    <glyph glyph-name="T" unicode="T" 
d="M639 1386q-111 0 -189.5 -82t-242.5 -341l-37 2l125 462h1061l-90 -462l-33 -2q-25 123 -42 203.5t-41 130t-59.5 69.5t-97.5 20h-67l-287 -1247q-12 -60 18.5 -79.5t165.5 -32.5l-4 -27h-635l6 27q128 8 162.5 25.5t47 37t18.5 49.5l287 1247h-66z" />
    <glyph glyph-name="U" unicode="U" horiz-adv-x="1345" 
d="M403 293q0 -129 70 -193.5t195 -64.5q172 0 266 103.5t143 314.5l156 675q32 139 0.5 196t-162.5 77l4 26h467l-4 -26q-124 -24 -173.5 -78.5t-80.5 -194.5l-164 -712q-50 -222 -170.5 -335.5t-336.5 -113.5t-322.5 91.5t-106.5 252.5q0 70 19 146l186 827
q12 63 -14.5 84t-143.5 33l7 26h577l-6 -26q-106 -7 -138 -26t-42.5 -38.5t-16.5 -48.5l-186 -825q-23 -108 -23 -170z" />
    <glyph glyph-name="V" unicode="V" horiz-adv-x="1236" 
d="M1475 1401q-96 -16 -161 -81t-151 -220l-614 -1125h-96l-111 1231q-8 105 -32.5 133.5t-56.5 41t-85 20.5l4 26h584l-6 -26q-124 -8 -153.5 -36t-33.5 -57.5t-2 -74.5l78 -991h8l457 848q87 165 74 213.5t-47.5 68t-100.5 29.5l6 26h445z" />
    <glyph glyph-name="W" unicode="W" horiz-adv-x="1806" 
d="M625 270h6l387 729l-10 205q-4 102 -29 133t-55.5 43.5t-79.5 20.5l4 26h555l-6 -26q-116 -4 -145 -40.5t-25 -127.5l45 -957h6l389 805q81 165 66.5 232.5t-140.5 87.5l6 26h437l-6 -26q-137 -22 -203 -126t-103 -179l-542 -1121h-97l-63 938l-492 -938h-98l-86 1229
q-8 110 -39 145.5t-131 51.5l6 26h541l-4 -26q-104 -4 -130 -38.5t-22 -129.5z" />
    <glyph glyph-name="X" unicode="X" horiz-adv-x="1245" 
d="M573 27q127 12 155 48t3 118l-127 446l-293 -369q-90 -115 -76.5 -172t119.5 -71l-6 -27h-452l6 27q104 17 158.5 55.5t99.5 85.5t106 121l322 393l-174 553q-24 87 -61 118.5t-140 47.5l4 26h584l-4 -26q-125 -12 -154 -49t-4 -121l117 -404l268 330q92 117 76.5 173
t-121.5 71l4 26h455l-6 -26q-104 -16 -178 -71t-187 -191l-293 -359l180 -587q23 -84 61.5 -117t141.5 -49l-6 -27h-582z" />
    <glyph glyph-name="Y" unicode="Y" horiz-adv-x="1191" 
d="M569 1318.5q0 -24.5 9 -58.5l143 -576l328 463q89 126 77.5 178.5t-135.5 75.5l6 26h435l-5 -26q-97 -20 -145.5 -57t-86.5 -82t-91 -117l-365 -512l-112 -494q-12 -61 18 -80.5t154 -31.5l-6 -27h-609l6 27q119 8 152 25.5t45 37t19 49.5l112 492l-162 616
q-25 88 -55 113t-125 41l4 26h586l-6 -26q-134 -7 -162.5 -32.5t-28.5 -50z" />
    <glyph glyph-name="Z" unicode="Z" horiz-adv-x="1157" 
d="M748 1386q-113 0 -210 -80t-272 -329l-35 2l123 448h953l2 -30l-1088 -1356h326q122 0 217 84.5t276 343.5l33 -4l-127 -465h-995v31l1087 1355h-290z" />
    <glyph glyph-name="bracketleft" unicode="[" horiz-adv-x="661" 
d="M422 1565h526l-10 -43h-344l-422 -1817h346l-10 -43h-524z" />
    <glyph glyph-name="backslash" unicode="\" horiz-adv-x="794" 
d="M528 -440l-278 1968h57l135 -985l144 -983h-58z" />
    <glyph glyph-name="bracketright" unicode="]" horiz-adv-x="661" 
d="M-213 -297h346l420 1819h-346l10 43h526l-440 -1905h-526z" />
    <glyph glyph-name="asciicircum" unicode="^" horiz-adv-x="632" 
d="M539 1561h36l166 -465h-51l-174 260l-291 -260h-59z" />
    <glyph glyph-name="underscore" unicode="_" horiz-adv-x="784" 
d="M-96 63h792l-16 -63h-791z" />
    <glyph glyph-name="grave" unicode="`" horiz-adv-x="432" 
d="M225 1430q0 24 26.5 48.5t64.5 24.5t59.5 -36.5t48.5 -102.5l108 -281h-32l-101 105q-146 151 -160 184.5t-14 57.5z" />
    <glyph glyph-name="a" unicode="a" horiz-adv-x="960" 
d="M692 760q-32 145 -138 145q-58 0 -114.5 -68.5t-98.5 -167t-66.5 -205t-24.5 -181.5q0 -211 123 -211q51 0 99 50t83 116zM543 90q0 28 10 76l-4 4q-63 -98 -125 -142t-150 -44t-156.5 72t-68.5 210t38 257.5t103.5 217t152.5 159t173 61.5t129 -37t70 -97l33 111l196 23
l-98 -332l-98 -383q-25 -106 -25 -146t36 -51.5t113 -3.5v-20q-106 -41 -179 -41q-74 0 -112 21.5t-38 84.5z" />
    <glyph glyph-name="b" unicode="b" horiz-adv-x="929" 
d="M659 961q94 0 158 -72.5t64 -208.5t-39 -255.5t-108.5 -217.5t-167.5 -160.5t-196 -62.5t-178.5 23.5t-158.5 86.5l106 428l180 799q12 57 -15.5 76.5t-129.5 27.5v25l377 18l-160 -655l4 -4q133 152 264 152zM360 18q129 0 202 171t96.5 284t23.5 199q0 193 -127 192
q-77 0 -172 -100l-152 -662q16 -35 51 -59.5t78 -24.5z" />
    <glyph glyph-name="c" unicode="c" horiz-adv-x="790" 
d="M47 362q0 106 37 215t102.5 194t155.5 137.5t200 52.5t178 -55.5t68 -139.5q0 -53 -31.5 -95t-81.5 -42t-81 29.5t-31 74.5t23.5 81t56.5 54q-29 56 -94 56t-120.5 -55.5t-120 -191t-64.5 -335.5q0 -141 50 -212t142 -71q129 0 242 179l24 -19q-135 -235 -343 -235
t-260 136t-52 242z" />
    <glyph glyph-name="d" unicode="d" horiz-adv-x="954" 
d="M250 272q0 -88 36 -140t91 -52q99 0 178 143l135 553q-38 129 -146 129q-60 0 -115.5 -68.5t-95.5 -166t-61.5 -204t-21.5 -194.5zM547 158q-117 -174 -241 -174q-115 0 -186 80t-71 214t37 251.5t100.5 213t149.5 157t171 61.5t128 -31t74 -82l110 469q12 59 -15.5 79.5
t-131.5 28.5v25l377 18l-295 -1202q-25 -106 -25 -151t34 -62.5t122 -7.5v-20q-94 -41 -181 -41q-86 0 -120.5 27.5t-36.5 94.5v16q0 17 4 34z" />
    <glyph glyph-name="e" unicode="e" horiz-adv-x="811" 
d="M557 920q-88 0 -178 -136t-121 -299q214 4 296.5 102.5t82.5 227.5q0 105 -80 105zM428 61q141 0 260 179l25 -21q-78 -119 -165 -177t-196 -58q-208 0 -258.5 126t-50.5 232t42 220t113.5 202t168.5 142.5t211 54.5t174.5 -57.5t60.5 -143.5q0 -141 -146.5 -225
t-414.5 -80q-10 -78 -10 -125q0 -269 186 -269z" />
    <glyph glyph-name="f" unicode="f" horiz-adv-x="555" 
d="M-98 -233q0 -69 -54 -107q20 -20 54 -20t79 20.5t101 296.5l188 942h-196l10 41h192l17 68q101 473 401 473q104 0 164 -49.5t60 -111.5t-28 -99t-78 -37t-78.5 30.5t-28.5 70.5q0 86 49 124q-25 35 -77 35q-109 0 -173 -303l-41 -201h207l-13 -41h-202l-140 -715
q-66 -331 -157.5 -457t-253.5 -126q-94 0 -151.5 41t-57.5 100t29.5 94t78.5 35t74 -32t25 -72z" />
    <glyph glyph-name="g" unicode="g" horiz-adv-x="933" 
d="M250 276q0 -89 37 -138.5t93 -49.5t96 36t75 91l139 557q-44 133 -148 133q-60 0 -115.5 -68.5t-94.5 -165t-60.5 -201.5t-21.5 -194zM541 152q-103 -156 -227 -156q-119 0 -191 80.5t-72 210.5q0 131 35 245.5t97.5 210t147.5 157t185 61.5q125 0 195 -119l28 96l197 23
l-94 -334l-154 -637q-52 -211 -153 -300t-293 -89q-135 0 -215 55.5t-80 125.5t33.5 111t83.5 41t77 -30.5t27 -77.5q0 -81 -70 -121q44 -65 142 -65t159.5 83.5t102.5 247.5l43 176z" />
    <glyph glyph-name="h" unicode="h" horiz-adv-x="966" 
d="M698 -16q-155 0 -155 116q0 41 20 111l109 389q26 102 26 160q0 88 -86 88t-233 -133l-158 -715h-203l86 334l224 987q14 57 -13.5 76.5t-130.5 27.5v25l377 18l-174 -702l4 -4q180 192 328 192q82 0 129 -46t47 -120t-27 -180l-116 -418q-18 -63 -18 -100t36.5 -45
t114.5 0v-20q-103 -41 -187 -41z" />
    <glyph glyph-name="i" unicode="i" horiz-adv-x="524" 
d="M70 98q0 33 20 119l154 578q16 63 -10.5 83.5t-116.5 30.5v25l360 16l-194 -741q-19 -70 -19 -106t36 -48t132 -4v-20q-127 -47 -211 -47q-151 0 -151 114zM438 1147q-106 -1 -106 115q0 60 42 111.5t91 51.5q104 -1 104 -115q0 -60 -41 -111.5t-90 -51.5z" />
    <glyph glyph-name="j" unicode="j" horiz-adv-x="497" 
d="M-113 -233q0 -72 -55 -105q24 -22 54 -22q55 1 88 55t69 205l199 899q12 57 -12.5 78.5t-116.5 31.5v25l356 16l-205 -901q-53 -219 -135.5 -333.5t-241.5 -114.5q-94 0 -150 40t-56 100t30.5 94t78.5 34t72.5 -31t24.5 -71zM450 1425q106 -1 107 -115q0 -60 -41 -111.5
t-90 -51.5t-79 27.5t-30 87.5t41.5 111.5t91.5 51.5z" />
    <glyph glyph-name="k" unicode="k" horiz-adv-x="913" 
d="M401 522h-65l-115 -522h-203l86 334l224 987q14 57 -13.5 76.5t-130.5 27.5v25l377 18l-219 -915h45q78 0 125 74.5t73.5 127t78 127t137.5 74.5q61 0 92 -35.5t31 -90.5t-30 -94.5t-77 -39.5t-74.5 25t-27.5 61t18 78q-33 -8 -61.5 -50t-59 -94t-65.5 -100.5t-78 -68.5
v-4q205 -11 227.5 -91.5t22.5 -125.5l-6 -226q0 -44 25 -59.5t114 -11.5v-21q-64 -26 -170 -26t-136 33.5t-30 99.5l14 237q0 98 -28.5 134t-100.5 36z" />
    <glyph glyph-name="l" unicode="l" horiz-adv-x="516" 
d="M57 100q0 29 21 119l184 719l90 381q12 60 -14.5 79t-130.5 27v25l375 18l-314 -1257q-16 -77 -16 -109t37 -45.5t135 -5.5v-20q-127 -47 -215 -47q-152 0 -152 116z" />
    <glyph glyph-name="m" unicode="m" horiz-adv-x="1447" 
d="M717 954q82 0 126 -45t46 -131q0 -4 -1 -8t-1 -8q177 192 317 192q78 0 125 -44t47 -117t-28 -185l-117 -418q-17 -70 -17 -104q0 -33 36 -41t114 0v-20q-94 -41 -186 -41q-154 0 -154 116q0 41 20 111l107 389q31 121 31 164q0 84 -80 84q-88 0 -217 -121
q-2 -18 -7.5 -44t-11.5 -56l-151 -627h-195l150 598q28 110 28 164q0 86 -84 86q-53 0 -109 -37t-120 -96l-156 -715h-204l88 334l106 457q16 66 -3 88t-103 30v25l331 16l-51 -184l6 -6q177 194 318 194z" />
    <glyph glyph-name="n" unicode="n" horiz-adv-x="974" 
d="M727 954q82 0 129 -46t47 -120t-26 -180l-117 -418q-18 -63 -18 -100t36.5 -45t114.5 0v-20q-102 -41 -186 -41q-156 0 -156 116q0 41 20 111l109 389q27 106 27 160q0 88 -87 88t-235 -133l-156 -715h-204l88 334l106 457q16 66 -3 88t-103 30v25l331 16l-51 -184l4 -4
q180 192 330 192z" />
    <glyph glyph-name="o" unicode="o" horiz-adv-x="892" 
d="M362 20q129 0 214.5 244t85.5 447q0 111 -32 161t-101 50t-124 -76t-94 -184.5t-58.5 -227.5t-19.5 -203q0 -211 129 -211zM542 961q125 0 214.5 -100.5t89.5 -282.5q0 -104 -33 -211t-134.5 -245t-313.5 -138q-139 0 -228.5 99t-89.5 305t135 389.5t360 183.5z" />
    <glyph glyph-name="p" unicode="p" horiz-adv-x="948" 
d="M416 -14q-106 0 -174 77l-84 -352q-8 -35 21.5 -48t135.5 -19v-25h-497v25q72 4 101.5 17t35.5 42l74 264l190 826q14 66 -5 87t-103 29v25l329 16l-37 -143l7 -4q127 158 266 158q96 0 160.5 -74.5t64.5 -210.5t-37 -255.5t-101.5 -217t-152.5 -157.5t-194 -60zM395 39
q68 0 124 66.5t118.5 219t62.5 345.5q0 194 -125 194q-86 0 -178 -108l-141 -621q20 -47 59 -71.5t80 -24.5z" />
    <glyph glyph-name="q" unicode="q" horiz-adv-x="935" 
d="M518 961q125 0 195 -119l28 96l199 23l-96 -334l-209 -920q-9 -35 15 -47t114 -16v-25h-492v25q92 4 124 17t38 42l119 451l-8 2q-59 -90 -117.5 -131t-146.5 -41t-160 77.5t-72 239.5q0 111 37 228.5t99.5 213t148.5 157t184 61.5zM544 905q-60 0 -116.5 -68.5
t-95.5 -166t-60.5 -204t-21.5 -194.5t34 -140t90 -52q97 0 181 143l135 551q-43 131 -146 131z" />
    <glyph glyph-name="r" unicode="r" horiz-adv-x="747" 
d="M668 958q66 0 98.5 -36.5t32.5 -96.5t-34 -103.5t-84 -43.5t-79 26.5t-29 74.5t21 81q-45 -6 -105.5 -58t-113.5 -124l-146 -678h-204l86 334l108 450q8 35 8 57.5t-15 41t-99 26.5v25l329 16l-55 -209l4 -4q142 221 277 221z" />
    <glyph glyph-name="s" unicode="s" horiz-adv-x="733" 
d="M106 301q100 1 99 -113q0 -58 -58 -104q16 -27 60.5 -45.5t110.5 -18.5t117.5 47.5t52.5 130.5t-66.5 130.5t-103.5 71.5q-101 69 -147 123t-46 130q0 142 92.5 226t245.5 84q111 0 184.5 -52.5t73.5 -134.5q0 -47 -24.5 -86t-72.5 -39t-75 29t-27 83t56 101
q-10 25 -49.5 42.5t-98.5 17.5t-106.5 -44t-47.5 -116t52.5 -119t129.5 -99t129 -109t52 -131q0 -143 -88.5 -233.5t-270.5 -90.5t-231 72.5t-49 122.5t30 87t76 37z" />
    <glyph glyph-name="t" unicode="t" horiz-adv-x="587" 
d="M256 -18q-176 0 -176 155q0 42 20 129l158 633h-152l13 41h149l76 301l203 31l-88 -332h209l-11 -41h-208l-150 -608q-20 -82 -20 -130t23.5 -66.5t77.5 -18.5t134 24v-20q-145 -98 -258 -98z" />
    <glyph glyph-name="u" unicode="u" horiz-adv-x="1001" 
d="M563 77q0 48 15 99l-5 4q-164 -197 -317 -196q-88 0 -135 48t-47 120t26 178l127 458q16 66 -3 89.5t-105 31.5v25l342 16l-164 -610q-27 -111 -27 -158q0 -90 97 -90q49 0 100 33t119 102l102 398l74 321h203l-191 -719q-22 -81 -22 -126q0 -44 35.5 -54t113.5 -2v-20
q-94 -41 -175 -41q-80 0 -121.5 22.5t-41.5 70.5z" />
    <glyph glyph-name="v" unicode="v" horiz-adv-x="831" 
d="M723 965q51 0 83 -41.5t32 -85.5q0 -78 -36.5 -153.5t-162.5 -266.5l-295 -445l-133 15l-6 321l-41 486q-4 61 -26.5 80.5t-96.5 19.5v25l301 34l45 -632l2 -193h10l105 164q153 234 201 401q-99 51 -95 146q0 55 31 90t82 35z" />
    <glyph glyph-name="w" unicode="w" horiz-adv-x="1269" 
d="M1053 840q0 55 30.5 90t82 35t84 -41.5t31.5 -85.5q-2 -84 -36 -166.5t-147 -253.5l-291 -447l-135 17l-6 321l-15 172q-2 -4 -104 -165t-199 -343l-137 15l-6 321l-41 486q-4 61 -26.5 80.5t-96.5 19.5v25l301 34l45 -632v-193h10l101 178q103 186 143 297l-27 328
l191 22l43 -632l2 -195h10l103 166q143 227 186 401q-96 49 -96 146z" />
    <glyph glyph-name="x" unicode="x" horiz-adv-x="903" 
d="M824 967q62 0 93 -38t31 -93t-31.5 -90t-77.5 -35t-73 36.5t-23 96.5q-60 -22 -155 -230l-51 -110l118 -334q27 -84 49.5 -103.5t47 -24.5t63.5 -9v-25l-301 -14l-108 399h-5l-79 -168q-97 -205 -155 -230.5t-103 -25.5t-78 37t-33 90t29.5 89t79.5 36t76 -42t18 -95
q58 22 159 227l66 129l-119 344q-28 71 -53 91t-105 20v25l304 32l106 -393h6l72 166q59 135 114.5 188.5t117.5 53.5z" />
    <glyph glyph-name="y" unicode="y" horiz-adv-x="833" 
d="M712 965q52 0 82.5 -42.5t30.5 -92.5q0 -90 -42 -187.5t-224 -431.5q-295 -525 -403 -567.5t-174 -42.5t-107 42t-41 99t34 94t82 37t77.5 -31.5t29.5 -88.5t-28 -89q53 2 122.5 47t141.5 168l-133 916q-8 59 -31 79.5t-98 20.5v25l301 34l59 -444l47 -412h6l97 176
q148 252 166 418q-109 49 -109 148q2 55 32 90t82 35z" />
    <glyph glyph-name="z" unicode="z" horiz-adv-x="794" 
d="M458 -16q-62 0 -136 12t-164 12t-166 -37l-29 49l699 764l-3 9l-299 -5q-95 -4 -131 -30.5t-88 -132.5l-24 4l76 315h612l14 -49l-676 -748l2 -6q58 21 134 21l231 -15q70 0 105.5 33t62.5 133l22 -4q-22 -204 -63 -254.5t-79 -60.5t-100 -10z" />
    <glyph glyph-name="braceleft" unicode="{" horiz-adv-x="749" 
d="M197 -47q0 61 19.5 130t42 138.5t41.5 135t19 112.5q0 88 -47.5 126t-183.5 54l6 33q106 10 167 27.5t107 64.5t58 130t19.5 176.5t31 188.5t91.5 165t169 99.5t264 31.5l-8 -29q-84 -6 -132 -24.5t-87 -59.5q-61 -61 -82.5 -149.5t-35 -182.5t-36 -184t-80.5 -148
t-136 -84t-201 -38l-4 -9q170 -20 232.5 -84.5t62.5 -153.5t-47.5 -260t-47.5 -253t45 -139.5t164 -73.5l-6 -29q-199 10 -302 86t-103 203z" />
    <glyph glyph-name="bar" unicode="|" horiz-adv-x="536" 
d="M295 1528v-1968h-53v1968h53z" />
    <glyph glyph-name="braceright" unicode="}" horiz-adv-x="749" 
d="M414 1336q0 68 -45 126t-164 74l6 29q199 -10 302 -86t103 -203q0 -91 -38.5 -204.5t-57 -172.5t-18.5 -105q0 -86 46 -123t185 -55l-8 -32q-104 -10 -164.5 -27.5t-108.5 -65.5t-60.5 -136.5t-21 -188.5t-32 -199.5t-93.5 -170.5t-170 -100.5t-263 -31.5l8 29
q82 6 130 25.5t100 70.5t73.5 144.5t35 193.5t37.5 195.5t84 154.5t137 85t201 36l5 10q-168 23 -231.5 86.5t-63.5 148.5t29.5 194.5t43 170t13.5 128.5z" />
    <glyph glyph-name="asciitilde" unicode="~" horiz-adv-x="686" 
d="M550 694q30 0 52.5 25.5t50.5 93.5h35q-35 -141 -78 -200.5t-100 -59.5t-119.5 37t-94.5 53t-62 16t-52 -24.5t-51 -93.5h-35q35 141 79 200.5t102 59.5t119 -37t92.5 -53.5t61.5 -16.5z" />
    <glyph glyph-name="uni00A0" unicode="&#xa0;" horiz-adv-x="323" 
 />
    <glyph glyph-name="exclamdown" unicode="&#xa1;" horiz-adv-x="491" 
d="M49 89q0 56 28.5 142t120.5 327t175 509l30 -6q-36 -220 -67.5 -538t-44.5 -406q-25 -147 -131 -148q-47 0 -79 32t-32 88zM452.5 1210q-55.5 0 -91 40t-35.5 95.5t36 95.5t92 40t92 -39t36 -95t-37 -96.5t-92.5 -40.5z" />
    <glyph glyph-name="cent" unicode="&#xa2;" horiz-adv-x="905" 
d="M279 337q0 -192 100 -253l199 834q-63 -14 -119 -72t-118 -187.5t-62 -321.5zM82 366q0 102 40 211t108.5 193t160.5 135t197 53l33 144l53 -6l-33 -138q117 -10 181.5 -73.5t64.5 -149.5q0 -53 -32 -98t-82 -45t-78.5 28.5t-28.5 74.5t25.5 84t60.5 57q-28 73 -121 84
l-203 -854q25 -6 51 -7q150 0 260 179l27 -19q-137 -231 -358 -235l-37 -164l-52 6l37 162q-189 20 -231.5 148t-42.5 230z" />
    <glyph glyph-name="sterling" unicode="&#xa3;" horiz-adv-x="1071" 
d="M326 943q0 190 128.5 314.5t331.5 124.5q143 0 227.5 -72.5t84.5 -179.5q0 -72 -39 -119.5t-97 -47.5t-90 32.5t-32 89.5t33.5 97.5t82.5 58.5q-12 41 -55 73t-108 32q-111 0 -177.5 -87.5t-66.5 -263.5q0 -68 9 -134t15 -138h310l-11 -43h-297v-31q0 -268 -231 -418
q96 -14 183 -35.5t165 -21.5t112 10.5t74.5 46.5t79.5 164l35 -6q-88 -416 -336 -416q-145 0 -228 84t-122 127q-99 -211 -221 -211q-45 0 -74.5 29.5t-29.5 85.5t68.5 104t176.5 48q40 0 76 -4q68 129 68 292q0 64 -15 152h-215l13 43h194q-22 129 -22 220z" />
    <glyph glyph-name="yen" unicode="&#xa5;" horiz-adv-x="1214" 
d="M698 434l-65 -293q-12 -63 20 -84.5t150 -29.5l-6 -27h-602l6 27q119 8 151.5 26.5t45 39t20.5 50.5l65 291h-350l10 45h351l26 109l-12 47h-328l10 45h308l-113 496q-19 78 -43.5 102.5t-51 34.5t-69.5 18l6 27h557l-4 -27q-124 -11 -153.5 -44t-12.5 -113l107 -527
l305 420q82 123 73 181.5t-120 82.5l4 27h412l-6 -27q-83 -19 -131 -56.5t-84.5 -81.5t-86.5 -114l-286 -399h307l-10 -45h-330l-33 -45l-26 -111h352l-10 -45h-353z" />
    <glyph glyph-name="brokenbar" unicode="&#xa6;" horiz-adv-x="536" 
d="M295 397v-837h-53v837h53zM242 690v838h53v-838h-53z" />
    <glyph glyph-name="section" unicode="&#xa7;" horiz-adv-x="1019" 
d="M780 520q0 80 -50.5 126.5t-143 100.5t-115.5 70q-76 -29 -120 -80t-44 -103q0 -83 51.5 -131t149.5 -105.5t123 -75.5q149 66 149 198zM440 836q-125 100 -125 224q0 139 107.5 238t264.5 99t247 -68.5t90 -141.5t-27 -117t-81 -44t-81.5 30.5t-27.5 97t76 101.5
q-14 35 -63.5 68t-136.5 33t-149.5 -56.5t-62.5 -139.5t56.5 -131t130.5 -92q147 -87 207.5 -152t60.5 -167t-64.5 -187t-204.5 -132q111 -95 111 -226q0 -132 -104.5 -238.5t-274.5 -106.5t-270.5 71.5t-100.5 175.5q0 52 34 97t87 45t79 -32t26 -75q0 -93 -78 -131
q14 -41 73.5 -74.5t135.5 -33.5q121 0 182 65.5t61 149.5t-60 136t-132 94q-151 88 -209.5 150.5t-58.5 164.5t71.5 183t210.5 122z" />
    <glyph glyph-name="dieresis" unicode="&#xa8;" horiz-adv-x="665" 
d="M344 1366q100 0 100 -110q0 -58 -39 -110t-86 -52q-102 0 -102 112q0 60 40 110t87 50zM694 1366q101 0 101 -110q0 -58 -39 -110t-86 -52q-103 0 -103 112q0 58 40 109t87 51z" />
    <glyph glyph-name="copyright" unicode="&#xa9;" horiz-adv-x="1447" 
d="M870 1442q-284 0 -479.5 -228.5t-220.5 -558.5q-24 -286 115 -477.5t402 -191.5q138 0 261 63.5t264 228.5t166 494q25 290 -115.5 480t-392.5 190zM686 -49q-279 0 -431 196.5t-128 507.5q24 346 177 519.5t284 238t275 64.5q277 0 430.5 -197.5t127.5 -507.5
q-24 -345 -176.5 -518.5t-283.5 -238t-275 -64.5zM723 307q-125 0 -199.5 84t-74.5 232q0 209 117.5 362.5t299.5 153.5q100 0 170 -62l51 58h29l-67 -285h-31q-33 150 -54.5 189.5t-44 53t-68.5 13.5t-95 -48t-104.5 -165.5t-55.5 -282.5q0 -245 172 -245q125 0 233 192
l27 -14q-118 -236 -305 -236z" />
    <glyph glyph-name="ordfeminine" unicode="&#xaa;" horiz-adv-x="815" 
d="M438 752q68 0 135 122l101 383q-22 111 -92 111q-93 0 -161.5 -163.5t-68.5 -307.5q0 -145 86 -145zM681 676q-66 0 -96 27.5t-12 109.5l-6 4q-47 -74 -93 -107.5t-112 -33.5t-122 55t-56 161t29 196t79 162.5t117.5 118.5t143.5 46q99 0 143 -104l27 88l156 16l-74 -252
l-78 -303q-24 -97 -11 -116t36.5 -21t66.5 0v-16q-72 -31 -138 -31z" />
    <glyph glyph-name="guillemotleft" unicode="&#xab;" horiz-adv-x="888" 
d="M92 418q-31 45 -31 62t50 55l405 327l23 -24l-308 -373l129 -387l-30 -17zM414 476.5q0 12.5 51 55.5l403 330l25 -24l-307 -375l129 -391l-31 -17l-240 361q-30 48 -30 60.5z" />
    <glyph glyph-name="registered" unicode="&#xae;" horiz-adv-x="727" 
d="M601 1001q-36 0 -48 16.5t-8 51.5l2 37q4 35 -4 50t-45 15h-21l-26 -127q-4 -12 2 -16t32 -6l-4 -14h-149l2 14q45 3 49 22l61 275q4 12 -3 16t-35 6l2 15h137q117 0 117 -78t-111 -94v-6q65 -11 65 -70l-2 -45q0 -29 6.5 -37t30.5 -10l-2 -12q-12 -3 -48 -3zM504 1190
q43 0 65.5 27.5t22.5 65.5t-16.5 47t-45.5 9h-16l-33 -149h23zM717.5 1395q-60.5 78 -177.5 78t-202.5 -96.5t-93.5 -223.5t53 -206t176 -79t202 95.5t95 224.5t-52.5 207zM278 928.5q-71 84.5 -63 225.5t104 242t224 101q127 0 196.5 -83t60.5 -226t-105.5 -243.5
t-220.5 -100.5q-125 0 -196 84.5z" />
    <glyph glyph-name="macron" unicode="&#xaf;" horiz-adv-x="575" 
d="M233 1233h469l-18 -88h-471z" />
    <glyph glyph-name="degree" unicode="&#xb0;" horiz-adv-x="696" 
d="M623 1280q0 147 -99 147q-47 0 -84 -42t-73.5 -130t-36.5 -204q0 -148 98 -148q86 0 140.5 132t54.5 245zM748 1226q0 -136 -95 -249t-234 -113q-140 0 -177 88t-37 153q0 136 94 248.5t234 112.5q141 0 178 -88t37 -152z" />
    <glyph glyph-name="plusminus" unicode="&#xb1;" horiz-adv-x="954" 
d="M-4 0l10 45h746l-11 -45h-745zM553 688h346l-10 -45h-346l-92 -401h-54l92 401h-348l11 45h348l92 395h53z" />
    <glyph glyph-name="acute" unicode="&#xb4;" horiz-adv-x="432" 
d="M517 1503q28 0 51.5 -23.5t23.5 -47.5q0 -43 -42.5 -88.5t-166.5 -145.5l-139 -115h-37l139 236q31 53 51.5 89t39 57.5t35.5 29.5t45 8z" />
    <glyph glyph-name="paragraph" unicode="&#xb6;" 
d="M207 780q0 246 180.5 410t486.5 164h467l-6 -25q-120 -8 -157 -27.5t-51.5 -43t-22.5 -58.5l-324 -1405h-53l350 1518h-162l-350 -1518h-53l133 582q-211 14 -324.5 123.5t-113.5 279.5z" />
    <glyph glyph-name="periodcentered" unicode="&#xb7;" horiz-adv-x="425" 
d="M260 537q-55 0 -91 39.5t-36 95t37 95.5t92 40t91 -40t36 -95.5t-37 -95t-92 -39.5z" />
    <glyph glyph-name="cedilla" unicode="&#xb8;" horiz-adv-x="503" 
d="M18 -442q58 0 88.5 36t30.5 88q0 100 -121 101q-25 0 -49 -6l-6 18l232 207h47l-156 -145l2 -7q182 -13 182 -151q0 -78 -62.5 -129t-155.5 -51t-169 51l17 29q62 -41 120 -41z" />
    <glyph glyph-name="ordmasculine" unicode="&#xba;" horiz-adv-x="784" 
d="M449 709q92 0 153.5 179t61.5 299t-23 156.5t-72 36.5t-90 -56t-83 -179.5t-42 -243.5q0 -119 22.5 -155.5t72.5 -36.5zM272 746.5q-73 72.5 -73 231.5t106 298t264 139q106 0 178 -72.5t72 -231.5t-106 -298t-275 -139q-93 0 -166 72.5z" />
    <glyph glyph-name="guillemotright" unicode="&#xbb;" horiz-adv-x="888" 
d="M477 446q0 -10 -10 -20t-41 -37l-403 -330l-23 25l307 375l-131 391l31 16l239 -360q31 -50 31 -60zM829 446q0 -12 -8 -22t-41 -37l-403 -326l-25 23l307 373l-129 387l31 16l240 -356q28 -46 28 -58z" />
    <glyph glyph-name="questiondown" unicode="&#xbf;" horiz-adv-x="858" 
d="M700.5 1483q55.5 0 91 -40t35.5 -95.5t-36.5 -95.5t-92 -40t-91.5 40t-36 95.5t37 95.5t92.5 40zM221 240q0 -232 197 -232q82 0 133 37t72 76q-47 18 -70 57t-24 84t31 87t89 42t92 -39t35 -127t-106.5 -171t-275.5 -83t-274.5 97t-105.5 239q0 182 139.5 309t395.5 181
l65 268l56 -6l-72 -295q-200 -59 -288.5 -203.5t-88.5 -320.5z" />
    <glyph glyph-name="Agrave" unicode="&#xc0;" horiz-adv-x="1202" 
d="M606 1917q0 25 26.5 49.5t64.5 24.5t59.5 -37t48.5 -103l108 -280h-32l-101 104q-144 150 -159 183.5t-15 58.5zM725 1194h-8l-332 -614h379zM-119 27q101 20 167.5 88.5t148.5 220.5l610 1112h106l103 -1219q8 -114 31.5 -143t55.5 -40t83 -19l-6 -27h-576l6 27
q126 8 158.5 45t24.5 133l-25 334h-406l-116 -215q-86 -156 -73.5 -214.5t130.5 -82.5l-6 -27h-422z" />
    <glyph glyph-name="Aacute" unicode="&#xc1;" horiz-adv-x="1202" 
d="M1120 1991q28 0 51 -23.5t23 -47.5q0 -42 -37 -83.5t-172 -150.5l-139 -115h-37l139 235q31 53 51.5 89t39 57.5t36 30t45.5 8.5zM725 1194h-8l-332 -614h379zM-119 27q101 20 167.5 88.5t148.5 220.5l610 1112h106l103 -1219q8 -114 31.5 -143t55.5 -40t83 -19l-6 -27
h-576l6 27q126 8 158.5 45t24.5 133l-25 334h-406l-116 -215q-86 -156 -73.5 -214.5t130.5 -82.5l-6 -27h-422z" />
    <glyph glyph-name="Acircumflex" unicode="&#xc2;" horiz-adv-x="1202" 
d="M942 1956h33l137 -391h-35l-164 186l-251 -186h-44zM725 1194h-8l-332 -614h379zM-119 27q101 20 167.5 88.5t148.5 220.5l610 1112h106l103 -1219q8 -114 31.5 -143t55.5 -40t83 -19l-6 -27h-576l6 27q126 8 158.5 45t24.5 133l-25 334h-406l-116 -215
q-86 -156 -73.5 -214.5t130.5 -82.5l-6 -27h-422z" />
    <glyph glyph-name="Atilde" unicode="&#xc3;" horiz-adv-x="1202" 
d="M807 1831q39 0 103.5 -37t95 -54.5t60.5 -17.5t52.5 26t50.5 93h35q-35 -141 -79 -200.5t-113 -59.5q-39 0 -102.5 37t-94.5 54.5t-61 17.5t-52 -26t-51 -93h-35q35 141 79 200.5t112 59.5zM725 1194h-8l-332 -614h379zM-119 27q101 20 167.5 88.5t148.5 220.5l610 1112
h106l103 -1219q8 -114 31.5 -143t55.5 -40t83 -19l-6 -27h-576l6 27q126 8 158.5 45t24.5 133l-25 334h-406l-116 -215q-86 -156 -73.5 -214.5t130.5 -82.5l-6 -27h-422z" />
    <glyph glyph-name="Adieresis" unicode="&#xc4;" horiz-adv-x="1202" 
d="M744 1853q100 -1 100 -111q0 -58 -39 -109.5t-86 -51.5q-103 0 -103 113q0 60 40 109.5t88 49.5zM1094 1853q100 -1 100 -111q0 -58 -39 -109.5t-86 -51.5q-102 0 -102 112q0 59 40 109.5t87 50.5zM725 1194h-8l-332 -614h379zM-119 27q101 20 167.5 88.5t148.5 220.5
l610 1112h106l103 -1219q8 -114 31.5 -143t55.5 -40t83 -19l-6 -27h-576l6 27q126 8 158.5 45t24.5 133l-25 334h-406l-116 -215q-86 -156 -73.5 -214.5t130.5 -82.5l-6 -27h-422z" />
    <glyph glyph-name="Aring" unicode="&#xc5;" horiz-adv-x="1202" 
d="M1004 1739q0 104 -68 104q-62 0 -102.5 -93.5t-40.5 -196.5t66 -103t105.5 92.5t39.5 196.5zM725 1194h-8l-332 -614h379zM686 1606q0 107 74 187.5t164 80.5t138 -49t48 -138t-54.5 -163t-140.5 -94l101 -1201q8 -114 31.5 -143t55.5 -40t83 -19l-6 -27h-576l6 27
q126 8 158.5 45t24.5 133l-25 334h-406l-116 -215q-86 -156 -73.5 -214.5t130.5 -82.5l-6 -27h-422l6 27q101 20 167.5 88.5t148.5 220.5l600 1096q-111 34 -111 174z" />
    <glyph glyph-name="AE" unicode="&#xc6;" horiz-adv-x="1849" 
d="M1077 1366h-24l-551 -745h403zM934 1321q0 60 -164 80l4 26h1137l-84 -419h-33q-23 111 -40 183.5t-46 115.5t-76 61t-127 18h-202l-142 -618h101q53 0 86.5 8t63.5 34t60.5 74t75.5 126h31l-125 -541h-31q-16 170 -38.5 206t-54.5 44t-85 8h-94l-158 -684h224
q180 0 257.5 67.5t130 145.5t119.5 193h35l-117 -449h-1060l6 27q115 8 146.5 25.5t42.5 37t18 49.5l100 439h-422l-211 -281q-92 -136 -96 -186q-2 -61 119 -84l-4 -27h-428l6 27q103 24 157 65t96 90t99 127l670 901q53 71 53 111z" />
    <glyph glyph-name="Ccedilla" unicode="&#xc7;" horiz-adv-x="1202" 
d="M662 45q239 0 440 375l35 -19q-143 -285 -284.5 -355.5t-227.5 -76.5l-119 -112l2 -7q182 -13 182 -151q0 -78 -62.5 -129t-155.5 -51t-169 51l16 29q61 -41 119 -41t89.5 36t31.5 88q0 100 -121 101q-25 0 -49 -6l-6 18l192 172q-208 4 -337 159.5t-129 408.5
q0 174 54 340.5t153.5 297t236.5 209t300 78.5t296 -100l102 98h35l-119 -481h-34q-62 267 -100 333t-79 88.5t-102 22.5q-109 0 -202 -89t-162.5 -226t-108.5 -299t-39 -309q0 -231 87 -342t235 -111z" />
    <glyph glyph-name="Egrave" unicode="&#xc8;" 
d="M602 1917q0 25 26.5 49.5t64.5 24.5t59.5 -37t48.5 -103l108 -280h-32l-101 104q-148 153 -161 185t-13 57zM877 1386h-203l-142 -618h101q53 0 87 8t63.5 34t59 74t75.5 126h30l-123 -541h-30q-16 169 -40 205.5t-54.5 44.5t-84.5 8h-94l-157 -684h223q179 0 257.5 67.5
t130.5 145.5t120 193h32l-114 -449h-1061l4 27q117 8 148.5 25.5t43 37t17.5 49.5l262 1145q12 63 -14.5 84t-143.5 33l6 26h1006l-84 -419h-33q-23 111 -41 183.5t-46.5 115.5t-75 61t-125.5 18z" />
    <glyph glyph-name="Eacute" unicode="&#xc9;" 
d="M877 1386h-203l-142 -618h101q53 0 87 8t63.5 34t59 74t75.5 126h30l-123 -541h-30q-16 169 -40 205.5t-54.5 44.5t-84.5 8h-94l-157 -684h223q179 0 257.5 67.5t130.5 145.5t120 193h32l-114 -449h-1061l4 27q117 8 148.5 25.5t43 37t17.5 49.5l262 1145q12 63 -14.5 84
t-143.5 33l6 26h1006l-84 -419h-33q-23 111 -41 183.5t-46.5 115.5t-75 61t-125.5 18zM1097 1991q28 0 51 -23.5t23 -47.5q0 -42 -36 -82t-172 -152l-140 -115h-37l140 235q31 53 51 89t38.5 57.5t36 30t45.5 8.5z" />
    <glyph glyph-name="Ecircumflex" unicode="&#xca;" 
d="M877 1386h-203l-142 -618h101q53 0 87 8t63.5 34t59 74t75.5 126h30l-123 -541h-30q-16 169 -40 205.5t-54.5 44.5t-84.5 8h-94l-157 -684h223q179 0 257.5 67.5t130.5 145.5t120 193h32l-114 -449h-1061l4 27q117 8 148.5 25.5t43 37t17.5 49.5l262 1145q12 63 -14.5 84
t-143.5 33l6 26h1006l-84 -419h-33q-23 111 -41 183.5t-46.5 115.5t-75 61t-125.5 18zM928 1962h33l137 -391h-35l-164 186l-252 -186h-43z" />
    <glyph glyph-name="Edieresis" unicode="&#xcb;" 
d="M877 1386h-203l-142 -618h101q53 0 87 8t63.5 34t59 74t75.5 126h30l-123 -541h-30q-16 169 -40 205.5t-54.5 44.5t-84.5 8h-94l-157 -684h223q179 0 257.5 67.5t130.5 145.5t120 193h32l-114 -449h-1061l4 27q117 8 148.5 25.5t43 37t17.5 49.5l262 1145q12 63 -14.5 84
t-143.5 33l6 26h1006l-84 -419h-33q-23 111 -41 183.5t-46.5 115.5t-75 61t-125.5 18zM725 1853q100 -1 100 -111q0 -58 -39 -109.5t-86 -51.5q-102 0 -102 113q0 60 40 109.5t87 49.5zM1075 1853q101 -1 101 -111q0 -58 -39.5 -109.5t-86.5 -51.5q-102 0 -102 112
q0 59 40 109.5t87 50.5z" />
    <glyph glyph-name="Igrave" unicode="&#xcc;" horiz-adv-x="737" 
d="M362 1917q0 25 27 49.5t65 24.5t59.5 -37t47.5 -103l109 -280h-33l-100 104q-146 152 -160.5 184.5t-14.5 57.5zM879 1401q-117 -8 -150 -25.5t-45 -36t-18 -47.5l-267 -1153q-12 -61 17.5 -80t156.5 -32l-6 -27h-610l6 27q118 8 151 25.5t45.5 37t18.5 49.5l264 1145
q13 65 -17.5 85t-150.5 32l5 26h606z" />
    <glyph glyph-name="Iacute" unicode="&#xcd;" horiz-adv-x="737" 
d="M832 1991q28 0 51.5 -23.5t23.5 -47.5q0 -42 -37 -83.5t-172 -150.5l-139 -115h-37l140 235q31 53 51 89t38.5 57.5t35.5 30t45 8.5zM879 1401q-117 -8 -150 -25.5t-45 -36t-18 -47.5l-267 -1153q-12 -61 17.5 -80t156.5 -32l-6 -27h-610l6 27q118 8 151 25.5t45.5 37
t18.5 49.5l264 1145q13 65 -17.5 85t-150.5 32l5 26h606z" />
    <glyph glyph-name="Icircumflex" unicode="&#xce;" horiz-adv-x="737" 
d="M682 1962h33l137 -391h-35l-164 186l-252 -186h-43zM879 1401q-117 -8 -150 -25.5t-45 -36t-18 -47.5l-267 -1153q-12 -61 17.5 -80t156.5 -32l-6 -27h-610l6 27q118 8 151 25.5t45.5 37t18.5 49.5l264 1145q13 65 -17.5 85t-150.5 32l5 26h606z" />
    <glyph glyph-name="Idieresis" unicode="&#xcf;" horiz-adv-x="737" 
d="M490 1853q100 -1 100 -111q0 -58 -39 -109.5t-86 -51.5q-103 0 -103 113q0 60 40 109.5t88 49.5zM840 1853q100 -1 100 -111q0 -58 -39 -109.5t-86 -51.5q-102 0 -102 112q0 59 40 109.5t87 50.5zM879 1401q-117 -8 -150 -25.5t-45 -36t-18 -47.5l-267 -1153
q-12 -61 17.5 -80t156.5 -32l-6 -27h-610l6 27q118 8 151 25.5t45.5 37t18.5 49.5l264 1145q13 65 -17.5 85t-150.5 32l5 26h606z" />
    <glyph glyph-name="Eth" unicode="&#xd0;" horiz-adv-x="1331" 
d="M510 41q185 0 319 133t205.5 380t71.5 453t-91 292.5t-278 86.5h-63l-142 -616h240l-12 -53h-240l-155 -676h145zM721 1427q319 0 465.5 -144.5t146.5 -406.5q0 -261 -134.5 -490.5t-320.5 -307.5t-370 -78h-555l4 27q117 8 148.5 25.5t43 37t17.5 49.5l131 578h-174
l12 53h174l119 514q12 63 -14.5 84t-143.5 33l6 26h445z" />
    <glyph glyph-name="Ntilde" unicode="&#xd1;" horiz-adv-x="1370" 
d="M864 1831q41 0 104.5 -37t94.5 -54.5t61 -17.5t52 26t51 93h35q-35 -141 -79 -200.5t-114 -59.5q-31 0 -64.5 17.5t-67.5 37t-64.5 37t-60.5 17.5t-52.5 -26t-50.5 -93h-35q35 141 79 200.5t111 59.5zM1069 322h2l186 804q33 147 2.5 201t-161.5 74l4 26h467l-6 -26
q-126 -24 -174 -80t-80 -195l-267 -1146h-71l-506 1226h-2l-209 -903q-33 -147 -3 -202t161 -74l-6 -27h-469l4 27q129 25 178 79.5t84 196.5l203 879q20 90 -8.5 151.5t-137.5 67.5l4 26h348z" />
    <glyph glyph-name="Ograve" unicode="&#xd2;" horiz-adv-x="1316" 
d="M651 1917q0 25 26.5 49.5t64.5 24.5t59.5 -37t48.5 -103l108 -280h-32l-101 104q-144 150 -159 183.5t-15 58.5zM334 379q0 -373 246 -373q145 0 263 167t187.5 412t69.5 464q0 372 -246 372q-145 0 -263.5 -167t-187.5 -412t-69 -463zM586 -33q-206 0 -339.5 152
t-133.5 418q0 166 54 330.5t150.5 296.5t232.5 214t298 82q202 0 337.5 -152t135.5 -417q0 -166 -54.5 -331t-151.5 -297t-232 -214t-297 -82z" />
    <glyph glyph-name="Oacute" unicode="&#xd3;" horiz-adv-x="1316" 
d="M334 379q0 -373 246 -373q145 0 263 167t187.5 412t69.5 464q0 372 -246 372q-145 0 -263.5 -167t-187.5 -412t-69 -463zM586 -33q-206 0 -339.5 152t-133.5 418q0 166 54 330.5t150.5 296.5t232.5 214t298 82q202 0 337.5 -152t135.5 -417q0 -166 -54.5 -331
t-151.5 -297t-232 -214t-297 -82zM1122 1991q28 0 51 -23.5t23 -47.5q0 -42 -37 -83.5t-172 -150.5l-139 -115h-37l139 235q31 53 51.5 89t39 57.5t36 30t45.5 8.5z" />
    <glyph glyph-name="Ocircumflex" unicode="&#xd4;" horiz-adv-x="1316" 
d="M334 379q0 -373 246 -373q145 0 263 167t187.5 412t69.5 464q0 372 -246 372q-145 0 -263.5 -167t-187.5 -412t-69 -463zM586 -33q-206 0 -339.5 152t-133.5 418q0 166 54 330.5t150.5 296.5t232.5 214t298 82q202 0 337.5 -152t135.5 -417q0 -166 -54.5 -331
t-151.5 -297t-232 -214t-297 -82zM977 1962h33l137 -391h-35l-164 186l-252 -186h-43z" />
    <glyph glyph-name="Otilde" unicode="&#xd5;" horiz-adv-x="1316" 
d="M831 1831q41 0 104.5 -37t94 -54.5t60.5 -17.5t52.5 26t51.5 93h35q-35 -141 -79 -200.5t-114 -59.5q-31 0 -64.5 17.5t-67.5 37t-64.5 37t-60.5 17.5t-52 -26t-51 -93h-35q35 141 79 200.5t111 59.5zM334 379q0 -373 246 -373q145 0 263 167t187.5 412t69.5 464
q0 372 -246 372q-145 0 -263.5 -167t-187.5 -412t-69 -463zM586 -33q-206 0 -339.5 152t-133.5 418q0 166 54 330.5t150.5 296.5t232.5 214t298 82q202 0 337.5 -152t135.5 -417q0 -166 -54.5 -331t-151.5 -297t-232 -214t-297 -82z" />
    <glyph glyph-name="Odieresis" unicode="&#xd6;" horiz-adv-x="1316" 
d="M334 379q0 -373 246 -373q145 0 263 167t187.5 412t69.5 464q0 372 -246 372q-145 0 -263.5 -167t-187.5 -412t-69 -463zM586 -33q-206 0 -339.5 152t-133.5 418q0 166 54 330.5t150.5 296.5t232.5 214t298 82q202 0 337.5 -152t135.5 -417q0 -166 -54.5 -331
t-151.5 -297t-232 -214t-297 -82zM776 1853q101 -1 101 -111q0 -58 -39.5 -109.5t-86.5 -51.5q-102 0 -102 113q0 60 40 109.5t87 49.5zM1126 1853q100 -1 101 -111q0 -58 -39 -109.5t-86 -51.5q-103 0 -103 112q0 59 39.5 109.5t87.5 50.5z" />
    <glyph glyph-name="multiply" unicode="&#xd7;" horiz-adv-x="995" 
d="M512 668l-229 397l41 27l225 -390l405 394l33 -33l-416 -401l232 -398l-41 -28l-227 389l-404 -392l-33 33z" />
    <glyph glyph-name="Oslash" unicode="&#xd8;" horiz-adv-x="1320" 
d="M854 1421q-145 0 -263.5 -167t-187.5 -412t-69 -463v-31q0 -31 2 -49l751 889q-39 233 -233 233zM1100 1049q0 41 -4 81l-752 -890q39 -234 236 -234q145 0 263 167t187.5 412t69.5 464zM113 537q0 166 54 330.5t150.5 296.5t232.5 214t298 82q204 0 340 -155l162 192h63
l-194 -233q102 -152 102 -373q0 -166 -54.5 -331t-151.5 -297t-232 -214t-297 -82q-212 0 -342 156l-162 -193h-64l195 232q-100 153 -100 375z" />
    <glyph glyph-name="Ugrave" unicode="&#xd9;" horiz-adv-x="1345" 
d="M674 1917q0 25 26.5 49.5t64.5 24.5t59.5 -37t47.5 -103l109 -280h-33l-100 104q-148 153 -161 185t-13 57zM403 293q0 -129 70 -193.5t195 -64.5q172 0 266 103.5t143 314.5l156 675q32 139 0.5 196t-162.5 77l4 26h467l-4 -26q-124 -24 -173.5 -78.5t-80.5 -194.5
l-164 -712q-50 -222 -170.5 -335.5t-336.5 -113.5t-322.5 91.5t-106.5 252.5q0 70 19 146l186 827q12 63 -14.5 84t-143.5 33l7 26h577l-6 -26q-106 -7 -138 -26t-42.5 -38.5t-16.5 -48.5l-186 -825q-23 -108 -23 -170z" />
    <glyph glyph-name="Uacute" unicode="&#xda;" horiz-adv-x="1345" 
d="M403 293q0 -129 70 -193.5t195 -64.5q172 0 266 103.5t143 314.5l156 675q32 139 0.5 196t-162.5 77l4 26h467l-4 -26q-124 -24 -173.5 -78.5t-80.5 -194.5l-164 -712q-50 -222 -170.5 -335.5t-336.5 -113.5t-322.5 91.5t-106.5 252.5q0 70 19 146l186 827
q12 63 -14.5 84t-143.5 33l7 26h577l-6 -26q-106 -7 -138 -26t-42.5 -38.5t-16.5 -48.5l-186 -825q-23 -108 -23 -170zM1154 1991q28 0 51.5 -23.5t23.5 -47.5q0 -41 -36.5 -81.5t-172.5 -152.5l-139 -115h-37l139 235q31 53 51.5 89t39 57.5t35.5 30t45 8.5z" />
    <glyph glyph-name="Ucircumflex" unicode="&#xdb;" horiz-adv-x="1345" 
d="M403 293q0 -129 70 -193.5t195 -64.5q172 0 266 103.5t143 314.5l156 675q32 139 0.5 196t-162.5 77l4 26h467l-4 -26q-124 -24 -173.5 -78.5t-80.5 -194.5l-164 -712q-50 -222 -170.5 -335.5t-336.5 -113.5t-322.5 91.5t-106.5 252.5q0 70 19 146l186 827
q12 63 -14.5 84t-143.5 33l7 26h577l-6 -26q-106 -7 -138 -26t-42.5 -38.5t-16.5 -48.5l-186 -825q-23 -108 -23 -170zM1012 1962h32l138 -391h-35l-164 186l-252 -186h-43z" />
    <glyph glyph-name="Udieresis" unicode="&#xdc;" horiz-adv-x="1345" 
d="M403 293q0 -129 70 -193.5t195 -64.5q172 0 266 103.5t143 314.5l156 675q32 139 0.5 196t-162.5 77l4 26h467l-4 -26q-124 -24 -173.5 -78.5t-80.5 -194.5l-164 -712q-50 -222 -170.5 -335.5t-336.5 -113.5t-322.5 91.5t-106.5 252.5q0 70 19 146l186 827
q12 63 -14.5 84t-143.5 33l7 26h577l-6 -26q-106 -7 -138 -26t-42.5 -38.5t-16.5 -48.5l-186 -825q-23 -108 -23 -170zM809 1853q100 -1 100 -111q0 -58 -39 -109.5t-86 -51.5q-102 0 -102 113q0 60 40 109.5t87 49.5zM1159 1853q101 -1 101 -111q0 -58 -39.5 -109.5
t-86.5 -51.5q-102 0 -102 112q0 59 40 109.5t87 50.5z" />
    <glyph glyph-name="Yacute" unicode="&#xdd;" horiz-adv-x="1191" 
d="M1118 1991q28 0 51 -23.5t23 -47.5q0 -42 -37 -83.5t-172 -150.5l-139 -115h-37l139 235q31 53 51.5 89t39 57.5t36 30t45.5 8.5zM569 1318.5q0 -24.5 9 -58.5l143 -576l328 463q89 126 77.5 178.5t-135.5 75.5l6 26h435l-5 -26q-97 -20 -145.5 -57t-86.5 -82t-91 -117
l-365 -512l-112 -494q-12 -61 18 -80.5t154 -31.5l-6 -27h-609l6 27q119 8 152 25.5t45 37t19 49.5l112 492l-162 616q-25 88 -55 113t-125 41l4 26h586l-6 -26q-134 -7 -162.5 -32.5t-28.5 -50z" />
    <glyph glyph-name="Thorn" unicode="&#xde;" horiz-adv-x="1153" 
d="M530 373q209 0 299.5 156t90.5 350q0 104 -51.5 158.5t-174.5 54.5h-88l-166 -719h90zM698 1135q234 0 343.5 -88t109.5 -232q0 -189 -153.5 -336t-450.5 -147h-117l-43 -193q-14 -57 17.5 -79.5t144.5 -32.5l-6 -27h-594l6 27q116 8 149 25.5t44.5 37t17.5 49.5
l262 1145q6 31 5 50.5t-25 37t-140 29.5l4 26h584l-6 -26q-108 -7 -140 -26t-42.5 -38.5t-16.5 -48.5l-35 -153h82z" />
    <glyph glyph-name="germandbls" unicode="&#xdf;" horiz-adv-x="991" 
d="M508 84q32 -64 138 -64q60 0 102.5 50.5t42.5 131.5t-44.5 136t-97.5 104.5t-97 102.5t-44 121t21.5 111.5t52 81.5t121 123.5t90.5 236.5q0 108 -35 166.5t-103 57.5t-114.5 -70.5t-81.5 -242.5l-187 -946q-65 -329 -155.5 -456t-253.5 -127q-94 0 -151.5 41t-57.5 100
t29.5 94t78.5 35t74 -32t25 -72q0 -69 -54 -107q19 -20 53 -20t79.5 20.5t101.5 296.5l211 1044q53 258 158.5 369t257.5 111q211 0 260 -93.5t49 -150.5t-25.5 -99t-63.5 -75t-82 -61.5t-107.5 -78.5t-63.5 -135q0 -57 48 -107t105.5 -105.5t105.5 -121.5t48 -140
q0 -143 -84 -237.5t-245 -94.5t-204.5 72.5t-43.5 122.5t28.5 87t75.5 37t72.5 -27.5t25.5 -72.5q0 -74 -59 -117z" />
    <glyph glyph-name="agrave" unicode="&#xe0;" horiz-adv-x="960" 
d="M391 1430q0 24 26.5 48.5t64.5 24.5t59.5 -36.5t48.5 -102.5l108 -281h-32l-101 105q-146 151 -160 184.5t-14 57.5zM692 760q-32 145 -138 145q-58 0 -114.5 -68.5t-98.5 -167t-66.5 -205t-24.5 -181.5q0 -211 123 -211q51 0 99 50t83 116zM543 90q0 28 10 76l-4 4
q-63 -98 -125 -142t-150 -44t-156.5 72t-68.5 210t38 257.5t103.5 217t152.5 159t173 61.5t129 -37t70 -97l33 111l196 23l-98 -332l-98 -383q-25 -106 -25 -146t36 -51.5t113 -3.5v-20q-106 -41 -179 -41q-74 0 -112 21.5t-38 84.5z" />
    <glyph glyph-name="aacute" unicode="&#xe1;" horiz-adv-x="960" 
d="M866 1503q28 0 51 -23.5t23 -47.5q0 -42 -39.5 -85.5t-169.5 -148.5l-139 -115h-37l139 236q31 53 51.5 89t39 57.5t36 29.5t45.5 8zM692 760q-32 145 -138 145q-58 0 -114.5 -68.5t-98.5 -167t-66.5 -205t-24.5 -181.5q0 -211 123 -211q51 0 99 50t83 116zM543 90
q0 28 10 76l-4 4q-63 -98 -125 -142t-150 -44t-156.5 72t-68.5 210t38 257.5t103.5 217t152.5 159t173 61.5t129 -37t70 -97l33 111l196 23l-98 -332l-98 -383q-25 -106 -25 -146t36 -51.5t113 -3.5v-20q-106 -41 -179 -41q-74 0 -112 21.5t-38 84.5z" />
    <glyph glyph-name="acircumflex" unicode="&#xe2;" horiz-adv-x="960" 
d="M702 1475h33l137 -392h-34l-164 187l-252 -187h-43zM692 760q-32 145 -138 145q-58 0 -114.5 -68.5t-98.5 -167t-66.5 -205t-24.5 -181.5q0 -211 123 -211q51 0 99 50t83 116zM543 90q0 28 10 76l-4 4q-63 -98 -125 -142t-150 -44t-156.5 72t-68.5 210t38 257.5
t103.5 217t152.5 159t173 61.5t129 -37t70 -97l33 111l196 23l-98 -332l-98 -383q-25 -106 -25 -146t36 -51.5t113 -3.5v-20q-106 -41 -179 -41q-74 0 -112 21.5t-38 84.5z" />
    <glyph glyph-name="atilde" unicode="&#xe3;" horiz-adv-x="960" 
d="M375 1083q65 260 178 260q55 0 117.5 -36.5t93 -54t60.5 -17.5t52.5 25.5t51.5 93.5h35q-35 -141 -79 -200.5t-114 -59.5q-39 0 -102.5 36.5t-94 54t-60.5 17.5t-52.5 -25.5t-50.5 -93.5h-35zM692 760q-32 145 -138 145q-58 0 -114.5 -68.5t-98.5 -167t-66.5 -205
t-24.5 -181.5q0 -211 123 -211q51 0 99 50t83 116zM543 90q0 28 10 76l-4 4q-63 -98 -125 -142t-150 -44t-156.5 72t-68.5 210t38 257.5t103.5 217t152.5 159t173 61.5t129 -37t70 -97l33 111l196 23l-98 -332l-98 -383q-25 -106 -25 -146t36 -51.5t113 -3.5v-20
q-106 -41 -179 -41q-74 0 -112 21.5t-38 84.5z" />
    <glyph glyph-name="adieresis" unicode="&#xe4;" horiz-adv-x="960" 
d="M866 1366q101 0 101 -110q0 -58 -39 -110t-86 -52q-103 0 -103 112q0 58 40 109t87 51zM516 1366q100 0 100 -110q0 -58 -39 -110t-86 -52q-102 0 -102 112q0 60 40 110t87 50zM692 760q-32 145 -138 145q-58 0 -114.5 -68.5t-98.5 -167t-66.5 -205t-24.5 -181.5
q0 -211 123 -211q51 0 99 50t83 116zM543 90q0 28 10 76l-4 4q-63 -98 -125 -142t-150 -44t-156.5 72t-68.5 210t38 257.5t103.5 217t152.5 159t173 61.5t129 -37t70 -97l33 111l196 23l-98 -332l-98 -383q-25 -106 -25 -146t36 -51.5t113 -3.5v-20q-106 -41 -179 -41
q-74 0 -112 21.5t-38 84.5z" />
    <glyph glyph-name="aring" unicode="&#xe5;" horiz-adv-x="960" 
d="M657 1128q67 0 106.5 88t39.5 183q0 94 -72 94q-59 0 -100 -88t-41 -183q0 -94 67 -94zM650 1094q-66 0 -115.5 49t-49.5 113q0 120 73.5 196t161.5 76q89 0 139 -49t50 -113t-18.5 -112t-52 -82.5t-78 -56t-110.5 -21.5zM692 760q-32 145 -138 145q-58 0 -114.5 -68.5
t-98.5 -167t-66.5 -205t-24.5 -181.5q0 -211 123 -211q51 0 99 50t83 116zM543 90q0 28 10 76l-4 4q-63 -98 -125 -142t-150 -44t-156.5 72t-68.5 210t38 257.5t103.5 217t152.5 159t173 61.5t129 -37t70 -97l33 111l196 23l-98 -332l-98 -383q-25 -106 -25 -146t36 -51.5
t113 -3.5v-20q-106 -41 -179 -41q-74 0 -112 21.5t-38 84.5z" />
    <glyph glyph-name="ae" unicode="&#xe6;" horiz-adv-x="1312" 
d="M1061 920q-88 0 -178 -136t-121 -299q213 4 297 102t84 228q0 105 -82 105zM580 471q-377 -7 -377 -248q0 -72 33 -108.5t86 -36.5q86 0 159.5 103.5t98.5 289.5zM1317 760q0 -141 -146.5 -225t-414.5 -80q-11 -85 -11 -125q0 -269 189 -269q137 0 258 179l27 -21
q-78 -119 -165 -177t-196 -58q-184 0 -235.5 105.5t-55.5 180.5h-4q-51 -135 -137 -211.5t-187 -76.5t-160 55t-59 153q0 147 146.5 230.5t419.5 81.5q12 70 12 186q0 115 -43 174.5t-105 59.5q-106 0 -151 -70q57 -29 57 -93t-29.5 -97t-78.5 -33t-77 33.5t-28 79.5
q0 93 89 156t221 63q219 0 270 -181h4q155 181 350 181q119 0 179.5 -57.5t60.5 -143.5z" />
    <glyph glyph-name="ccedilla" unicode="&#xe7;" horiz-adv-x="804" 
d="M218 -442q58 0 89 36t31 88t-34 76.5t-73 24.5t-63 -6l-6 18l211 189h-11q-211 0 -263 136t-52 242t37 215t102.5 194t155.5 137.5t200 52.5t178 -55.5t68 -139.5q0 -53 -31.5 -95t-81.5 -42t-81 29.5t-31 74.5t23.5 81t56.5 54q-29 56 -94 56t-120.5 -55.5t-120 -191
t-64.5 -335.5q0 -141 50 -212t142 -71q129 0 242 179l24 -19q-116 -199 -276 -229l-141 -133l2 -7q182 -13 182 -151q0 -78 -62.5 -129t-155.5 -51t-169 51l16 29q62 -41 120 -41z" />
    <glyph glyph-name="egrave" unicode="&#xe8;" horiz-adv-x="811" 
d="M322 1430q0 24 26.5 48.5t64.5 24.5t59.5 -36.5t47.5 -102.5l109 -281h-33l-100 105q-149 155 -161.5 186.5t-12.5 55.5zM557 920q-88 0 -178 -136t-121 -299q214 4 296.5 102.5t82.5 227.5q0 105 -80 105zM428 61q141 0 260 179l25 -21q-78 -119 -165 -177t-196 -58
q-208 0 -258.5 126t-50.5 232t42 220t113.5 202t168.5 142.5t211 54.5t174.5 -57.5t60.5 -143.5q0 -141 -146.5 -225t-414.5 -80q-10 -78 -10 -125q0 -269 186 -269z" />
    <glyph glyph-name="eacute" unicode="&#xe9;" horiz-adv-x="811" 
d="M804 1503q28 0 51.5 -23.5t23.5 -47.5q0 -41 -38.5 -83.5t-170.5 -150.5l-140 -115h-36l139 236q31 53 51.5 89t38.5 57.5t35.5 29.5t45.5 8zM557 920q-88 0 -178 -136t-121 -299q214 4 296.5 102.5t82.5 227.5q0 105 -80 105zM428 61q141 0 260 179l25 -21
q-78 -119 -165 -177t-196 -58q-208 0 -258.5 126t-50.5 232t42 220t113.5 202t168.5 142.5t211 54.5t174.5 -57.5t60.5 -143.5q0 -141 -146.5 -225t-414.5 -80q-10 -78 -10 -125q0 -269 186 -269z" />
    <glyph glyph-name="ecircumflex" unicode="&#xea;" horiz-adv-x="811" 
d="M645 1475h33l137 -392h-35l-164 187l-251 -187h-43zM557 920q-88 0 -178 -136t-121 -299q214 4 296.5 102.5t82.5 227.5q0 105 -80 105zM428 61q141 0 260 179l25 -21q-78 -119 -165 -177t-196 -58q-208 0 -258.5 126t-50.5 232t42 220t113.5 202t168.5 142.5t211 54.5
t174.5 -57.5t60.5 -143.5q0 -141 -146.5 -225t-414.5 -80q-10 -78 -10 -125q0 -269 186 -269z" />
    <glyph glyph-name="edieresis" unicode="&#xeb;" horiz-adv-x="811" 
d="M799 1366q100 0 100 -110q0 -58 -39 -110t-86 -52q-102 0 -102 112q0 58 40 109t87 51zM448 1366q100 0 101 -110q0 -58 -39 -110t-86 -52q-102 0 -102 112q0 60 39 110t87 50zM557 920q-88 0 -178 -136t-121 -299q214 4 296.5 102.5t82.5 227.5q0 105 -80 105zM428 61
q141 0 260 179l25 -21q-78 -119 -165 -177t-196 -58q-208 0 -258.5 126t-50.5 232t42 220t113.5 202t168.5 142.5t211 54.5t174.5 -57.5t60.5 -143.5q0 -141 -146.5 -225t-414.5 -80q-10 -78 -10 -125q0 -269 186 -269z" />
    <glyph glyph-name="igrave" unicode="&#xec;" horiz-adv-x="524" 
d="M135 1430q0 24 26.5 48.5t64.5 24.5t59.5 -36.5t48.5 -102.5l108 -281h-32l-101 105q-146 151 -160 184.5t-14 57.5zM70 98q0 33 20 119l154 578q16 63 -10.5 83.5t-116.5 30.5v25l360 16l-194 -741q-19 -70 -19 -106t36 -48t132 -4v-20q-127 -47 -211 -47
q-151 0 -151 114z" />
    <glyph glyph-name="iacute" unicode="&#xed;" horiz-adv-x="524" 
d="M70 98q0 33 20 119l154 578q16 63 -10.5 83.5t-116.5 30.5v25l360 16l-194 -741q-19 -70 -19 -106t36 -48t132 -4v-20q-127 -47 -211 -47q-151 0 -151 114zM610 1503q28 0 51 -23.5t23 -47.5q0 -42 -39.5 -85.5t-169.5 -148.5l-139 -115h-37l139 236q31 53 51.5 89
t39 57.5t36 29.5t45.5 8z" />
    <glyph glyph-name="icircumflex" unicode="&#xee;" horiz-adv-x="524" 
d="M70 98q0 33 20 119l154 578q16 63 -10.5 83.5t-116.5 30.5v25l360 16l-194 -741q-19 -70 -19 -106t36 -48t132 -4v-20q-127 -47 -211 -47q-151 0 -151 114zM451 1475h32l138 -392h-35l-164 187l-252 -187h-43z" />
    <glyph glyph-name="idieresis" unicode="&#xef;" horiz-adv-x="524" 
d="M70 98q0 33 20 119l154 578q16 63 -10.5 83.5t-116.5 30.5v25l360 16l-194 -741q-19 -70 -19 -106t36 -48t132 -4v-20q-127 -47 -211 -47q-151 0 -151 114zM258 1366q100 0 100 -110q0 -58 -39 -110t-86 -52q-102 0 -102 112q0 60 40 110t87 50zM608 1366q101 0 101 -110
q0 -58 -39.5 -110t-86.5 -52q-102 0 -102 112q0 58 40 109t87 51z" />
    <glyph glyph-name="eth" unicode="&#xf0;" horiz-adv-x="915" 
d="M535 915q-72 0 -128.5 -73.5t-113.5 -233.5t-57 -374t126 -214q70 0 126.5 74t118 237.5t61.5 373.5t-133 210zM678 1266q194 -198 194 -515t-138 -542t-376 -225q-130 0 -219.5 100t-89.5 283q0 229 95.5 358t181.5 180t189 51t153 -90l2 2q-4 208 -88 346l-236 -127
l-18 37l233 125q-80 121 -225 201l16 27q176 -66 297 -181l193 105l18 -37z" />
    <glyph glyph-name="ntilde" unicode="&#xf1;" horiz-adv-x="974" 
d="M539 1343q41 0 104.5 -36.5t94 -54t60.5 -17.5t52 25.5t51 93.5h35q-35 -141 -79 -200.5t-114 -59.5q-40 0 -102.5 36.5t-93.5 54t-61 17.5t-52 -25.5t-51 -93.5h-35q35 141 79 200.5t112 59.5zM727 954q82 0 129 -46t47 -120t-26 -180l-117 -418q-18 -63 -18 -100
t36.5 -45t114.5 0v-20q-102 -41 -186 -41q-156 0 -156 116q0 41 20 111l109 389q27 106 27 160q0 88 -87 88t-235 -133l-156 -715h-204l88 334l106 457q16 66 -3 88t-103 30v25l331 16l-51 -184l4 -4q180 192 330 192z" />
    <glyph glyph-name="ograve" unicode="&#xf2;" horiz-adv-x="892" 
d="M324 1430q0 24 26.5 48.5t64.5 24.5t59.5 -36.5t47.5 -102.5l109 -281h-33l-100 105q-149 155 -161.5 186.5t-12.5 55.5zM362 20q129 0 214.5 244t85.5 447q0 111 -32 161t-101 50t-124 -76t-94 -184.5t-58.5 -227.5t-19.5 -203q0 -211 129 -211zM542 961
q125 0 214.5 -100.5t89.5 -282.5q0 -104 -33 -211t-134.5 -245t-313.5 -138q-139 0 -228.5 99t-89.5 305t135 389.5t360 183.5z" />
    <glyph glyph-name="oacute" unicode="&#xf3;" horiz-adv-x="892" 
d="M362 20q129 0 214.5 244t85.5 447q0 111 -32 161t-101 50t-124 -76t-94 -184.5t-58.5 -227.5t-19.5 -203q0 -211 129 -211zM542 961q125 0 214.5 -100.5t89.5 -282.5q0 -104 -33 -211t-134.5 -245t-313.5 -138q-139 0 -228.5 99t-89.5 305t135 389.5t360 183.5zM800 1503
q28 0 51 -23.5t23 -47.5q0 -42 -38 -84t-170 -150l-140 -115h-37l140 236q31 53 51 89t38.5 57.5t36 29.5t45.5 8z" />
    <glyph glyph-name="ocircumflex" unicode="&#xf4;" horiz-adv-x="892" 
d="M362 20q129 0 214.5 244t85.5 447q0 111 -32 161t-101 50t-124 -76t-94 -184.5t-58.5 -227.5t-19.5 -203q0 -211 129 -211zM542 961q125 0 214.5 -100.5t89.5 -282.5q0 -104 -33 -211t-134.5 -245t-313.5 -138q-139 0 -228.5 99t-89.5 305t135 389.5t360 183.5zM635 1475
h33l137 -392h-35l-164 187l-252 -187h-43z" />
    <glyph glyph-name="otilde" unicode="&#xf5;" horiz-adv-x="892" 
d="M500 1343q41 0 104.5 -36.5t94 -54t60.5 -17.5t52.5 25.5t50.5 93.5h35q-35 -141 -79 -200.5t-113 -59.5q-41 0 -103.5 36.5t-93 54t-60.5 17.5t-52.5 -25.5t-51.5 -93.5h-35q35 141 79 200.5t112 59.5zM362 20q129 0 214.5 244t85.5 447q0 111 -32 161t-101 50t-124 -76
t-94 -184.5t-58.5 -227.5t-19.5 -203q0 -211 129 -211zM542 961q125 0 214.5 -100.5t89.5 -282.5q0 -104 -33 -211t-134.5 -245t-313.5 -138q-139 0 -228.5 99t-89.5 305t135 389.5t360 183.5z" />
    <glyph glyph-name="odieresis" unicode="&#xf6;" horiz-adv-x="892" 
d="M362 20q129 0 214.5 244t85.5 447q0 111 -32 161t-101 50t-124 -76t-94 -184.5t-58.5 -227.5t-19.5 -203q0 -211 129 -211zM542 961q125 0 214.5 -100.5t89.5 -282.5q0 -104 -33 -211t-134.5 -245t-313.5 -138q-139 0 -228.5 99t-89.5 305t135 389.5t360 183.5zM444 1366
q100 0 101 -110q0 -58 -39 -110t-86 -52q-103 0 -103 112q0 60 39.5 110t87.5 50zM795 1366q100 0 100 -110q0 -58 -39 -110t-86 -52q-102 0 -102 112q0 58 40 109t87 51z" />
    <glyph glyph-name="divide" unicode="&#xf7;" horiz-adv-x="1026" 
d="M491.5 252q-47.5 0 -79 35t-31.5 84t31.5 83.5t79 34.5t79 -34.5t31.5 -83.5t-31.5 -84t-79 -35zM630 846q-48 0 -80 34.5t-32 84t33 84t80 34.5t77.5 -34.5t30.5 -84t-30.5 -84t-78.5 -34.5zM135 645l10 45h836l-10 -45h-836z" />
    <glyph glyph-name="oslash" unicode="&#xf8;" horiz-adv-x="892" 
d="M532 922q-126 0 -212.5 -239t-86.5 -445l426 524q-14 160 -127 160zM362 20q127 0 193 182.5t86.5 300.5t20.5 202l-426 -521q11 -164 126 -164zM47 367q0 227 134.5 410.5t358.5 183.5q122 0 210 -93l98 123h51l-125 -153q72 -101 72 -260q0 -104 -33 -211t-134.5 -245
t-313.5 -138q-137 0 -222 90l-98 -121h-51l125 153q-72 97 -72 261z" />
    <glyph glyph-name="ugrave" unicode="&#xf9;" horiz-adv-x="1001" 
d="M369 1430q0 24 26.5 48.5t64.5 24.5t59.5 -36.5t47.5 -102.5l109 -281h-33l-100 105q-149 155 -161.5 186.5t-12.5 55.5zM563 77q0 48 15 99l-5 4q-164 -197 -317 -196q-88 0 -135 48t-47 120t26 178l127 458q16 66 -3 89.5t-105 31.5v25l342 16l-164 -610
q-27 -111 -27 -158q0 -90 97 -90q49 0 100 33t119 102l102 398l74 321h203l-191 -719q-22 -81 -22 -126q0 -44 35.5 -54t113.5 -2v-20q-94 -41 -175 -41q-80 0 -121.5 22.5t-41.5 70.5z" />
    <glyph glyph-name="uacute" unicode="&#xfa;" horiz-adv-x="1001" 
d="M563 77q0 48 15 99l-5 4q-164 -197 -317 -196q-88 0 -135 48t-47 120t26 178l127 458q16 66 -3 89.5t-105 31.5v25l342 16l-164 -610q-27 -111 -27 -158q0 -90 97 -90q49 0 100 33t119 102l102 398l74 321h203l-191 -719q-22 -81 -22 -126q0 -44 35.5 -54t113.5 -2v-20
q-94 -41 -175 -41q-80 0 -121.5 22.5t-41.5 70.5zM845 1503q28 0 51.5 -23.5t23.5 -47.5q0 -41 -38.5 -83.5t-170.5 -150.5l-140 -115h-36l139 236q31 53 51 89t38.5 57.5t36 29.5t45.5 8z" />
    <glyph glyph-name="ucircumflex" unicode="&#xfb;" horiz-adv-x="1001" 
d="M563 77q0 48 15 99l-5 4q-164 -197 -317 -196q-88 0 -135 48t-47 120t26 178l127 458q16 66 -3 89.5t-105 31.5v25l342 16l-164 -610q-27 -111 -27 -158q0 -90 97 -90q49 0 100 33t119 102l102 398l74 321h203l-191 -719q-22 -81 -22 -126q0 -44 35.5 -54t113.5 -2v-20
q-94 -41 -175 -41q-80 0 -121.5 22.5t-41.5 70.5zM690 1475h33l137 -392h-35l-163 187l-252 -187h-43z" />
    <glyph glyph-name="udieresis" unicode="&#xfc;" horiz-adv-x="1001" 
d="M563 77q0 48 15 99l-5 4q-164 -197 -317 -196q-88 0 -135 48t-47 120t26 178l127 458q16 66 -3 89.5t-105 31.5v25l342 16l-164 -610q-27 -111 -27 -158q0 -90 97 -90q49 0 100 33t119 102l102 398l74 321h203l-191 -719q-22 -81 -22 -126q0 -44 35.5 -54t113.5 -2v-20
q-94 -41 -175 -41q-80 0 -121.5 22.5t-41.5 70.5zM496 1366q100 0 100 -110q0 -58 -39 -110t-86 -52q-102 0 -102 112q0 60 40 110t87 50zM846 1366q100 0 100 -110q0 -58 -39 -110t-86 -52q-102 0 -102 112q0 58 40 109t87 51z" />
    <glyph glyph-name="yacute" unicode="&#xfd;" horiz-adv-x="833" 
d="M730 1503q28 0 51.5 -23.5t23.5 -47.5q0 -43 -42.5 -88.5t-166.5 -145.5l-139 -115h-37l139 236q31 53 51.5 89t39 57.5t35.5 29.5t45 8zM712 965q52 0 82.5 -42.5t30.5 -92.5q0 -90 -42 -187.5t-224 -431.5q-295 -525 -403 -567.5t-174 -42.5t-107 42t-41 99t34 94
t82 37t77.5 -31.5t29.5 -88.5t-28 -89q53 2 122.5 47t141.5 168l-133 916q-8 59 -31 79.5t-98 20.5v25l301 34l59 -444l47 -412h6l97 176q148 252 166 418q-109 49 -109 148q2 55 32 90t82 35z" />
    <glyph glyph-name="thorn" unicode="&#xfe;" horiz-adv-x="931" 
d="M379 39q124 0 215.5 217.5t91.5 412.5t-127 195q-86 0 -178 -108l-141 -621q20 -47 59 -71.5t80 -24.5zM659 961q96 0 161 -74.5t65 -210.5t-37 -255.5t-101.5 -217t-152.5 -157.5t-194 -60t-175 77l-84 -352q-8 -35 23 -48t137 -19v-25h-500v25q74 4 102.5 17t37.5 42
l71 264l166 748l141 604q14 59 -12 78.5t-131 27.5v25l377 18l-164 -661l4 -4q131 158 266 158z" />
    <glyph glyph-name="ydieresis" unicode="&#xff;" horiz-adv-x="833" 
d="M398 1366q100 0 100 -110q0 -58 -39 -110t-86 -52q-103 0 -103 112q0 60 40 110t88 50zM748 1366q100 0 100 -110q0 -58 -39 -110t-86 -52q-102 0 -102 112q0 58 39.5 109t87.5 51zM712 965q52 0 82.5 -42.5t30.5 -92.5q0 -90 -42 -187.5t-224 -431.5
q-295 -525 -403 -567.5t-174 -42.5t-107 42t-41 99t34 94t82 37t77.5 -31.5t29.5 -88.5t-28 -89q53 2 122.5 47t141.5 168l-133 916q-8 59 -31 79.5t-98 20.5v25l301 34l59 -444l47 -412h6l97 176q148 252 166 418q-109 49 -109 148q2 55 32 90t82 35z" />
    <glyph glyph-name="Amacron" unicode="&#x100;" horiz-adv-x="1202" 
d="M676 1720h469l-19 -88h-471zM725 1194h-8l-332 -614h379zM-119 27q101 20 167.5 88.5t148.5 220.5l610 1112h106l103 -1219q8 -114 31.5 -143t55.5 -40t83 -19l-6 -27h-576l6 27q126 8 158.5 45t24.5 133l-25 334h-406l-116 -215q-86 -156 -73.5 -214.5t130.5 -82.5
l-6 -27h-422z" />
    <glyph glyph-name="amacron" unicode="&#x101;" horiz-adv-x="960" 
d="M432 1233h469l-18 -88h-471zM692 760q-32 145 -138 145q-58 0 -114.5 -68.5t-98.5 -167t-66.5 -205t-24.5 -181.5q0 -211 123 -211q51 0 99 50t83 116zM543 90q0 28 10 76l-4 4q-63 -98 -125 -142t-150 -44t-156.5 72t-68.5 210t38 257.5t103.5 217t152.5 159t173 61.5
t129 -37t70 -97l33 111l196 23l-98 -332l-98 -383q-25 -106 -25 -146t36 -51.5t113 -3.5v-20q-106 -41 -179 -41q-74 0 -112 21.5t-38 84.5z" />
    <glyph glyph-name="Abreve" unicode="&#x102;" horiz-adv-x="1202" 
d="M881 1581q-104 0 -155.5 80t-23.5 242h37q8 -185 166 -185t236 185h41q-78 -322 -301 -322zM725 1194h-8l-332 -614h379zM-119 27q101 20 167.5 88.5t148.5 220.5l610 1112h106l103 -1219q8 -114 31.5 -143t55.5 -40t83 -19l-6 -27h-576l6 27q126 8 158.5 45t24.5 133
l-25 334h-406l-116 -215q-86 -156 -73.5 -214.5t130.5 -82.5l-6 -27h-422z" />
    <glyph glyph-name="abreve" unicode="&#x103;" horiz-adv-x="960" 
d="M639 1094q-104 0 -155.5 79.5t-22.5 241.5h37q8 -184 166 -184t235 184h41q-78 -321 -301 -321zM692 760q-32 145 -138 145q-58 0 -114.5 -68.5t-98.5 -167t-66.5 -205t-24.5 -181.5q0 -211 123 -211q51 0 99 50t83 116zM543 90q0 28 10 76l-4 4q-63 -98 -125 -142
t-150 -44t-156.5 72t-68.5 210t38 257.5t103.5 217t152.5 159t173 61.5t129 -37t70 -97l33 111l196 23l-98 -332l-98 -383q-25 -106 -25 -146t36 -51.5t113 -3.5v-20q-106 -41 -179 -41q-74 0 -112 21.5t-38 84.5z" />
    <glyph glyph-name="Aogonek" unicode="&#x104;" 
d="M725 1194h-8l-332 -614h379zM797 -459q-77 0 -119.5 39t-42.5 112t65.5 138.5t200.5 136.5l62 33h-359l6 27q126 8 158.5 45t24.5 133l-25 334h-406l-116 -215q-86 -156 -73.5 -214.5t130.5 -82.5l-6 -27h-422l6 27q101 20 167.5 88.5t148.5 220.5l610 1112h106
l103 -1219q8 -114 31.5 -143t55.5 -40t83 -19l-6 -27h-168l-49 -35q-185 -130 -185 -217.5t25.5 -115t66.5 -27.5t103 26l8 -20q-107 -70 -184 -70z" />
    <glyph glyph-name="aogonek" unicode="&#x105;" horiz-adv-x="960" 
d="M694 762q-32 145 -140 145q-58 0 -114.5 -68.5t-98.5 -167t-65.5 -206t-23.5 -182.5q0 -209 121 -209q92 0 184 164zM428 -307q0 74 69.5 137.5t209.5 134.5l51 27q-115 -20 -165 7.5t-50 92.5q0 26 10 74l-4 4q-61 -98 -124 -143t-151 -45t-156.5 73t-68.5 211t38 257.5
t103.5 217t152.5 159t173 61.5t129 -36t70 -96l33 109l196 23l-98 -332l-98 -381q-25 -98 -25 -143q0 -44 36 -56t113 -4v-20q-2 0 -12 -6.5t-24.5 -14.5t-26.5 -15t-48 -27t-79 -58.5t-77 -85.5t-34 -103q0 -55 26 -82.5t65 -27.5t102 26l10 -20q-107 -70 -182 -70
q-76 0 -120 39t-44 113z" />
    <glyph glyph-name="Cacute" unicode="&#x106;" horiz-adv-x="1198" 
d="M1137 401q-217 -434 -557 -434q-208 0 -339.5 155.5t-131.5 412.5q0 174 54 340.5t153.5 297t236.5 209t300 78.5t296 -100l102 98h35l-119 -481h-34q-62 267 -100 333t-79 88.5t-102 22.5q-109 0 -202 -89t-162.5 -226t-108.5 -299t-39 -309q0 -231 87 -342t235 -111
q239 0 440 375zM1072 1991q28 0 51.5 -23.5t23.5 -47.5q0 -42 -40 -85.5t-169 -148.5l-139 -115h-37l139 235q31 53 51.5 89t39 57.5t35.5 30t45 8.5z" />
    <glyph glyph-name="cacute" unicode="&#x107;" horiz-adv-x="790" 
d="M47 362q0 106 37 215t102.5 194t155.5 137.5t200 52.5t178 -55.5t68 -139.5q0 -53 -31.5 -95t-81.5 -42t-81 29.5t-31 74.5t23.5 81t56.5 54q-29 56 -94 56t-120.5 -55.5t-120 -191t-64.5 -335.5q0 -141 50 -212t142 -71q129 0 242 179l24 -19q-135 -235 -343 -235
t-260 136t-52 242zM767 1503q28 0 51.5 -23.5t23.5 -47.5q0 -41 -38.5 -83.5t-170.5 -150.5l-139 -115h-37l139 236q31 53 51.5 89t39 57.5t35.5 29.5t45 8z" />
    <glyph glyph-name="Cdotaccent" unicode="&#x10a;" horiz-adv-x="1198" 
d="M922 1860q106 0 106 -116q0 -60 -41 -111.5t-90 -51.5q-106 0 -106 116q0 61 40.5 112t90.5 51zM1137 401q-217 -434 -557 -434q-208 0 -339.5 155.5t-131.5 412.5q0 174 54 340.5t153.5 297t236.5 209t300 78.5t296 -100l102 98h35l-119 -481h-34q-62 267 -100 333
t-79 88.5t-102 22.5q-109 0 -202 -89t-162.5 -226t-108.5 -299t-39 -309q0 -231 87 -342t235 -111q239 0 440 375z" />
    <glyph glyph-name="cdotaccent" unicode="&#x10b;" horiz-adv-x="790" 
d="M573 1094q-106 0 -106 116q0 60 41 111t90 51t78 -27t29 -87t-41.5 -112t-90.5 -52zM47 362q0 106 37 215t102.5 194t155.5 137.5t200 52.5t178 -55.5t68 -139.5q0 -53 -31.5 -95t-81.5 -42t-81 29.5t-31 74.5t23.5 81t56.5 54q-29 56 -94 56t-120.5 -55.5t-120 -191
t-64.5 -335.5q0 -141 50 -212t142 -71q129 0 242 179l24 -19q-135 -235 -343 -235t-260 136t-52 242z" />
    <glyph glyph-name="Ccaron" unicode="&#x10c;" horiz-adv-x="1198" 
d="M1137 401q-217 -434 -557 -434q-208 0 -339.5 155.5t-131.5 412.5q0 174 54 340.5t153.5 297t236.5 209t300 78.5t296 -100l102 98h35l-119 -481h-34q-62 267 -100 333t-79 88.5t-102 22.5q-109 0 -202 -89t-162.5 -226t-108.5 -299t-39 -309q0 -231 87 -342t235 -111
q239 0 440 375zM705 1962h34l164 -186l252 186h43l-324 -391h-32z" />
    <glyph glyph-name="ccaron" unicode="&#x10d;" horiz-adv-x="790" 
d="M47 362q0 106 37 215t102.5 194t155.5 137.5t200 52.5t178 -55.5t68 -139.5q0 -53 -31.5 -95t-81.5 -42t-81 29.5t-31 74.5t23.5 81t56.5 54q-29 56 -94 56t-120.5 -55.5t-120 -191t-64.5 -335.5q0 -141 50 -212t142 -71q129 0 242 179l24 -19q-135 -235 -343 -235
t-260 136t-52 242zM385 1475h35l164 -187l252 187h43l-324 -392h-33z" />
    <glyph glyph-name="Dcaron" unicode="&#x10e;" horiz-adv-x="1331" 
d="M729 1962h35l164 -186l252 186h43l-324 -391h-33zM510 41q185 0 319 133t205.5 380t71.5 453t-91 292.5t-278 86.5h-63l-309 -1345h145zM721 1427q319 0 465.5 -144.5t146.5 -406.5q0 -261 -134.5 -490.5t-320.5 -307.5t-370 -78h-555l4 27q117 8 148.5 25.5t43 37
t17.5 49.5l262 1145q12 63 -14.5 84t-143.5 33l6 26h445z" />
    <glyph glyph-name="dcaron" unicode="&#x10f;" horiz-adv-x="954" 
d="M1286 1559q37 0 59.5 -20.5t22.5 -50.5t-16.5 -63.5t-48.5 -87.5l-154 -243h-25l66 329q14 76 36.5 106t59.5 30zM250 272q0 -88 36 -140t91 -52q99 0 178 143l135 553q-38 129 -146 129q-60 0 -115.5 -68.5t-95.5 -166t-61.5 -204t-21.5 -194.5zM547 158
q-117 -174 -241 -174q-115 0 -186 80t-71 214t37 251.5t100.5 213t149.5 157t171 61.5t128 -31t74 -82l110 469q12 59 -15.5 79.5t-131.5 28.5v25l377 18l-295 -1202q-25 -106 -25 -151t34 -62.5t122 -7.5v-20q-94 -41 -181 -41q-86 0 -120.5 27.5t-36.5 94.5v16q0 17 4 34z
" />
    <glyph glyph-name="Dcroat" unicode="&#x110;" horiz-adv-x="1331" 
d="M510 41q185 0 319 133t205.5 380t71.5 453t-91 292.5t-278 86.5h-63l-142 -616h240l-12 -53h-240l-155 -676h145zM721 1427q319 0 465.5 -144.5t146.5 -406.5q0 -261 -134.5 -490.5t-320.5 -307.5t-370 -78h-555l4 27q117 8 148.5 25.5t43 37t17.5 49.5l131 578h-174
l12 53h174l119 514q12 63 -14.5 84t-143.5 33l6 26h445z" />
    <glyph glyph-name="dcroat" unicode="&#x111;" horiz-adv-x="954" 
d="M250 272q0 -88 36 -140t91 -52q99 0 178 143l135 553q-38 129 -146 129q-60 0 -115.5 -68.5t-95.5 -166t-61.5 -204t-21.5 -194.5zM547 158q-117 -174 -241 -174q-115 0 -186 80t-71 214t37 251.5t100.5 213t149.5 157t171 61.5t128 -31t74 -82l75 323h-239l10 46h240
l24 100q12 59 -15.5 79.5t-131.5 28.5v25l377 18l-62 -251h123l-12 -46h-123l-221 -905q-25 -106 -25 -151t34 -62.5t122 -7.5v-20q-94 -41 -181 -41q-86 0 -120.5 27.5t-36.5 94.5v16q0 17 4 34z" />
    <glyph glyph-name="Emacron" unicode="&#x112;" 
d="M657 1720h469l-18 -88h-471zM877 1386h-203l-142 -618h101q53 0 87 8t63.5 34t59 74t75.5 126h30l-123 -541h-30q-16 169 -40 205.5t-54.5 44.5t-84.5 8h-94l-157 -684h223q179 0 257.5 67.5t130.5 145.5t120 193h32l-114 -449h-1061l4 27q117 8 148.5 25.5t43 37
t17.5 49.5l262 1145q12 63 -14.5 84t-143.5 33l6 26h1006l-84 -419h-33q-23 111 -41 183.5t-46.5 115.5t-75 61t-125.5 18z" />
    <glyph glyph-name="emacron" unicode="&#x113;" horiz-adv-x="811" 
d="M371 1233h469l-19 -88h-471zM557 920q-88 0 -178 -136t-121 -299q214 4 296.5 102.5t82.5 227.5q0 105 -80 105zM428 61q141 0 260 179l25 -21q-78 -119 -165 -177t-196 -58q-208 0 -258.5 126t-50.5 232t42 220t113.5 202t168.5 142.5t211 54.5t174.5 -57.5t60.5 -143.5
q0 -141 -146.5 -225t-414.5 -80q-10 -78 -10 -125q0 -269 186 -269z" />
    <glyph glyph-name="Ebreve" unicode="&#x114;" 
d="M864 1581q-104 0 -155.5 80t-22.5 242h37q8 -185 166 -185q157 0 235 185h41q-78 -322 -301 -322zM877 1386h-203l-142 -618h101q53 0 87 8t63.5 34t59 74t75.5 126h30l-123 -541h-30q-16 169 -40 205.5t-54.5 44.5t-84.5 8h-94l-157 -684h223q179 0 257.5 67.5
t130.5 145.5t120 193h32l-114 -449h-1061l4 27q117 8 148.5 25.5t43 37t17.5 49.5l262 1145q12 63 -14.5 84t-143.5 33l6 26h1006l-84 -419h-33q-23 111 -41 183.5t-46.5 115.5t-75 61t-125.5 18z" />
    <glyph glyph-name="ebreve" unicode="&#x115;" horiz-adv-x="811" 
d="M575 1094q-104 0 -155 79.5t-23 241.5h37q8 -184 166 -184t236 184h41q-79 -321 -302 -321zM557 920q-88 0 -178 -136t-121 -299q214 4 296.5 102.5t82.5 227.5q0 105 -80 105zM428 61q141 0 260 179l25 -21q-78 -119 -165 -177t-196 -58q-208 0 -258.5 126t-50.5 232
t42 220t113.5 202t168.5 142.5t211 54.5t174.5 -57.5t60.5 -143.5q0 -141 -146.5 -225t-414.5 -80q-10 -78 -10 -125q0 -269 186 -269z" />
    <glyph glyph-name="Edotaccent" unicode="&#x116;" 
d="M876 1581q-106 0 -106 116q0 61 41 112t90 51t78 -28t29 -88t-41.5 -111.5t-90.5 -51.5zM877 1386h-203l-142 -618h101q53 0 87 8t63.5 34t59 74t75.5 126h30l-123 -541h-30q-16 169 -40 205.5t-54.5 44.5t-84.5 8h-94l-157 -684h223q179 0 257.5 67.5t130.5 145.5
t120 193h32l-114 -449h-1061l4 27q117 8 148.5 25.5t43 37t17.5 49.5l262 1145q12 63 -14.5 84t-143.5 33l6 26h1006l-84 -419h-33q-23 111 -41 183.5t-46.5 115.5t-75 61t-125.5 18z" />
    <glyph glyph-name="edotaccent" unicode="&#x117;" horiz-adv-x="811" 
d="M624 1372q106 0 107 -114q0 -60 -41 -112t-90 -52q-106 0 -106 116q0 60 40 111t90 51zM557 920q-88 0 -178 -136t-121 -299q214 4 296.5 102.5t82.5 227.5q0 105 -80 105zM428 61q141 0 260 179l25 -21q-78 -119 -165 -177t-196 -58q-208 0 -258.5 126t-50.5 232t42 220
t113.5 202t168.5 142.5t211 54.5t174.5 -57.5t60.5 -143.5q0 -141 -146.5 -225t-414.5 -80q-10 -78 -10 -125q0 -269 186 -269z" />
    <glyph glyph-name="Eogonek" unicode="&#x118;" horiz-adv-x="1212" 
d="M671 -459q-77 0 -120 39t-43 112t65.5 138.5t200.5 136.5l62 33h-883l4 27q117 8 148.5 25.5t43 37t17.5 49.5l262 1145q12 63 -14.5 84t-143.5 33l6 26h1006l-84 -419h-33q-23 111 -41 183.5t-46.5 115.5t-75 61t-125.5 18h-203l-142 -618h101q53 0 87 8t63.5 34t59 74
t75.5 126h30l-123 -541h-30q-16 169 -40 205.5t-54.5 44.5t-84.5 8h-94l-157 -684h223q179 0 257.5 67.5t130.5 145.5t120 193h32l-114 -449h-129l-49 -35q-185 -130 -185 -217.5t25.5 -115t66.5 -27.5t103 26l8 -20q-106 -70 -183 -70z" />
    <glyph glyph-name="eogonek" unicode="&#x119;" horiz-adv-x="811" 
d="M639 815q0 105 -80 105q-87 0 -178 -134.5t-123 -300.5q213 4 297 102t84 228zM290 -459q-77 0 -121 39t-44 113t66.5 137.5t191.5 130.5l68 37q-43 -16 -100 -16q-128 0 -217 87t-89 259q0 121 42 234.5t113.5 201.5t167.5 142.5t210 54.5t174.5 -57.5t60.5 -143.5
q0 -141 -146.5 -225t-414.5 -78q-10 -78 -10 -125q0 -271 188 -271q143 0 258 179l27 -21q-75 -108 -154 -170l-100 -78q-106 -84 -149.5 -143.5t-43.5 -113.5t27 -81.5t66 -27.5t102 26l10 -20q-106 -70 -183 -70z" />
    <glyph glyph-name="Ecaron" unicode="&#x11a;" 
d="M877 1386h-203l-142 -618h101q53 0 87 8t63.5 34t59 74t75.5 126h30l-123 -541h-30q-16 169 -40 205.5t-54.5 44.5t-84.5 8h-94l-157 -684h223q179 0 257.5 67.5t130.5 145.5t120 193h32l-114 -449h-1061l4 27q117 8 148.5 25.5t43 37t17.5 49.5l262 1145q12 63 -14.5 84
t-143.5 33l6 26h1006l-84 -419h-33q-23 111 -41 183.5t-46.5 115.5t-75 61t-125.5 18zM698 1962h35l164 -186l252 186h43l-324 -391h-32z" />
    <glyph glyph-name="ecaron" unicode="&#x11b;" horiz-adv-x="811" 
d="M408 1475h34l164 -187l252 187h43l-323 -392h-33zM557 920q-88 0 -178 -136t-121 -299q214 4 296.5 102.5t82.5 227.5q0 105 -80 105zM428 61q141 0 260 179l25 -21q-78 -119 -165 -177t-196 -58q-208 0 -258.5 126t-50.5 232t42 220t113.5 202t168.5 142.5t211 54.5
t174.5 -57.5t60.5 -143.5q0 -141 -146.5 -225t-414.5 -80q-10 -78 -10 -125q0 -269 186 -269z" />
    <glyph glyph-name="Gbreve" unicode="&#x11e;" horiz-adv-x="1282" 
d="M883 1581q-104 0 -155.5 80t-22.5 242h36q8 -185 166 -185t236 185h41q-78 -322 -301 -322zM871 1460q171 0 303 -98l100 96h35l-117 -467h-33q-72 264 -109.5 325.5t-79.5 83t-104 21.5q-117 0 -213 -92t-165.5 -234.5t-108.5 -312.5t-39 -353t78 -303t209 -120
q104 0 190 66l109 460q12 60 -16 82.5t-142 30.5l4 27h531l-5 -27q-86 -8 -109.5 -25.5t-31.5 -37t-16 -50.5l-105 -436q-214 -129 -431 -129t-356.5 161.5t-139.5 412.5q0 172 55 336.5t155.5 295t240.5 209t311 78.5z" />
    <glyph glyph-name="gbreve" unicode="&#x11f;" horiz-adv-x="933" 
d="M600 1094q-104 0 -155.5 79.5t-22.5 241.5h37q8 -184 166 -184t235 184h41q-78 -321 -301 -321zM250 276q0 -89 37 -138.5t93 -49.5t96 36t75 91l139 557q-44 133 -148 133q-60 0 -115.5 -68.5t-94.5 -165t-60.5 -201.5t-21.5 -194zM541 152q-103 -156 -227 -156
q-119 0 -191 80.5t-72 210.5q0 131 35 245.5t97.5 210t147.5 157t185 61.5q125 0 195 -119l28 96l197 23l-94 -334l-154 -637q-52 -211 -153 -300t-293 -89q-135 0 -215 55.5t-80 125.5t33.5 111t83.5 41t77 -30.5t27 -77.5q0 -81 -70 -121q44 -65 142 -65t159.5 83.5
t102.5 247.5l43 176z" />
    <glyph glyph-name="Gdotaccent" unicode="&#x120;" horiz-adv-x="1282" 
d="M934 1860q106 0 106 -116q0 -60 -41 -111.5t-90 -51.5q-106 0 -106 116q0 61 41 112t90 51zM871 1460q171 0 303 -98l100 96h35l-117 -467h-33q-72 264 -109.5 325.5t-79.5 83t-104 21.5q-117 0 -213 -92t-165.5 -234.5t-108.5 -312.5t-39 -353t78 -303t209 -120
q104 0 190 66l109 460q12 60 -16 82.5t-142 30.5l4 27h531l-5 -27q-86 -8 -109.5 -25.5t-31.5 -37t-16 -50.5l-105 -436q-214 -129 -431 -129t-356.5 161.5t-139.5 412.5q0 172 55 336.5t155.5 295t240.5 209t311 78.5z" />
    <glyph glyph-name="gdotaccent" unicode="&#x121;" horiz-adv-x="933" 
d="M618 1094q-106 0 -106 116q0 60 41 111t90 51t78 -27t29 -87t-41.5 -112t-90.5 -52zM250 276q0 -89 37 -138.5t93 -49.5t96 36t75 91l139 557q-44 133 -148 133q-60 0 -115.5 -68.5t-94.5 -165t-60.5 -201.5t-21.5 -194zM541 152q-103 -156 -227 -156q-119 0 -191 80.5
t-72 210.5q0 131 35 245.5t97.5 210t147.5 157t185 61.5q125 0 195 -119l28 96l197 23l-94 -334l-154 -637q-52 -211 -153 -300t-293 -89q-135 0 -215 55.5t-80 125.5t33.5 111t83.5 41t77 -30.5t27 -77.5q0 -81 -70 -121q44 -65 142 -65t159.5 83.5t102.5 247.5l43 176z
" />
    <glyph glyph-name="Gcommaaccent" unicode="&#x122;" horiz-adv-x="1282" 
d="M871 1460q171 0 303 -98l100 96h35l-117 -467h-33q-72 264 -109.5 325.5t-79.5 83t-104 21.5q-117 0 -213 -92t-165.5 -234.5t-108.5 -312.5t-39 -353t78 -303t209 -120q104 0 190 66l109 460q12 60 -16 82.5t-142 30.5l4 27h531l-5 -27q-86 -8 -109.5 -25.5t-31.5 -37
t-16 -50.5l-105 -436q-214 -129 -431 -129t-356.5 161.5t-139.5 412.5q0 172 55 336.5t155.5 295t240.5 209t311 78.5zM385 -246q0 51 34 87t86 36t84 -37t32 -96q0 -199 -302 -326l-12 25q102 53 144.5 107.5t52.5 93.5l-6 4q-51 -6 -82 24.5t-31 81.5z" />
    <glyph glyph-name="gcommaaccent" unicode="&#x123;" horiz-adv-x="933" 
d="M250 276q0 -89 37 -138.5t93 -49.5t96 36t75 91l139 557q-44 133 -148 133q-60 0 -115.5 -68.5t-94.5 -165t-60.5 -201.5t-21.5 -194zM541 152q-103 -156 -227 -156q-119 0 -191 80.5t-72 210.5q0 131 35 245.5t97.5 210t147.5 157t185 61.5q125 0 195 -119l28 96l197 23
l-94 -334l-154 -637q-52 -211 -153 -300t-293 -89q-135 0 -215 55.5t-80 125.5t33.5 111t83.5 41t77 -30.5t27 -77.5q0 -81 -70 -121q44 -65 142 -65t159.5 83.5t102.5 247.5l43 176zM750 1241q0 -51 -34 -87t-86 -36t-84 37t-32 96q0 198 301 326l12 -25
q-102 -53 -144 -107t-52 -93l6 -4q51 6 82 -25t31 -82z" />
    <glyph glyph-name="Hbar" unicode="&#x126;" horiz-adv-x="1443" 
d="M1051 762l65 285h-520l-66 -285h521zM1339 1047l-209 -904q-16 -62 11.5 -83t146.5 -33l-6 -27h-577l6 27q111 8 139.5 25.5t39.5 37t17 49.5l133 580h-520l-133 -580q-14 -57 16.5 -79.5t141.5 -32.5l-6 -27h-588l6 27q115 8 146.5 25.5t43 37t17.5 49.5l209 908h-176
l10 49h176l45 188q12 63 -14.5 84t-143.5 33l6 26h578l-6 -26q-106 -7 -138 -26t-42.5 -38.5t-16.5 -48.5l-45 -192h522l46 194q12 54 -16 76.5t-144 34.5l6 26h588l-4 -26q-117 -8 -149 -26.5t-43 -38t-17 -48.5l-45 -192h178l-12 -49h-177z" />
    <glyph glyph-name="hbar" unicode="&#x127;" horiz-adv-x="968" 
d="M698 -16q-155 0 -155 116q0 41 20 111l109 389q26 102 26 160q0 88 -86 88t-233 -133l-158 -715h-203l86 334l189 837h-121l12 46h119l25 104q14 57 -13.5 76.5t-130.5 27.5v25l377 18l-63 -251h239l-10 -46h-240l-100 -405l4 -4q180 192 328 192q82 0 129 -46t47 -120
t-27 -180l-116 -418q-18 -63 -18 -100t36.5 -45t114.5 0v-20q-103 -41 -187 -41z" />
    <glyph glyph-name="Imacron" unicode="&#x12a;" horiz-adv-x="737" 
d="M416 1720h469l-19 -88h-471zM879 1401q-117 -8 -150 -25.5t-45 -36t-18 -47.5l-267 -1153q-12 -61 17.5 -80t156.5 -32l-6 -27h-610l6 27q118 8 151 25.5t45.5 37t18.5 49.5l264 1145q13 65 -17.5 85t-150.5 32l5 26h606z" />
    <glyph glyph-name="imacron" unicode="&#x12b;" horiz-adv-x="524" 
d="M178 1233h469l-18 -88h-471zM70 98q0 33 20 119l154 578q16 63 -10.5 83.5t-116.5 30.5v25l360 16l-194 -741q-19 -70 -19 -106t36 -48t132 -4v-20q-127 -47 -211 -47q-151 0 -151 114z" />
    <glyph glyph-name="Ibreve" unicode="&#x12c;" horiz-adv-x="737" 
d="M618 1581q-104 0 -155 80t-23 242h37q8 -185 166 -185t236 185h41q-79 -322 -302 -322zM879 1401q-117 -8 -150 -25.5t-45 -36t-18 -47.5l-267 -1153q-12 -61 17.5 -80t156.5 -32l-6 -27h-610l6 27q118 8 151 25.5t45.5 37t18.5 49.5l264 1145q13 65 -17.5 85t-150.5 32
l5 26h606z" />
    <glyph glyph-name="ibreve" unicode="&#x12d;" horiz-adv-x="524" 
d="M387 1094q-104 0 -155.5 79.5t-22.5 241.5h37q8 -184 166 -184t235 184h41q-78 -321 -301 -321zM70 98q0 33 20 119l154 578q16 63 -10.5 83.5t-116.5 30.5v25l360 16l-194 -741q-19 -70 -19 -106t36 -48t132 -4v-20q-127 -47 -211 -47q-151 0 -151 114z" />
    <glyph glyph-name="Iogonek" unicode="&#x12e;" horiz-adv-x="737" 
d="M140 -459q-77 0 -120 39t-43 112t66 138.5t201 136.5l61 33h-348l6 27q118 8 151 25.5t45.5 37t18.5 49.5l264 1145q13 65 -17.5 85t-150.5 32l5 26h606l-6 -26q-117 -8 -150 -25.5t-45 -36t-18 -47.5l-267 -1153q-12 -61 17.5 -80t156.5 -32l-6 -27h-213l-49 -35
q-111 -78 -147.5 -140.5t-36.5 -113.5t25.5 -78.5t66.5 -27.5t102 26l9 -20q-107 -70 -184 -70z" />
    <glyph glyph-name="iogonek" unicode="&#x12f;" horiz-adv-x="528" 
d="M465 1425q106 -1 106 -115q0 -60 -41 -111.5t-90 -51.5q-106 -1 -106 115q0 60 41 111.5t90 51.5zM-14 -307q0 74 65.5 137.5t202.5 132.5l63 33q-69 -12 -96 -12q-149 0 -149 114q0 31 20 121l152 576q16 63 -10.5 83.5t-116.5 30.5v25l360 16l-194 -741
q-19 -70 -19 -106t36 -48t132 -4v-20q-18 -10 -49 -26.5t-51 -31.5q-203 -137 -203 -257q0 -56 25.5 -83.5t66.5 -27.5t103 26l10 -20q-113 -70 -187 -70t-117.5 39t-43.5 113z" />
    <glyph glyph-name="Idotaccent" unicode="&#x130;" horiz-adv-x="737" 
d="M666 1860q106 0 106 -116q0 -60 -41 -111.5t-90 -51.5q-106 0 -106 116q0 61 40.5 112t90.5 51zM879 1401q-117 -8 -150 -25.5t-45 -36t-18 -47.5l-267 -1153q-12 -61 17.5 -80t156.5 -32l-6 -27h-610l6 27q118 8 151 25.5t45.5 37t18.5 49.5l264 1145q13 65 -17.5 85
t-150.5 32l5 26h606z" />
    <glyph glyph-name="dotlessi" unicode="&#x131;" horiz-adv-x="524" 
d="M70 98q0 33 20 119l154 578q16 63 -10.5 83.5t-116.5 30.5v25l360 16l-194 -741q-19 -70 -19 -106t36 -48t132 -4v-20q-127 -47 -211 -47q-151 0 -151 114z" />
    <glyph glyph-name="Kcommaaccent" unicode="&#x136;" horiz-adv-x="1331" 
d="M1485 1401q-112 -24 -170 -60t-108 -80t-122 -112l-272 -262l225 -645q44 -130 72.5 -158.5t58 -38.5t76.5 -18l-6 -27h-543l6 27q104 12 120 34.5t11.5 52t-20.5 76.5l-178 521l-150 -142l-98 -430q-14 -57 12.5 -79.5t124.5 -32.5l-4 -27h-569l6 27q115 8 146.5 25.5
t43 37t17.5 49.5l264 1145q12 63 -14.5 84t-143.5 33l6 26h578l-6 -26q-106 -7 -138 -26t-42.5 -38.5t-16.5 -48.5l-149 -649l516 498q117 123 113.5 184t-115.5 80l6 26h469zM410 -246q0 51 33.5 87t85.5 36t84 -37t32 -96q0 -199 -301 -326l-12 25q102 53 144 107.5
t52 93.5l-6 4q-51 -6 -81.5 24.5t-30.5 81.5z" />
    <glyph glyph-name="kcommaaccent" unicode="&#x137;" horiz-adv-x="913" 
d="M401 522h-65l-115 -522h-203l86 334l224 987q14 57 -13.5 76.5t-130.5 27.5v25l377 18l-219 -915h45q78 0 125 74.5t73.5 127t78 127t137.5 74.5q61 0 92 -35.5t31 -90.5t-30 -94.5t-77 -39.5t-74.5 25t-27.5 61t18 78q-33 -8 -61.5 -50t-59 -94t-65.5 -100.5t-78 -68.5
v-4q205 -11 227.5 -91.5t22.5 -125.5l-6 -226q0 -44 25 -59.5t114 -11.5v-21q-64 -26 -170 -26t-136 33.5t-30 99.5l14 237q0 98 -28.5 134t-100.5 36zM195 -246q0 51 33.5 87t85.5 36t84 -37t32 -96q0 -199 -301 -326l-12 25q102 53 144 107.5t52 93.5l-6 4
q-51 -6 -81.5 24.5t-30.5 81.5z" />
    <glyph glyph-name="Lacute" unicode="&#x139;" horiz-adv-x="1112" 
d="M537 43q86 0 146 18.5t112.5 65.5t107.5 128t131 204h37l-123 -459h-995l4 27q117 8 148.5 25.5t43 37t17.5 49.5l262 1145q12 63 -14.5 84t-143.5 33l6 26h582l-6 -26q-106 -7 -140 -26t-44.5 -38.5t-16.5 -48.5l-286 -1245h172zM878 1991q28 0 51 -23.5t23 -47.5
q0 -42 -37 -83.5t-172 -150.5l-139 -115h-37l140 235q31 53 51 89t38.5 57.5t36 30t45.5 8.5z" />
    <glyph glyph-name="lacute" unicode="&#x13a;" horiz-adv-x="518" 
d="M59 100q0 29 21 119l184 719l90 381q12 60 -14.5 79t-130.5 27v25l375 18l-314 -1257q-16 -77 -16 -109t37 -45.5t135 -5.5v-20q-127 -47 -215 -47q-152 0 -152 116zM738 2003q28 0 51.5 -23.5t23.5 -47.5q0 -42 -39.5 -85.5t-169.5 -148.5l-139 -115h-37l139 236
q31 53 51.5 89t39 57.5t35.5 29.5t45 8z" />
    <glyph glyph-name="Lcommaaccent" unicode="&#x13b;" horiz-adv-x="1112" 
d="M537 43q86 0 146 18.5t112.5 65.5t107.5 128t131 204h37l-123 -459h-995l4 27q117 8 148.5 25.5t43 37t17.5 49.5l262 1145q12 63 -14.5 84t-143.5 33l6 26h582l-6 -26q-106 -7 -140 -26t-44.5 -38.5t-16.5 -48.5l-286 -1245h172zM350 -246q0 51 34 87t86 36t84 -37
t32 -96q0 -198 -301 -326l-13 25q102 53 144.5 107.5t52.5 93.5l-6 4q-51 -6 -82 24.5t-31 81.5z" />
    <glyph glyph-name="lcommaaccent" unicode="&#x13c;" horiz-adv-x="518" 
d="M59 100q0 29 21 119l184 719l90 381q12 60 -14.5 79t-130.5 27v25l375 18l-314 -1257q-16 -77 -16 -109t37 -45.5t135 -5.5v-20q-127 -47 -215 -47q-152 0 -152 116zM4 -246q0 51 34 87t86 36t84 -37t32 -96q0 -198 -301 -326l-13 25q102 53 144.5 107.5t52.5 93.5l-6 4
q-51 -6 -82 24.5t-31 81.5z" />
    <glyph glyph-name="Lcaron" unicode="&#x13d;" horiz-adv-x="1112" 
d="M537 43q86 0 146 18.5t112.5 65.5t107.5 128t131 204h37l-123 -459h-995l4 27q117 8 148.5 25.5t43 37t17.5 49.5l262 1145q12 63 -14.5 84t-143.5 33l6 26h582l-6 -26q-106 -7 -140 -26t-44.5 -38.5t-16.5 -48.5l-286 -1245h172zM1069 1538q37 0 59.5 -20.5t22.5 -57.5
t-66 -143l-153 -244h-25l66 330q14 76 36.5 105.5t59.5 29.5z" />
    <glyph glyph-name="lcaron" unicode="&#x13e;" horiz-adv-x="518" 
d="M59 100q0 29 21 119l184 719l90 381q12 60 -14.5 79t-130.5 27v25l375 18l-314 -1257q-16 -77 -16 -109t37 -45.5t135 -5.5v-20q-127 -47 -215 -47q-152 0 -152 116zM819 1559q37 0 59.5 -20.5t22.5 -50.5t-16.5 -63.5t-48.5 -87.5l-154 -243h-25l66 329q14 76 36.5 106
t59.5 30z" />
    <glyph glyph-name="Ldot" unicode="&#x13f;" horiz-adv-x="1112" 
d="M919 627q-106 -1 -106 115q0 60 41 111.5t90 51.5t78 -27.5t29 -87.5t-41.5 -111.5t-90.5 -51.5zM537 43q86 0 146 18.5t112.5 64.5t106.5 125t130 202h37l-121 -453h-995l4 27q117 8 148.5 25.5t43 37t17.5 49.5l262 1145q12 63 -14.5 84t-143.5 33l6 26h582l-6 -26
q-106 -7 -140 -26t-44.5 -38.5t-16.5 -48.5l-286 -1245h172z" />
    <glyph glyph-name="ldot" unicode="&#x140;" horiz-adv-x="663" 
d="M59 100q0 29 21 119l184 719l90 381q12 60 -14.5 79t-130.5 27v25l375 18l-314 -1257q-16 -77 -16 -109t37 -45.5t135 -5.5v-20q-127 -47 -215 -47q-152 0 -152 116zM639 819q104 -1 104 -113q0 -58 -41 -109.5t-89 -51.5t-76.5 27.5t-28.5 85.5t41 109.5t90 51.5z" />
    <glyph glyph-name="Lslash" unicode="&#x141;" horiz-adv-x="1112" 
d="M537 43q86 0 146 18.5t112.5 65.5t107.5 128t131 204h37l-123 -459h-995l4 27q117 8 148.5 25.5t43 37t17.5 49.5l115 500l-170 -55l-11 53l193 61l135 586q12 63 -14.5 84t-143.5 33l6 26h582l-6 -26q-106 -7 -140 -26t-44.5 -38.5t-16.5 -48.5l-119 -512l271 86l8 -51
l-293 -94l-153 -674h172z" />
    <glyph glyph-name="lslash" unicode="&#x142;" horiz-adv-x="550" 
d="M76 100q0 33 20 119l113 438l-162 -51l-6 47l180 58l60 227l90 381q12 60 -15.5 79t-130.5 27v25l375 18l-172 -690l172 56l8 -48l-194 -63l-127 -512q-17 -77 -17 -109t37 -45.5t135 -5.5v-20q-127 -47 -215 -47q-151 0 -151 116z" />
    <glyph glyph-name="Nacute" unicode="&#x143;" horiz-adv-x="1370" 
d="M1069 322h2l186 804q33 147 2.5 201t-161.5 74l4 26h467l-6 -26q-126 -24 -174 -80t-80 -195l-267 -1146h-71l-506 1226h-2l-209 -903q-33 -147 -3 -202t161 -74l-6 -27h-469l4 27q129 25 178 79.5t84 196.5l203 879q20 90 -8.5 151.5t-137.5 67.5l4 26h348zM1166 1985
q28 0 51.5 -24t23.5 -48q0 -43 -36 -82t-173 -152l-139 -114h-37l139 235q31 53 51.5 89t39 57.5t35.5 30t45 8.5z" />
    <glyph glyph-name="nacute" unicode="&#x144;" horiz-adv-x="974" 
d="M727 954q82 0 129 -46t47 -120t-26 -180l-117 -418q-18 -63 -18 -100t36.5 -45t114.5 0v-20q-102 -41 -186 -41q-156 0 -156 116q0 41 20 111l109 389q27 106 27 160q0 88 -87 88t-235 -133l-156 -715h-204l88 334l106 457q16 66 -3 88t-103 30v25l331 16l-51 -184l4 -4
q180 192 330 192zM862 1503q28 0 51 -23.5t23 -47.5q0 -42 -39.5 -85.5t-169.5 -148.5l-139 -115h-37l139 236q31 53 51.5 89t39 57.5t36 29.5t45.5 8z" />
    <glyph glyph-name="Ncommaaccent" unicode="&#x145;" horiz-adv-x="1370" 
d="M1069 322h2l186 804q33 147 2.5 201t-161.5 74l4 26h467l-6 -26q-126 -24 -174 -80t-80 -195l-267 -1146h-71l-506 1226h-2l-209 -903q-33 -147 -3 -202t161 -74l-6 -27h-469l4 27q129 25 178 79.5t84 196.5l203 879q20 90 -8.5 151.5t-137.5 67.5l4 26h348zM438 -246
q0 51 34 87t86 36t84 -37t32 -96q0 -198 -301 -326l-13 25q102 53 144.5 107.5t52.5 93.5l-6 4q-51 -6 -82 24.5t-31 81.5z" />
    <glyph glyph-name="ncommaaccent" unicode="&#x146;" horiz-adv-x="974" 
d="M727 954q82 0 129 -46t47 -120t-26 -180l-117 -418q-18 -63 -18 -100t36.5 -45t114.5 0v-20q-102 -41 -186 -41q-156 0 -156 116q0 41 20 111l109 389q27 106 27 160q0 88 -87 88t-235 -133l-156 -715h-204l88 334l106 457q16 66 -3 88t-103 30v25l331 16l-51 -184l4 -4
q180 192 330 192zM221 -246q0 51 34 87t86 36t84 -37t32 -96q0 -198 -301 -326l-13 25q102 53 144.5 107.5t52.5 93.5l-6 4q-51 -6 -82 24.5t-31 81.5z" />
    <glyph glyph-name="Ncaron" unicode="&#x147;" horiz-adv-x="1370" 
d="M1069 322h2l186 804q33 147 2.5 201t-161.5 74l4 26h467l-6 -26q-126 -24 -174 -80t-80 -195l-267 -1146h-71l-506 1226h-2l-209 -903q-33 -147 -3 -202t161 -74l-6 -27h-469l4 27q129 25 178 79.5t84 196.5l203 879q20 90 -8.5 151.5t-137.5 67.5l4 26h348zM768 1956h35
l164 -187l252 187h43l-324 -391h-33z" />
    <glyph glyph-name="ncaron" unicode="&#x148;" horiz-adv-x="974" 
d="M727 954q82 0 129 -46t47 -120t-26 -180l-117 -418q-18 -63 -18 -100t36.5 -45t114.5 0v-20q-102 -41 -186 -41q-156 0 -156 116q0 41 20 111l109 389q27 106 27 160q0 88 -87 88t-235 -133l-156 -715h-204l88 334l106 457q16 66 -3 88t-103 30v25l331 16l-51 -184l4 -4
q180 192 330 192zM463 1475h35l164 -187l251 187h43l-323 -392h-33z" />
    <glyph glyph-name="Omacron" unicode="&#x14c;" horiz-adv-x="1316" 
d="M334 379q0 -373 246 -373q145 0 263 167t187.5 412t69.5 464q0 372 -246 372q-145 0 -263.5 -167t-187.5 -412t-69 -463zM586 -33q-206 0 -339.5 152t-133.5 418q0 166 54 330.5t150.5 296.5t232.5 214t298 82q202 0 337.5 -152t135.5 -417q0 -166 -54.5 -331
t-151.5 -297t-232 -214t-297 -82zM709 1720h469l-19 -88h-471z" />
    <glyph glyph-name="omacron" unicode="&#x14d;" horiz-adv-x="892" 
d="M362 20q129 0 214.5 244t85.5 447q0 111 -32 161t-101 50t-124 -76t-94 -184.5t-58.5 -227.5t-19.5 -203q0 -211 129 -211zM542 961q125 0 214.5 -100.5t89.5 -282.5q0 -104 -33 -211t-134.5 -245t-313.5 -138q-139 0 -228.5 99t-89.5 305t135 389.5t360 183.5zM369 1233
h469l-19 -88h-471z" />
    <glyph glyph-name="Obreve" unicode="&#x14e;" horiz-adv-x="1316" 
d="M913 1581q-104 0 -155 80t-23 242h37q8 -185 166 -185t236 185h40q-78 -322 -301 -322zM334 379q0 -373 246 -373q145 0 263 167t187.5 412t69.5 464q0 372 -246 372q-145 0 -263.5 -167t-187.5 -412t-69 -463zM586 -33q-206 0 -339.5 152t-133.5 418q0 166 54 330.5
t150.5 296.5t232.5 214t298 82q202 0 337.5 -152t135.5 -417q0 -166 -54.5 -331t-151.5 -297t-232 -214t-297 -82z" />
    <glyph glyph-name="obreve" unicode="&#x14f;" horiz-adv-x="892" 
d="M588 1094q-104 0 -155.5 79.5t-22.5 241.5h36q8 -184 166 -184t236 184h41q-78 -321 -301 -321zM362 20q129 0 214.5 244t85.5 447q0 111 -32 161t-101 50t-124 -76t-94 -184.5t-58.5 -227.5t-19.5 -203q0 -211 129 -211zM542 961q125 0 214.5 -100.5t89.5 -282.5
q0 -104 -33 -211t-134.5 -245t-313.5 -138q-139 0 -228.5 99t-89.5 305t135 389.5t360 183.5z" />
    <glyph glyph-name="Ohungarumlaut" unicode="&#x150;" horiz-adv-x="1316" 
d="M334 379q0 -373 246 -373q145 0 263 167t187.5 412t69.5 464q0 372 -246 372q-145 0 -263.5 -167t-187.5 -412t-69 -463zM586 -33q-206 0 -339.5 152t-133.5 418q0 166 54 330.5t150.5 296.5t232.5 214t298 82q202 0 337.5 -152t135.5 -417q0 -166 -54.5 -331
t-151.5 -297t-232 -214t-297 -82zM1016 1991q39 0 61.5 -22.5t22.5 -46.5q0 -40 -35.5 -80.5t-130.5 -117.5l-186 -153h-37l166 274q47 78 73.5 112t65.5 34zM1321 1991q39 0 61.5 -22.5t22.5 -46.5q0 -42 -36.5 -82.5t-129.5 -115.5l-186 -153h-37l166 274q47 78 73.5 112
t65.5 34z" />
    <glyph glyph-name="ohungarumlaut" unicode="&#x151;" horiz-adv-x="892" 
d="M362 20q129 0 214.5 244t85.5 447q0 111 -32 161t-101 50t-124 -76t-94 -184.5t-58.5 -227.5t-19.5 -203q0 -211 129 -211zM542 961q125 0 214.5 -100.5t89.5 -282.5q0 -104 -33 -211t-134.5 -245t-313.5 -138q-139 0 -228.5 99t-89.5 305t135 389.5t360 183.5zM682 1503
q39 0 61.5 -22.5t22.5 -46.5q0 -42 -34.5 -80.5t-131.5 -116.5l-186 -154h-37l166 275q47 78 73.5 111.5t65.5 33.5zM987 1503q39 0 61.5 -22.5t22.5 -46.5q0 -42 -34.5 -80.5t-131.5 -116.5l-186 -154h-37l166 275q47 78 73.5 111.5t65.5 33.5z" />
    <glyph glyph-name="OE" unicode="&#x152;" horiz-adv-x="1853" 
d="M952 1386q-191 0 -336 -141q-128 -132 -199 -365.5t-71 -442.5q0 -208 95.5 -302t283.5 -94h55l310 1345h-138zM743 0q-316 0 -470 149t-154 413t134.5 485t324.5 300.5t383 79.5h958l-84 -419h-33q-23 111 -40 183.5t-45.5 115.5t-76 61t-127.5 18h-202l-142 -618h101
q53 0 87 8t69 39t130 195h31l-125 -541h-30q-16 168 -39 205t-54.5 45t-85.5 8h-94l-158 -684h224q179 0 257.5 67.5t130.5 145.5t120 193h34l-116 -449h-908z" />
    <glyph glyph-name="oe" unicode="&#x153;" horiz-adv-x="1386" 
d="M1133 920q-89 0 -178.5 -135t-120.5 -300q211 4 294.5 101.5t83.5 228.5q1 105 -79 105zM659 711q0 111 -31.5 161t-99.5 50t-123 -76t-94 -184.5t-58.5 -227.5t-19.5 -203q0 -211 127 -211t213 238.5t86 452.5zM1386 760q0 -141 -145 -225t-414 -80q-10 -78 -10 -125
q0 -141 47 -205t140 -64q139 0 260 179l24 -21q-78 -119 -165 -177t-195 -58q-184 0 -250 157q-121 -158 -313 -157q-139 0 -228.5 99t-89.5 305t135 389.5t339 183.5t272 -195q148 195 354 195q121 0 180 -57.5t59 -143.5z" />
    <glyph glyph-name="Racute" unicode="&#x154;" horiz-adv-x="1245" 
d="M760 1427q475 0 475 -292q0 -154 -114 -268t-349 -148l-2 -6q170 -23 229.5 -98.5t51.5 -229.5l-7 -156q-8 -126 12.5 -158t53.5 -41.5t88 -11.5l-6 -28q-50 -4 -130 -4t-138 14t-85.5 46t-30.5 82t5 124l18 172q17 148 -26.5 209t-190.5 61h-100l-127 -555
q-14 -57 16.5 -79.5t143.5 -32.5l-6 -27h-590l6 27q115 8 146.5 25.5t43 37t17.5 49.5l264 1145q12 63 -14.5 84t-143.5 33l6 26h484zM631 735q195 0 285 144.5t90 304.5q0 115 -64.5 158.5t-187.5 43.5h-80l-150 -651h107zM1088 1991q28 0 51.5 -23.5t23.5 -47.5
q0 -42 -37 -83.5t-172 -150.5l-139 -115h-37l140 235q31 53 51 89t38.5 57.5t35.5 30t45 8.5z" />
    <glyph glyph-name="racute" unicode="&#x155;" horiz-adv-x="747" 
d="M668 958q66 0 98.5 -36.5t32.5 -96.5t-34 -103.5t-84 -43.5t-79 26.5t-29 74.5t21 81q-45 -6 -105.5 -58t-113.5 -124l-146 -678h-204l86 334l108 450q8 35 8 57.5t-15 41t-99 26.5v25l329 16l-55 -209l4 -4q142 221 277 221zM746 1503q28 0 51.5 -23.5t23.5 -47.5
q0 -42 -39.5 -85.5t-169.5 -148.5l-139 -115h-37l139 236q31 53 51.5 89t39 57.5t35.5 29.5t45 8z" />
    <glyph glyph-name="Rcommaaccent" unicode="&#x156;" horiz-adv-x="1245" 
d="M760 1427q475 0 475 -292q0 -154 -114 -268t-349 -148l-2 -6q170 -23 229.5 -98.5t51.5 -229.5l-7 -156q-8 -126 12.5 -158t53.5 -41.5t88 -11.5l-6 -28q-50 -4 -130 -4t-138 14t-85.5 46t-30.5 82t5 124l18 172q17 148 -26.5 209t-190.5 61h-100l-127 -555
q-14 -57 16.5 -79.5t143.5 -32.5l-6 -27h-590l6 27q115 8 146.5 25.5t43 37t17.5 49.5l264 1145q12 63 -14.5 84t-143.5 33l6 26h484zM631 735q195 0 285 144.5t90 304.5q0 115 -64.5 158.5t-187.5 43.5h-80l-150 -651h107zM401 -246q0 51 34 87t86 36t84 -37t32 -96
q0 -198 -301 -326l-12 25q102 53 144 107.5t52 93.5l-6 4q-51 -6 -82 24.5t-31 81.5z" />
    <glyph glyph-name="rcommaaccent" unicode="&#x157;" horiz-adv-x="747" 
d="M668 958q66 0 98.5 -36.5t32.5 -96.5t-34 -103.5t-84 -43.5t-79 26.5t-29 74.5t21 81q-45 -6 -105.5 -58t-113.5 -124l-146 -678h-204l86 334l108 450q8 35 8 57.5t-15 41t-99 26.5v25l329 16l-55 -209l4 -4q142 221 277 221zM-35 -246q0 51 34 87t86 36t84 -37t32 -96
q0 -198 -301 -326l-13 25q102 53 144.5 107.5t52.5 93.5l-6 4q-51 -6 -82 24.5t-31 81.5z" />
    <glyph glyph-name="Rcaron" unicode="&#x158;" horiz-adv-x="1245" 
d="M760 1427q475 0 475 -292q0 -154 -114 -268t-349 -148l-2 -6q170 -23 229.5 -98.5t51.5 -229.5l-7 -156q-8 -126 12.5 -158t53.5 -41.5t88 -11.5l-6 -28q-50 -4 -130 -4t-138 14t-85.5 46t-30.5 82t5 124l18 172q17 148 -26.5 209t-190.5 61h-100l-127 -555
q-14 -57 16.5 -79.5t143.5 -32.5l-6 -27h-590l6 27q115 8 146.5 25.5t43 37t17.5 49.5l264 1145q12 63 -14.5 84t-143.5 33l6 26h484zM631 735q195 0 285 144.5t90 304.5q0 115 -64.5 158.5t-187.5 43.5h-80l-150 -651h107zM692 1962h35l164 -186l252 186h43l-324 -391h-33z
" />
    <glyph glyph-name="rcaron" unicode="&#x159;" horiz-adv-x="747" 
d="M668 958q66 0 98.5 -36.5t32.5 -96.5t-34 -103.5t-84 -43.5t-79 26.5t-29 74.5t21 81q-45 -6 -105.5 -58t-113.5 -124l-146 -678h-204l86 334l108 450q8 35 8 57.5t-15 41t-99 26.5v25l329 16l-55 -209l4 -4q142 221 277 221zM344 1475h35l164 -187l252 187h43l-324 -392
h-33z" />
    <glyph glyph-name="Sacute" unicode="&#x15a;" horiz-adv-x="1013" 
d="M756 304q0 118 -61.5 192.5t-190.5 150.5q-140 88 -202 161.5t-62 180.5q0 205 134 336t328 131q146 0 283 -80l100 92h33l-102 -448h-33q-59 237 -128 317t-172 80t-180 -78t-77 -191t55.5 -170t155.5 -123q100 -65 200.5 -145t100.5 -238q0 -215 -126 -358t-331 -143
t-354 103l-104 -111h-33l112 492h31q65 -245 142.5 -346t201 -101t201.5 89t78 207zM988 1991q28 0 51.5 -23.5t23.5 -47.5q0 -42 -37 -83.5t-172 -150.5l-139 -115h-37l139 235q31 53 51.5 89t39 57.5t35.5 30t45 8.5z" />
    <glyph glyph-name="sacute" unicode="&#x15b;" horiz-adv-x="733" 
d="M106 301q100 1 99 -113q0 -58 -58 -104q16 -27 60.5 -45.5t110.5 -18.5t117.5 47.5t52.5 130.5t-66.5 130.5t-103.5 71.5q-101 69 -147 123t-46 130q0 142 92.5 226t245.5 84q111 0 184.5 -52.5t73.5 -134.5q0 -47 -24.5 -86t-72.5 -39t-75 29t-27 83t56 101
q-10 25 -49.5 42.5t-98.5 17.5t-106.5 -44t-47.5 -116t52.5 -119t129.5 -99t129 -109t52 -131q0 -143 -88.5 -233.5t-270.5 -90.5t-231 72.5t-49 122.5t30 87t76 37zM724 1503q28 0 51.5 -23.5t23.5 -47.5q0 -41 -38.5 -83.5t-170.5 -150.5l-139 -115h-37l139 236
q31 53 51.5 89t39 57.5t35.5 29.5t45 8z" />
    <glyph glyph-name="Scedilla" unicode="&#x15e;" horiz-adv-x="1013" 
d="M702 1456q146 0 283 -80l100 92h33l-102 -448h-33q-59 237 -128 317t-172 80t-180 -78t-77 -191t55.5 -170t155.5 -123q100 -65 200.5 -145t100.5 -237q0 -208 -117.5 -349t-328.5 -153l-123 -114l2 -7q182 -13 182 -151q0 -78 -62.5 -129t-155.5 -51t-169 51l16 29
q62 -41 120 -41t89 36t31 88t-34 76.5t-73 24.5t-63 -6l-6 18l196 176q-183 8 -315 103l-104 -111h-33l112 492h31q65 -245 142.5 -346t201 -101t201.5 88.5t78 207.5q0 118 -61.5 192.5t-190.5 150.5q-140 88 -202 161.5t-62 180.5q0 205 134 336t328 131z" />
    <glyph glyph-name="scedilla" unicode="&#x15f;" horiz-adv-x="733" 
d="M106 301q100 1 99 -113q0 -58 -58 -104q16 -27 60.5 -45.5t110.5 -18.5t117.5 47.5t52.5 130.5t-66.5 130.5t-103.5 71.5q-101 69 -147 123t-46 130q0 142 92.5 226t245.5 84q111 0 184.5 -52.5t73.5 -134.5q0 -47 -24.5 -86t-72.5 -39t-75 29t-27 83t56 101
q-10 25 -49.5 42.5t-98.5 17.5t-106.5 -44t-47.5 -116t52.5 -119t129.5 -99t129 -109.5t52 -158.5t-72.5 -189t-212.5 -103l-137 -129l2 -7q182 -13 182 -151q0 -78 -62.5 -129t-155.5 -51t-169 51l17 29q61 -41 119 -41t89 36t31 88t-33.5 76.5t-72.5 24.5t-64 -6l-6 18
l209 187h-14q-190 0 -239.5 72.5t-49.5 122.5t30 87t76 37z" />
    <glyph glyph-name="Scaron" unicode="&#x160;" horiz-adv-x="1013" 
d="M756 304q0 118 -61.5 192.5t-190.5 150.5q-140 88 -202 161.5t-62 180.5q0 205 134 336t328 131q146 0 283 -80l100 92h33l-102 -448h-33q-59 237 -128 317t-172 80t-180 -78t-77 -191t55.5 -170t155.5 -123q100 -65 200.5 -145t100.5 -238q0 -215 -126 -358t-331 -143
t-354 103l-104 -111h-33l112 492h31q65 -245 142.5 -346t201 -101t201.5 89t78 207zM610 1962h35l164 -186l252 186h43l-324 -391h-32z" />
    <glyph glyph-name="scaron" unicode="&#x161;" horiz-adv-x="733" 
d="M106 301q100 1 99 -113q0 -58 -58 -104q16 -27 60.5 -45.5t110.5 -18.5t117.5 47.5t52.5 130.5t-66.5 130.5t-103.5 71.5q-101 69 -147 123t-46 130q0 142 92.5 226t245.5 84q111 0 184.5 -52.5t73.5 -134.5q0 -47 -24.5 -86t-72.5 -39t-75 29t-27 83t56 101
q-10 25 -49.5 42.5t-98.5 17.5t-106.5 -44t-47.5 -116t52.5 -119t129.5 -99t129 -109t52 -131q0 -143 -88.5 -233.5t-270.5 -90.5t-231 72.5t-49 122.5t30 87t76 37zM340 1475h35l164 -187l252 187h43l-324 -392h-33z" />
    <glyph glyph-name="Tcommaaccent" unicode="&#x162;" 
d="M639 1386q-111 0 -189.5 -82t-242.5 -341l-37 2l125 462h1061l-90 -462l-33 -2q-25 123 -42 203.5t-41 130t-59.5 69.5t-97.5 20h-67l-287 -1247q-12 -60 18.5 -79.5t165.5 -32.5l-4 -27h-635l6 27q128 8 162.5 25.5t47 37t18.5 49.5l287 1247h-66zM324 -246
q0 51 33.5 87t85.5 36t84 -37t32 -96q0 -199 -301 -326l-12 25q102 53 144 107.5t52 93.5l-6 4q-51 -6 -81.5 24.5t-30.5 81.5z" />
    <glyph glyph-name="tcommaaccent" unicode="&#x163;" horiz-adv-x="587" 
d="M256 -18q-176 0 -176 155q0 42 20 129l158 633h-152l13 41h149l76 301l203 31l-88 -332h209l-11 -41h-208l-150 -608q-20 -82 -20 -130t23.5 -66.5t77.5 -18.5t134 24v-20q-145 -98 -258 -98zM39 -246q0 51 33.5 87t85.5 36t84 -37t32 -96q0 -199 -301 -326l-12 25
q102 53 144 107.5t53 93.5l-6 4q-51 -6 -82 24.5t-31 81.5z" />
    <glyph glyph-name="Tcaron" unicode="&#x164;" 
d="M639 1386q-111 0 -189.5 -82t-242.5 -341l-37 2l125 462h1061l-90 -462l-33 -2q-25 123 -42 203.5t-41 130t-59.5 69.5t-97.5 20h-67l-287 -1247q-12 -60 18.5 -79.5t165.5 -32.5l-4 -27h-635l6 27q128 8 162.5 25.5t47 37t18.5 49.5l287 1247h-66zM694 1962h35l164 -186
l252 186h43l-324 -391h-33z" />
    <glyph glyph-name="tcaron" unicode="&#x165;" horiz-adv-x="587" 
d="M256 -18q-176 0 -176 155q0 42 20 129l158 633h-152l13 41h149l76 301l203 31l-88 -332h209l-11 -41h-208l-150 -608q-20 -82 -20 -130t23.5 -66.5t77.5 -18.5t134 24v-20q-145 -98 -258 -98zM813 1559q37 0 59.5 -20.5t22.5 -50.5t-16.5 -63.5t-49.5 -87.5l-153 -243
h-25l66 329q14 76 36.5 106t59.5 30z" />
    <glyph glyph-name="Umacron" unicode="&#x16a;" horiz-adv-x="1345" 
d="M743 1720h469l-18 -88h-471zM403 293q0 -129 70 -193.5t195 -64.5q172 0 266 103.5t143 314.5l156 675q32 139 0.5 196t-162.5 77l4 26h467l-4 -26q-124 -24 -173.5 -78.5t-80.5 -194.5l-164 -712q-50 -222 -170.5 -335.5t-336.5 -113.5t-322.5 91.5t-106.5 252.5
q0 70 19 146l186 827q12 63 -14.5 84t-143.5 33l7 26h577l-6 -26q-106 -7 -138 -26t-42.5 -38.5t-16.5 -48.5l-186 -825q-23 -108 -23 -170z" />
    <glyph glyph-name="umacron" unicode="&#x16b;" horiz-adv-x="1001" 
d="M428 1233h469l-18 -88h-471zM563 77q0 48 15 99l-5 4q-164 -197 -317 -196q-88 0 -135 48t-47 120t26 178l127 458q16 66 -3 89.5t-105 31.5v25l342 16l-164 -610q-27 -111 -27 -158q0 -90 97 -90q49 0 100 33t119 102l102 398l74 321h203l-191 -719q-22 -81 -22 -126
q0 -44 35.5 -54t113.5 -2v-20q-94 -41 -175 -41q-80 0 -121.5 22.5t-41.5 70.5z" />
    <glyph glyph-name="Ubreve" unicode="&#x16c;" horiz-adv-x="1345" 
d="M946 1581q-104 0 -155.5 80t-22.5 242h37q8 -185 166 -185q157 0 235 185h41q-78 -322 -301 -322zM403 293q0 -129 70 -193.5t195 -64.5q172 0 266 103.5t143 314.5l156 675q32 139 0.5 196t-162.5 77l4 26h467l-4 -26q-124 -24 -173.5 -78.5t-80.5 -194.5l-164 -712
q-50 -222 -170.5 -335.5t-336.5 -113.5t-322.5 91.5t-106.5 252.5q0 70 19 146l186 827q12 63 -14.5 84t-143.5 33l7 26h577l-6 -26q-106 -7 -138 -26t-42.5 -38.5t-16.5 -48.5l-186 -825q-23 -108 -23 -170z" />
    <glyph glyph-name="ubreve" unicode="&#x16d;" horiz-adv-x="1001" 
d="M637 1094q-104 0 -155.5 79.5t-22.5 241.5h37q8 -184 166 -184t235 184h41q-78 -321 -301 -321zM563 77q0 48 15 99l-5 4q-164 -197 -317 -196q-88 0 -135 48t-47 120t26 178l127 458q16 66 -3 89.5t-105 31.5v25l342 16l-164 -610q-27 -111 -27 -158q0 -90 97 -90
q49 0 100 33t119 102l102 398l74 321h203l-191 -719q-22 -81 -22 -126q0 -44 35.5 -54t113.5 -2v-20q-94 -41 -175 -41q-80 0 -121.5 22.5t-41.5 70.5z" />
    <glyph glyph-name="Uring" unicode="&#x16e;" horiz-adv-x="1345" 
d="M403 293q0 -129 70 -193.5t195 -64.5q172 0 266 103.5t143 314.5l156 675q32 139 0.5 196t-162.5 77l4 26h467l-4 -26q-124 -24 -173.5 -78.5t-80.5 -194.5l-164 -712q-50 -222 -170.5 -335.5t-336.5 -113.5t-322.5 91.5t-106.5 252.5q0 70 19 146l186 827
q12 63 -14.5 84t-143.5 33l7 26h577l-6 -26q-106 -7 -138 -26t-42.5 -38.5t-16.5 -48.5l-186 -825q-23 -108 -23 -170zM961.5 1616q66.5 0 106.5 86t40 182t-72 96q-59 0 -100 -88t-41 -182t66.5 -94zM956 1581q-66 0 -115.5 49.5t-49.5 113.5q0 123 73 197t162 74
q88 0 138 -49.5t50 -113.5t-18 -111t-52 -82t-78 -56.5t-110 -21.5z" />
    <glyph glyph-name="uring" unicode="&#x16f;" horiz-adv-x="1001" 
d="M563 77q0 48 15 99l-5 4q-164 -197 -317 -196q-88 0 -135 48t-47 120t26 178l127 458q16 66 -3 89.5t-105 31.5v25l342 16l-164 -610q-27 -111 -27 -158q0 -90 97 -90q49 0 100 33t119 102l102 398l74 321h203l-191 -719q-22 -81 -22 -126q0 -44 35.5 -54t113.5 -2v-20
q-94 -41 -175 -41q-80 0 -121.5 22.5t-41.5 70.5zM641.5 1128q66.5 0 106.5 86.5t40 182.5t-71 96q-59 0 -100.5 -89t-41.5 -183q0 -93 66.5 -93zM636 1094q-66 0 -115.5 49t-49.5 113q0 120 72.5 196t162.5 76q89 0 139 -49t50 -113t-18.5 -112t-52 -82.5t-78 -56
t-110.5 -21.5z" />
    <glyph glyph-name="Uhungarumlaut" unicode="&#x170;" horiz-adv-x="1345" 
d="M1061 1991q39 0 61.5 -22.5t22.5 -46.5q0 -40 -35.5 -80.5t-130.5 -117.5l-186 -153h-37l166 274q47 78 73.5 112t65.5 34zM1366 1991q39 0 61.5 -22.5t22.5 -46.5q0 -42 -36.5 -82.5t-129.5 -115.5l-186 -153h-37l166 274q47 78 73.5 112t65.5 34zM403 293
q0 -129 70 -193.5t195 -64.5q172 0 266 103.5t143 314.5l156 675q32 139 0.5 196t-162.5 77l4 26h467l-4 -26q-124 -24 -173.5 -78.5t-80.5 -194.5l-164 -712q-50 -222 -170.5 -335.5t-336.5 -113.5t-322.5 91.5t-106.5 252.5q0 70 19 146l186 827q12 63 -14.5 84t-143.5 33
l7 26h577l-6 -26q-106 -7 -138 -26t-42.5 -38.5t-16.5 -48.5l-186 -825q-23 -108 -23 -170z" />
    <glyph glyph-name="uhungarumlaut" unicode="&#x171;" horiz-adv-x="1001" 
d="M731 1503q39 0 61.5 -22.5t22.5 -46.5q0 -42 -34.5 -80.5t-131.5 -116.5l-186 -154h-37l166 275q47 78 73.5 111.5t65.5 33.5zM1036 1503q39 0 61.5 -22.5t22.5 -46.5q0 -42 -37 -83t-129 -114l-186 -154h-37l166 275q47 78 73.5 111.5t65.5 33.5zM563 77q0 48 15 99
l-5 4q-164 -197 -317 -196q-88 0 -135 48t-47 120t26 178l127 458q16 66 -3 89.5t-105 31.5v25l342 16l-164 -610q-27 -111 -27 -158q0 -90 97 -90q49 0 100 33t119 102l102 398l74 321h203l-191 -719q-22 -81 -22 -126q0 -44 35.5 -54t113.5 -2v-20q-94 -41 -175 -41
q-80 0 -121.5 22.5t-41.5 70.5z" />
    <glyph glyph-name="Uogonek" unicode="&#x172;" horiz-adv-x="1347" 
d="M332 -308q0 73 65.5 138.5t200.5 136.5h-2q-199 0 -305.5 91.5t-106.5 252.5q0 70 19 146l186 827q12 63 -14.5 84t-143.5 33l7 26h577l-6 -26q-106 -7 -138 -26t-42.5 -38.5t-16.5 -48.5l-186 -825q-23 -108 -23 -170q0 -129 70 -193.5t195 -64.5q172 0 266 103.5
t143 314.5l156 675q32 139 0.5 196t-162.5 77l4 26h467l-4 -26q-124 -24 -173.5 -78.5t-80.5 -194.5l-164 -712q-65 -307 -207.5 -371.5t-246.5 -73.5l-7 -6q-111 -78 -147.5 -140.5t-36.5 -113.5t25.5 -78.5t66.5 -27.5t103 26l8 -20q-107 -70 -184 -70t-119.5 39
t-42.5 112z" />
    <glyph glyph-name="uogonek" unicode="&#x173;" horiz-adv-x="995" 
d="M617 -459q-77 0 -119.5 39t-42.5 112t70.5 140.5t213.5 136.5l41 21q-32 -8 -71 -8q-146 0 -146 108q0 39 15 86l-5 4q-162 -199 -317 -198q-86 0 -134 49t-48 123t26 176l127 458q16 66 -2 89.5t-104 31.5v25l340 16l-162 -610q-29 -114 -29 -158q0 -88 97 -88
q51 0 102 32t117 103l102 396l76 321h201l-191 -719q-22 -81 -22 -126q0 -44 35.5 -53t113.5 -3v-20l-82 -45q-117 -63 -169 -134t-52 -129q0 -57 25.5 -84.5t65.5 -27.5t102 26l10 -20q-107 -70 -184 -70z" />
    <glyph glyph-name="Wcircumflex" unicode="&#x174;" horiz-adv-x="1796" 
d="M616 270h7l387 729l-11 205q-4 104 -28.5 134t-55 42.5t-79.5 20.5l4 26h555l-6 -26q-117 -4 -145.5 -40.5t-24.5 -127.5l45 -957h6l389 805q81 165 66.5 232.5t-140.5 87.5l6 26h437l-7 -26q-136 -22 -202 -126t-103 -179l-542 -1121h-97l-63 938l-492 -938h-98
l-86 1229q-8 108 -38.5 144.5t-131.5 52.5l6 26h541l-4 -26q-104 -4 -130 -38.5t-22 -129.5zM1208 1962h33l137 -391h-35l-163 186l-252 -186h-43z" />
    <glyph glyph-name="wcircumflex" unicode="&#x175;" horiz-adv-x="1269" 
d="M1053 840q0 55 30.5 90t82 35t84 -41.5t31.5 -85.5q-2 -84 -36 -166.5t-147 -253.5l-291 -447l-135 17l-6 321l-15 172q-2 -4 -104 -165t-199 -343l-137 15l-6 321l-41 486q-4 61 -26.5 80.5t-96.5 19.5v25l301 34l45 -632v-193h10l101 178q103 186 143 297l-27 328
l191 22l43 -632l2 -195h10l103 166q143 227 186 401q-96 49 -96 146zM815 1475h33l137 -392h-35l-164 187l-251 -187h-43z" />
    <glyph glyph-name="Ycircumflex" unicode="&#x176;" horiz-adv-x="1191" 
d="M948 1962h33l137 -391h-35l-163 186l-252 -186h-43zM569 1318.5q0 -24.5 9 -58.5l143 -576l328 463q89 126 77.5 178.5t-135.5 75.5l6 26h435l-5 -26q-97 -20 -145.5 -57t-86.5 -82t-91 -117l-365 -512l-112 -494q-12 -61 18 -80.5t154 -31.5l-6 -27h-609l6 27
q119 8 152 25.5t45 37t19 49.5l112 492l-162 616q-25 88 -55 113t-125 41l4 26h586l-6 -26q-134 -7 -162.5 -32.5t-28.5 -50z" />
    <glyph glyph-name="ycircumflex" unicode="&#x177;" horiz-adv-x="833" 
d="M586 1475h32l138 -392h-35l-164 187l-252 -187h-43zM712 965q52 0 82.5 -42.5t30.5 -92.5q0 -90 -42 -187.5t-224 -431.5q-295 -525 -403 -567.5t-174 -42.5t-107 42t-41 99t34 94t82 37t77.5 -31.5t29.5 -88.5t-28 -89q53 2 122.5 47t141.5 168l-133 916q-8 59 -31 79.5
t-98 20.5v25l301 34l59 -444l47 -412h6l97 176q148 252 166 418q-109 49 -109 148q2 55 32 90t82 35z" />
    <glyph glyph-name="Ydieresis" unicode="&#x178;" horiz-adv-x="1191" 
d="M735 1853q101 -1 101 -111q0 -58 -39.5 -109.5t-86.5 -51.5q-102 0 -102 113q0 60 40 109.5t87 49.5zM1086 1853q100 -1 100 -111q0 -58 -39 -109.5t-86 -51.5q-103 0 -103 112q0 59 40 109.5t88 50.5zM569 1318.5q0 -24.5 9 -58.5l143 -576l328 463q89 126 77.5 178.5
t-135.5 75.5l6 26h435l-5 -26q-97 -20 -145.5 -57t-86.5 -82t-91 -117l-365 -512l-112 -494q-12 -61 18 -80.5t154 -31.5l-6 -27h-609l6 27q119 8 152 25.5t45 37t19 49.5l112 492l-162 616q-25 88 -55 113t-125 41l4 26h586l-6 -26q-134 -7 -162.5 -32.5t-28.5 -50z" />
    <glyph glyph-name="Zacute" unicode="&#x179;" horiz-adv-x="1155" 
d="M748 1386q-113 0 -210 -80t-272 -329l-35 2l123 448h953l2 -30l-1088 -1356h326q122 0 217 84.5t276 343.5l33 -4l-127 -465h-995v31l1087 1355h-290zM1060 1991q28 0 51.5 -23.5t23.5 -47.5q0 -41 -36.5 -81.5t-172.5 -152.5l-140 -115h-36l139 235q31 53 51.5 89
t38.5 57.5t35.5 30t45.5 8.5z" />
    <glyph glyph-name="zacute" unicode="&#x17a;" horiz-adv-x="794" 
d="M458 -16q-62 0 -136 12t-164 12t-166 -37l-29 49l699 764l-3 9l-299 -5q-95 -4 -131 -30.5t-88 -132.5l-24 4l76 315h612l14 -49l-676 -748l2 -6q58 21 134 21l231 -15q70 0 105.5 33t62.5 133l22 -4q-22 -204 -63 -254.5t-79 -60.5t-100 -10zM740 1503q28 0 51.5 -23.5
t23.5 -47.5q0 -42 -39.5 -85.5t-169.5 -148.5l-139 -115h-37l139 236q31 53 51.5 89t39 57.5t35.5 29.5t45 8z" />
    <glyph glyph-name="Zdotaccent" unicode="&#x17b;" horiz-adv-x="1155" 
d="M839 1581q-106 0 -106 116q0 61 41 112t90 51t78 -28t29 -88t-41.5 -111.5t-90.5 -51.5zM748 1386q-113 0 -210 -80t-272 -329l-35 2l123 448h953l2 -30l-1088 -1356h326q122 0 217 84.5t276 343.5l33 -4l-127 -465h-995v31l1087 1355h-290z" />
    <glyph glyph-name="zdotaccent" unicode="&#x17c;" horiz-adv-x="794" 
d="M551 1372q106 0 106 -114q0 -60 -41 -112t-90 -52q-106 0 -106 116q0 60 41 111t90 51zM458 -16q-62 0 -136 12t-164 12t-166 -37l-29 49l699 764l-3 9l-299 -5q-95 -4 -131 -30.5t-88 -132.5l-24 4l76 315h612l14 -49l-676 -748l2 -6q58 21 134 21l231 -15
q70 0 105.5 33t62.5 133l22 -4q-22 -204 -63 -254.5t-79 -60.5t-100 -10z" />
    <glyph glyph-name="Zcaron" unicode="&#x17d;" horiz-adv-x="1155" 
d="M748 1386q-113 0 -210 -80t-272 -329l-35 2l123 448h953l2 -30l-1088 -1356h326q122 0 217 84.5t276 343.5l33 -4l-127 -465h-995v31l1087 1355h-290zM649 1962h35l164 -186l252 186h43l-324 -391h-33z" />
    <glyph glyph-name="zcaron" unicode="&#x17e;" horiz-adv-x="794" 
d="M458 -16q-62 0 -136 12t-164 12t-166 -37l-29 49l699 764l-3 9l-299 -5q-95 -4 -131 -30.5t-88 -132.5l-24 4l76 315h612l14 -49l-676 -748l2 -6q58 21 134 21l231 -15q70 0 105.5 33t62.5 133l22 -4q-22 -204 -63 -254.5t-79 -60.5t-100 -10zM342 1475h35l164 -187
l252 187h43l-324 -392h-33z" />
    <glyph glyph-name="Aringacute" unicode="&#x1fa;" 
d="M1206 2329q28 0 51 -24t23 -48q0 -41 -35.5 -80.5t-173.5 -153.5l-139 -114h-37l139 235q31 53 51.5 89t39 57.5t36 30t45.5 8.5zM1004 1739q0 104 -68 104q-62 0 -102.5 -93.5t-40.5 -196.5t66 -103t105.5 92.5t39.5 196.5zM725 1194h-8l-332 -614h379zM686 1606
q0 107 74 187.5t164 80.5t138 -49t48 -138t-54.5 -163t-140.5 -94l101 -1201q8 -114 31.5 -143t55.5 -40t83 -19l-6 -27h-576l6 27q126 8 158.5 45t24.5 133l-25 334h-406l-116 -215q-86 -156 -73.5 -214.5t130.5 -82.5l-6 -27h-422l6 27q101 20 167.5 88.5t148.5 220.5
l600 1096q-111 34 -111 174z" />
    <glyph glyph-name="aringacute" unicode="&#x1fb;" horiz-adv-x="919" 
d="M976 2028q28 0 51.5 -24t23.5 -48q0 -42 -35 -80t-174 -154l-140 -114h-36l139 235q31 53 51.5 89t38.5 57.5t35.5 30t45.5 8.5zM631.5 1128q66.5 0 106.5 86.5t40 182.5t-71 96q-59 0 -100.5 -89t-41.5 -183q0 -93 66.5 -93zM626 1094q-66 0 -115.5 49t-49.5 113
q0 120 72.5 196t162.5 76q89 0 139 -49t50 -113t-18.5 -112t-52.5 -82.5t-78 -56t-110 -21.5zM692 760q-32 145 -138 145q-58 0 -114.5 -68.5t-98.5 -167t-66.5 -205t-24.5 -181.5q0 -211 123 -211q51 0 99 50t83 116zM543 90q0 28 10 76l-4 4q-63 -98 -125 -142t-150 -44
t-156.5 72t-68.5 210t38 257.5t103.5 217t152.5 159t173 61.5t129 -37t70 -97l33 111l196 23l-98 -332l-98 -383q-25 -106 -25 -146t36 -51.5t113 -3.5v-20q-106 -41 -179 -41q-74 0 -112 21.5t-38 84.5z" />
    <glyph glyph-name="AEacute" unicode="&#x1fc;" horiz-adv-x="1849" 
d="M1077 1366h-24l-551 -745h403zM934 1321q0 60 -164 80l4 26h1137l-84 -419h-33q-23 111 -40 183.5t-46 115.5t-76 61t-127 18h-202l-142 -618h101q53 0 86.5 8t63.5 34t60.5 74t75.5 126h31l-125 -541h-31q-16 170 -38.5 206t-54.5 44t-85 8h-94l-158 -684h224
q180 0 257.5 67.5t130 145.5t119.5 193h35l-117 -449h-1060l6 27q115 8 146.5 25.5t42.5 37t18 49.5l100 439h-422l-211 -281q-92 -136 -96 -186q-2 -61 119 -84l-4 -27h-428l6 27q103 24 157 65t96 90t99 127l670 901q53 71 53 111zM1537 1991q28 0 51.5 -23.5t23.5 -47.5
q0 -41 -36.5 -81.5t-172.5 -152.5l-139 -115h-37l139 235q31 53 51.5 89t39 57.5t35.5 30t45 8.5z" />
    <glyph glyph-name="aeacute" unicode="&#x1fd;" horiz-adv-x="1312" 
d="M1076 1503q28 0 51.5 -23.5t23.5 -47.5q0 -42 -39.5 -85.5t-169.5 -148.5l-139 -115h-37l139 236q31 53 51.5 89t39 57.5t35.5 29.5t45 8zM1061 920q-88 0 -178 -136t-121 -299q213 4 297 102t84 228q0 105 -82 105zM580 471q-377 -7 -377 -248q0 -72 33 -108.5t86 -36.5
q86 0 159.5 103.5t98.5 289.5zM1317 760q0 -141 -146.5 -225t-414.5 -80q-11 -85 -11 -125q0 -269 189 -269q137 0 258 179l27 -21q-78 -119 -165 -177t-196 -58q-184 0 -235.5 105.5t-55.5 180.5h-4q-51 -135 -137 -211.5t-187 -76.5t-160 55t-59 153q0 147 146.5 230.5
t419.5 81.5q12 70 12 186q0 115 -43 174.5t-105 59.5q-106 0 -151 -70q57 -29 57 -93t-29.5 -97t-78.5 -33t-77 33.5t-28 79.5q0 93 89 156t221 63q219 0 270 -181h4q155 181 350 181q119 0 179.5 -57.5t60.5 -143.5z" />
    <glyph glyph-name="Oslashacute" unicode="&#x1fe;" horiz-adv-x="1320" 
d="M1124 1991q28 0 51 -23.5t23 -47.5q0 -42 -37 -83.5t-172 -150.5l-139 -115h-37l139 235q31 53 51.5 89t39 57.5t36 30t45.5 8.5zM854 1421q-145 0 -263.5 -167t-187.5 -412t-69 -463v-31q0 -31 2 -49l751 889q-39 233 -233 233zM1100 1049q0 41 -4 81l-752 -890
q39 -234 236 -234q145 0 263 167t187.5 412t69.5 464zM113 537q0 166 54 330.5t150.5 296.5t232.5 214t298 82q204 0 340 -155l162 192h63l-194 -233q102 -152 102 -373q0 -166 -54.5 -331t-151.5 -297t-232 -214t-297 -82q-212 0 -342 156l-162 -193h-64l195 232
q-100 153 -100 375z" />
    <glyph glyph-name="oslashacute" unicode="&#x1ff;" horiz-adv-x="892" 
d="M800 1503q28 0 51 -23.5t23 -47.5q0 -42 -38 -84t-170 -150l-140 -115h-37l140 236q31 53 51 89t38.5 57.5t36 29.5t45.5 8zM532 922q-126 0 -212.5 -239t-86.5 -445l426 524q-14 160 -127 160zM362 20q127 0 193 182.5t86.5 300.5t20.5 202l-426 -521q11 -164 126 -164z
M47 367q0 227 134.5 410.5t358.5 183.5q122 0 210 -93l98 123h51l-125 -153q72 -101 72 -260q0 -104 -33 -211t-134.5 -245t-313.5 -138q-137 0 -222 90l-98 -121h-51l125 153q-72 97 -72 261z" />
    <glyph glyph-name="Scommaaccent" unicode="&#x218;" horiz-adv-x="1013" 
d="M756 304q0 118 -61.5 192.5t-190.5 150.5q-140 88 -202 161.5t-62 180.5q0 205 134 336t328 131q146 0 283 -80l100 92h33l-102 -448h-33q-59 237 -128 317t-172 80t-180 -78t-77 -191t55.5 -170t155.5 -123q100 -65 200.5 -145t100.5 -238q0 -215 -126 -358t-331 -143
t-354 103l-104 -111h-33l112 492h31q65 -245 142.5 -346t201 -101t201.5 89t78 207zM266 -246q0 51 34 87t86 36t84 -37t32 -96q0 -198 -301 -326l-13 25q102 53 144.5 107.5t52.5 93.5l-6 4q-51 -6 -82 24.5t-31 81.5z" />
    <glyph glyph-name="scommaaccent" unicode="&#x219;" horiz-adv-x="733" 
d="M106 301q100 1 99 -113q0 -58 -58 -104q16 -27 60.5 -45.5t110.5 -18.5t117.5 47.5t52.5 130.5t-66.5 130.5t-103.5 71.5q-101 69 -147 123t-46 130q0 142 92.5 226t245.5 84q111 0 184.5 -52.5t73.5 -134.5q0 -47 -24.5 -86t-72.5 -39t-75 29t-27 83t56 101
q-10 25 -49.5 42.5t-98.5 17.5t-106.5 -44t-47.5 -116t52.5 -119t129.5 -99t129 -109t52 -131q0 -143 -88.5 -233.5t-270.5 -90.5t-231 72.5t-49 122.5t30 87t76 37zM111 -246q0 51 33.5 87t85.5 36t84 -37t32 -96q0 -199 -301 -326l-12 25q102 53 144 107.5t52 93.5l-6 4
q-51 -6 -81.5 24.5t-30.5 81.5z" />
    <glyph glyph-name="schwa" unicode="&#x259;" horiz-adv-x="811" 
d="M254 23q86 0 174 130t125 304q-214 -4 -296.5 -102.5t-82.5 -227.5q0 -104 80 -104zM383 881q-141 0 -260 -179l-25 21q78 119 165 177t196 58q207 0 258 -125.5t51 -231.5t-42 -220.5t-113.5 -202.5t-168 -142t-210.5 -54t-175 57t-61 143q0 139 145.5 223t413.5 80
q12 66 12 127q0 269 -186 269z" />
    <glyph glyph-name="circumflex" unicode="&#x2c6;" horiz-adv-x="567" 
d="M516 1475h33l137 -392h-35l-164 187l-251 -187h-43z" />
    <glyph glyph-name="caron" unicode="&#x2c7;" horiz-adv-x="567" 
d="M268 1475h35l164 -187l252 187h43l-324 -392h-32z" />
    <glyph glyph-name="breve" unicode="&#x2d8;" horiz-adv-x="604" 
d="M449 1094q-104 0 -155.5 79.5t-23.5 241.5h37q9 -184 167 -184t235 184h41q-78 -321 -301 -321z" />
    <glyph glyph-name="dotaccent" unicode="&#x2d9;" horiz-adv-x="391" 
d="M368 1094q-106 0 -106 116q0 60 41 111t90 51t78 -27t29 -87t-41.5 -112t-90.5 -52z" />
    <glyph glyph-name="ring" unicode="&#x2da;" horiz-adv-x="489" 
d="M405 1128q67 0 106.5 88t39.5 183q0 94 -72 94q-59 0 -100 -88t-41 -183q0 -94 67 -94zM398 1094q-66 0 -115.5 49t-49.5 113q0 120 73.5 196t161.5 76q89 0 139 -49t50 -113t-18 -112t-52 -82.5t-78.5 -56t-110.5 -21.5z" />
    <glyph glyph-name="ogonek" unicode="&#x2db;" horiz-adv-x="479" 
d="M-123 -308q0 73 65.5 138.5t200.5 136.5l117 62h35l-90 -64q-185 -130 -185 -217.5t26 -115t66 -27.5t103 26l8 -20q-107 -70 -183 -70q-77 0 -120 39t-43 112z" />
    <glyph glyph-name="tilde" unicode="&#x2dc;" horiz-adv-x="606" 
d="M373 1343q41 0 104.5 -36.5t94 -54t60.5 -17.5t52.5 25.5t50.5 93.5h35q-35 -141 -79 -200.5t-113 -59.5q-41 0 -103.5 36.5t-93.5 54t-61 17.5t-52 -25.5t-51 -93.5h-35q35 141 79 200.5t112 59.5z" />
    <glyph glyph-name="hungarumlaut" unicode="&#x2dd;" horiz-adv-x="712" 
d="M502 1503q39 0 61.5 -22.5t22.5 -46.5q0 -40 -34 -79t-132 -118l-187 -154h-36l165 275q47 78 74 111.5t66 33.5zM807 1503q39 0 61.5 -22.5t22.5 -46.5q0 -42 -34.5 -80.5t-131.5 -116.5l-186 -154h-37l166 275q47 78 73.5 111.5t65.5 33.5z" />
    <glyph glyph-name="commaaccent" unicode="&#x326;" horiz-adv-x="462" 
d="M-74 -246q0 51 34 87t86 36t84 -37t32 -96q0 -198 -301 -326l-13 25q102 53 144.5 107.5t52.5 93.5l-6 4q-51 -6 -82 24.5t-31 81.5z" />
    <glyph glyph-name="Wgrave" unicode="&#x1e80;" horiz-adv-x="1796" 
d="M858 1917q0 25 26.5 49.5t64.5 24.5t59.5 -37t48.5 -103l108 -280h-32l-101 104q-148 153 -161 185t-13 57zM616 270h7l387 729l-11 205q-4 104 -28.5 134t-55 42.5t-79.5 20.5l4 26h555l-6 -26q-117 -4 -145.5 -40.5t-24.5 -127.5l45 -957h6l389 805q81 165 66.5 232.5
t-140.5 87.5l6 26h437l-7 -26q-136 -22 -202 -126t-103 -179l-542 -1121h-97l-63 938l-492 -938h-98l-86 1229q-8 108 -38.5 144.5t-131.5 52.5l6 26h541l-4 -26q-104 -4 -130 -38.5t-22 -129.5z" />
    <glyph glyph-name="wgrave" unicode="&#x1e81;" horiz-adv-x="1269" 
d="M489 1430q0 24 27 48.5t65 24.5t59.5 -36.5t47.5 -102.5l109 -281h-33l-100 105q-148 153 -161.5 185.5t-13.5 56.5zM1053 840q0 55 30.5 90t82 35t84 -41.5t31.5 -85.5q-2 -84 -36 -166.5t-147 -253.5l-291 -447l-135 17l-6 321l-15 172q-2 -4 -104 -165t-199 -343
l-137 15l-6 321l-41 486q-4 61 -26.5 80.5t-96.5 19.5v25l301 34l45 -632v-193h10l101 178q103 186 143 297l-27 328l191 22l43 -632l2 -195h10l103 166q143 227 186 401q-96 49 -96 146z" />
    <glyph glyph-name="Wacute" unicode="&#x1e82;" horiz-adv-x="1796" 
d="M616 270h7l387 729l-11 205q-4 104 -28.5 134t-55 42.5t-79.5 20.5l4 26h555l-6 -26q-117 -4 -145.5 -40.5t-24.5 -127.5l45 -957h6l389 805q81 165 66.5 232.5t-140.5 87.5l6 26h437l-7 -26q-136 -22 -202 -126t-103 -179l-542 -1121h-97l-63 938l-492 -938h-98
l-86 1229q-8 108 -38.5 144.5t-131.5 52.5l6 26h541l-4 -26q-104 -4 -130 -38.5t-22 -129.5zM1386 1991q28 0 51 -23.5t23 -47.5q0 -42 -37 -83.5t-172 -150.5l-139 -115h-37l139 235q31 53 51.5 89t39 57.5t36 30t45.5 8.5z" />
    <glyph glyph-name="wacute" unicode="&#x1e83;" horiz-adv-x="1269" 
d="M1053 840q0 55 30.5 90t82 35t84 -41.5t31.5 -85.5q-2 -84 -36 -166.5t-147 -253.5l-291 -447l-135 17l-6 321l-15 172q-2 -4 -104 -165t-199 -343l-137 15l-6 321l-41 486q-4 61 -26.5 80.5t-96.5 19.5v25l301 34l45 -632v-193h10l101 178q103 186 143 297l-27 328
l191 22l43 -632l2 -195h10l103 166q143 227 186 401q-96 49 -96 146zM970 1503q28 0 51 -23.5t23 -47.5q0 -42 -38 -84t-170 -150l-140 -115h-37l140 236q31 53 51 89t38.5 57.5t36 29.5t45.5 8z" />
    <glyph glyph-name="Wdieresis" unicode="&#x1e84;" horiz-adv-x="1796" 
d="M616 270h7l387 729l-11 205q-4 104 -28.5 134t-55 42.5t-79.5 20.5l4 26h555l-6 -26q-117 -4 -145.5 -40.5t-24.5 -127.5l45 -957h6l389 805q81 165 66.5 232.5t-140.5 87.5l6 26h437l-7 -26q-136 -22 -202 -126t-103 -179l-542 -1121h-97l-63 938l-492 -938h-98
l-86 1229q-8 108 -38.5 144.5t-131.5 52.5l6 26h541l-4 -26q-104 -4 -130 -38.5t-22 -129.5zM1006 1853q100 -1 100 -111q0 -58 -39 -109.5t-86 -51.5q-102 0 -102 113q0 60 39.5 109.5t87.5 49.5zM1356 1853q100 -1 100 -111q0 -58 -39 -109.5t-86 -51.5q-102 0 -102 112
q0 59 40 109.5t87 50.5z" />
    <glyph glyph-name="wdieresis" unicode="&#x1e85;" horiz-adv-x="1269" 
d="M1053 840q0 55 30.5 90t82 35t84 -41.5t31.5 -85.5q-2 -84 -36 -166.5t-147 -253.5l-291 -447l-135 17l-6 321l-15 172q-2 -4 -104 -165t-199 -343l-137 15l-6 321l-41 486q-4 61 -26.5 80.5t-96.5 19.5v25l301 34l45 -632v-193h10l101 178q103 186 143 297l-27 328
l191 22l43 -632l2 -195h10l103 166q143 227 186 401q-96 49 -96 146zM618 1366q100 0 101 -110q0 -58 -39 -110t-86 -52q-102 0 -102 112q0 60 39 110t87 50zM969 1366q100 0 100 -110q0 -58 -39 -110t-86 -52q-102 0 -102 112q0 58 40 109t87 51z" />
    <glyph glyph-name="Ygrave" unicode="&#x1ef2;" horiz-adv-x="1191" 
d="M588 1917q0 25 26.5 49.5t64.5 24.5t59.5 -37t47.5 -103l109 -280h-33l-100 104q-148 153 -161 185t-13 57zM569 1318.5q0 -24.5 9 -58.5l143 -576l328 463q89 126 77.5 178.5t-135.5 75.5l6 26h435l-5 -26q-97 -20 -145.5 -57t-86.5 -82t-91 -117l-365 -512l-112 -494
q-12 -61 18 -80.5t154 -31.5l-6 -27h-609l6 27q119 8 152 25.5t45 37t19 49.5l112 492l-162 616q-25 88 -55 113t-125 41l4 26h586l-6 -26q-134 -7 -162.5 -32.5t-28.5 -50z" />
    <glyph glyph-name="ygrave" unicode="&#x1ef3;" horiz-adv-x="833" 
d="M225 1430q0 24 26.5 48.5t64.5 24.5t59.5 -36.5t48.5 -102.5l108 -281h-32l-101 105q-146 151 -160 184.5t-14 57.5zM712 965q52 0 82.5 -42.5t30.5 -92.5q0 -90 -42 -187.5t-224 -431.5q-295 -525 -403 -567.5t-174 -42.5t-107 42t-41 99t34 94t82 37t77.5 -31.5
t29.5 -88.5t-28 -89q53 2 122.5 47t141.5 168l-133 916q-8 59 -31 79.5t-98 20.5v25l301 34l59 -444l47 -412h6l97 176q148 252 166 418q-109 49 -109 148q2 55 32 90t82 35z" />
    <glyph glyph-name="enspace" unicode="&#x2002;" horiz-adv-x="1024" 
 />
    <glyph glyph-name="emspace" unicode="&#x2003;" horiz-adv-x="2048" 
 />
    <glyph glyph-name="threeperemspace" unicode="&#x2004;" horiz-adv-x="681" 
 />
    <glyph glyph-name="fourperemspace" unicode="&#x2005;" horiz-adv-x="512" 
 />
    <glyph glyph-name="thinspace" unicode="&#x2009;" horiz-adv-x="272" 
 />
    <glyph glyph-name="hairspace" unicode="&#x200a;" horiz-adv-x="153" 
 />
    <glyph glyph-name="endash" unicode="&#x2013;" horiz-adv-x="952" 
d="M117 559h760l-11 -45h-762z" />
    <glyph glyph-name="emdash" unicode="&#x2014;" horiz-adv-x="1392" 
d="M117 559h1200l-10 -45h-1203z" />
    <glyph glyph-name="quoteleft" unicode="&#x2018;" horiz-adv-x="430" 
d="M479 1060q0 -56 -39 -96t-95 -40t-92 42t-36 107q0 113 93 212t286 171l10 -26q-125 -63 -183 -128t-75 -116l6 -6q57 6 91 -29t34 -91z" />
    <glyph glyph-name="quoteright" unicode="&#x2019;" horiz-adv-x="430" 
d="M276 1318q0 56 38 96t94 40t92.5 -42t36.5 -105q0 -115 -93.5 -214.5t-285.5 -170.5l-11 28q125 61 183.5 126t75.5 118l-7 4q-55 -6 -89 29t-34 91z" />
    <glyph glyph-name="quotesinglbase" unicode="&#x201a;" horiz-adv-x="430" 
d="M6 103q0 56 39 96.5t95 40.5t92 -42t36 -108q0 -113 -93 -212t-286 -171l-12 27q127 63 185.5 127.5t74.5 115.5l-6 7q-57 -6 -91 28.5t-34 90.5z" />
    <glyph glyph-name="quotedblleft" unicode="&#x201c;" horiz-adv-x="784" 
d="M479 1060q0 -56 -39 -96t-95 -40t-92 42t-36 107q0 113 93 212t286 171l10 -26q-125 -63 -183 -128t-75 -116l6 -6q57 6 91 -29t34 -91zM831 1060q0 -56 -37.5 -96t-95.5 -40t-93.5 42t-35.5 107q0 113 93.5 212t285.5 171l13 -26q-127 -63 -184.5 -128t-76.5 -116l9 -6
q55 6 88.5 -29t33.5 -91z" />
    <glyph glyph-name="quotedblright" unicode="&#x201d;" horiz-adv-x="784" 
d="M629 1318q0 56 38 96t95 40t93 -42t36 -105q0 -115 -93 -214.5t-286 -170.5l-12 28q127 61 185 126t75 118l-8 4q-55 -6 -89 29t-34 91zM276 1318q0 56 38 96t94 40t92.5 -42t36.5 -105q0 -115 -93.5 -214.5t-285.5 -170.5l-11 28q125 61 183.5 126t75.5 118l-7 4
q-55 -6 -89 29t-34 91z" />
    <glyph glyph-name="quotedblbase" unicode="&#x201e;" horiz-adv-x="784" 
d="M6 103q0 56 39 96.5t95 40.5t92 -42t36 -108q0 -113 -93 -212t-286 -171l-12 27q127 63 185.5 127.5t74.5 115.5l-6 7q-57 -6 -91 28.5t-34 90.5zM360 103q0 56 38 96.5t94 40.5t92.5 -42t36.5 -108q0 -113 -93.5 -212t-285.5 -171l-11 27q125 63 183.5 127.5t74.5 115.5
l-6 7q-55 -6 -89 28.5t-34 90.5z" />
    <glyph glyph-name="dagger" unicode="&#x2020;" horiz-adv-x="1003" 
d="M907 1044q66 0 101.5 -26.5t35.5 -67.5t-32.5 -65.5t-69.5 -24.5q-49 0 -118 43t-122 43q-54 0 -82 -39t-28 -82t12 -71l39 -121q-107 -231 -189.5 -476t-119.5 -380l-29 6q67 353 86 589t19 290l100 112q47 46 47 94q0 92 -80 93q-40 0 -118 -33t-115 -33t-63.5 19.5
t-26.5 61.5t44 70.5t99 28.5q138 0 276 -127l9 6l14 281q9 180 39 231q27 63 84 64q35 0 59.5 -23.5t24.5 -82.5t-101 -269l-92 -205l4 -6q166 100 293 100z" />
    <glyph glyph-name="daggerdbl" unicode="&#x2021;" horiz-adv-x="1036" 
d="M835 403q91 0 91 -80q0 -42 -44 -71t-100 -29q-138 0 -276 125l-8 -6l-13 -268q-8 -173 -36 -230q-27 -63 -84 -63q-35 0 -60.5 23.5t-25.5 78.5t100 271l90 192l-4 6q-163 -98 -293 -98q-66 0 -101.5 25.5t-35.5 67.5t32.5 65.5t69.5 23.5t64.5 -13t78 -42t101.5 -29
t79.5 39t28.5 73t-12 85l-41 127l101 108q47 47 47 111q0 80 -80 80q-42 0 -120 -34t-110 -34q-92 0 -92 78q0 47 43 76t101 29q132 0 276 -127l6 6l15 268q8 174 36 229q27 63 84 64q35 0 60.5 -23.5t25.5 -79.5t-100 -270l-92 -192l6 -7q164 99 291 99q66 0 101.5 -25.5
t35.5 -67.5t-31.5 -66t-68.5 -24t-64.5 13.5t-77 42t-102.5 28.5t-81 -38.5t-28 -84.5t11 -71l41 -127l-101 -111q-47 -47 -47 -110q0 -80 80 -80q46 0 120.5 33.5t112.5 33.5z" />
    <glyph glyph-name="bullet" unicode="&#x2022;" horiz-adv-x="839" 
d="M297.5 482.5q-68.5 76.5 -68.5 190.5t69.5 192.5t171.5 78.5t170.5 -77t68.5 -191q0 -113 -68 -191.5t-171.5 -78.5t-172 76.5z" />
    <glyph glyph-name="ellipsis" unicode="&#x2026;" horiz-adv-x="1263" 
d="M974 -31q-56 0 -92 40t-36 95.5t37 95.5t93 40t91 -40t35 -95.5t-36 -95.5t-92 -40zM555 -31q-55 0 -91 40t-36 95.5t37 95.5t92 40t91 -40t36 -95.5t-37 -95.5t-92 -40zM136 -31q-56 0 -92 40t-36 95.5t37 95.5t93 40t91 -40t35 -95.5t-36 -95.5t-92 -40z" />
    <glyph glyph-name="guilsinglleft" unicode="&#x2039;" horiz-adv-x="536" 
d="M59 481q0 13 52 51l403 328l25 -24l-310 -371l131 -389l-30 -17l-240 359q-31 50 -31 63z" />
    <glyph glyph-name="guilsinglright" unicode="&#x203a;" horiz-adv-x="536" 
d="M446 504q31 -50 31 -63t-51 -54l-403 -328l-23 25l307 373l-131 389l31 16z" />
    <glyph glyph-name="fraction" unicode="&#x2044;" horiz-adv-x="1062" 
d="M-66 -66l1184 1455h68l-1186 -1455h-66z" />
    <glyph glyph-name="Euro" unicode="&#x20ac;" horiz-adv-x="1169" 
d="M721 84q169 0 334 231l28 -20q-103 -160 -210.5 -242t-249.5 -82q-190 0 -303 133.5t-113 372.5v29q0 29 2 47h-158l12 45h150q12 97 35 182h-144l13 43h143q85 250 260 405.5t389 155.5q141 0 226.5 -71.5t85.5 -179.5q0 -76 -40.5 -123t-96.5 -47t-91 32.5t-35 86.5
t32 100.5t85 68.5q-14 35 -53 67t-116 32q-150 0 -260.5 -151t-164.5 -376h391l-12 -43h-389q-14 -67 -27 -182h373l-12 -45h-365v-55q0 -207 76 -310.5t205 -103.5z" />
    <glyph glyph-name="published" unicode="&#x2117;" horiz-adv-x="1447" 
d="M870 1442q-284 0 -479.5 -228.5t-220.5 -558.5q-24 -286 115 -477.5t402 -191.5q138 0 261 63.5t264 228.5t166 494q25 290 -115.5 480t-392.5 190zM686 -49q-279 0 -431 196.5t-128 507.5q24 346 177 519.5t284 238t275 64.5q277 0 430.5 -197.5t127.5 -507.5
q-24 -345 -176.5 -518.5t-283.5 -238t-275 -64.5zM985 973q0 123 -123 123h-45l-92 -404h47q109 0 161 85.5t52 195.5zM868 1126q141 0 201.5 -54t60.5 -118q0 -129 -90 -212t-258 -83h-65l-60 -258q-6 -29 14.5 -38t84.5 -13l-4 -24h-351l7 24q66 4 83 13.5t25 37.5
l148 641q8 33 -6.5 43.5t-79.5 16.5l4 24h286z" />
    <glyph glyph-name="servicemark" unicode="&#x2120;" horiz-adv-x="1110" 
d="M584 971q45 6 62.5 27.5t29.5 74.5l61 273q6 29 -4 44t-51 19l4 21h184l31 -336h8l183 336h188l-6 -21q-41 -4 -55.5 -12t-20.5 -31l-82 -356q-4 -18 7.5 -25.5t52.5 -9.5l-7 -25h-221l6 25q35 2 48.5 9t17.5 26l82 358h-10l-224 -418h-41l-43 418h-8l-69 -301
q-12 -51 -5 -68.5t52 -27.5l-6 -21h-168zM379 940q-57 0 -115 35l-37 -37h-20l41 174h22q23 -82 52.5 -113.5t72.5 -31.5t68.5 24.5t25.5 59t-23.5 57t-68.5 47.5t-76.5 53t-31.5 88t49 102t110 42t121 -27l33 31h19l-37 -158h-21q-20 74 -44.5 101.5t-59.5 27.5
t-61.5 -20.5t-26.5 -57.5t25.5 -59t69.5 -46t72.5 -53.5t28.5 -67.5t-10 -66.5t-31.5 -52t-55.5 -38t-91 -14.5z" />
    <glyph glyph-name="trademark" unicode="&#x2122;" horiz-adv-x="1179" 
d="M424 1405q-39 0 -70.5 -39t-72.5 -109h-25l45 173h395l-32 -173h-25q-10 72 -24.5 110t-55.5 38h-16l-92 -397q-4 -18 9 -24.5t58 -8.5l-4 -25h-246l6 25q45 2 60.5 8t19.5 25l90 397h-20zM647 971q45 6 62.5 27.5t27.5 74.5l64 273q6 29 -4.5 44t-51.5 19l5 21h184
l29 -336h10l180 336h190l-6 -21q-41 -4 -56 -12t-19 -31l-84 -356q-4 -18 8 -25.5t53 -9.5l-6 -25h-221l6 25q35 2 47 9t16 26l82 358h-10l-221 -418h-43l-41 418h-10l-68 -301q-12 -51 -5 -68.5t50 -27.5l-4 -21h-168z" />
    <glyph glyph-name="minus" unicode="&#x2212;" horiz-adv-x="954" 
d="M135 645l12 45h764l-12 -45h-764z" />
    <glyph glyph-name="caron.alt" horiz-adv-x="276" 
d="M383 1559q37 0 59.5 -20.5t22.5 -50.5t-16.5 -63.5t-49.5 -87.5l-153 -243h-25l66 329q14 76 36.5 106t59.5 30z" />
    <glyph glyph-name="hfjslug" horiz-adv-x="1421" 
d="M880.5 648.5q24.5 -0.5 24.5 -34.5t-32.5 -34t-32.5 34q0 12 8 23.5t32.5 11zM975 612v35h22q20 0 21 -16q0 -18 -21 -19h-22zM659 823q-33 -1 -33 45t33 78l41 -80q-16 -43 -41 -43zM645 1047q0 39 29 38q27 -1 27 -35t-31 -69q-25 50 -25 66zM522 565h17l22 70h2
l23 -70h16l29 97h-17l-20 -72h-2l-23 72h-14l-23 -72h-2l-20 72h-16zM270 567h17v66l51 -66h14v95h-16v-66l-51 66h-15v-95zM395 567h70v15h-53v26h47v15h-47v24h53v15h-70v-95zM750 567h16v35l37 60h-19l-26 -46l-27 46h-18l37 -60v-35zM872.5 565q22.5 0 36 14.5
t13.5 33.5t-13.5 35t-36 16t-36 -15t-13.5 -35t13.5 -34.5t36 -14.5zM1034 631q0 31 -35 31h-41v-95h17v31h24l21 -31h18l-24 35q20 8 20 29zM1071 567h16v25l17 16l31 -41h20l-41 54l37 41h-21l-40 -50h-3v50h-16v-95zM729 1056.5q0 53.5 -55 53.5q-27 0 -42.5 -19.5
t-15.5 -44.5t29 -79q-47 -37 -47 -85q0 -88 59 -87q39 0 60 49h2l24 -49l25 12l-35 65q13 30 27 80l-27 6l-16 -61h-2l-33 64q47 42 47 95.5zM983 827q-19 0 -41 11v-31q20 -8 43 -8q63 0 64 73v281h-33v-281q0 -45 -33 -45zM377 801h31v162h96v-162h31v352h-31v-162h-96
v162h-31v-352zM819 801h31v160h78v28h-78v135h88v29h-119v-352zM102 -410v621q29 0 47.5 18.5t18.5 46.5t-18.5 47t-47.5 19v1135h205l62 161h684l59 -161h207v-1887h-426l-16 29h-334l-17 -29h-424z" />
    <glyph glyph-name="i.dot" horiz-adv-x="524" 
d="M70 98q0 33 20 119l154 578q16 63 -10.5 83.5t-116.5 30.5v25l360 16l-194 -741q-19 -70 -19 -106t36 -48t132 -4v-20q-127 -47 -211 -47q-151 0 -151 114zM438 1147q-106 -1 -106 115q0 60 42 111.5t91 51.5q104 -1 104 -115q0 -60 -41 -111.5t-90 -51.5z" />
    <glyph glyph-name="percent.alt" horiz-adv-x="1505" 
d="M1038 10q99 0 166.5 183.5t67.5 330.5q0 146 -94 146q-100 0 -166 -185t-66 -330t92 -145zM1187 705q93 0 162.5 -70t69.5 -201q0 -173 -110 -317t-269 -144q-102 0 -172.5 70t-70.5 201q0 173 110 317t280 144zM420 688q97 0 165 180t68 330t-92 150q-97 0 -165 -181.5
t-68 -330.5q0 -148 92 -148zM788 698l584 672h74l-631 -708l-588 -674h-73zM569 1382q92 0 163 -68.5t71 -221.5t-109.5 -296t-271.5 -143q-102 0 -173 69t-71 221t110.5 295.5t280.5 143.5z" />
    <glyph glyph-name="registered.alt" horiz-adv-x="1447" 
d="M840 1126q150 0 206 -47t56 -123t-57.5 -140t-190.5 -87l-2 -4q92 -12 124 -53t28 -131l-3 -86q-4 -68 8.5 -87.5t65.5 -23.5l-4 -25q-28 -4 -59 -4q-109 0 -137.5 34t-20.5 116l12 96q10 78 -11 115t-110 37h-43l-71 -312q-8 -29 9 -38t81 -13l-6 -24h-342l6 24
q66 4 84 13.5t24 37.5l150 641q6 33 -8.5 43.5t-79.5 16.5l6 24h285zM752 743q102 0 153 74t51 153t-33.5 102.5t-93.5 23.5h-38l-80 -353h41zM693 -14q138 0 260 63.5t263.5 230.5t157.5 492q20 289 -122.5 479.5t-393.5 190.5q-283 0 -476 -228t-214 -559
q-20 -288 120.5 -478.5t404.5 -190.5zM692 -49q-281 0 -434 197.5t-133 506.5q20 344 169.5 518.5t281 239t275.5 64.5q277 0 431.5 -197t134.5 -525t-169.5 -501.5t-280.5 -238t-275 -64.5z" />
    </font>
</defs>
</svg>
