<?xml version="1.0" standalone="no"?>
<!DOCTYPE svg PUBLIC "-//W3C//DTD SVG 1.1//EN" "http://www.w3.org/Graphics/SVG/1.1/DTD/svg11.dtd" >
<svg xmlns="http://www.w3.org/2000/svg">
<metadata>
Created by FontPrep 20130207 at Tue Jan 24 13:06:32 2017
 By Nick Villapiano
Copyright (C) 2002, 2007 Hoefler &#38; Frere-Jones. http://www.typography.com
</metadata>
<defs>
<font id="aed00adeab57fa048a3d3f3409a7426d" horiz-adv-x='1024' >
  <font-face 
    font-family="ChronicleDeck-Roman"
    font-weight="325"
    font-stretch="normal"
    units-per-em="2048"
    panose-1="0 0 0 0 0 0 0 0 0 0"
    ascent="1638"
    descent="-410"
    x-height="940"
    cap-height="1389"
    bbox="-124 -596 2263 2259"
    underline-thickness="102"
    underline-position="-102"
    unicode-range="U+0020-FB04"
  />
<missing-glyph horiz-adv-x="1024" 
d="M512 492l-367 -799h734zM922 1384l-353 -770l353 -770v1540zM102 -156l353 770l-353 770v-1540zM145 1536l367 -799l367 799h-734zM0 -410v2048h1024v-2048h-1024z" />
    <glyph glyph-name="f_f" unicode="ff" horiz-adv-x="1212" 
d="M776 999q0 92 17 170q-41 0 -72 29t-31 74t23 90q-35 49 -114 49q-79 -1 -145 -67t-67 -250v-158h389v63zM632 1460q186 0 245 -119l18 21q98 98 217 98t179 -45q61 -45 61 -100t-28 -85t-73 -30t-77 29t-33 90q0 23 14 70q-27 23 -71 23t-78 -36q-57 -57 -58 -264v-176
h262v-74h-262v-741q0 -43 41 -57t160 -19v-45h-500v45q76 2 102 16t25 60v741h-389v-741q0 -45 27 -59t108 -17v-45h-456v45q90 2 120 16t29 60v739h-174v39l174 43v45q0 240 115 359q116 114 302 114z" />
    <glyph glyph-name="fi" unicode="fi" horiz-adv-x="1146" 
d="M66 0v45q90 2 120 16t29 60v739h-174v39l174 43v41q0 246 114 362t300 115q143 0 227 -61t84 -142q0 -51 -30 -83t-78 -31q-48 -1 -81 29q-34 30 -34 86t35 85q-42 68 -138 68t-153 -57q-74 -74 -74 -273v-145h291l276 8v-823q0 -45 29 -59t123 -17v-45h-453v45
q78 2 104 16t25 60v741h-395v-741q0 -45 27 -59t108 -17v-45h-456z" />
    <glyph glyph-name="fl" unicode="fl" horiz-adv-x="1150" 
d="M688 1276q0 45 33 82q-39 53 -120 53q-81 -1 -147 -67t-67 -250v-158h395v225q-94 14 -94 115zM782 862h-395v-741q0 -45 27 -59t108 -17v-45h-456v45q90 2 120 16t29 60v739h-174v39l174 43v45q0 240 115 357t295 116q90 0 151 -24l178 18v-1333q0 -45 30 -59t120 -17
v-45h-451v45q78 2 104 16t25 60v741z" />
    <glyph glyph-name="f_f_i" unicode="ffi" horiz-adv-x="1708" 
d="M776 936v47q0 106 19 186q-49 0 -79 30t-30 77t27 86q-35 49 -114 49q-79 -1 -145 -67t-67 -250v-158h389zM1501 1257q0 -51 -31 -83q-30 -32 -78 -31q-48 -1 -81 29t-33 86t35 85q-41 68 -137 68q-96 1 -162 -65t-66 -265v-145h291l277 8v-823q0 -45 28 -60
q29 -14 123 -16v-45h-453v45q78 2 104 16t25 60v741h-395v-741q0 -45 27 -59t108 -17v-45h-434v45q76 2 102 16t25 60v741h-389v-741q0 -45 27 -59t108 -17v-45h-456v45q90 2 120 16t29 60v739h-174v39l174 43v45q0 240 115 359q116 114 304 114t245 -125q116 126 311 125
q143 0 227 -61t84 -142z" />
    <glyph glyph-name="f_f_l" unicode="ffl" horiz-adv-x="1712" 
d="M1343 936v225q-94 14 -94 115q0 45 33 82q-39 53 -120 53q-82 -1 -148 -67t-66 -250v-158h395zM776 987q0 106 21 182h-2q-41 0 -73 30t-32 74t23 89q-35 49 -114 49q-79 -1 -145 -67t-67 -250v-158h389v51zM1516 121q0 -45 29 -60q30 -14 120 -16v-45h-451v45
q78 2 104 16t25 60v741h-395v-741q0 -45 27 -59t108 -17v-45h-434v45q76 2 102 16t25 60v741h-389v-741q0 -45 27 -59t108 -17v-45h-456v45q90 2 120 16t29 60v739h-174v39l174 43v45q0 240 115 357q114 116 304 116t247 -125q115 126 305 125q90 0 151 -24l179 18v-1333z
" />
    <glyph glyph-name="f_b" unicode="fb" horiz-adv-x="1720" 
d="M588 0h-522v45q90 2 120 16t29 60v739h-174v39l174 43v45q0 240 115 357t295 116q90 0 151 -24l178 18v-631q133 133 306 133q172 0 276 -128t104 -336t-120 -358t-300 -150q-182 0 -323 100l-86 -109h-35l6 181v706h-395v-741q0 -43 41 -57t160 -19v-45zM1190 35
q132 0 196 119t64 310t-74 299q-74 107 -198 107t-224 -102v-555q30 -88 94 -133t142 -45zM688 1276q0 45 33 82q-39 53 -120 53q-81 -1 -147 -67t-67 -250v-158h395v225q-94 14 -94 115z" />
    <glyph glyph-name="f_h" unicode="fh" horiz-adv-x="1728" 
d="M1094 0h-441v45q78 2 104 16t25 60v741h-395v-741q0 -45 27 -59t108 -17v-45h-456v45q90 2 120 16t29 60v739h-174v39l174 43v45q0 240 115 357t295 116q90 0 151 -24l178 18v-694q170 190 359 190q111 0 175 -72t64 -208v-549q0 -45 30 -59t120 -17v-45h-453v45
q78 2 105 16t26 60v481q0 129 -45 185t-143 57q-137 0 -238 -144v-579q0 -45 28 -59t112 -17v-45zM688 1276q0 45 33 82q-39 53 -120 53q-81 -1 -147 -67t-67 -250v-158h395v225q-94 14 -94 115z" />
    <glyph glyph-name="f_j" unicode="fj" horiz-adv-x="1130" 
d="M588 0h-522v45q90 2 120 16t29 60v739h-174v39l174 43v41q0 246 114 362t300 115q143 0 227 -61t84 -142q0 -51 -30 -83t-78 -31q-48 -1 -81 29q-34 30 -34 86t35 85q-42 68 -138 68t-153 -57q-74 -74 -74 -273v-145h291l276 8v-936q0 -135 -18 -211t-74 -131
q-78 -78 -190 -78t-174 41t-62 97t30 87t76 31t76 -32t29 -76q0 -45 -26 -80q27 -16 61 -16q100 0 100 190v1032h-395v-741q0 -43 41 -57t160 -19v-45z" />
    <glyph glyph-name="f_k" unicode="fk" horiz-adv-x="1650" 
d="M1083 0h-430v45q78 2 104 16t25 60v741h-395v-741q0 -45 27 -59t108 -17v-45h-456v45q90 2 120 16t29 60v739h-174v39l174 43v45q0 240 115 357t295 116q90 0 151 -24l178 18v-1012l310 316q119 119 -76 141v41h424v-41q-78 -12 -129 -42t-135 -109l-168 -160l303 -418
q55 -74 88 -96t102 -31v-43h-450v43q80 8 96 35t-23 78l-229 323l-113 -108v-250q0 -45 26 -59t103 -17v-45zM688 1276q0 45 33 82q-39 53 -120 53q-81 -1 -147 -67t-67 -250v-158h395v225q-94 14 -94 115z" />
    <glyph glyph-name="f_f_b" unicode="ffb" horiz-adv-x="2281" 
d="M1343 936v225q-94 14 -94 115q0 45 33 82q-39 53 -120 53q-82 -1 -148 -67t-66 -250v-158h395zM776 987q0 106 21 182h-2q-41 0 -73 30t-32 74t23 89q-35 49 -114 49q-79 -1 -145 -67t-67 -250v-158h389v51zM1751 35q131 0 196 119t65 310t-75 299q-75 107 -199 107
t-222 -102v-555q31 -88 94 -133t141 -45zM1822 956q173 0 276 -128q104 -128 104 -336t-120 -358t-302 -150t-322 100l-86 -109h-35l6 181v706h-395v-741q0 -43 41 -57t160 -19v-45h-500v45q76 2 102 16t25 60v741h-389v-741q0 -45 27 -59t108 -17v-45h-456v45q90 2 120 16
t29 60v739h-174v39l174 43v45q0 240 115 357q114 116 304 116t247 -125q115 126 305 125q90 0 151 -24l179 18v-631q133 133 306 133z" />
    <glyph glyph-name="f_f_h" unicode="ffh" horiz-adv-x="2289" 
d="M1343 936v225q-94 14 -94 115q0 45 33 82q-39 53 -120 53q-82 -1 -148 -67t-66 -250v-158h395zM776 987q0 106 21 182h-2q-41 0 -73 30t-32 74t23 89q-35 49 -114 49q-79 -1 -145 -67t-67 -250v-158h389v51zM1874 950q112 0 176 -72t64 -208v-549q0 -45 29 -60
q30 -14 120 -16v-45h-453v45q78 2 105 16t27 60v481q0 129 -46 185t-143 57q-137 0 -237 -144v-579q0 -45 27 -60q28 -14 112 -16v-45h-441v45q78 2 104 16t25 60v741h-395v-741q0 -45 27 -59t108 -17v-45h-434v45q76 2 102 16t25 60v741h-389v-741q0 -45 27 -59t108 -17
v-45h-456v45q90 2 120 16t29 60v739h-174v39l174 43v45q0 240 115 357q114 116 304 116t247 -125q115 126 305 125q90 0 151 -24l179 18v-694q170 190 358 190z" />
    <glyph glyph-name="f_f_j" unicode="ffj" horiz-adv-x="1691" 
d="M776 983q0 106 19 186q-49 0 -79 30t-30 77t27 86q-35 49 -114 49q-79 -1 -145 -67t-67 -250v-158h389v47zM1501 1257q0 -51 -31 -83q-30 -32 -78 -31q-48 -1 -81 29t-33 86t35 85q-41 68 -137 68q-96 1 -162 -65t-66 -265v-145h291l277 8v-936q0 -135 -18 -211t-75 -131
q-78 -78 -190 -78t-174 41q-61 41 -61 97t29 87q30 31 76 31t76 -32q29 -32 29 -76q0 -45 -26 -80q27 -16 61 -16q100 0 100 190v1032h-395v-741q0 -43 41 -57t160 -19v-45h-500v45q76 2 102 16t25 60v741h-389v-741q0 -45 27 -59t108 -17v-45h-456v45q90 2 120 16t29 60
v739h-174v39l174 43v45q0 240 115 357q116 116 304 116t245 -125q116 126 311 125q143 0 227 -61t84 -142z" />
    <glyph glyph-name="f_f_k" unicode="ffk" horiz-adv-x="2211" 
d="M1343 936v225q-94 14 -94 115q0 45 33 82q-39 53 -120 53q-82 -1 -148 -67t-66 -250v-158h395zM776 987q0 106 21 182h-2q-41 0 -73 30t-32 74t23 89q-35 49 -114 49q-79 -1 -145 -67t-67 -250v-158h389v51zM1749 940h424v-41q-78 -12 -129 -42t-135 -109l-168 -160
l303 -418q55 -74 88 -96t102 -31v-43h-450v43q80 8 96 35t-22 78l-230 323l-112 -108v-250q0 -45 25 -60q26 -14 104 -16v-45h-431v45q78 2 104 16t25 60v741h-395v-741q0 -45 27 -59t108 -17v-45h-434v45q76 2 102 16t25 60v741h-389v-741q0 -45 27 -59t108 -17v-45h-456
v45q90 2 120 16t29 60v739h-174v39l174 43v45q0 240 115 357q114 116 304 116t247 -125q115 126 305 125q90 0 151 -24l179 18v-1012l309 316q119 119 -76 141v41z" />
    <glyph glyph-name=".notdef" horiz-adv-x="1024" 
d="M512 492l-367 -799h734zM922 1384l-353 -770l353 -770v1540zM102 -156l353 770l-353 770v-1540zM145 1536l367 -799l367 799h-734zM0 -410v2048h1024v-2048h-1024z" />
    <glyph glyph-name=".null" horiz-adv-x="0" 
 />
    <glyph glyph-name="nonmarkingreturn" horiz-adv-x="681" 
 />
    <glyph glyph-name="space" unicode=" " horiz-adv-x="376" 
 />
    <glyph glyph-name="exclam" unicode="!" horiz-adv-x="569" 
d="M285 -33q-51 0 -87 36t-36 86t36 85t87 35t86 -35t35 -85t-35 -86t-86 -36zM172 1298q0 145 113 146q51 0 82 -38t31 -118t-40 -386q-39 -306 -51 -521h-47q-12 217 -50 523t-38 394z" />
    <glyph glyph-name="quotedbl" unicode="&#x22;" horiz-adv-x="829" 
d="M318 1397q52 0 74 -29q24 -28 24 -58t-16 -71t-130 -209l-102 -156l-37 17l41 186q45 217 61 252q33 68 85 68zM666 1397q50 0 74 -29q24 -28 24 -58t-16 -71t-130 -209l-102 -156l-37 17l41 186q51 229 62 252q33 68 84 68z" />
    <glyph glyph-name="numbersign" unicode="#" horiz-adv-x="1398" 
d="M551 899l-92 -475h393l94 475h-395zM1331 965v-66h-307l-92 -475h311v-66h-325l-87 -442h-79l86 442h-394l-86 -442h-77l86 442h-291v66h305l94 475h-309v66h321l86 434h78l-86 -434h393l86 434h80l-86 -434h293z" />
    <glyph glyph-name="dollar" unicode="$" horiz-adv-x="1124" 
d="M328 1004q0 -87 50 -132t165 -88v435q-103 -10 -159 -69t-56 -146zM858 319q0 91 -54 141t-194 101v-467q124 8 186 72t62 153zM543 -127v166q-174 4 -300 78t-126 186q0 51 31 89q32 38 88 38t89 -33q32 -33 31 -80q0 -74 -77 -112q29 -39 105 -71t159 -40v490
q-2 1 -74 25q-173 58 -227 116q-78 83 -76 193q0 147 108 243q109 96 269 113v145h67v-143q164 -4 275 -77t110 -169q1 -53 -27 -88t-81 -35t-83 32t-30 72q0 82 70 109q-92 92 -234 101v-459q6 -2 18 -5t51 -17q40 -14 72 -24q32 -11 92 -41t88 -60q75 -80 75 -209
t-100 -242t-296 -125v-166h-67z" />
    <glyph glyph-name="percent" unicode="%" horiz-adv-x="1660" 
d="M524 1333q137 0 195 -116q80 -37 186 -37q197 0 365 184h67l-934 -1417h-104l872 1263l-6 7q-115 -100 -295 -101q-63 0 -125 12q14 -113 -33 -242q-48 -128 -138 -224t-212 -96t-194 79q-72 80 -72 211q0 172 131 324t297 153zM682 1052q0 62 -6 95q-98 31 -180 102
q-106 -37 -174 -181t-68 -294t127 -149q82 1 155 79q74 78 110 182t36 166zM1184 -31q-121 0 -194 81t-72 210q0 170 132 324t296 153q102 1 163 -67t61 -174t-41 -221q-42 -114 -133 -210t-212 -96zM1075 190q0 -160 125 -161q125 1 214 155t89 297q0 182 -127 183
q-127 0 -214 -157t-87 -317z" />
    <glyph glyph-name="ampersand" unicode="&#x26;" horiz-adv-x="1523" 
d="M1315 725q71 0 107 -38t36 -94t-30 -88t-76 -32t-77 28q-30 27 -30 63t15 59l-7 8q-119 -55 -235 -291q80 -142 135 -200t123 -58t145 61l25 -30q-156 -147 -260 -147t-159 48q-54 49 -122 170q-168 -219 -391 -219q-197 -1 -296 103t-99 245t96 233t270 152
q-53 62 -79 98q-75 104 -74 201q0 143 99 235t243 91q144 0 228 -72q83 -72 83 -174q-1 -102 -67 -176t-228 -162q184 -164 293 -350q172 336 332 336zM313 345q0 -117 77 -195q76 -78 180 -78t170 39t137 120q-140 242 -361 437q-106 -57 -154 -131t-49 -192zM834 1071
q0 205 -172 205q-78 0 -128 -54t-51 -145q0 -121 170 -305q104 72 143 139q38 68 38 160z" />
    <glyph glyph-name="quotesingle" unicode="'" horiz-adv-x="481" 
d="M318 1397q52 0 74 -29q24 -28 24 -58t-16 -71t-130 -209l-102 -156l-37 17l41 186q45 217 61 252q33 68 85 68z" />
    <glyph glyph-name="parenleft" unicode="(" horiz-adv-x="761" 
d="M156 596q0 178 54 332q96 275 349 458q109 80 236 136l24 -41q-231 -123 -354 -331t-123 -555t123 -555t354 -331l-24 -41q-261 113 -438 328q-93 114 -147 268t-54 332z" />
    <glyph glyph-name="parenright" unicode=")" horiz-adv-x="761" 
d="M420 595q0 347 -123 555t-354 331l22 41q263 -114 439 -328q94 -112 148 -266t54 -332q0 -496 -404 -793q-110 -80 -237 -135l-22 41q231 123 354 331t123 555z" />
    <glyph glyph-name="asterisk" unicode="*" horiz-adv-x="880" 
d="M717 1163q94 1 94 -67t-94 -68q-34 0 -248 57l-12 -14q38 -51 83 -126q44 -75 50 -93q26 -90 -38 -112t-89 71q-12 37 -21 254l-22 6q-137 -174 -166 -192q-76 -53 -116 0t38 108q39 27 236 98v21q-227 92 -236 98q-78 57 -37 111q43 53 115 -2q31 -23 166 -193l22 6
q10 221 21 254q27 88 90 70t37 -111q-8 -29 -133 -219l12 -14q200 57 248 57z" />
    <glyph glyph-name="plus" unicode="+" horiz-adv-x="1107" 
d="M109 610v74h407v406h80v-406h403v-74h-403v-411h-80v411h-407z" />
    <glyph glyph-name="comma" unicode="," horiz-adv-x="458" 
d="M204 -18q-38 0 -67 30t-29 78q0 47 34 83t90 36t96 -43t39 -113q-1 -221 -306 -356l-24 39q109 51 171 121t71 139l-11 6q-26 -20 -64 -20z" />
    <glyph glyph-name="hyphen" unicode="-" horiz-adv-x="749" 
d="M113 465v110h524v-110h-524z" />
    <glyph glyph-name="period" unicode="." horiz-adv-x="458" 
d="M230 -33q-50 0 -86 36t-36 86t36 85t86 35t86 -35t36 -85t-36 -86t-86 -36z" />
    <glyph glyph-name="slash" unicode="/" horiz-adv-x="909" 
d="M6 -428l422 956l414 957h80l-422 -957l-414 -956h-80z" />
    <glyph glyph-name="zero" unicode="0" horiz-adv-x="1202" 
d="M608 25q154 1 222 151t69 474q0 324 -76 478q-75 152 -229 152t-222 -151t-69 -475t75 -477q76 -152 230 -152zM1116 656q0 -288 -148 -488t-370 -199q-223 0 -368 195q-144 194 -144 482t147 488t371 200t368 -195t144 -483z" />
    <glyph glyph-name="one" unicode="1" horiz-adv-x="845" 
d="M92 0v47q144 3 200 23t56 75v961q0 78 -52 106t-210 29v43l449 37v-1176q0 -55 55 -75t201 -23v-47h-699z" />
    <glyph glyph-name="two" unicode="2" horiz-adv-x="1118" 
d="M119 0v127l313 268q209 178 282 302q72 125 72 275t-67 229q-68 79 -182 79q-76 0 -143 -37t-97 -94q90 -41 90 -133q0 -55 -34 -96t-92 -41t-96 41t-38 100q0 129 129 221q128 92 318 92t304 -101q114 -100 114 -244t-93 -264q-92 -120 -315 -296l-328 -262v-10h477
q115 0 161 40t89 173l41 -2l-8 -367h-897z" />
    <glyph glyph-name="three" unicode="3" horiz-adv-x="1105" 
d="M526 -31q-174 0 -306 75t-132 194q0 57 37 97t93 40t87 -38t31 -89q0 -76 -74 -121q90 -102 270 -102q272 0 273 317q0 150 -88 224t-289 73h-43v61h23q208 0 286 75t78 235q0 270 -248 270q-156 0 -233 -113q82 -37 82 -120q0 -51 -31 -91t-85 -38q-54 0 -90 38t-36 93
q0 117 121 201q120 84 312 83q192 0 302 -88t111 -212q0 -124 -95 -217t-288 -138v-6q416 -34 416 -334q0 -150 -130 -260t-354 -109z" />
    <glyph glyph-name="four" unicode="4" horiz-adv-x="1142" 
d="M631 535v589h-8l-467 -589h475zM1114 420h-299v-275q0 -53 46 -75t147 -23v-47h-578v47q100 2 151 24q50 22 50 74v275h-574v96l639 799h119v-780h299v-115z" />
    <glyph glyph-name="five" unicode="5" horiz-adv-x="1095" 
d="M535 -31q-176 0 -306 76q-129 76 -129 197q0 59 38 100t96 41t87 -36q30 -36 29 -87q0 -82 -84 -133q88 -102 254 -102q276 0 277 364q0 342 -295 342q-131 0 -277 -88l-37 29l25 633h748l-21 -168h-657l-19 -416q135 76 283 76q231 0 344 -110t113 -281t-128 -304
t-341 -133z" />
    <glyph glyph-name="six" unicode="6" horiz-adv-x="1130" 
d="M605 23q128 0 185 106q56 105 56 295t-58 279t-180 89q-123 0 -211 -100q-88 -102 -88 -286t84 -283q84 -100 212 -100zM1053 445q0 -191 -126 -333t-342 -143q-216 0 -351 154q-134 154 -134 387q0 334 207 541q123 123 269 193t368 102v-43q-233 -55 -405 -192
q-95 -75 -157 -193t-79 -269l8 -2q45 99 139 153t197 54q178 0 292 -109t114 -300z" />
    <glyph glyph-name="seven" unicode="7" horiz-adv-x="1042" 
d="M213 -20v26l674 1145h-533q-98 0 -134 -45t-68 -195h-46l15 394h883v-41l-355 -750l-243 -534h-193z" />
    <glyph glyph-name="eight" unicode="8" horiz-adv-x="1101" 
d="M811 1024q0 108 -69 182q-70 72 -182 72t-176 -62t-65 -174q0 -112 75 -183t247 -130q94 49 132 118t38 177zM266 299q0 -119 75 -197t206 -78t207 66q76 64 76 186t-78 193t-271 139l-24 8q-191 -93 -191 -317zM96 307q0 103 80 193t215 143q-252 119 -252 330
q0 154 119 257t300 103t302 -88t121 -205q0 -118 -67 -190t-214 -143q174 -70 246 -158t72 -207q0 -156 -136 -264t-313 -109q-221 0 -347 94t-126 244z" />
    <glyph glyph-name="nine" unicode="9" horiz-adv-x="1130" 
d="M542 512q116 0 196 108q81 108 81 284t-75 278q-76 100 -200 100t-193 -108t-69 -291q0 -182 72 -277q72 -94 188 -94zM492 451q-178 -1 -296 115t-118 303t136 325t351 139q215 -1 339 -151t124 -387q0 -334 -205 -539q-123 -124 -271 -194t-368 -105v45q220 49 404 192
q96 76 160 194t79 267l-8 2q-45 -98 -136 -152t-191 -54z" />
    <glyph glyph-name="colon" unicode=":" horiz-adv-x="468" 
d="M236 -33q-51 0 -88 36q-36 36 -36 86t36 85t88 35t86 -35t34 -85t-34 -86t-86 -36zM236 580q-51 0 -88 35q-36 36 -36 86t36 85t88 35t86 -35t34 -85t-34 -86q-35 -35 -86 -35z" />
    <glyph glyph-name="semicolon" unicode=";" horiz-adv-x="468" 
d="M204 -18q-38 0 -67 30t-29 78q0 47 34 83t90 36t96 -43t39 -113q-1 -221 -306 -356l-24 39q109 51 171 121t71 139l-11 6q-26 -20 -64 -20zM239 580q-50 0 -86 36t-36 85q0 50 36 85t86 35t86 -35q35 -35 35 -85t-35 -86q-36 -35 -86 -35z" />
    <glyph glyph-name="less" unicode="&#x3c;" horiz-adv-x="1105" 
d="M168 610v72l772 412v-82l-690 -367l690 -362v-84z" />
    <glyph glyph-name="equal" unicode="=" horiz-adv-x="1107" 
d="M119 807v72h870v-72h-870zM119 412v73h870v-73h-870z" />
    <glyph glyph-name="greater" unicode="&#x3e;" horiz-adv-x="1105" 
d="M940 610l-772 -411v82l690 366l-690 363v84l772 -412v-72z" />
    <glyph glyph-name="question" unicode="?" horiz-adv-x="935" 
d="M399 -33q-51 0 -87 36t-36 86t36 85t87 35t86 -35t35 -85t-35 -86t-86 -36zM688 1079q0 309 -252 310q-150 0 -225 -115q94 -35 94 -129q0 -55 -34 -95t-93 -40t-97 42t-38 99q0 127 119 210q120 83 310 83t304 -104t113 -255q0 -151 -118 -259t-343 -162v-283h-68
l-4 319q192 48 262 132t70 247z" />
    <glyph glyph-name="at" unicode="@" horiz-adv-x="1861" 
d="M827 227q117 0 215 185l97 323q-6 91 -43 141t-92 50q-92 0 -167 -93t-111 -206t-36 -203q0 -197 137 -197zM961 -299q-367 0 -602 229q-234 230 -234 606t246 620t628 245q307 0 523 -198t215 -483q0 -285 -136 -440t-321 -155q-116 0 -180 49t-68 129l-8 2
q-117 -162 -254 -162q-112 0 -176 73t-64 200q0 203 142 382t327 179q121 0 172 -127h7l34 111l154 20l-98 -285l-84 -299q-29 -98 6 -154t117 -57q145 0 255 144t109 375q0 270 -194 456q-195 186 -488 187q-352 0 -575 -232q-224 -232 -224 -573q0 -340 213 -563t568 -224
q279 0 508 172l30 -43q-241 -184 -548 -184z" />
    <glyph glyph-name="A" unicode="A" horiz-adv-x="1353" 
d="M395 586h434l-200 579h-8zM418 0h-461v43q100 25 157 90q56 66 119 221l426 1067h70l434 -1188q37 -100 81 -138t157 -52v-43h-615v43q138 8 172 43t3 123l-111 319h-477l-72 -186q-63 -168 -41 -222t158 -77v-43z" />
    <glyph glyph-name="B" unicode="B" horiz-adv-x="1339" 
d="M496 57h200q205 0 281 81q76 80 76 240q0 326 -375 327h-182v-648zM496 762h178q174 0 247 68t73 211q0 142 -70 216t-252 74h-176v-569zM78 0v47q129 4 176 31t47 86v1061q0 59 -47 87t-176 31v46h581q287 1 414 -93t127 -243q0 -111 -85 -199t-271 -113v-8
q204 -12 312 -104t108 -230q0 -175 -140 -287t-446 -112h-600z" />
    <glyph glyph-name="C" unicode="C" horiz-adv-x="1409" 
d="M768 -35q-299 0 -486 197q-188 197 -188 515t206 531t507 213q190 0 348 -86l72 90h43v-456h-43q-147 397 -443 397q-198 0 -332 -174t-135 -506q0 -160 45 -285t120 -197q152 -146 329 -147q178 -1 297 93t186 241l49 -26q-76 -170 -219 -285t-356 -115z" />
    <glyph glyph-name="D" unicode="D" horiz-adv-x="1519" 
d="M496 57h151q317 1 436 149t119 494t-135 488q-135 143 -422 143h-149v-1274zM78 0v47q129 4 176 31t47 86v1061q0 59 -47 87t-176 31v46h590q366 -1 562 -185t196 -481t-176 -503q-87 -100 -232 -160t-332 -60h-608z" />
    <glyph glyph-name="E" unicode="E" horiz-adv-x="1368" 
d="M78 0v47q129 4 176 31t47 86v1061q0 59 -47 87t-176 31v46h1126l6 -410l-45 -2q-71 199 -147 275t-242 77h-280v-579h125q127 0 187 49t99 207h41v-570h-41q-39 158 -98 206t-188 48h-125v-631h280q195 0 290 88t167 299l45 -2l-10 -444h-1190z" />
    <glyph glyph-name="F" unicode="F" horiz-adv-x="1308" 
d="M78 0v47q129 4 176 31t47 86v1061q0 59 -47 86t-176 30v48h1120l16 -420l-43 -2q-69 203 -157 283t-262 79h-256v-596h131q125 0 180 47t96 203h41v-563h-41q-39 160 -94 207t-182 47h-131v-510q0 -59 47 -86t180 -31v-47h-645z" />
    <glyph glyph-name="G" unicode="G" horiz-adv-x="1486" 
d="M823 -35q-193 0 -355 79t-268 248q-105 169 -106 398q0 317 214 524t503 207q195 0 346 -71l70 77h43v-423h-43q-137 362 -439 362q-194 0 -332 -169t-139 -503q0 -172 43 -305t116 -211q147 -157 335 -156q189 1 285 84v367q0 61 -47 91t-175 34v45h566v-45
q-96 -6 -123 -30t-27 -95v-389q-92 -55 -224 -87t-243 -32z" />
    <glyph glyph-name="H" unicode="H" horiz-adv-x="1646" 
d="M78 0v47q129 4 176 31t47 86v1063q0 59 -47 86t-176 30v46h622v-46q-133 -3 -169 -27t-35 -89v-477h657v477q0 65 -36 89t-169 27v46h621v-46q-127 -5 -174 -31t-47 -85v-1063q0 -59 46 -86t175 -31v-47h-621v47q133 4 169 28t36 89v526h-657v-526q0 -66 34 -90t170 -27
v-47h-622z" />
    <glyph glyph-name="I" unicode="I" horiz-adv-x="833" 
d="M94 0v47q133 4 179 31t46 86v1061q0 59 -46 87t-179 31v46h645v-46q-133 -3 -179 -31t-46 -87v-1061q0 -59 46 -86t179 -31v-47h-645z" />
    <glyph glyph-name="J" unicode="J" horiz-adv-x="1095" 
d="M426 -35q-158 0 -255 73t-97 183q0 59 38 103t92 43q54 0 89 -35t35 -86t-30 -91t-83 -53q73 -68 189 -68t170 84q54 83 55 244v863q0 63 -43 89t-189 29v46h643v-46q-131 -5 -174 -31t-43 -87v-817q0 -203 -99 -323t-298 -120z" />
    <glyph glyph-name="K" unicode="K" horiz-adv-x="1511" 
d="M903 1389h545v-43q-121 -18 -196 -66t-222 -193l-264 -256l428 -583q84 -115 137 -152t162 -53v-43h-594v43q119 14 141 50t-36 112l-363 504l-145 -142v-403q0 -66 32 -90t154 -27v-47h-604v47q129 4 176 31t47 86v1063q0 59 -47 86t-176 30v46h622v-46
q-133 -3 -169 -27t-35 -89v-580l479 475q61 62 79 106t-19 76q-36 32 -132 42v43z" />
    <glyph glyph-name="L" unicode="L" horiz-adv-x="1253" 
d="M78 0v47q129 4 176 31t47 86v1061q0 59 -47 87t-176 31v46h631v-46q-131 -5 -172 -31t-41 -87v-1166h204q201 0 295 82t170 310l45 -2l-16 -449h-1116z" />
    <glyph glyph-name="M" unicode="M" horiz-adv-x="1925" 
d="M78 0v43q139 25 185 83t46 206v835q0 168 -231 176v46h469l426 -1110h10l414 1110h450v-46q-127 -3 -174 -31t-47 -87v-1061q0 -59 47 -86t174 -31v-47h-610v47q125 4 160 29t35 88v1093h-11l-479 -1259h-55l-502 1262h-10v-928q0 -150 43 -207t184 -82v-43h-524z" />
    <glyph glyph-name="N" unicode="N" horiz-adv-x="1572" 
d="M375 1178v-846q0 -152 45 -209t192 -80v-43h-534v43q139 25 185 83t46 206v825q0 180 -231 186v46h391l797 -1086h2v756q0 145 -52 205t-200 82v43h534v-43q-135 -25 -176 -81t-41 -206v-1094h-61l-895 1213h-2z" />
    <glyph glyph-name="O" unicode="O" horiz-adv-x="1513" 
d="M766 23q430 0 430 671q0 352 -121 512t-327 160q-428 0 -428 -672t446 -671zM1419 698q1 -322 -195 -528t-470 -205q-274 0 -468 201q-192 202 -192 524t196 527t472 205t466 -202q191 -200 191 -522z" />
    <glyph glyph-name="P" unicode="P" horiz-adv-x="1269" 
d="M496 668h151q199 0 269 85t71 248q0 163 -73 247t-261 83h-157v-663zM78 0v47q129 4 176 31t47 86v1061q0 59 -47 87t-176 31v46h569q555 0 555 -377q0 -166 -136 -284t-433 -118h-137v-446q0 -61 49 -87t186 -30v-47h-653z" />
    <glyph glyph-name="Q" unicode="Q" horiz-adv-x="1513" 
d="M1300 -291q0 23 -42 58t-42 77t31 75q31 32 77 32t81 -39t35 -92q0 -100 -79 -162t-215 -64q-136 0 -248 105q-46 43 -87 87q-99 107 -170 105q-115 0 -281 -155l-36 39q152 164 303 202q-233 45 -383 237t-150 494q0 304 196 509t470 205t468 -202q192 -200 192 -510
t-170 -508q-170 -200 -416 -233q63 -23 124 -77q60 -54 100 -105q100 -129 187 -129q55 0 55 51zM764 23q430 0 430 671q0 352 -120 512t-326 160q-430 0 -431 -672q0 -352 121 -512t326 -159z" />
    <glyph glyph-name="R" unicode="R" horiz-adv-x="1398" 
d="M496 666v-502q0 -63 41 -88t176 -29v-47h-635v47q129 4 176 31t47 86v1061q0 59 -47 87t-176 31v46h586q292 1 424 -93t133 -245q0 -283 -387 -351v-6q190 -14 259 -88t93 -231l20 -139q20 -115 64 -150t166 -39v-45q-61 -16 -138 -16q-172 0 -230 54t-73 202l-16 176
q-14 150 -80 198t-237 50h-166zM496 723h176q194 0 264 80t70 233q0 152 -81 224t-276 71h-153v-608z" />
    <glyph glyph-name="S" unicode="S" horiz-adv-x="1132" 
d="M106 -39v471h48q86 -199 191 -302t251 -103t223 81q78 80 78 194t-81 177q-82 63 -280 134t-260 110q-143 91 -143 279t132 303t333 114q152 0 283 -55l65 66h35v-420h-47q-125 352 -369 352q-113 0 -187 -69t-75 -185q0 -116 80 -175q80 -57 214 -103t174 -61t101 -49
q175 -97 172 -300q0 -171 -103 -302q-116 -149 -388 -149q-148 0 -295 74l-115 -82h-37z" />
    <glyph glyph-name="T" unicode="T" horiz-adv-x="1361" 
d="M350 0v47q133 4 186 31q52 27 52 86v1167h-103q-125 0 -203 -85t-157 -283l-45 4l12 422h1184l14 -422l-45 -4q-76 190 -154 279q-79 89 -206 89h-105v-1167q0 -59 52 -86t186 -31v-47h-668z" />
    <glyph glyph-name="U" unicode="U" horiz-adv-x="1546" 
d="M1307 410q0 -193 -135 -319t-380 -126t-385 112t-141 302v846q0 59 -47 87t-174 31v46h623v-46q-133 -5 -170 -29t-37 -89v-803q1 -197 113 -287t284 -90t275 98q109 113 108 310v606q0 145 -52 205t-202 82v43h537v-43q-137 -25 -177 -81t-40 -206v-649z" />
    <glyph glyph-name="V" unicode="V" horiz-adv-x="1396" 
d="M-16 1389h612v-43q-133 -8 -169 -42t-9 -110l348 -969h8l320 842q55 145 27 201t-169 78v43h480v-43q-102 -20 -154 -80t-117 -219l-426 -1086h-67l-451 1204q-35 92 -77 126t-156 55v43z" />
    <glyph glyph-name="W" unicode="W" horiz-adv-x="2025" 
d="M745 1389h572v-43q-123 -8 -154 -40t-6 -112l291 -918h8l252 787q49 156 21 208q-29 52 -170 75v43h493v-43q-109 -20 -168 -85t-106 -212l-355 -1088h-67l-322 983l-366 -983h-70l-373 1206q-29 92 -71 125q-43 33 -160 54v43h584v-43q-117 -8 -145 -42t-5 -110
l268 -922h9l294 777l-32 106q-33 104 -76 140t-146 51v43z" />
    <glyph glyph-name="X" unicode="X" horiz-adv-x="1402" 
d="M866 1389h508v-43q-110 -16 -176 -66t-176 -203l-236 -327l373 -557q53 -78 94 -104t158 -46v-43h-608v43q90 6 128 28q38 21 36 51t-33 77l-272 424l-244 -349q-143 -207 98 -231v-43h-508v43q110 19 176 67t176 201l265 367l-340 512q-53 78 -99 108t-166 48v43h615
v-43q-225 -10 -129 -160l244 -381l213 309q147 211 -97 232v43z" />
    <glyph glyph-name="Y" unicode="Y" horiz-adv-x="1341" 
d="M893 1389h469v-43q-100 -18 -156 -62t-133 -172l-299 -500v-448q0 -59 47 -86t178 -31v-47h-643v47q131 4 179 31q47 27 47 86v418l-357 616q-41 72 -84 102t-133 46v43h598v-43q-137 -8 -169 -48t14 -108l288 -512l250 430q76 123 60 171t-156 67v43z" />
    <glyph glyph-name="Z" unicode="Z" horiz-adv-x="1277" 
d="M561 1331q-119 0 -203 -82t-182 -280l-45 4l41 416h1018l2 -31l-864 -1301h436q68 1 117 19t96 74t81 113q34 58 95 177l45 -4l-39 -436h-1075l-2 31l864 1300h-385z" />
    <glyph glyph-name="bracketleft" unicode="[" horiz-adv-x="724" 
d="M201 -330v1852h569v-60h-414v-1732h414v-60h-569z" />
    <glyph glyph-name="backslash" unicode="\" horiz-adv-x="909" 
d="M823 -428l-413 956l-424 957h82l413 -957l422 -956h-80z" />
    <glyph glyph-name="bracketright" unicode="]" horiz-adv-x="724" 
d="M-47 -330v60h416v1732h-416v60h571v-1852h-571z" />
    <glyph glyph-name="asciicircum" unicode="^" horiz-adv-x="702" 
d="M51 1092l285 421h47l270 -421h-57l-244 256l-246 -256h-55z" />
    <glyph glyph-name="underscore" unicode="_" horiz-adv-x="901" 
d="M-4 0v74h909v-74h-909z" />
    <glyph glyph-name="grave" unicode="`" horiz-adv-x="487" 
d="M45 1402q0 44 24 68q25 24 59 23q34 0 60 -33t60 -112l110 -256h-47l-182 182q-84 84 -84 128z" />
    <glyph glyph-name="a" unicode="a" 
d="M440 82q113 0 205 129v287q-221 -50 -292 -100t-71 -138q2 -178 158 -178zM342 -12q-122 0 -186 62t-64 153q0 141 116 205t352 117q75 17 85 26v94q0 137 -43 197t-144 59q-101 0 -157 -61q39 -56 39 -102t-29 -78t-78 -32t-77 32t-27 79q0 87 103 149t251 62
q334 0 334 -286v-482q0 -80 33 -106t125 0l8 -35q-106 -49 -185 -49t-109 36t-36 122h-8q-143 -162 -303 -162z" />
    <glyph glyph-name="b" unicode="b" horiz-adv-x="1093" 
d="M563 35q131 0 196 119t65 310t-74 299q-74 107 -199 107t-223 -102v-555q31 -88 94 -133t141 -45zM156 1294q0 53 -34 77t-132 26v43l338 8v-625q133 133 306 133t276 -128q104 -128 104 -336t-120 -358t-301 -150t-323 100l-86 -109h-34l6 181v1138z" />
    <glyph glyph-name="c" unicode="c" horiz-adv-x="927" 
d="M506 -16q-192 0 -310 134t-118 344t134 352t333 142q149 0 237 -68t88 -149q0 -51 -28 -84t-76 -33q-49 0 -79 30t-30 77q0 76 62 111q-63 68 -179 68t-196 -107t-80 -297t85 -306t235 -116t278 149l31 -26q-72 -105 -162 -163t-225 -58z" />
    <glyph glyph-name="d" unicode="d" horiz-adv-x="1103" 
d="M561 70q102 0 197 90v633q-82 115 -208 115t-204 -121q-78 -120 -78 -309q0 -188 78 -298t215 -110zM468 -16q-173 0 -282 135q-108 135 -108 345t130 351t331 141q125 0 219 -55v393q0 53 -34 77t-132 26v43l338 8v-1331q0 -39 32 -55t117 -19v-43l-317 -8v108
q-121 -116 -294 -116z" />
    <glyph glyph-name="e" unicode="e" 
d="M506 907q-213 0 -238 -342l443 6q14 154 -38 245t-167 91zM520 -16q-202 0 -322 135t-120 344t127 351t317 142t290 -129q99 -129 87 -309h-633v-37q0 -178 84 -291t238 -112q86 0 154 45t137 131l30 -27q-68 -113 -158 -178t-231 -65z" />
    <glyph glyph-name="f" unicode="f" horiz-adv-x="651" 
d="M66 0v45q90 2 120 16t29 60v739h-174v39l174 43v57q0 244 119 363q98 98 217 98t179 -45t60 -100t-27 -85q-28 -30 -73 -30t-78 30t-32 95q0 16 14 64q-27 23 -71 23t-79 -36q-57 -57 -57 -264v-176h262v-74h-262v-741q0 -43 41 -57t160 -19v-45h-522z" />
    <glyph glyph-name="g" unicode="g" horiz-adv-x="960" 
d="M477 950q96 0 178 -37q82 156 199 156q53 0 83 -28q30 -27 30 -65t-23 -62q-22 -24 -56 -24t-59 28q-25 27 -24 71q-70 -12 -113 -94q150 -86 150 -254q0 -143 -106 -230t-259 -87q-59 0 -129 16q-111 -45 -110 -100q0 -78 208 -78h105q199 0 295 -60t96 -191
q0 -132 -127 -227q-127 -96 -335 -96t-317 62q-110 62 -110 153q0 72 71 132t183 77v8q-96 20 -136 58t-40 104q0 98 160 178q-182 78 -182 273q0 143 107 230t261 87zM485 371q176 0 177 266q0 125 -54 197t-141 71q-177 0 -177 -267t195 -267zM197 -172q1 -86 77 -140
t222 -55t236 61q89 62 89 159q0 143 -278 143h-170q-176 -45 -176 -168z" />
    <glyph glyph-name="h" unicode="h" horiz-adv-x="1134" 
d="M37 0v45q90 2 121 16t30 60v1173q0 53 -33 77q-34 24 -132 26v43l337 8v-688q170 190 359 190q111 0 175 -72t64 -208v-549q0 -45 30 -59t120 -17v-45h-453v45q78 2 105 16t26 60v481q0 129 -45 185t-143 57q-137 0 -238 -144v-579q0 -45 26 -59t103 -17v-45h-452z" />
    <glyph glyph-name="i" unicode="i" horiz-adv-x="585" 
d="M70 0v45q90 2 120 16t29 60v670q0 49 -32 75t-115 27v43l319 8v-823q0 -45 30 -59t124 -17v-45h-475zM297 1159q-51 0 -83 32t-32 85t32 88t83 35t83 -33t32 -86t-32 -87t-83 -34z" />
    <glyph glyph-name="j" unicode="j" horiz-adv-x="571" 
d="M112 -412q-112 0 -174 41t-62 97t29 87q30 31 76 31q47 0 77 -32t30 -76q0 -45 -27 -80q27 -16 62 -16q100 0 100 190v956q0 57 -33 82t-133 25v43l338 8v-936q0 -135 -18 -211t-74 -131q-79 -78 -191 -78zM300 1159q-52 0 -83 32t-31 85t32 88t83 35t83 -33t32 -86
t-32 -87t-84 -34z" />
    <glyph glyph-name="k" unicode="k" horiz-adv-x="1056" 
d="M360 121q0 -43 23 -59t86 -17v-45h-432v45q90 2 121 16t30 60v1173q0 53 -33 77q-34 24 -132 26v43l337 8v-1006l310 316q119 119 -76 141v41h424v-41q-78 -12 -129 -42t-135 -109l-168 -160l303 -418q55 -74 88 -96t102 -31v-43h-450v43q80 8 96 35t-23 78l-229 323
l-113 -108v-250z" />
    <glyph glyph-name="l" unicode="l" horiz-adv-x="583" 
d="M63 0v45q90 2 120 16t30 60v1173q0 53 -34 77t-132 26v43l338 8v-1327q0 -45 30 -59t120 -17v-45h-472z" />
    <glyph glyph-name="m" unicode="m" horiz-adv-x="1720" 
d="M965 121q0 -45 26 -60q27 -14 117 -16v-45h-440v45q76 2 100 16t25 60v481q0 127 -45 184t-140 58q-123 0 -223 -144v-579q1 -45 21 -59t96 -17v-45h-439v45q90 2 120 16t30 60v670q0 49 -33 75t-117 27v43l318 8v-186q166 193 348 192q87 0 147 -50t78 -142
q166 193 359 192q109 0 170 -72t61 -208v-549q0 -45 30 -59t120 -17v-45h-441v45q76 2 98 16t21 60v481q0 127 -43 184q-43 58 -147 58t-219 -139l2 -29v-555z" />
    <glyph glyph-name="n" unicode="n" horiz-adv-x="1159" 
d="M63 0v45q90 2 120 16t30 60v670q0 49 -33 75t-117 27v43l318 8v-186q166 193 362 192q111 0 176 -72t64 -208v-549q0 -45 30 -59t120 -17v-45h-453v45q78 2 104 16t27 60v485q0 127 -45 182t-143 56q-137 0 -238 -144v-579q0 -45 26 -59t103 -17v-45h-451z" />
    <glyph glyph-name="o" unicode="o" horiz-adv-x="1077" 
d="M549 35q258 0 258 436t-277 436q-258 0 -258 -436q0 -223 74 -329t203 -107zM999 475q1 -213 -131 -352t-332 -139t-329 134t-129 347t133 352t333 139t328 -134t127 -347z" />
    <glyph glyph-name="p" unicode="p" horiz-adv-x="1110" 
d="M582 37q118 0 188 117t70 308t-69 300q-69 108 -191 108t-228 -116v-541q56 -176 230 -176zM31 -393v43q90 2 120 17t29 61v1063q0 49 -33 75t-116 27v43l317 8v-135q152 147 318 147t266 -129q98 -129 98 -341t-116 -356t-308 -144q-129 0 -254 67v-325q0 -44 40 -60
t155 -18v-43h-516z" />
    <glyph glyph-name="q" unicode="q" horiz-adv-x="1087" 
d="M268 479q0 -189 75 -295t196 -106t227 92v555q-68 182 -225 182q-135 0 -204 -120t-69 -308zM578 -393v41q106 4 147 19t41 54v392q-143 -127 -309 -127t-273 130q-106 130 -106 336t123 355q123 150 321 149q156 0 301 -102l86 109h35l-6 -181v-1061q0 -39 31 -55
t118 -18v-41h-509z" />
    <glyph glyph-name="r" unicode="r" horiz-adv-x="819" 
d="M63 0v45q90 2 120 16t30 60v670q0 49 -33 75t-117 27v43l318 8v-184q127 193 272 192q74 0 112 -40t38 -93t-30 -86t-77 -33t-80 29t-32 80q0 16 8 45q-117 -8 -207 -154v-579q0 -43 36 -59t136 -17v-45h-494z" />
    <glyph glyph-name="s" unicode="s" horiz-adv-x="841" 
d="M94 -16v323h43q86 -152 156 -212t160 -60t137 48t47 117q0 70 -53 112t-203 85q-149 43 -215 103t-66 176t90 198t222 82t221 -55l41 55h35v-286h-43q-74 129 -130 183t-134 54t-124 -44q-48 -44 -48 -110q0 -67 54 -107q56 -40 196 -80t208 -101q66 -61 66 -182
t-82 -210t-236 -89q-55 0 -126 19t-115 48l-66 -67h-35z" />
    <glyph glyph-name="t" unicode="t" horiz-adv-x="710" 
d="M428 -20q-219 0 -219 260v620h-184v39l186 43v260l170 74v-340h295v-74h-295v-620q0 -88 30 -128t93 -40q84 0 166 125l35 -25q-107 -194 -277 -194z" />
    <glyph glyph-name="u" unicode="u" horiz-adv-x="1128" 
d="M432 -16q-114 0 -180 74t-66 208v535q0 49 -31 69q-32 20 -120 23v43l323 10v-612q0 -130 45 -186t148 -56q129 0 229 135v574q0 47 -32 69t-119 23v43l323 10v-829q0 -39 32 -55t118 -19v-43h-318v170q-159 -186 -352 -186z" />
    <glyph glyph-name="v" unicode="v" horiz-adv-x="980" 
d="M-18 940h464v-41q-129 -8 -129 -72q0 -23 11 -51l223 -571h8l189 473q33 86 32 125q0 80 -131 96v41h359v-41q-100 -12 -168 -174l-310 -739h-65l-311 766q-33 78 -67 108t-105 39v41z" />
    <glyph glyph-name="w" unicode="w" horiz-adv-x="1476" 
d="M555 940h438v-41q-131 -8 -131 -80q0 -18 10 -45l199 -555h8l156 459q31 92 31 125q0 78 -127 96v41h368v-41q-69 -8 -111 -49t-71 -123l-270 -741h-62l-227 614l-254 -614h-61l-295 766q-31 78 -65 108t-105 39v41h452v-41q-127 -8 -127 -78q0 -16 11 -47l210 -557h9
l196 467l-26 68q-29 78 -61 108t-95 39v41z" />
    <glyph glyph-name="x" unicode="x" horiz-adv-x="1024" 
d="M629 940h383v-41q-78 -14 -132 -51t-124 -121l-176 -217l239 -326q59 -80 97 -106t100 -35v-43h-445v43q92 8 106 38q13 30 -32 87l-162 229l-129 -170q-68 -86 -58 -128t105 -56v-43h-387v43q72 14 127 52t123 120l187 231l-234 314q-57 78 -95 104t-106 35v41h441v-41
q-91 -10 -99 -39t39 -86l148 -217l117 156q63 82 57 126t-90 60v41z" />
    <glyph glyph-name="y" unicode="y" horiz-adv-x="1001" 
d="M-12 940h467v-41q-92 -6 -117 -36t-2 -87l239 -575l193 477q45 113 26 160t-128 61v41h364v-41q-104 -14 -170 -172l-332 -801q-78 -190 -154 -264t-158 -74q-81 0 -124 40t-43 94t29 87t77 33q47 0 77 -32t30 -79q0 -48 -26 -77q59 4 115 72t128 245l13 27l-332 754
q-35 80 -69 110t-103 37v41z" />
    <glyph glyph-name="z" unicode="z" horiz-adv-x="942" 
d="M455 883q-101 1 -159 -53t-138 -203l-43 4l24 309h738l4 -29l-592 -854h223q111 1 174 61t139 210l45 -4l-26 -324h-768l-4 29l594 854h-211z" />
    <glyph glyph-name="braceleft" unicode="{" horiz-adv-x="819" 
d="M362 72q0 55 18 149q17 94 17 125q0 211 -342 240v59q342 31 342 232q0 31 -17 121t-18 143q0 182 123 277t349 104v-41q-168 -12 -226 -88t-59 -228l8 -223q0 -152 -80 -220t-284 -95v-25q199 -24 281 -96t83 -225l-8 -232q0 -157 58 -235t227 -90v-41q-223 4 -348 104
q-124 100 -124 285z" />
    <glyph glyph-name="bar" unicode="|" horiz-adv-x="610" 
d="M268 -428v1913h74v-1913h-74z" />
    <glyph glyph-name="braceright" unicode="}" horiz-adv-x="819" 
d="M457 1141q-1 -53 -17 -143t-16 -121q0 -201 340 -232v-59q-340 -29 -340 -240q0 -31 16 -125t17 -149q0 -184 -124 -284t-347 -105v41q168 12 226 91t58 234l-8 232q0 153 83 225t284 96v25q-207 29 -287 97t-80 218l8 223q0 154 -58 229t-226 87v41q225 -8 348 -104
t123 -277z" />
    <glyph glyph-name="asciitilde" unicode="~" horiz-adv-x="782" 
d="M561 688q57 0 90 121h51q-44 -243 -180 -245q-68 0 -164 49q-96 50 -127 51q-59 0 -90 -119h-51q23 129 66 187t129 59q51 1 147 -51t129 -52z" />
    <glyph glyph-name="uni00A0" unicode="&#xa0;" horiz-adv-x="376" 
 />
    <glyph glyph-name="exclamdown" unicode="&#xa1;" horiz-adv-x="569" 
d="M283 -33q-51 0 -82 38t-31 118t39 386t51 521h47q12 -217 50 -523t38 -394q1 -146 -112 -146zM283 1202q-51 0 -86 35t-35 85t35 86t86 36t87 -36t36 -86t-36 -85t-87 -35z" />
    <glyph glyph-name="cent" unicode="&#xa2;" horiz-adv-x="1062" 
d="M328 509q0 -157 58 -265t167 -146v801q-97 -27 -161 -130t-64 -260zM553 -176v162q-188 10 -300 142t-112 329t118 334t294 161v144h68v-140q151 -2 251 -74t101 -165q0 -51 -28 -87t-77 -36q-48 0 -78 30t-30 88t63 99q-66 94 -202 96v-825h32q160 0 291 154l33 -29
q-139 -205 -356 -221v-162h-68z" />
    <glyph glyph-name="sterling" unicode="&#xa3;" horiz-adv-x="1198" 
d="M909 698v-59h-334q29 -90 29 -158q0 -143 -129 -258q187 -56 258 -70q69 -13 147 -13t132 54t67 189l47 -2q2 -180 -80 -296t-226 -116q-145 0 -400 197q-25 -84 -76 -140q-50 -56 -110 -56t-91 30t-31 88t67 105t186 47q14 0 51 -4q27 63 26 133q0 119 -73 270h-234v59
h205q-59 123 -59 222q0 194 126 304t316 109q145 0 243 -76t97 -176q0 -57 -31 -95t-85 -38t-90 34t-36 98t64 110q-67 90 -179 90t-177 -67t-65 -182t40 -211q9 -26 49 -122h356z" />
    <glyph glyph-name="yen" unicode="&#xa5;" horiz-adv-x="1368" 
d="M188 598v61h342l-270 455q-39 66 -83 96t-132 52v43h584v-48q-143 -8 -161 -47t17 -104l263 -467l210 367q74 119 58 175t-150 83v41h455v-41q-78 -16 -139 -68t-127 -164l-221 -373h342v-61h-379l-21 -35v-125h400v-59h-400v-215q0 -59 48 -86t180 -31v-47h-642v47
q131 4 180 31q48 27 48 86v215h-402v59h402v123l-23 37h-379z" />
    <glyph glyph-name="brokenbar" unicode="&#xa6;" horiz-adv-x="610" 
d="M268 387h74v-815h-74v815zM342 670h-74v815h74v-815z" />
    <glyph glyph-name="section" unicode="&#xa7;" horiz-adv-x="1107" 
d="M299 557q0 -70 61 -112q61 -43 170 -79t123 -42q182 47 183 161q0 124 -222 203q-98 35 -122 47q-193 -49 -193 -178zM166 480q0 101 65 174q66 73 185 108v6q-113 49 -167 106t-54 142q0 141 111 229q112 88 266 88q154 1 256 -67q101 -68 102 -154q0 -55 -30 -88
t-80 -33t-81 33t-30 76q0 76 71 102q-66 76 -193 76t-197 -52t-68 -126q0 -74 70 -122t247 -112q178 -64 248 -128q69 -62 69 -162q-1 -211 -215 -281v-6q99 -39 149 -95t50 -151q0 -141 -98 -237t-274 -95q-176 0 -300 65q-123 65 -123 173q0 59 32 99t88 40t87 -34t31 -83
q0 -76 -78 -116q29 -39 102 -64t176 -25t173 55q70 54 70 129t-65 126t-250 113t-265 126t-80 165z" />
    <glyph glyph-name="dieresis" unicode="&#xa8;" horiz-adv-x="659" 
d="M146 1104q-48 0 -78 33t-31 82q0 49 31 83q30 34 78 34t80 -34q32 -32 32 -82t-32 -83t-80 -33zM513 1104q-48 0 -79 33t-31 82t31 83t79 34t80 -34q32 -32 32 -82t-32 -83t-80 -33z" />
    <glyph glyph-name="copyright" unicode="&#xa9;" horiz-adv-x="1660" 
d="M836 297q-168 0 -271 105q-102 106 -102 288t115 299t276 117q111 0 193 -68l40 64h35v-271h-41q-47 119 -101 173t-144 53q-90 0 -157 -90t-67 -258t74 -255t180 -87q164 0 244 180l43 -23q-100 -227 -317 -227zM830 1407q-300 0 -502 -207t-203 -506q1 -298 203 -506
t502 -208t503 208t203 507q0 300 -203 506t-503 206zM1593 694q0 -324 -220 -543t-543 -219q-322 0 -542 220t-220 542q0 324 220 543t542 219t543 -219q220 -219 220 -543z" />
    <glyph glyph-name="ordfeminine" unicode="&#xaa;" horiz-adv-x="866" 
d="M385 739q74 0 141 88v211q-156 -34 -204 -72t-48 -114q0 -113 111 -113zM318 659q-102 -1 -151 47q-48 48 -48 115q0 109 98 164q69 37 187 65t122 29v76q0 98 -27 137q-28 39 -103 39t-109 -35q29 -38 29 -76t-26 -63q-24 -25 -62 -25t-60 26t-23 61q0 65 78 111t195 46
q252 0 252 -215v-352q0 -57 24 -76q25 -18 92 0l9 -33q-89 -38 -147 -38t-81 26t-28 90h-11q-108 -119 -210 -119z" />
    <glyph glyph-name="guillemotleft" unicode="&#xab;" horiz-adv-x="1024" 
d="M84 458q0 20 39 60l356 340l35 -27l-262 -372l262 -375l-35 -23l-356 338q-39 39 -39 59zM889 61l-357 338q-38 39 -38 59t38 60l357 340l35 -27l-262 -372l262 -375z" />
    <glyph glyph-name="registered" unicode="&#xae;" horiz-adv-x="923" 
d="M418 1071v-133q0 -29 61 -29v-26h-194v26q63 0 63 29v295q0 27 -63 27v26h178q86 0 126 -29t40 -69t-25 -63q-25 -22 -88 -35v-9q53 -4 75 -21t25 -56l9 -56q2 -41 61 -41v-26q-6 -2 -55 -2t-67 16q-17 16 -17 59l-2 45q-1 39 -21 55t-75 17h-31zM418 1098h43q92 0 92 84
q0 76 -94 75h-41v-159zM461 731q150 0 244 97t94 248t-93 247t-244 96t-244 -96t-93 -246t93 -248t243 -98zM842 1077q0 -165 -108 -273t-272 -108q-163 0 -272 109q-108 109 -108 273t108 271q109 107 272 107q164 0 272 -108t108 -271z" />
    <glyph glyph-name="macron" unicode="&#xaf;" horiz-adv-x="657" 
d="M45 1147v98h569v-98h-569z" />
    <glyph glyph-name="degree" unicode="&#xb0;" horiz-adv-x="796" 
d="M402 862q81 0 128 64q48 64 48 186q0 124 -50 188t-133 64q-82 0 -128 -64t-46 -186q0 -124 50 -188t131 -64zM401 1421q133 0 219 -87t85 -217q1 -130 -87 -221t-222 -91t-219 88t-85 218t88 220t221 90z" />
    <glyph glyph-name="plusminus" unicode="&#xb1;" horiz-adv-x="1040" 
d="M117 100v70h807v-70h-807zM117 713v69h366v365h78v-365h363v-69h-363v-371h-78v371h-366z" />
    <glyph glyph-name="acute" unicode="&#xb4;" horiz-adv-x="487" 
d="M335 1493q37 0 59 -24q22 -23 22 -67t-84 -128l-182 -182h-48l111 256q33 80 59 112t63 33z" />
    <glyph glyph-name="paragraph" unicode="&#xb6;" horiz-adv-x="1345" 
d="M707 -209v574q-264 6 -432 131q-167 125 -167 338t160 342t449 129h549v-39q-138 -12 -180 -43t-42 -113v-1319h-75v1456h-185v-1456h-77z" />
    <glyph glyph-name="periodcentered" unicode="&#xb7;" horiz-adv-x="458" 
d="M230 541q-50 0 -86 36t-36 86t36 85q36 34 86 34t86 -34t36 -85q0 -50 -36 -86t-86 -36z" />
    <glyph glyph-name="cedilla" unicode="&#xb8;" horiz-adv-x="577" 
d="M216 -514q-108 0 -198 68l29 40q74 -53 156 -53q119 0 119 113q0 51 -42 81q-69 49 -182 19l-18 25l250 233h65l-174 -164l4 -6q113 -2 169 -51t56 -125t-62 -128q-64 -52 -172 -52z" />
    <glyph glyph-name="ordmasculine" unicode="&#xba;" horiz-adv-x="886" 
d="M451 702q92 0 137 76t45 242q0 311 -195 311q-182 -1 -182 -315t195 -314zM441 659q-155 -1 -251 97t-96 257t100 261t254 102t250 -99t96 -257t-98 -260q-100 -102 -255 -101z" />
    <glyph glyph-name="guillemotright" unicode="&#xbb;" horiz-adv-x="1024" 
d="M137 61l-37 25l262 373l-262 375l37 24l355 -340q40 -39 40 -59t-40 -60zM942 459q0 -20 -41 -60l-354 -338l-37 25l262 373l-262 375l37 24l354 -340q41 -39 41 -59z" />
    <glyph glyph-name="questiondown" unicode="&#xbf;" horiz-adv-x="956" 
d="M909 260q-1 -127 -119 -211t-308 -84q-190 1 -304 105q-115 104 -115 256q0 305 461 422v282h70l2 -319q-192 -49 -262 -132t-70 -247q0 -311 254 -312q150 0 225 115q-94 37 -94 131q0 55 34 94t92 39t96 -41t38 -98zM554 1200q-50 0 -86 36t-36 86t36 85t86 35t86 -35
t36 -85t-36 -86t-86 -36z" />
    <glyph glyph-name="Agrave" unicode="&#xc0;" horiz-adv-x="1353" 
d="M436 1861q0 43 24 67t58 24t62 -33q27 -33 59 -113l111 -256h-48l-182 183q-84 84 -84 128zM395 586h434l-200 579h-8zM418 0h-461v43q100 25 157 90q56 66 119 221l426 1067h70l434 -1188q37 -100 81 -138t157 -52v-43h-615v43q138 8 172 43t3 123l-111 319h-477
l-72 -186q-63 -168 -41 -222t158 -77v-43z" />
    <glyph glyph-name="Aacute" unicode="&#xc1;" horiz-adv-x="1353" 
d="M862 1952q36 0 58 -24q23 -24 22 -58q0 -53 -84 -137l-182 -183h-47l110 256q33 80 60 113t63 33zM395 586h434l-200 579h-8zM418 0h-461v43q100 25 157 90q56 66 119 221l426 1067h70l434 -1188q37 -100 81 -138t157 -52v-43h-615v43q138 8 172 43t3 123l-111 319h-477
l-72 -186q-63 -168 -41 -222t158 -77v-43z" />
    <glyph glyph-name="Acircumflex" unicode="&#xc2;" horiz-adv-x="1353" 
d="M414 1550l256 375h43l239 -375h-47l-221 201l-221 -201h-49zM395 586h434l-200 579h-8zM418 0h-461v43q100 25 157 90q56 66 119 221l426 1067h70l434 -1188q37 -100 81 -138t157 -52v-43h-615v43q138 8 172 43t3 123l-111 319h-477l-72 -186q-63 -168 -41 -222t158 -77
v-43z" />
    <glyph glyph-name="Atilde" unicode="&#xc3;" horiz-adv-x="1353" 
d="M999 1815q-45 -246 -179 -246q-68 0 -170 48t-132 48q-63 0 -94 -119h-47q23 129 65 188q43 58 129 58q51 0 153 -49t134 -49q61 0 94 121h47zM395 586h434l-200 579h-8zM418 0h-461v43q100 25 157 90q56 66 119 221l426 1067h70l434 -1188q37 -100 81 -138t157 -52v-43
h-615v43q138 8 172 43t3 123l-111 319h-477l-72 -186q-63 -168 -41 -222t158 -77v-43z" />
    <glyph glyph-name="Adieresis" unicode="&#xc4;" horiz-adv-x="1353" 
d="M507 1563q-48 1 -79 33t-31 81t31 83t79 34t80 -33q31 -33 31 -83t-31 -83q-32 -32 -80 -32zM985 1678q0 -50 -32 -82t-80 -33q-49 1 -79 33t-30 81t31 83t79 34t79 -33q32 -33 32 -83zM395 586h434l-200 579h-8zM418 0h-461v43q100 25 157 90q56 66 119 221l426 1067h70
l434 -1188q37 -100 81 -138t157 -52v-43h-615v43q138 8 172 43t3 123l-111 319h-477l-72 -186q-63 -168 -41 -222t158 -77v-43z" />
    <glyph glyph-name="Aring" unicode="&#xc5;" horiz-adv-x="1353" 
d="M692 1432q57 0 89 44t32 119q0 166 -121 166t-121 -166q0 -75 32 -119t89 -44zM829 586l-200 579h-8l-226 -579h434zM418 0h-461v41q100 25 157 91q56 67 119 222l416 1039q-76 14 -122 70t-46 137q1 82 59 142t151 60t153 -60t59 -142q0 -82 -45 -136q-45 -55 -119 -69
l424 -1162q37 -100 81 -138t157 -52v-43h-615v47q137 6 171 40t4 122l-111 319h-477l-72 -186q-63 -168 -41 -223t158 -78v-41z" />
    <glyph glyph-name="AE" unicode="&#xc6;" horiz-adv-x="2033" 
d="M965 610v678h-19l-428 -678h447zM254 137q0 -70 125 -94v-43h-459v43q102 25 184 99t170 212l533 830q27 41 27 71q0 68 -203 93v41h1239l6 -410l-45 -2q-70 199 -148 275t-243 77h-281v-579h125q127 0 187 49t100 207h41v-570h-41q-39 158 -98 206t-189 48h-125v-631
h281q195 0 290 88t166 299l46 -2l-11 -444h-1188v47q127 4 175 31q47 27 47 86v389h-484l-147 -238q-80 -121 -80 -178z" />
    <glyph glyph-name="Ccedilla" unicode="&#xc7;" horiz-adv-x="1409" 
d="M932 -334q0 -76 -62 -128t-172 -52q-108 0 -198 68l28 40q74 -53 156 -53q119 0 119 113q0 51 -42 81q-43 29 -95 29t-86 -10l-19 25l199 186q-295 4 -480 200t-186 513q0 317 206 530t507 213q190 0 348 -86l72 90h43v-456h-43q-147 397 -443 397q-198 0 -332 -174
t-135 -506q0 -160 45 -285t120 -197q152 -146 329 -147q178 -1 297 93t186 241l49 -26q-69 -158 -197 -270t-317 -128l-127 -119l5 -6q113 -2 169 -51t56 -125z" />
    <glyph glyph-name="Egrave" unicode="&#xc8;" horiz-adv-x="1368" 
d="M487 1861q0 43 24 67q25 24 59 24t61 -33t59 -113l111 -256h-47l-183 183q-84 84 -84 128zM78 0v47q129 4 176 31t47 86v1061q0 59 -47 87t-176 31v46h1126l6 -410l-45 -2q-71 199 -147 275t-242 77h-280v-579h125q127 0 187 49t99 207h41v-570h-41q-39 158 -98 206
t-188 48h-125v-631h280q195 0 290 88t167 299l45 -2l-10 -444h-1190z" />
    <glyph glyph-name="Eacute" unicode="&#xc9;" horiz-adv-x="1368" 
d="M78 0v47q129 4 176 31t47 86v1061q0 59 -47 87t-176 31v46h1126l6 -410l-45 -2q-71 199 -147 275t-242 77h-280v-579h125q127 0 187 49t99 207h41v-570h-41q-39 158 -98 206t-188 48h-125v-631h280q195 0 290 88t167 299l45 -2l-10 -444h-1190zM882 1952q36 0 58 -24
t23 -68q0 -44 -84 -127l-183 -183h-47l111 256q33 80 59 113q27 33 63 33z" />
    <glyph glyph-name="Ecircumflex" unicode="&#xca;" horiz-adv-x="1368" 
d="M78 0v47q129 4 176 31t47 86v1061q0 59 -47 87t-176 31v46h1126l6 -410l-45 -2q-71 199 -147 275t-242 77h-280v-579h125q127 0 187 49t99 207h41v-570h-41q-39 158 -98 206t-188 48h-125v-631h280q195 0 290 88t167 299l45 -2l-10 -444h-1190zM412 1550l256 375h43
l239 -375h-47l-221 201l-221 -201h-49z" />
    <glyph glyph-name="Edieresis" unicode="&#xcb;" horiz-adv-x="1368" 
d="M78 0v47q129 4 176 31t47 86v1061q0 59 -47 87t-176 31v46h1126l6 -410l-45 -2q-71 199 -147 275t-242 77h-280v-579h125q127 0 187 49t99 207h41v-570h-41q-39 158 -98 206t-188 48h-125v-631h280q195 0 290 88t167 299l45 -2l-10 -444h-1190zM635 1678q0 -50 -32 -82
t-80 -33q-48 1 -79 33t-30 81q0 49 30 83q31 34 79 34t80 -33t32 -83zM890 1563q-48 1 -79 33t-31 81t31 83t79 34t80 -33t32 -83t-32 -83q-32 -32 -80 -32z" />
    <glyph glyph-name="Igrave" unicode="&#xcc;" horiz-adv-x="833" 
d="M205 1861q-1 43 23 67t59 24t61 -33t60 -113l110 -256h-47l-182 183q-84 84 -84 128zM94 0v47q133 4 179 31t46 86v1061q0 59 -46 87t-179 31v46h645v-46q-133 -3 -179 -31t-46 -87v-1061q0 -59 46 -86t179 -31v-47h-645z" />
    <glyph glyph-name="Iacute" unicode="&#xcd;" horiz-adv-x="833" 
d="M589 1952q37 0 59 -24t22 -68t-84 -127l-183 -183h-47l111 256q33 80 59 113q27 33 63 33zM94 0v47q133 4 179 31t46 86v1061q0 59 -46 87t-179 31v46h645v-46q-133 -3 -179 -31t-46 -87v-1061q0 -59 46 -86t179 -31v-47h-645z" />
    <glyph glyph-name="Icircumflex" unicode="&#xce;" horiz-adv-x="833" 
d="M147 1550l256 375h43l240 -375h-47l-221 201l-221 -201h-50zM94 0v47q133 4 179 31t46 86v1061q0 59 -46 87t-179 31v46h645v-46q-133 -3 -179 -31t-46 -87v-1061q0 -59 46 -86t179 -31v-47h-645z" />
    <glyph glyph-name="Idieresis" unicode="&#xcf;" horiz-adv-x="833" 
d="M239 1794q47 0 79 -33t32 -83t-32 -82t-79 -33q-48 1 -79 33t-31 81t31 83t79 34zM717 1678q0 -50 -32 -82t-80 -33q-48 1 -79 33t-30 81q0 49 30 83q31 34 79 34t80 -33t32 -83zM94 0v47q133 4 179 31t46 86v1061q0 59 -46 87t-179 31v46h645v-46q-133 -3 -179 -31
t-46 -87v-1061q0 -59 46 -86t179 -31v-47h-645z" />
    <glyph glyph-name="Eth" unicode="&#xd0;" horiz-adv-x="1519" 
d="M496 57h151q317 1 436 149t119 494t-135 488q-135 143 -422 143h-149v-573h268v-70h-268v-631zM78 0v47q129 4 176 31t47 86v524h-207v70h207v467q0 59 -47 87t-176 31v46h590q366 -1 562 -185t196 -481t-176 -503q-87 -100 -232 -160t-332 -60h-608z" />
    <glyph glyph-name="Ntilde" unicode="&#xd1;" horiz-adv-x="1572" 
d="M1155 1815q-45 -246 -180 -246q-67 0 -169 48t-132 48q-63 0 -94 -119h-48q23 130 66 188t129 58q51 0 153 -49t134 -49q61 0 94 121h47zM375 1178v-846q0 -152 45 -209t192 -80v-43h-534v43q139 25 185 83t46 206v825q0 180 -231 186v46h391l797 -1086h2v756
q0 145 -52 205t-200 82v43h534v-43q-135 -25 -176 -81t-41 -206v-1094h-61l-895 1213h-2z" />
    <glyph glyph-name="Ograve" unicode="&#xd2;" horiz-adv-x="1513" 
d="M522 1861q0 43 24 67t58 24t62 -33q27 -33 59 -113l111 -256h-48l-182 183q-84 84 -84 128zM766 23q430 0 430 671q0 352 -121 512t-327 160q-428 0 -428 -672t446 -671zM1419 698q1 -322 -195 -528t-470 -205q-274 0 -468 201q-192 202 -192 524t196 527t472 205
t466 -202q191 -200 191 -522z" />
    <glyph glyph-name="Oacute" unicode="&#xd3;" horiz-adv-x="1513" 
d="M766 23q430 0 430 671q0 352 -121 512t-327 160q-428 0 -428 -672t446 -671zM1419 698q1 -322 -195 -528t-470 -205q-274 0 -468 201q-192 202 -192 524t196 527t472 205t466 -202q191 -200 191 -522zM923 1952q37 0 59 -24t22 -68t-84 -127l-183 -183h-47l111 256
q33 80 59 113q27 33 63 33z" />
    <glyph glyph-name="Ocircumflex" unicode="&#xd4;" horiz-adv-x="1513" 
d="M766 23q430 0 430 671q0 352 -121 512t-327 160q-428 0 -428 -672t446 -671zM1419 698q1 -322 -195 -528t-470 -205q-274 0 -468 201q-192 202 -192 524t196 527t472 205t466 -202q191 -200 191 -522zM487 1550l256 375h43l240 -375h-47l-221 201l-221 -201h-50z" />
    <glyph glyph-name="Otilde" unicode="&#xd5;" horiz-adv-x="1513" 
d="M1106 1815q-44 -246 -180 -246q-68 0 -169 48t-132 48q-63 0 -95 -119h-47q23 130 66 188t129 58q51 0 152 -49t135 -49q61 0 94 121h47zM766 23q430 0 430 671q0 352 -121 512t-327 160q-428 0 -428 -672t446 -671zM1419 698q1 -322 -195 -528t-470 -205
q-274 0 -468 201q-192 202 -192 524t196 527t472 205t466 -202q191 -200 191 -522z" />
    <glyph glyph-name="Odieresis" unicode="&#xd6;" horiz-adv-x="1513" 
d="M766 23q430 0 430 671q0 352 -121 512t-327 160q-428 0 -428 -672t446 -671zM1419 698q1 -322 -195 -528t-470 -205q-274 0 -468 201q-192 202 -192 524t196 527t472 205t466 -202q191 -200 191 -522zM684 1678q0 -50 -32 -82t-80 -33q-48 1 -78 33t-31 81q0 49 31 83
q30 34 78 34t80 -33t32 -83zM1051 1678q0 -50 -32 -82t-80 -33q-48 1 -79 33t-31 81t31 83t79 34t80 -33t32 -83z" />
    <glyph glyph-name="multiply" unicode="&#xd7;" horiz-adv-x="1107" 
d="M893 1036l51 -51l-340 -340l340 -338l-51 -51l-340 338l-338 -338l-51 51l338 338l-338 340l51 51l338 -340z" />
    <glyph glyph-name="Oslash" unicode="&#xd8;" horiz-adv-x="1513" 
d="M766 23q430 0 430 671q0 254 -68 412l-710 -893q112 -190 348 -190zM748 1366q-428 0 -429 -672q0 -260 66 -415l711 895q-115 192 -348 192zM773 -35q-255 0 -433 150l-150 -187h-84l185 232q-197 208 -197 530t196 527t468 204q240 0 416 -151l149 190h86l-186 -235
q197 -203 197 -526t-196 -529t-451 -205z" />
    <glyph glyph-name="Ugrave" unicode="&#xd9;" horiz-adv-x="1546" 
d="M580 1861q0 43 24 67t58 24t61 -33t59 -113l111 -256h-47l-182 183q-84 84 -84 128zM1307 410q0 -193 -135 -319t-380 -126t-385 112t-141 302v846q0 59 -47 87t-174 31v46h623v-46q-133 -5 -170 -29t-37 -89v-803q1 -197 113 -287t284 -90t275 98q109 113 108 310v606
q0 145 -52 205t-202 82v43h537v-43q-137 -25 -177 -81t-40 -206v-649z" />
    <glyph glyph-name="Uacute" unicode="&#xda;" horiz-adv-x="1546" 
d="M1307 410q0 -193 -135 -319t-380 -126t-385 112t-141 302v846q0 59 -47 87t-174 31v46h623v-46q-133 -5 -170 -29t-37 -89v-803q1 -197 113 -287t284 -90t275 98q109 113 108 310v606q0 145 -52 205t-202 82v43h537v-43q-137 -25 -177 -81t-40 -206v-649zM1003 1952
q37 0 59 -24t21 -58q0 -53 -84 -137l-182 -183h-47l111 256q33 80 59 113q27 33 63 33z" />
    <glyph glyph-name="Ucircumflex" unicode="&#xdb;" horiz-adv-x="1546" 
d="M1307 410q0 -193 -135 -319t-380 -126t-385 112t-141 302v846q0 59 -47 87t-174 31v46h623v-46q-133 -5 -170 -29t-37 -89v-803q1 -197 113 -287t284 -90t275 98q109 113 108 310v606q0 145 -52 205t-202 82v43h537v-43q-137 -25 -177 -81t-40 -206v-649zM575 1550
l256 375h43l240 -375h-47l-221 201l-221 -201h-50z" />
    <glyph glyph-name="Udieresis" unicode="&#xdc;" horiz-adv-x="1546" 
d="M1307 410q0 -193 -135 -319t-380 -126t-385 112t-141 302v846q0 59 -47 87t-174 31v46h623v-46q-133 -5 -170 -29t-37 -89v-803q1 -197 113 -287t284 -90t275 98q109 113 108 310v606q0 145 -52 205t-202 82v43h537v-43q-137 -25 -177 -81t-40 -206v-649zM748 1678
q0 -50 -32 -82t-80 -33q-48 1 -79 33t-31 81t31 83t79 34t80 -33t32 -83zM1003 1794q47 0 79 -33t32 -83t-32 -82t-79 -33q-48 1 -79 33t-31 81t31 83t79 34z" />
    <glyph glyph-name="Yacute" unicode="&#xdd;" horiz-adv-x="1341" 
d="M921 1952q37 0 59 -24t21 -58q0 -53 -83 -137l-183 -183h-47l111 256q33 80 59 113q27 33 63 33zM893 1389h469v-43q-100 -18 -156 -62t-133 -172l-299 -500v-448q0 -59 47 -86t178 -31v-47h-643v47q131 4 179 31q47 27 47 86v418l-357 616q-41 72 -84 102t-133 46v43
h598v-43q-137 -8 -169 -48t14 -108l288 -512l250 430q76 123 60 171t-156 67v43z" />
    <glyph glyph-name="Thorn" unicode="&#xde;" horiz-adv-x="1280" 
d="M496 385h147q199 0 271 83t73 243q0 159 -75 243t-263 84h-153v-653zM78 0v47q129 4 176 31t47 86v1063q0 59 -47 86t-176 30v46h653v-48q-137 -3 -186 -29t-49 -87v-129h151q555 0 555 -371q0 -166 -136 -282t-433 -115h-137v-164q0 -61 49 -87t186 -30v-47h-653z" />
    <glyph glyph-name="germandbls" unicode="&#xdf;" horiz-adv-x="1146" 
d="M814 -20q-128 0 -212 54t-84 140q0 47 28 78t73 31t71 -29t25 -77q0 -48 -62 -85q55 -61 147 -61t133 46q42 46 42 117q0 72 -46 122t-154 113q-107 63 -155 118t-48 142t114 202q70 70 95 126q26 55 26 159t-55 170q-56 66 -156 66t-154 -75q-54 -74 -55 -252v-1085
h-321v45q90 2 120 16t29 60v739h-174v39l174 43v64q0 214 120 334t286 120t263 -79t97 -201q0 -76 -49 -138q-50 -62 -146 -138q-96 -74 -96 -132t42 -97q42 -38 153 -106t167 -130q56 -61 56 -169t-83 -199t-211 -91z" />
    <glyph glyph-name="agrave" unicode="&#xe0;" 
d="M231 1402q0 44 24 68q25 24 59 23q34 0 61 -33t59 -112l111 -256h-47l-183 182q-84 84 -84 128zM440 82q113 0 205 129v287q-221 -50 -292 -100t-71 -138q2 -178 158 -178zM342 -12q-122 0 -186 62t-64 153q0 141 116 205t352 117q75 17 85 26v94q0 137 -43 197t-144 59
q-101 0 -157 -61q39 -56 39 -102t-29 -78t-78 -32t-77 32t-27 79q0 87 103 149t251 62q334 0 334 -286v-482q0 -80 33 -106t125 0l8 -35q-106 -49 -185 -49t-109 36t-36 122h-8q-143 -162 -303 -162z" />
    <glyph glyph-name="aacute" unicode="&#xe1;" 
d="M658 1493q36 0 59 -24t22 -58q0 -53 -84 -137l-182 -182h-47l111 256q33 80 59 112t62 33zM440 82q113 0 205 129v287q-221 -50 -292 -100t-71 -138q2 -178 158 -178zM342 -12q-122 0 -186 62t-64 153q0 141 116 205t352 117q75 17 85 26v94q0 137 -43 197t-144 59
q-101 0 -157 -61q39 -56 39 -102t-29 -78t-78 -32t-77 32t-27 79q0 87 103 149t251 62q334 0 334 -286v-482q0 -80 33 -106t125 0l8 -35q-106 -49 -185 -49t-109 36t-36 122h-8q-143 -162 -303 -162z" />
    <glyph glyph-name="acircumflex" unicode="&#xe2;" 
d="M223 1092l256 374h43l240 -374h-47l-221 200l-222 -200h-49zM440 82q113 0 205 129v287q-221 -50 -292 -100t-71 -138q2 -178 158 -178zM342 -12q-122 0 -186 62t-64 153q0 141 116 205t352 117q75 17 85 26v94q0 137 -43 197t-144 59q-101 0 -157 -61q39 -56 39 -102
t-29 -78t-78 -32t-77 32t-27 79q0 87 103 149t251 62q334 0 334 -286v-482q0 -80 33 -106t125 0l8 -35q-106 -49 -185 -49t-109 36t-36 122h-8q-143 -162 -303 -162z" />
    <glyph glyph-name="atilde" unicode="&#xe3;" 
d="M813 1356q-45 -246 -181 -246q-68 0 -168 48q-101 48 -132 48q-63 0 -94 -119h-48q23 129 66 187t129 59q51 0 153 -49t134 -49q61 0 94 121h47zM440 82q113 0 205 129v287q-221 -50 -292 -100t-71 -138q2 -178 158 -178zM342 -12q-122 0 -186 62t-64 153q0 141 116 205
t352 117q75 17 85 26v94q0 137 -43 197t-144 59q-101 0 -157 -61q39 -56 39 -102t-29 -78t-78 -32t-77 32t-27 79q0 87 103 149t251 62q334 0 334 -286v-482q0 -80 33 -106t125 0l8 -35q-106 -49 -185 -49t-109 36t-36 122h-8q-143 -162 -303 -162z" />
    <glyph glyph-name="adieresis" unicode="&#xe4;" 
d="M312 1104q-48 0 -79 33t-30 82q0 49 30 83q31 34 79 34t80 -34q32 -32 32 -82t-32 -83t-80 -33zM679 1104q-48 0 -79 33t-31 82t31 83t79 34t80 -34q32 -32 32 -82t-32 -83t-80 -33zM440 82q113 0 205 129v287q-221 -50 -292 -100t-71 -138q2 -178 158 -178zM342 -12
q-122 0 -186 62t-64 153q0 141 116 205t352 117q75 17 85 26v94q0 137 -43 197t-144 59q-101 0 -157 -61q39 -56 39 -102t-29 -78t-78 -32t-77 32t-27 79q0 87 103 149t251 62q334 0 334 -286v-482q0 -80 33 -106t125 0l8 -35q-106 -49 -185 -49t-109 36t-36 122h-8
q-143 -162 -303 -162z" />
    <glyph glyph-name="aring" unicode="&#xe5;" 
d="M498 1149q55 0 88 46t32 118q0 164 -120 164t-121 -164q0 -72 33 -118t88 -46zM499 1104q-97 0 -156 60q-58 60 -58 148t58 149q59 61 155 61t154 -60t58 -149t-56 -149q-58 -60 -155 -60zM440 82q113 0 205 129v287q-221 -50 -292 -100t-71 -138q2 -178 158 -178z
M342 -12q-122 0 -186 62t-64 153q0 141 116 205t352 117q75 17 85 26v94q0 137 -43 197t-144 59q-101 0 -157 -61q39 -56 39 -102t-29 -78t-78 -32t-77 32t-27 79q0 87 103 149t251 62q334 0 334 -286v-482q0 -80 33 -106t125 0l8 -35q-106 -49 -185 -49t-109 36t-36 122h-8
q-143 -162 -303 -162z" />
    <glyph glyph-name="ae" unicode="&#xe6;" horiz-adv-x="1546" 
d="M430 82q70 0 134 41q65 41 98 98v277q-224 -48 -302 -100t-77 -152q1 -74 39 -119t108 -45zM1080 907q-219 0 -238 -342l436 6q14 154 -38 245t-160 91zM1092 956q188 0 287 -129t87 -309h-626v-37q0 -178 82 -291t233 -112q86 0 154 45t137 131l31 -27
q-68 -113 -158 -179t-232 -64q-268 0 -364 219h-16q-61 -91 -159 -153t-213 -62t-179 62t-64 153q0 141 117 205t361 117q79 17 92 26v94q0 256 -201 256q-104 0 -160 -61q39 -56 39 -102t-29 -78t-78 -32t-77 32t-27 79q0 87 103 149t251 62q227 0 297 -137
q124 143 312 143z" />
    <glyph glyph-name="ccedilla" unicode="&#xe7;" horiz-adv-x="927" 
d="M78 462q0 210 134 352t333 142q149 0 237 -68t88 -149q0 -51 -28 -84t-76 -33q-49 0 -79 30t-30 77q0 76 62 111q-63 68 -179 68t-196 -107t-80 -297t85 -306t235 -116t278 149l31 -26q-117 -168 -262 -205l-160 -152l4 -6q113 -2 169 -51t56 -125t-62 -128t-172 -52
q-108 0 -198 68l29 40q74 -53 156 -53q119 0 118 113q0 51 -42 81q-69 49 -181 19l-18 25l221 207l-45 -2q-192 0 -310 134t-118 344z" />
    <glyph glyph-name="egrave" unicode="&#xe8;" 
d="M254 1402q0 44 24 68t58 23q34 0 62 -33q26 -33 59 -112l110 -256h-47l-182 182q-84 84 -84 128zM506 907q-213 0 -238 -342l443 6q14 154 -38 245t-167 91zM520 -16q-202 0 -322 135t-120 344t127 351t317 142t290 -129q99 -129 87 -309h-633v-37q0 -178 84 -291
t238 -112q86 0 154 45t137 131l30 -27q-68 -113 -158 -178t-231 -65z" />
    <glyph glyph-name="eacute" unicode="&#xe9;" 
d="M686 1493q36 0 58 -24q22 -23 22 -67t-84 -128l-182 -182h-47l110 256q33 80 60 112t63 33zM506 907q-213 0 -238 -342l443 6q14 154 -38 245t-167 91zM520 -16q-202 0 -322 135t-120 344t127 351t317 142t290 -129q99 -129 87 -309h-633v-37q0 -178 84 -291t238 -112
q86 0 154 45t137 131l30 -27q-68 -113 -158 -178t-231 -65z" />
    <glyph glyph-name="ecircumflex" unicode="&#xea;" 
d="M242 1092l256 374h43l239 -374h-47l-221 200l-221 -200h-49zM506 907q-213 0 -238 -342l443 6q14 154 -38 245t-167 91zM520 -16q-202 0 -322 135t-120 344t127 351t317 142t290 -129q99 -129 87 -309h-633v-37q0 -178 84 -291t238 -112q86 0 154 45t137 131l30 -27
q-68 -113 -158 -178t-231 -65z" />
    <glyph glyph-name="edieresis" unicode="&#xeb;" 
d="M695 1104q-48 0 -79 33t-30 82q0 49 30 83q31 34 79 34t80 -34q32 -32 32 -82t-32 -83t-80 -33zM329 1104q-48 0 -79 33t-31 82t31 83t79 34t80 -34q31 -32 31 -82t-32 -83t-79 -33zM506 907q-213 0 -238 -342l443 6q14 154 -38 245t-167 91zM520 -16q-202 0 -322 135
t-120 344t127 351t317 142t290 -129q99 -129 87 -309h-633v-37q0 -178 84 -291t238 -112q86 0 154 45t137 131l30 -27q-68 -113 -158 -178t-231 -65z" />
    <glyph glyph-name="igrave" unicode="&#xec;" horiz-adv-x="585" 
d="M27 1402q-1 44 23 68t58 23q34 0 62 -33q27 -33 59 -112l111 -256h-47l-182 182q-84 84 -84 128zM72 0v45q90 2 118 16t29 60v670q0 49 -32 75t-115 27v43l319 8v-823q0 -45 28 -59t116 -17v-45h-463z" />
    <glyph glyph-name="iacute" unicode="&#xed;" horiz-adv-x="585" 
d="M72 0v45q90 2 118 16t29 60v670q0 49 -32 75t-115 27v43l319 8v-823q0 -45 28 -59t116 -17v-45h-463zM442 1493q36 0 58 -24q23 -24 22 -58q0 -53 -84 -137l-182 -182h-47l110 256q33 80 60 112t63 33z" />
    <glyph glyph-name="icircumflex" unicode="&#xee;" horiz-adv-x="585" 
d="M72 0v45q90 2 118 16t29 60v670q0 49 -32 75t-115 27v43l319 8v-823q0 -45 28 -59t116 -17v-45h-463zM4 1092l256 374h43l240 -374h-47l-222 200l-221 -200h-49z" />
    <glyph glyph-name="idieresis" unicode="&#xef;" horiz-adv-x="585" 
d="M72 0v45q90 2 118 16t29 60v670q0 49 -32 75t-115 27v43l319 8v-823q0 -45 28 -59t116 -17v-45h-463zM97 1104q-48 0 -79 33t-30 82q0 49 30 83q31 34 79 34t80 -34q32 -32 32 -82t-32 -83t-80 -33zM464 1104q-48 0 -79 33t-31 82t31 83t79 34t80 -34q32 -32 32 -82
t-32 -83t-80 -33z" />
    <glyph glyph-name="eth" unicode="&#xf0;" horiz-adv-x="1075" 
d="M546 35q120 0 186 121q66 122 65 328q1 206 -63 315t-181 109t-196 -114q-79 -112 -79 -314t74 -324q74 -121 194 -121zM520 -16q-178 0 -307 137t-129 340t134 349t302 146t254 -118l10 6q-35 201 -178 356l-237 -115l-25 56l217 104q-109 98 -258 166l19 41
q186 -61 331 -164l211 101l25 -54l-184 -88q287 -240 286 -610q0 -305 -125 -479t-346 -174z" />
    <glyph glyph-name="ntilde" unicode="&#xf1;" horiz-adv-x="1159" 
d="M891 1356q-45 -246 -181 -246q-68 0 -168 48q-101 48 -132 48q-63 0 -95 -119h-47q23 129 66 187t129 59q51 0 152 -49t135 -49q61 0 94 121h47zM63 0v45q90 2 120 16t30 60v670q0 49 -33 75t-117 27v43l318 8v-186q166 193 362 192q111 0 176 -72t64 -208v-549
q0 -45 30 -59t120 -17v-45h-453v45q78 2 104 16t27 60v485q0 127 -45 182t-143 56q-137 0 -238 -144v-579q0 -45 26 -59t103 -17v-45h-451z" />
    <glyph glyph-name="ograve" unicode="&#xf2;" horiz-adv-x="1077" 
d="M276 1402q0 44 24 68t58 23q34 0 62 -33q27 -33 59 -112l111 -256h-47l-183 182q-84 84 -84 128zM549 35q258 0 258 436t-277 436q-258 0 -258 -436q0 -223 74 -329t203 -107zM999 475q1 -213 -131 -352t-332 -139t-329 134t-129 347t133 352t333 139t328 -134t127 -347z
" />
    <glyph glyph-name="oacute" unicode="&#xf3;" horiz-adv-x="1077" 
d="M549 35q258 0 258 436t-277 436q-258 0 -258 -436q0 -223 74 -329t203 -107zM999 475q1 -213 -131 -352t-332 -139t-329 134t-129 347t133 352t333 139t328 -134t127 -347zM714 1493q36 0 58 -24q22 -23 23 -67q0 -44 -84 -128l-183 -182h-47l111 256q34 80 60 112t62 33
z" />
    <glyph glyph-name="ocircumflex" unicode="&#xf4;" horiz-adv-x="1077" 
d="M549 35q258 0 258 436t-277 436q-258 0 -258 -436q0 -223 74 -329t203 -107zM999 475q1 -213 -131 -352t-332 -139t-329 134t-129 347t133 352t333 139t328 -134t127 -347zM274 1092l256 374h43l240 -374h-47l-221 200l-221 -200h-50z" />
    <glyph glyph-name="otilde" unicode="&#xf5;" horiz-adv-x="1077" 
d="M850 1356q-44 -246 -180 -246q-68 0 -169 48t-132 48q-63 0 -95 -119h-47q23 129 66 187t129 59q51 0 152 -49t135 -49q61 0 94 121h47zM549 35q258 0 258 436t-277 436q-258 0 -258 -436q0 -223 74 -329t203 -107zM999 475q1 -213 -131 -352t-332 -139t-329 134
t-129 347t133 352t333 139t328 -134t127 -347z" />
    <glyph glyph-name="odieresis" unicode="&#xf6;" horiz-adv-x="1077" 
d="M549 35q258 0 258 436t-277 436q-258 0 -258 -436q0 -223 74 -329t203 -107zM999 475q1 -213 -131 -352t-332 -139t-329 134t-129 347t133 352t333 139t328 -134t127 -347zM353 1104q-48 0 -79 33t-30 82q0 49 30 83q31 34 79 34t80 -34q32 -32 32 -82t-32 -83t-80 -33z
M720 1104q-48 0 -79 33t-31 82t31 83t79 34t80 -34q32 -32 32 -82t-32 -83t-80 -33z" />
    <glyph glyph-name="divide" unicode="&#xf7;" horiz-adv-x="1144" 
d="M573 219q-51 0 -87 35t-36 85t36 86t87 36t86 -36t35 -86t-35 -85t-86 -35zM573 836q-51 0 -87 36t-36 85q0 50 36 85t87 35t86 -35t35 -85q0 -49 -35 -85t-86 -36zM109 610v74h927v-74h-927z" />
    <glyph glyph-name="oslash" unicode="&#xf8;" horiz-adv-x="1077" 
d="M272 471q0 -143 33 -246l440 557q-72 125 -215 125q-258 0 -258 -436zM549 35q258 0 258 436q0 147 -35 246l-438 -555q72 -127 215 -127zM78 460q0 218 133 357t330 139q160 0 274 -86l98 123h78l-129 -164q137 -133 137 -350t-132 -356t-326 -139q-160 0 -279 86
l-96 -123h-78l127 162q-137 133 -137 351z" />
    <glyph glyph-name="ugrave" unicode="&#xf9;" horiz-adv-x="1128" 
d="M311 1402q0 44 24 68q25 24 59 23q34 0 61 -33t59 -112l111 -256h-47l-183 182q-84 84 -84 128zM432 -16q-114 0 -180 74t-66 208v535q0 49 -31 69q-32 20 -120 23v43l323 10v-612q0 -130 45 -186t148 -56q129 0 229 135v574q0 47 -32 69t-119 23v43l323 10v-829
q0 -39 32 -55t118 -19v-43h-318v170q-159 -186 -352 -186z" />
    <glyph glyph-name="uacute" unicode="&#xfa;" horiz-adv-x="1128" 
d="M432 -16q-114 0 -180 74t-66 208v535q0 49 -31 69q-32 20 -120 23v43l323 10v-612q0 -130 45 -186t148 -56q129 0 229 135v574q0 47 -32 69t-119 23v43l323 10v-829q0 -39 32 -55t118 -19v-43h-318v170q-159 -186 -352 -186zM684 1493q36 0 58 -24q22 -23 22 -67
t-84 -128l-182 -182h-47l110 256q33 80 60 112t63 33z" />
    <glyph glyph-name="ucircumflex" unicode="&#xfb;" horiz-adv-x="1128" 
d="M432 -16q-114 0 -180 74t-66 208v535q0 49 -31 69q-32 20 -120 23v43l323 10v-612q0 -130 45 -186t148 -56q129 0 229 135v574q0 47 -32 69t-119 23v43l323 10v-829q0 -39 32 -55t118 -19v-43h-318v170q-159 -186 -352 -186zM268 1092l256 374h43l240 -374h-47l-221 200
l-222 -200h-49z" />
    <glyph glyph-name="udieresis" unicode="&#xfc;" horiz-adv-x="1128" 
d="M432 -16q-114 0 -180 74t-66 208v535q0 49 -31 69q-32 20 -120 23v43l323 10v-612q0 -130 45 -186t148 -56q129 0 229 135v574q0 47 -32 69t-119 23v43l323 10v-829q0 -39 32 -55t118 -19v-43h-318v170q-159 -186 -352 -186zM353 1104q-48 0 -79 33t-30 82q0 49 30 83
q31 34 79 34t80 -34q32 -32 32 -82t-32 -83t-80 -33zM720 1104q-48 0 -79 33t-31 82t31 83t79 34t80 -34q32 -32 32 -82t-32 -83t-80 -33z" />
    <glyph glyph-name="yacute" unicode="&#xfd;" horiz-adv-x="1001" 
d="M755 1493q37 0 59 -24q22 -23 22 -67t-84 -128l-183 -182h-47l111 256q33 80 59 112t63 33zM-12 940h467v-41q-92 -6 -117 -36t-2 -87l239 -575l193 477q45 113 26 160t-128 61v41h364v-41q-104 -14 -170 -172l-332 -801q-78 -190 -154 -264t-158 -74q-81 0 -124 40
t-43 94t29 87t77 33q47 0 77 -32t30 -79q0 -48 -26 -77q59 4 115 72t128 245l13 27l-332 754q-35 80 -69 110t-103 37v41z" />
    <glyph glyph-name="thorn" unicode="&#xfe;" horiz-adv-x="1087" 
d="M557 37q119 0 189 117t69 308q0 191 -69 300q-68 108 -190 108t-228 -116v-541q55 -176 229 -176zM642 956q167 0 265 -129q99 -129 99 -341t-116 -356t-308 -144q-129 0 -254 67v-325q0 -44 40 -60t154 -18v-43h-516v43q90 2 120 17t30 61v1566q0 53 -34 77t-132 26v43
l338 8v-639q147 147 314 147z" />
    <glyph glyph-name="ydieresis" unicode="&#xff;" horiz-adv-x="1001" 
d="M345 1104q-48 0 -79 33t-30 82q0 49 30 83q31 34 79 34t80 -34q32 -32 32 -82t-32 -83t-80 -33zM712 1104q-48 0 -79 33t-31 82t31 83t79 34t80 -34q32 -32 32 -82t-32 -83t-80 -33zM-12 940h467v-41q-92 -6 -117 -36t-2 -87l239 -575l193 477q45 113 26 160t-128 61v41
h364v-41q-104 -14 -170 -172l-332 -801q-78 -190 -154 -264t-158 -74q-81 0 -124 40t-43 94t29 87t77 33q47 0 77 -32t30 -79q0 -48 -26 -77q59 4 115 72t128 245l13 27l-332 754q-35 80 -69 110t-103 37v41z" />
    <glyph glyph-name="Amacron" unicode="&#x100;" horiz-adv-x="1353" 
d="M403 1606v98h570v-98h-570zM395 586h434l-200 579h-8zM418 0h-461v43q100 25 157 90q56 66 119 221l426 1067h70l434 -1188q37 -100 81 -138t157 -52v-43h-615v43q138 8 172 43t3 123l-111 319h-477l-72 -186q-63 -168 -41 -222t158 -77v-43z" />
    <glyph glyph-name="amacron" unicode="&#x101;" 
d="M211 1147v98h569v-98h-569zM440 82q113 0 205 129v287q-221 -50 -292 -100t-71 -138q2 -178 158 -178zM342 -12q-122 0 -186 62t-64 153q0 141 116 205t352 117q75 17 85 26v94q0 137 -43 197t-144 59q-101 0 -157 -61q39 -56 39 -102t-29 -78t-78 -32t-77 32t-27 79
q0 87 103 149t251 62q334 0 334 -286v-482q0 -80 33 -106t125 0l8 -35q-106 -49 -185 -49t-109 36t-36 122h-8q-143 -162 -303 -162z" />
    <glyph glyph-name="Abreve" unicode="&#x102;" horiz-adv-x="1353" 
d="M690 1563q-114 0 -188 88t-86 225h41q33 -94 88 -137t145 -43t145 43q54 43 85 137h41q-10 -137 -83 -225t-188 -88zM395 586h434l-200 579h-8zM418 0h-461v43q100 25 157 90q56 66 119 221l426 1067h70l434 -1188q37 -100 81 -138t157 -52v-43h-615v43q138 8 172 43
t3 123l-111 319h-477l-72 -186q-63 -168 -41 -222t158 -77v-43z" />
    <glyph glyph-name="abreve" unicode="&#x103;" 
d="M500 1104q-115 0 -189 88t-86 225h41q33 -94 88 -137q56 -43 146 -43t144 43t85 137h41q-10 -137 -82 -225t-188 -88zM440 82q113 0 205 129v287q-221 -50 -292 -100t-71 -138q2 -178 158 -178zM342 -12q-122 0 -186 62t-64 153q0 141 116 205t352 117q75 17 85 26v94
q0 137 -43 197t-144 59q-101 0 -157 -61q39 -56 39 -102t-29 -78t-78 -32t-77 32t-27 79q0 87 103 149t251 62q334 0 334 -286v-482q0 -80 33 -106t125 0l8 -35q-106 -49 -185 -49t-109 36t-36 122h-8q-143 -162 -303 -162z" />
    <glyph glyph-name="Aogonek" unicode="&#x104;" horiz-adv-x="1353" 
d="M395 586h434l-200 579h-8zM1106 -498q-96 0 -152 45q-55 45 -55 117t41 133t139 152l54 51h-347v43q137 8 171 43t4 123l-111 319h-477l-72 -186q-63 -168 -41 -222t158 -77v-43h-461v43q100 25 157 90q56 66 119 221l426 1067h70l434 -1188q37 -100 81 -138t157 -52v-43
h-209l-47 -57q-105 -123 -105 -246t117 -123q57 0 123 35l23 -41q-101 -66 -197 -66z" />
    <glyph glyph-name="aogonek" unicode="&#x105;" 
d="M440 82q113 0 205 129v287q-221 -50 -292 -100t-71 -138q2 -178 158 -178zM715 -305q-1 -59 31 -90t86 -31t124 35l23 -41q-101 -66 -197 -66t-152 46t-57 118q1 72 57 138t177 153l59 41q-35 -6 -69 -6q-78 0 -108 36t-36 122h-8q-143 -162 -303 -162q-122 0 -186 62
t-64 153q0 141 116 205t352 117q75 17 85 26v94q0 137 -43 197t-144 59q-101 0 -157 -61q39 -56 39 -102t-29 -78t-78 -32t-77 32t-27 79q0 87 103 149t251 62q334 0 334 -286v-482q0 -80 33 -106t125 0l8 -35l-121 -107q-147 -129 -147 -239z" />
    <glyph glyph-name="Cacute" unicode="&#x106;" horiz-adv-x="1409" 
d="M768 -35q-299 0 -486 197q-188 197 -188 515t206 531t507 213q190 0 348 -86l72 90h43v-456h-43q-147 397 -443 397q-198 0 -332 -174t-135 -506q0 -160 45 -285t120 -197q152 -146 329 -147q178 -1 297 93t186 241l49 -26q-76 -170 -219 -285t-356 -115zM940 1952
q36 0 58 -24t22 -68t-84 -127l-182 -183h-47l110 256q33 80 60 113t63 33z" />
    <glyph glyph-name="cacute" unicode="&#x107;" horiz-adv-x="927" 
d="M506 -16q-192 0 -310 134t-118 344t134 352t333 142q149 0 237 -68t88 -149q0 -51 -28 -84t-76 -33q-49 0 -79 30t-30 77q0 76 62 111q-63 68 -179 68t-196 -107t-80 -297t85 -306t235 -116t278 149l31 -26q-72 -105 -162 -163t-225 -58zM694 1493q36 0 58 -24
q23 -24 22 -58q0 -53 -84 -137l-182 -182h-47l110 256q33 80 60 112t63 33z" />
    <glyph glyph-name="Cdotaccent" unicode="&#x10a;" horiz-adv-x="1409" 
d="M778 1552q-51 0 -83 33q-31 33 -31 85t32 87q33 35 83 35t82 -33t32 -86t-32 -87t-83 -34zM768 -35q-299 0 -486 197q-188 197 -188 515t206 531t507 213q190 0 348 -86l72 90h43v-456h-43q-147 397 -443 397q-198 0 -332 -174t-135 -506q0 -160 45 -285t120 -197
q152 -146 329 -147q178 -1 297 93t186 241l49 -26q-76 -170 -219 -285t-356 -115z" />
    <glyph glyph-name="cdotaccent" unicode="&#x10b;" horiz-adv-x="927" 
d="M526 1104q-51 0 -83 33q-31 33 -31 85t32 87q33 35 83 35t82 -34q32 -32 32 -85t-32 -87t-83 -34zM506 -16q-192 0 -310 134t-118 344t134 352t333 142q149 0 237 -68t88 -149q0 -51 -28 -84t-76 -33q-49 0 -79 30t-30 77q0 76 62 111q-63 68 -179 68t-196 -107t-80 -297
t85 -306t235 -116t278 149l31 -26q-72 -105 -162 -163t-225 -58z" />
    <glyph glyph-name="Ccaron" unicode="&#x10c;" horiz-adv-x="1409" 
d="M768 -35q-299 0 -486 197q-188 197 -188 515t206 531t507 213q190 0 348 -86l72 90h43v-456h-43q-147 397 -443 397q-198 0 -332 -174t-135 -506q0 -160 45 -285t120 -197q152 -146 329 -147q178 -1 297 93t186 241l49 -26q-76 -170 -219 -285t-356 -115zM756 1540
l-240 375h49l219 -201l224 201h47l-256 -375h-43z" />
    <glyph glyph-name="ccaron" unicode="&#x10d;" horiz-adv-x="927" 
d="M506 -16q-192 0 -310 134t-118 344t134 352t333 142q149 0 237 -68t88 -149q0 -51 -28 -84t-76 -33q-49 0 -79 30t-30 77q0 76 62 111q-63 68 -179 68t-196 -107t-80 -297t85 -306t235 -116t278 149l31 -26q-72 -105 -162 -163t-225 -58zM502 1092l-240 374h49l219 -200
l224 200h47l-256 -374h-43z" />
    <glyph glyph-name="Dcaron" unicode="&#x10e;" horiz-adv-x="1519" 
d="M496 57h151q317 1 436 149t119 494t-135 488q-135 143 -422 143h-149v-1274zM78 0v47q129 4 176 31t47 86v1061q0 59 -47 87t-176 31v46h590q366 -1 562 -185t196 -481t-176 -503q-87 -100 -232 -160t-332 -60h-608zM721 1550l-240 375h49l220 -201l223 201h47l-256 -375
h-43z" />
    <glyph glyph-name="dcaron" unicode="&#x10f;" horiz-adv-x="1114" 
d="M561 70q102 0 197 90v633q-82 115 -208 115t-204 -121q-78 -120 -78 -309q0 -188 78 -298t215 -110zM468 -16q-173 0 -282 135q-108 135 -108 345t130 351t331 141q125 0 219 -55v393q0 53 -34 77t-132 26v43l338 8v-1331q0 -39 32 -55t117 -19v-43l-317 -8v108
q-121 -116 -294 -116zM1214 1577q34 0 58 -24q49 -51 -4 -189l-86 -256h-35l-12 227q0 19 -7 131q0 57 26 84t60 27z" />
    <glyph glyph-name="Dcroat" unicode="&#x110;" horiz-adv-x="1519" 
d="M496 57h151q317 1 436 149t119 494t-135 488q-135 143 -422 143h-149v-573h268v-70h-268v-631zM78 0v47q129 4 176 31t47 86v524h-207v70h207v467q0 59 -47 87t-176 31v46h590q366 -1 562 -185t196 -481t-176 -503q-87 -100 -232 -160t-332 -60h-608z" />
    <glyph glyph-name="dcroat" unicode="&#x111;" horiz-adv-x="1103" 
d="M561 70q102 0 197 90v633q-82 115 -208 115t-204 -121q-78 -120 -78 -309q0 -188 78 -298t215 -110zM468 -16q-173 0 -282 135q-108 135 -108 345t130 351t331 141q125 0 219 -55v246h-318v61h318v86q0 53 -34 77t-132 26v43l338 8v-240h147v-61h-147v-1030q0 -39 32 -55
t117 -19v-43l-317 -8v108q-121 -116 -294 -116z" />
    <glyph glyph-name="Emacron" unicode="&#x112;" horiz-adv-x="1368" 
d="M422 1606v98h569v-98h-569zM78 0v47q129 4 176 31t47 86v1061q0 59 -47 87t-176 31v46h1126l6 -410l-45 -2q-71 199 -147 275t-242 77h-280v-579h125q127 0 187 49t99 207h41v-570h-41q-39 158 -98 206t-188 48h-125v-631h280q195 0 290 88t167 299l45 -2l-10 -444h-1190
z" />
    <glyph glyph-name="emacron" unicode="&#x113;" 
d="M233 1147v98h570v-98h-570zM506 907q-213 0 -238 -342l443 6q14 154 -38 245t-167 91zM520 -16q-202 0 -322 135t-120 344t127 351t317 142t290 -129q99 -129 87 -309h-633v-37q0 -178 84 -291t238 -112q86 0 154 45t137 131l30 -27q-68 -113 -158 -178t-231 -65z" />
    <glyph glyph-name="Ebreve" unicode="&#x114;" horiz-adv-x="1368" 
d="M709 1563q-115 0 -189 88t-86 225h41q33 -94 88 -137t145 -43t145 43q54 43 85 137h41q-11 -137 -83 -225t-187 -88zM78 0v47q129 4 176 31t47 86v1061q0 59 -47 87t-176 31v46h1126l6 -410l-45 -2q-71 199 -147 275t-242 77h-280v-579h125q127 0 187 49t99 207h41v-570
h-41q-39 158 -98 206t-188 48h-125v-631h280q195 0 290 88t167 299l45 -2l-10 -444h-1190z" />
    <glyph glyph-name="ebreve" unicode="&#x115;" 
d="M518 1104q-114 0 -188 88t-86 225h41q33 -94 88 -137t145 -43t145 43q54 43 85 137h40q-10 -137 -82 -225t-188 -88zM506 907q-213 0 -238 -342l443 6q14 154 -38 245t-167 91zM520 -16q-202 0 -322 135t-120 344t127 351t317 142t290 -129q99 -129 87 -309h-633v-37
q0 -178 84 -291t238 -112q86 0 154 45t137 131l30 -27q-68 -113 -158 -178t-231 -65z" />
    <glyph glyph-name="Edotaccent" unicode="&#x116;" horiz-adv-x="1368" 
d="M707 1563q-51 1 -83 33t-32 84t33 87t83 35t82 -33t32 -86t-32 -87q-32 -33 -83 -33zM78 0v47q129 4 176 31t47 86v1061q0 59 -47 87t-176 31v46h1126l6 -410l-45 -2q-71 199 -147 275t-242 77h-280v-579h125q127 0 187 49t99 207h41v-570h-41q-39 158 -98 206t-188 48
h-125v-631h280q195 0 290 88t167 299l45 -2l-10 -444h-1190z" />
    <glyph glyph-name="edotaccent" unicode="&#x117;" 
d="M514 1104q-51 0 -83 33t-32 85t33 87t83 35t82 -34q32 -32 32 -85t-32 -87t-83 -34zM506 907q-213 0 -238 -342l443 6q14 154 -38 245t-167 91zM520 -16q-202 0 -322 135t-120 344t127 351t317 142t290 -129q99 -129 87 -309h-633v-37q0 -178 84 -291t238 -112
q86 0 154 45t137 131l30 -27q-68 -113 -158 -178t-231 -65z" />
    <glyph glyph-name="Eogonek" unicode="&#x118;" horiz-adv-x="1368" 
d="M78 0v47q129 4 176 31t47 86v1061q0 59 -47 87t-176 31v46h1126l6 -410l-45 -2q-71 199 -147 275t-242 77h-280v-579h125q127 0 187 49t99 207h41v-570h-41q-39 158 -98 206t-188 48h-125v-631h280q195 0 290 88t167 299l45 -2l-10 -444h-121l-47 -57
q-104 -123 -104 -246t116 -123q57 0 123 35l22 -41q-100 -66 -196 -66t-152 45q-55 45 -55 117t41 133t139 152l53 51h-1009z" />
    <glyph glyph-name="eogonek" unicode="&#x119;" 
d="M506 907q-213 0 -238 -342l443 6q14 154 -38 245t-167 91zM530 -303q0 -57 32 -90t87 -33t121 35l23 -41q-101 -66 -197 -66t-152 45q-55 45 -55 118t44 135t151 149l73 61q-59 -27 -137 -26q-202 0 -322 135t-120 344t127 351t317 142t290 -129q99 -129 87 -309h-633
v-37q0 -178 84 -291t238 -112q86 0 154 45t137 131l30 -27q-45 -76 -112 -143l-148 -150q-119 -117 -119 -237z" />
    <glyph glyph-name="Ecaron" unicode="&#x11a;" horiz-adv-x="1368" 
d="M78 0v47q129 4 176 31t47 86v1061q0 59 -47 87t-176 31v46h1126l6 -410l-45 -2q-71 199 -147 275t-242 77h-280v-579h125q127 0 187 49t99 207h41v-570h-41q-39 158 -98 206t-188 48h-125v-631h280q195 0 290 88t167 299l45 -2l-10 -444h-1190zM678 1550l-240 375h49
l220 -201l223 201h47l-256 -375h-43z" />
    <glyph glyph-name="ecaron" unicode="&#x11b;" 
d="M489 1092l-239 374h49l219 -200l223 200h47l-256 -374h-43zM506 907q-213 0 -238 -342l443 6q14 154 -38 245t-167 91zM520 -16q-202 0 -322 135t-120 344t127 351t317 142t290 -129q99 -129 87 -309h-633v-37q0 -178 84 -291t238 -112q86 0 154 45t137 131l30 -27
q-68 -113 -158 -178t-231 -65z" />
    <glyph glyph-name="Gbreve" unicode="&#x11e;" horiz-adv-x="1486" 
d="M770 1563q-114 0 -188 88t-86 225h41q33 -94 88 -137t145 -43t144 43t85 137h41q-10 -137 -82 -225t-188 -88zM823 -35q-193 0 -355 79t-268 248q-105 169 -106 398q0 317 214 524t503 207q195 0 346 -71l70 77h43v-423h-43q-137 362 -439 362q-194 0 -332 -169
t-139 -503q0 -172 43 -305t116 -211q147 -157 335 -156q189 1 285 84v367q0 61 -47 91t-175 34v45h566v-45q-96 -6 -123 -30t-27 -95v-389q-92 -55 -224 -87t-243 -32z" />
    <glyph glyph-name="gbreve" unicode="&#x11f;" horiz-adv-x="960" 
d="M496 1108q-115 0 -189 88t-86 225h41q33 -94 88 -137q56 -43 146 -43t144 43t85 137h41q-10 -137 -82 -225t-188 -88zM477 950q96 0 178 -37q82 156 199 156q53 0 83 -28q30 -27 30 -65t-23 -62q-22 -24 -56 -24t-59 28q-25 27 -24 71q-70 -12 -113 -94q150 -86 150 -254
q0 -143 -106 -230t-259 -87q-59 0 -129 16q-111 -45 -110 -100q0 -78 208 -78h105q199 0 295 -60t96 -191q0 -132 -127 -227q-127 -96 -335 -96t-317 62q-110 62 -110 153q0 72 71 132t183 77v8q-96 20 -136 58t-40 104q0 98 160 178q-182 78 -182 273q0 143 107 230t261 87
zM485 371q176 0 177 266q0 125 -54 197t-141 71q-177 0 -177 -267t195 -267zM197 -172q1 -86 77 -140t222 -55t236 61q89 62 89 159q0 143 -278 143h-170q-176 -45 -176 -168z" />
    <glyph glyph-name="Gdotaccent" unicode="&#x120;" horiz-adv-x="1486" 
d="M770 1563q-51 1 -83 33t-32 84t33 87t83 35t82 -33t32 -86t-32 -87t-83 -33zM823 -35q-193 0 -355 79t-268 248q-105 169 -106 398q0 317 214 524t503 207q195 0 346 -71l70 77h43v-423h-43q-137 362 -439 362q-194 0 -332 -169t-139 -503q0 -172 43 -305t116 -211
q147 -157 335 -156q189 1 285 84v367q0 61 -47 91t-175 34v45h566v-45q-96 -6 -123 -30t-27 -95v-389q-92 -55 -224 -87t-243 -32z" />
    <glyph glyph-name="gdotaccent" unicode="&#x121;" horiz-adv-x="960" 
d="M481 1104q-51 0 -83 33t-32 85t33 87t83 35t82 -34q32 -32 32 -85t-32 -87t-83 -34zM477 950q96 0 178 -37q82 156 199 156q53 0 83 -28q30 -27 30 -65t-23 -62q-22 -24 -56 -24t-59 28q-25 27 -24 71q-70 -12 -113 -94q150 -86 150 -254q0 -143 -106 -230t-259 -87
q-59 0 -129 16q-111 -45 -110 -100q0 -78 208 -78h105q199 0 295 -60t96 -191q0 -132 -127 -227q-127 -96 -335 -96t-317 62q-110 62 -110 153q0 72 71 132t183 77v8q-96 20 -136 58t-40 104q0 98 160 178q-182 78 -182 273q0 143 107 230t261 87zM485 371q176 0 177 266
q0 125 -54 197t-141 71q-177 0 -177 -267t195 -267zM197 -172q1 -86 77 -140t222 -55t236 61q89 62 89 159q0 143 -278 143h-170q-176 -45 -176 -168z" />
    <glyph glyph-name="Gcommaaccent" unicode="&#x122;" horiz-adv-x="1486" 
d="M823 -35q-193 0 -355 79t-268 248q-105 169 -106 398q0 317 214 524t503 207q195 0 346 -71l70 77h43v-423h-43q-137 362 -439 362q-194 0 -332 -169t-139 -503q0 -172 43 -305t116 -211q147 -157 335 -156q189 1 285 84v367q0 61 -47 91t-175 34v45h566v-45
q-96 -6 -123 -30t-27 -95v-389q-92 -55 -224 -87t-243 -32zM756 -354q-36 0 -62 28t-26 73q0 44 31 77q32 33 86 33t88 -42t34 -112q1 -182 -235 -299l-25 35q170 104 180 223l-12 2q-23 -18 -59 -18z" />
    <glyph glyph-name="gcommaaccent" unicode="&#x123;" horiz-adv-x="960" 
d="M477 950q96 0 178 -37q82 156 199 156q53 0 83 -28q30 -27 30 -65t-23 -62q-22 -24 -56 -24t-59 28q-25 27 -24 71q-70 -12 -113 -94q150 -86 150 -254q0 -143 -106 -230t-259 -87q-59 0 -129 16q-111 -45 -110 -100q0 -78 208 -78h105q199 0 295 -60t96 -191
q0 -132 -127 -227q-127 -96 -335 -96t-317 62q-110 62 -110 153q0 72 71 132t183 77v8q-96 20 -136 58t-40 104q0 98 160 178q-182 78 -182 273q0 143 107 230t261 87zM485 371q176 0 177 266q0 125 -54 197t-141 71q-177 0 -177 -267t195 -267zM197 -172q1 -86 77 -140
t222 -55t236 61q89 62 89 159q0 143 -278 143h-170q-176 -45 -176 -168zM505 1325q37 0 63 -29q26 -28 26 -72t-32 -77t-86 -33t-88 42t-34 112q0 182 236 299l24 -35q-170 -104 -180 -223l12 -2q23 18 59 18z" />
    <glyph glyph-name="Hbar" unicode="&#x126;" horiz-adv-x="1646" 
d="M496 743h657v267h-657v-267zM78 0v47q129 4 176 31t47 86v846h-207v61h207v156q0 59 -47 86t-176 30v46h622v-46q-133 -3 -169 -27t-35 -89v-156h657v156q0 65 -36 89t-169 27v46h621v-46q-127 -5 -174 -31t-47 -85v-156h206v-61h-206v-846q0 -59 46 -86t175 -31v-47
h-621v47q133 4 169 28t36 89v522h-657v-522q0 -66 34 -90t170 -27v-47h-622z" />
    <glyph glyph-name="hbar" unicode="&#x127;" horiz-adv-x="1134" 
d="M37 0v45q90 2 121 16t30 60v1026h-147v61h147v86q0 53 -33 77q-34 24 -132 26v43l337 8v-240h316v-61h-316v-387q170 190 359 190q111 0 175 -72t64 -208v-549q0 -45 30 -59t120 -17v-45h-453v45q78 2 105 16t26 60v481q0 129 -45 185t-143 57q-137 0 -238 -144v-579
q0 -45 26 -59t103 -17v-45h-452z" />
    <glyph glyph-name="Imacron" unicode="&#x12a;" horiz-adv-x="833" 
d="M135 1606v98h570v-98h-570zM94 0v47q133 4 179 31t46 86v1061q0 59 -46 87t-179 31v46h645v-46q-133 -3 -179 -31t-46 -87v-1061q0 -59 46 -86t179 -31v-47h-645z" />
    <glyph glyph-name="imacron" unicode="&#x12b;" horiz-adv-x="585" 
d="M72 0v45q90 2 118 16t29 60v670q0 49 -32 75t-115 27v43l319 8v-823q0 -45 28 -59t116 -17v-45h-463zM31 1155v98h514v-98h-514z" />
    <glyph glyph-name="Ibreve" unicode="&#x12c;" horiz-adv-x="833" 
d="M422 1563q-115 0 -189 88t-86 225h41q33 -94 88 -137q56 -43 146 -43t144 43t85 137h41q-10 -137 -82 -225t-188 -88zM94 0v47q133 4 179 31t46 86v1061q0 59 -46 87t-179 31v46h645v-46q-133 -3 -179 -31t-46 -87v-1061q0 -59 46 -86t179 -31v-47h-645z" />
    <glyph glyph-name="ibreve" unicode="&#x12d;" horiz-adv-x="585" 
d="M291 1104q-115 0 -189 88t-86 225h41q33 -94 88 -137t145 -43t145 43q54 43 85 137h41q-11 -137 -83 -225t-187 -88zM72 0v45q90 2 118 16t29 60v670q0 49 -32 75t-115 27v43l319 8v-823q0 -45 28 -59t116 -17v-45h-463z" />
    <glyph glyph-name="Iogonek" unicode="&#x12e;" horiz-adv-x="833" 
d="M94 0v47q133 4 179 31t46 86v1061q0 59 -46 87t-179 31v46h645v-46q-133 -3 -179 -31t-46 -87v-1061q0 -59 46 -86t179 -31v-47h-258l-47 -57q-104 -123 -104 -246t116 -123q57 0 123 35l23 -41q-100 -66 -196 -66t-152 45t-56 117t41 133t140 152l53 51h-328z" />
    <glyph glyph-name="iogonek" unicode="&#x12f;" horiz-adv-x="585" 
d="M297 1159q-51 0 -83 32t-32 85t32 88t83 35t83 -33t32 -86t-32 -87t-83 -34zM70 0v45q90 2 120 16t29 60v670q0 49 -32 75t-115 27v43l319 8v-823q0 -45 30 -59t124 -17v-45h-170l-47 -57q-104 -123 -104 -246t116 -123q57 0 123 35l22 -41q-100 -66 -196 -66t-152 45
q-55 45 -55 117t41 133t139 152l53 51h-245z" />
    <glyph glyph-name="Idotaccent" unicode="&#x130;" horiz-adv-x="833" 
d="M416 1563q-51 1 -83 33t-32 84t33 87t83 35t82 -33q31 -33 31 -86t-31 -87q-32 -33 -83 -33zM94 0v47q133 4 179 31t46 86v1061q0 59 -46 87t-179 31v46h645v-46q-133 -3 -179 -31t-46 -87v-1061q0 -59 46 -86t179 -31v-47h-645z" />
    <glyph glyph-name="dotlessi" unicode="&#x131;" horiz-adv-x="585" 
d="M72 0v45q90 2 118 16t29 60v670q0 49 -32 75t-115 27v43l319 8v-823q0 -45 28 -59t116 -17v-45h-463z" />
    <glyph glyph-name="Kcommaaccent" unicode="&#x136;" horiz-adv-x="1511" 
d="M903 1389h545v-43q-121 -18 -196 -66t-222 -193l-264 -256l428 -583q84 -115 137 -152t162 -53v-43h-594v43q119 14 141 50t-36 112l-363 504l-145 -142v-403q0 -66 32 -90t154 -27v-47h-604v47q129 4 176 31t47 86v1063q0 59 -47 86t-176 30v46h622v-46
q-133 -3 -169 -27t-35 -89v-580l479 475q61 62 79 106t-19 76q-36 32 -132 42v43zM730 -354q-36 0 -62 28t-27 73q0 44 32 77t86 33t88 -42t34 -112q0 -182 -236 -299l-24 35q170 104 180 223l-13 2q-22 -18 -58 -18z" />
    <glyph glyph-name="kcommaaccent" unicode="&#x137;" horiz-adv-x="1056" 
d="M360 121q0 -43 23 -59t86 -17v-45h-432v45q90 2 121 16t30 60v1173q0 53 -33 77q-34 24 -132 26v43l337 8v-1006l310 316q119 119 -76 141v41h424v-41q-78 -12 -129 -42t-135 -109l-168 -160l303 -418q55 -74 88 -96t102 -31v-43h-450v43q80 8 96 35t-23 78l-229 323
l-113 -108v-250zM506 -354q-36 0 -62 28t-26 73q0 44 32 77t86 33t88 -42t33 -112q1 -182 -235 -299l-25 35q170 104 181 223l-13 2q-23 -18 -59 -18z" />
    <glyph glyph-name="Lacute" unicode="&#x139;" horiz-adv-x="1253" 
d="M78 0v47q129 4 176 31t47 86v1061q0 59 -47 87t-176 31v46h631v-46q-131 -5 -172 -31t-41 -87v-1166h204q201 0 295 82t170 310l45 -2l-16 -449h-1116zM646 1952q36 0 59 -24t22 -58q0 -53 -84 -137l-182 -183h-47l110 256q33 80 60 113q26 33 62 33z" />
    <glyph glyph-name="lacute" unicode="&#x13a;" horiz-adv-x="583" 
d="M63 0v45q90 2 120 16t30 60v1173q0 53 -34 77t-132 26v43l338 8v-1327q0 -45 30 -59t120 -17v-45h-472zM547 1883q0 -44 -84 -128l-182 -182h-48l111 256q33 80 59 113q27 32 63 32t58 -24t23 -67z" />
    <glyph glyph-name="Lcommaaccent" unicode="&#x13b;" horiz-adv-x="1253" 
d="M78 0v47q129 4 176 31t47 86v1061q0 59 -47 87t-176 31v46h631v-46q-131 -5 -172 -31t-41 -87v-1166h204q201 0 295 82t170 310l45 -2l-16 -449h-1116zM650 -354q-36 0 -62 28t-27 73q0 44 32 77t86 33t88 -42t34 -112q0 -182 -236 -299l-24 35q170 104 180 223l-12 2
q-23 -18 -59 -18z" />
    <glyph glyph-name="lcommaaccent" unicode="&#x13c;" horiz-adv-x="583" 
d="M63 0v45q90 2 120 16t30 60v1173q0 53 -34 77t-132 26v43l338 8v-1327q0 -45 30 -59t120 -17v-45h-472zM260 -354q-36 0 -62 28t-26 73q0 44 32 77t86 33t88 -42t34 -112q0 -182 -236 -299l-24 35q170 104 180 223l-13 2q-23 -18 -59 -18z" />
    <glyph glyph-name="Lcaron" unicode="&#x13d;" horiz-adv-x="1253" 
d="M78 0v47q129 4 176 31t47 86v1061q0 59 -47 87t-176 31v46h631v-46q-131 -5 -172 -31t-41 -87v-1166h204q201 0 295 82t170 310l45 -2l-16 -449h-1116zM963 1518q35 0 57 -24q49 -52 -4 -189l-86 -256h-35l-12 227l-6 131q0 57 25 84q26 27 61 27z" />
    <glyph glyph-name="lcaron" unicode="&#x13e;" horiz-adv-x="593" 
d="M63 0v45q90 2 120 16t30 60v1173q0 53 -34 77t-132 26v43l338 8v-1327q0 -45 30 -59t120 -17v-45h-472zM670 1577q36 0 58 -24q22 -25 22 -73t-27 -116l-86 -256h-35l-12 227l-6 131q0 57 25 84q26 27 61 27z" />
    <glyph glyph-name="Ldot" unicode="&#x13f;" horiz-adv-x="1253" 
d="M999 625q-51 1 -83 33t-32 84t34 87q32 35 82 35t82 -33t32 -86t-32 -87t-83 -33zM78 0v47q129 4 176 31t47 86v1061q0 59 -47 87t-176 31v46h631v-46q-131 -5 -172 -31t-41 -87v-1166h204q201 0 295 80t170 301l45 -2l-16 -438h-1116z" />
    <glyph glyph-name="ldot" unicode="&#x140;" horiz-adv-x="698" 
d="M63 0v45q90 2 120 16t30 60v1173q0 53 -34 77t-132 26v43l338 8v-1327q0 -45 30 -59t120 -17v-45h-472zM647 592q-51 0 -83 33t-32 85t33 87t83 35t82 -34q32 -32 32 -85t-32 -87t-83 -34z" />
    <glyph glyph-name="Lslash" unicode="&#x141;" horiz-adv-x="1253" 
d="M78 0v47q129 4 176 31t47 86v461l-174 -45l-18 65l192 51v529q0 59 -47 87t-176 31v46h631v-46q-131 -5 -172 -31t-41 -87v-477l260 69l18 -65l-278 -74v-619h204q201 0 295 82t170 310l45 -2l-16 -449h-1116z" />
    <glyph glyph-name="lslash" unicode="&#x142;" horiz-adv-x="630" 
d="M109 0v45q89 2 119 16t30 60v541l-178 -48l-17 64l195 51v565q0 53 -34 77t-132 26v43l338 8v-674l191 51l18 -61l-209 -55v-588q0 -45 30 -59t120 -17v-45h-471z" />
    <glyph glyph-name="Nacute" unicode="&#x143;" horiz-adv-x="1572" 
d="M375 1178v-846q0 -152 45 -209t192 -80v-43h-534v43q139 25 185 83t46 206v825q0 180 -231 186v46h391l797 -1086h2v756q0 145 -52 205t-200 82v43h534v-43q-135 -25 -176 -81t-41 -206v-1094h-61l-895 1213h-2zM1003 1942q37 0 59 -24t21 -58q0 -53 -84 -138l-182 -182
h-47l111 256q33 80 59 113q27 33 63 33z" />
    <glyph glyph-name="nacute" unicode="&#x144;" horiz-adv-x="1159" 
d="M63 0v45q90 2 120 16t30 60v670q0 49 -33 75t-117 27v43l318 8v-186q166 193 362 192q111 0 176 -72t64 -208v-549q0 -45 30 -59t120 -17v-45h-453v45q78 2 104 16t27 60v485q0 127 -45 182t-143 56q-137 0 -238 -144v-579q0 -45 26 -59t103 -17v-45h-451zM744 1493
q36 0 59 -24t22 -58q0 -53 -84 -137l-182 -182h-47l111 256q33 80 59 112t62 33z" />
    <glyph glyph-name="Ncommaaccent" unicode="&#x145;" horiz-adv-x="1572" 
d="M375 1178v-846q0 -152 45 -209t192 -80v-43h-534v43q139 25 185 83t46 206v825q0 180 -231 186v46h391l797 -1086h2v756q0 145 -52 205t-200 82v43h534v-43q-135 -25 -176 -81t-41 -206v-1094h-61l-895 1213h-2zM754 -354q-36 0 -62 28t-26 73q0 44 31 77q32 33 86 33
t88 -42t34 -112q1 -182 -235 -299l-25 35q170 104 180 223l-12 2q-23 -18 -59 -18z" />
    <glyph glyph-name="ncommaaccent" unicode="&#x146;" horiz-adv-x="1159" 
d="M63 0v45q90 2 120 16t30 60v670q0 49 -33 75t-117 27v43l318 8v-186q166 193 362 192q111 0 176 -72t64 -208v-549q0 -45 30 -59t120 -17v-45h-453v45q78 2 104 16t27 60v485q0 127 -45 182t-143 56q-137 0 -238 -144v-579q0 -45 26 -59t103 -17v-45h-451zM550 -354
q-36 0 -63 28t-27 73q0 44 33 77q31 33 85 33t88 -42t34 -112q1 -182 -235 -299l-25 35q170 104 181 223l-13 2q-22 -18 -58 -18z" />
    <glyph glyph-name="Ncaron" unicode="&#x147;" horiz-adv-x="1572" 
d="M375 1178v-846q0 -152 45 -209t192 -80v-43h-534v43q139 25 185 83t46 206v825q0 180 -231 186v46h391l797 -1086h2v756q0 145 -52 205t-200 82v43h534v-43q-135 -25 -176 -81t-41 -206v-1094h-61l-895 1213h-2zM788 1540l-239 375h49l219 -201l223 201h47l-256 -375h-43
z" />
    <glyph glyph-name="ncaron" unicode="&#x148;" horiz-adv-x="1159" 
d="M63 0v45q90 2 120 16t30 60v670q0 49 -33 75t-117 27v43l318 8v-186q166 193 362 192q111 0 176 -72t64 -208v-549q0 -45 30 -59t120 -17v-45h-453v45q78 2 104 16t27 60v485q0 127 -45 182t-143 56q-137 0 -238 -144v-579q0 -45 26 -59t103 -17v-45h-451zM555 1092
l-240 374h50l219 -200l223 200h47l-256 -374h-43z" />
    <glyph glyph-name="Omacron" unicode="&#x14c;" horiz-adv-x="1513" 
d="M766 23q430 0 430 671q0 352 -121 512t-327 160q-428 0 -428 -672t446 -671zM1419 698q1 -322 -195 -528t-470 -205q-274 0 -468 201q-192 202 -192 524t196 527t472 205t466 -202q191 -200 191 -522zM475 1606v98h569v-98h-569z" />
    <glyph glyph-name="omacron" unicode="&#x14d;" horiz-adv-x="1077" 
d="M549 35q258 0 258 436t-277 436q-258 0 -258 -436q0 -223 74 -329t203 -107zM999 475q1 -213 -131 -352t-332 -139t-329 134t-129 347t133 352t333 139t328 -134t127 -347zM256 1147v98h569v-98h-569z" />
    <glyph glyph-name="Obreve" unicode="&#x14e;" horiz-adv-x="1513" 
d="M762 1563q-115 0 -189 88t-86 225h41q33 -94 88 -137q56 -43 146 -43t144 43t85 137h41q-10 -137 -82 -225t-188 -88zM766 23q430 0 430 671q0 352 -121 512t-327 160q-428 0 -428 -672t446 -671zM1419 698q1 -322 -195 -528t-470 -205q-274 0 -468 201
q-192 202 -192 524t196 527t472 205t466 -202q191 -200 191 -522z" />
    <glyph glyph-name="obreve" unicode="&#x14f;" horiz-adv-x="1077" 
d="M541 1104q-115 0 -189 88t-86 225h41q33 -94 88 -137t145 -43t145 43q54 43 85 137h41q-11 -137 -83 -225t-187 -88zM549 35q258 0 258 436t-277 436q-258 0 -258 -436q0 -223 74 -329t203 -107zM999 475q1 -213 -131 -352t-332 -139t-329 134t-129 347t133 352t333 139
t328 -134t127 -347z" />
    <glyph glyph-name="Ohungarumlaut" unicode="&#x150;" horiz-adv-x="1513" 
d="M766 23q430 0 430 671q0 352 -121 512t-327 160q-428 0 -428 -672t446 -671zM1419 698q1 -322 -195 -528t-470 -205q-274 0 -468 201q-192 202 -192 524t196 527t472 205t466 -202q191 -200 191 -522zM803 1952q35 0 57 -23t21 -57q0 -53 -90 -139l-187 -183h-51l123 256
q37 80 64 113q28 33 63 33zM1110 1952q34 0 56 -23t22 -57q0 -53 -90 -139l-187 -183h-49l121 256q37 80 65 113t62 33z" />
    <glyph glyph-name="ohungarumlaut" unicode="&#x151;" horiz-adv-x="1077" 
d="M549 35q258 0 258 436t-277 436q-258 0 -258 -436q0 -223 74 -329t203 -107zM999 475q1 -213 -131 -352t-332 -139t-329 134t-129 347t133 352t333 139t328 -134t127 -347zM590 1493q34 0 56 -23t22 -57q0 -53 -90 -139l-187 -182h-51l123 256q37 80 65 112t62 33z
M898 1493q34 0 56 -23t21 -57q0 -53 -90 -139l-187 -182h-49l121 256q37 80 65 112q29 32 63 33z" />
    <glyph glyph-name="OE" unicode="&#x152;" horiz-adv-x="2119" 
d="M856 59q195 0 195 119v1032q0 121 -203 121q-272 0 -398 -146t-126 -493q0 -633 532 -633zM879 0q-373 0 -576 185t-203 482t183 501q89 100 241 160t346 61h1086l6 -410l-45 -2q-70 199 -148 275t-243 77h-281v-579h125q127 0 188 49q60 49 99 207h41v-570h-41
q-39 158 -98 206t-189 48h-125v-631h281q195 0 290 88t166 299l46 -2l-11 -444h-1138z" />
    <glyph glyph-name="oe" unicode="&#x153;" horiz-adv-x="1712" 
d="M1237 907q-213 0 -238 -342l443 6q16 152 -36 244t-169 92zM807 471q0 436 -277 436q-258 0 -258 -436q0 -223 74 -329t203 -107q258 0 258 436zM1258 -16q-238 0 -359 180q-131 -180 -347 -180t-345 134t-129 347t133 352t330 139q242 0 368 -182q129 182 332 182
t303 -129t88 -309h-635v-37q0 -178 84 -291t238 -112q88 0 155 44t136 132l32 -27q-146 -243 -384 -243z" />
    <glyph glyph-name="Racute" unicode="&#x154;" horiz-adv-x="1398" 
d="M496 666v-502q0 -63 41 -88t176 -29v-47h-635v47q129 4 176 31t47 86v1061q0 59 -47 87t-176 31v46h586q292 1 424 -93t133 -245q0 -283 -387 -351v-6q190 -14 259 -88t93 -231l20 -139q20 -115 64 -150t166 -39v-45q-61 -16 -138 -16q-172 0 -230 54t-73 202l-16 176
q-14 150 -80 198t-237 50h-166zM496 723h176q194 0 264 80t70 233q0 152 -81 224t-276 71h-153v-608zM884 1952q36 0 58 -24t23 -68q0 -44 -84 -127l-183 -183h-47l111 256q33 80 59 113q27 33 63 33z" />
    <glyph glyph-name="racute" unicode="&#x155;" horiz-adv-x="819" 
d="M63 0v45q90 2 120 16t30 60v670q0 49 -33 75t-117 27v43l318 8v-184q127 193 272 192q74 0 112 -40t38 -93t-30 -86t-77 -33t-80 29t-32 80q0 16 8 45q-117 -8 -207 -154v-579q0 -43 36 -59t136 -17v-45h-494zM591 1493q37 0 59 -24q22 -23 22 -67t-84 -128l-182 -182
h-48l111 256q33 80 59 112t63 33z" />
    <glyph glyph-name="Rcommaaccent" unicode="&#x156;" horiz-adv-x="1398" 
d="M496 666v-502q0 -63 41 -88t176 -29v-47h-635v47q129 4 176 31t47 86v1061q0 59 -47 87t-176 31v46h586q292 1 424 -93t133 -245q0 -283 -387 -351v-6q190 -14 259 -88t93 -231l20 -139q20 -115 64 -150t166 -39v-45q-61 -16 -138 -16q-172 0 -230 54t-73 202l-16 176
q-14 150 -80 198t-237 50h-166zM496 723h176q194 0 264 80t70 233q0 152 -81 224t-276 71h-153v-608zM680 -354q-36 0 -62 28t-26 73q0 44 32 77t86 33t88 -42t33 -112q1 -182 -235 -299l-25 35q170 104 181 223l-13 2q-23 -18 -59 -18z" />
    <glyph glyph-name="rcommaaccent" unicode="&#x157;" horiz-adv-x="819" 
d="M63 0v45q90 2 120 16t30 60v670q0 49 -33 75t-117 27v43l318 8v-184q127 193 272 192q74 0 112 -40t38 -93t-30 -86t-77 -33t-80 29t-32 80q0 16 8 45q-117 -8 -207 -154v-579q0 -43 36 -59t136 -17v-45h-494zM274 -354q-36 0 -63 28t-27 73q0 44 32 77t86 33t88 -42
t34 -112q0 -182 -236 -299l-24 35q170 104 180 223l-12 2q-22 -18 -58 -18z" />
    <glyph glyph-name="Rcaron" unicode="&#x158;" horiz-adv-x="1398" 
d="M496 666v-502q0 -63 41 -88t176 -29v-47h-635v47q129 4 176 31t47 86v1061q0 59 -47 87t-176 31v46h586q292 1 424 -93t133 -245q0 -283 -387 -351v-6q190 -14 259 -88t93 -231l20 -139q20 -115 64 -150t166 -39v-45q-61 -16 -138 -16q-172 0 -230 54t-73 202l-16 176
q-14 150 -80 198t-237 50h-166zM496 723h176q194 0 264 80t70 233q0 152 -81 224t-276 71h-153v-608zM674 1550l-240 375h49l219 -201l224 201h47l-256 -375h-43z" />
    <glyph glyph-name="rcaron" unicode="&#x159;" horiz-adv-x="819" 
d="M63 0v45q90 2 120 16t30 60v670q0 49 -33 75t-117 27v43l318 8v-184q127 193 272 192q74 0 112 -40t38 -93t-30 -86t-77 -33t-80 29t-32 80q0 16 8 45q-117 -8 -207 -154v-579q0 -43 36 -59t136 -17v-45h-494zM389 1092l-239 374h49l219 -200l223 200h47l-256 -374h-43z
" />
    <glyph glyph-name="Sacute" unicode="&#x15a;" horiz-adv-x="1132" 
d="M106 -39v471h48q86 -199 191 -302t251 -103t223 81q78 80 78 194t-81 177q-82 63 -280 134t-260 110q-143 91 -143 279t132 303t333 114q152 0 283 -55l65 66h35v-420h-47q-125 352 -369 352q-113 0 -187 -69t-75 -185q0 -116 80 -175q80 -57 214 -103t174 -61t101 -49
q175 -97 172 -300q0 -171 -103 -302q-116 -149 -388 -149q-148 0 -295 74l-115 -82h-37zM749 1952q37 0 59 -24t21 -58q0 -53 -84 -137l-182 -183h-47l111 256q33 80 59 113q27 33 63 33z" />
    <glyph glyph-name="sacute" unicode="&#x15b;" horiz-adv-x="841" 
d="M94 -16v323h43q86 -152 156 -212t160 -60t137 48t47 117q0 70 -53 112t-203 85q-149 43 -215 103t-66 176t90 198t222 82t221 -55l41 55h35v-286h-43q-74 129 -130 183t-134 54t-124 -44q-48 -44 -48 -110q0 -67 54 -107q56 -40 196 -80t208 -101q66 -61 66 -182
t-82 -210t-236 -89q-55 0 -126 19t-115 48l-66 -67h-35zM589 1493q37 0 59 -24q22 -23 22 -67t-84 -128l-183 -182h-47l111 256q33 80 59 112t63 33z" />
    <glyph glyph-name="Scedilla" unicode="&#x15e;" horiz-adv-x="1132" 
d="M737 -334q-1 -76 -63 -128t-170 -52t-199 68l29 40q74 -53 155 -53q119 0 119 113q0 51 -42 81q-69 49 -181 19l-18 25l202 190q-174 4 -311 74l-115 -82h-37v471h48q86 -199 191 -302t251 -103t223 81q78 80 78 194t-81 177q-82 63 -280 134t-260 110q-143 91 -143 279
t132 303t333 114q152 0 283 -55l65 66h35v-420h-47q-125 352 -369 352q-113 0 -187 -69t-75 -185q0 -116 80 -175q80 -57 214 -103t174 -61t101 -49q60 -34 92 -70q81 -93 81 -245q-1 -153 -100 -283t-306 -149l-131 -125l4 -6q113 -2 169 -51t56 -125z" />
    <glyph glyph-name="scedilla" unicode="&#x15f;" horiz-adv-x="841" 
d="M590 -334q0 -76 -62 -128t-172 -52q-108 0 -198 68l28 40q74 -53 156 -53q119 0 119 113q0 51 -42 81q-70 50 -181 19l-19 25l219 205h-2q-55 0 -126 19t-115 48l-66 -67h-35v323h43q86 -152 156 -212t160 -60t137 48t47 117q0 70 -53 112t-203 85q-149 43 -215 103
t-66 176t90 198t222 82t221 -55l41 55h35v-286h-43q-74 129 -130 183t-134 54t-124 -44q-48 -44 -48 -110q0 -67 54 -107q56 -40 196 -80t208 -101q66 -61 66 -174t-62 -197t-182 -104l-150 -142l5 -6q113 -2 169 -51t56 -125z" />
    <glyph glyph-name="Scaron" unicode="&#x160;" horiz-adv-x="1132" 
d="M106 -39v471h48q86 -199 191 -302t251 -103t223 81q78 80 78 194t-81 177q-82 63 -280 134t-260 110q-143 91 -143 279t132 303t333 114q152 0 283 -55l65 66h35v-420h-47q-125 352 -369 352q-113 0 -187 -69t-75 -185q0 -116 80 -175q80 -57 214 -103t174 -61t101 -49
q175 -97 172 -300q0 -171 -103 -302q-116 -149 -388 -149q-148 0 -295 74l-115 -82h-37zM575 1550l-239 375h49l219 -201l223 201h47l-256 -375h-43z" />
    <glyph glyph-name="scaron" unicode="&#x161;" horiz-adv-x="841" 
d="M94 -16v323h43q86 -152 156 -212t160 -60t137 48t47 117q0 70 -53 112t-203 85q-149 43 -215 103t-66 176t90 198t222 82t221 -55l41 55h35v-286h-43q-74 129 -130 183t-134 54t-124 -44q-48 -44 -48 -110q0 -67 54 -107q56 -40 196 -80t208 -101q66 -61 66 -182
t-82 -210t-236 -89q-55 0 -126 19t-115 48l-66 -67h-35zM418 1092l-240 374h49l219 -200l224 200h47l-256 -374h-43z" />
    <glyph glyph-name="Tcommaaccent" unicode="&#x162;" horiz-adv-x="1361" 
d="M350 0v47q133 4 186 31q52 27 52 86v1167h-103q-125 0 -203 -85t-157 -283l-45 4l12 422h1184l14 -422l-45 -4q-76 190 -154 279q-79 89 -206 89h-105v-1167q0 -59 52 -86t186 -31v-47h-668zM644 -354q-36 0 -62 28t-27 73q0 44 32 77t86 33t88 -42t34 -112
q0 -182 -236 -299l-24 35q170 104 180 223l-13 2q-22 -18 -58 -18z" />
    <glyph glyph-name="tcommaaccent" unicode="&#x163;" horiz-adv-x="710" 
d="M428 -20q-219 0 -219 260v620h-184v39l186 43v260l170 74v-340h295v-74h-295v-620q0 -88 30 -128t93 -40q84 0 166 125l35 -25q-107 -194 -277 -194zM370 -354q-36 0 -63 28t-27 73q0 44 32 77t86 33t88 -42t34 -112q1 -182 -235 -299l-25 35q170 104 180 223l-12 2
q-22 -18 -58 -18z" />
    <glyph glyph-name="Tcaron" unicode="&#x164;" horiz-adv-x="1361" 
d="M350 0v47q133 4 186 31q52 27 52 86v1167h-103q-125 0 -203 -85t-157 -283l-45 4l12 422h1184l14 -422l-45 -4q-76 190 -154 279q-79 89 -206 89h-105v-1167q0 -59 52 -86t186 -31v-47h-668zM657 1550l-239 375h49l219 -201l223 201h47l-256 -375h-43z" />
    <glyph glyph-name="tcaron" unicode="&#x165;" horiz-adv-x="720" 
d="M428 -20q-219 0 -219 260v620h-184v39l186 43v260l170 74v-340h295v-74h-295v-620q0 -88 30 -128t93 -40q84 0 166 125l35 -25q-107 -194 -277 -194zM656 1577q34 0 57 -24q49 -51 -4 -189l-86 -256h-35l-13 227l-6 131q0 57 26 84q27 27 61 27z" />
    <glyph glyph-name="Umacron" unicode="&#x16a;" horiz-adv-x="1546" 
d="M532 1606v98h570v-98h-570zM1307 410q0 -193 -135 -319t-380 -126t-385 112t-141 302v846q0 59 -47 87t-174 31v46h623v-46q-133 -5 -170 -29t-37 -89v-803q1 -197 113 -287t284 -90t275 98q109 113 108 310v606q0 145 -52 205t-202 82v43h537v-43q-137 -25 -177 -81
t-40 -206v-649z" />
    <glyph glyph-name="umacron" unicode="&#x16b;" horiz-adv-x="1128" 
d="M268 1147v98h570v-98h-570zM432 -16q-114 0 -180 74t-66 208v535q0 49 -31 69q-32 20 -120 23v43l323 10v-612q0 -130 45 -186t148 -56q129 0 229 135v574q0 47 -32 69t-119 23v43l323 10v-829q0 -39 32 -55t118 -19v-43h-318v170q-159 -186 -352 -186z" />
    <glyph glyph-name="Ubreve" unicode="&#x16c;" horiz-adv-x="1546" 
d="M817 1563q-115 0 -189 88t-85 225h41q33 -94 88 -137t145 -43t145 43q54 43 85 137h40q-11 -137 -83 -225t-187 -88zM1307 410q0 -193 -135 -319t-380 -126t-385 112t-141 302v846q0 59 -47 87t-174 31v46h623v-46q-133 -5 -170 -29t-37 -89v-803q1 -197 113 -287
t284 -90t275 98q109 113 108 310v606q0 145 -52 205t-202 82v43h537v-43q-137 -25 -177 -81t-40 -206v-649z" />
    <glyph glyph-name="ubreve" unicode="&#x16d;" horiz-adv-x="1128" 
d="M555 1104q-115 0 -189 88t-85 225h41q33 -94 88 -137t145 -43t144 43t85 137h41q-11 -137 -83 -225t-187 -88zM432 -16q-114 0 -180 74t-66 208v535q0 49 -31 69q-32 20 -120 23v43l323 10v-612q0 -130 45 -186t148 -56q129 0 229 135v574q0 47 -32 69t-119 23v43l323 10
v-829q0 -39 32 -55t118 -19v-43h-318v170q-159 -186 -352 -186z" />
    <glyph glyph-name="Uring" unicode="&#x16e;" horiz-adv-x="1546" 
d="M1307 410q0 -193 -135 -319t-380 -126t-385 112t-141 302v846q0 59 -47 87t-174 31v46h623v-46q-133 -5 -170 -29t-37 -89v-803q1 -197 113 -287t284 -90t275 98q109 113 108 310v606q0 145 -52 205t-202 82v43h537v-43q-137 -25 -177 -81t-40 -206v-649zM815 1608
q55 0 88 46t33 118q0 164 -121 163q-121 0 -121 -163q0 -72 33 -118t88 -46zM816 1563q-97 0 -156 60q-58 61 -58 149t58 148t154 60t156 -60q58 -60 58 -148t-57 -149q-58 -60 -155 -60z" />
    <glyph glyph-name="uring" unicode="&#x16f;" horiz-adv-x="1128" 
d="M432 -16q-114 0 -180 74t-66 208v535q0 49 -31 69q-32 20 -120 23v43l323 10v-612q0 -130 45 -186t148 -56q129 0 229 135v574q0 47 -32 69t-119 23v43l323 10v-829q0 -39 32 -55t118 -19v-43h-318v170q-159 -186 -352 -186zM551 1149q55 0 88 46t33 118q0 164 -121 164
t-121 -164q0 -72 33 -118t88 -46zM552 1104q-97 0 -156 60q-58 60 -58 148t58 149t154 61t156 -60q58 -60 58 -149q0 -88 -57 -149q-58 -60 -155 -60z" />
    <glyph glyph-name="Uhungarumlaut" unicode="&#x170;" horiz-adv-x="1546" 
d="M854 1952q34 0 56 -23t22 -57q0 -53 -90 -139l-187 -183h-51l123 256q37 80 65 113t62 33zM1162 1952q34 0 56 -23t21 -57q0 -53 -90 -139l-186 -183h-50l121 256q37 80 65 113q29 33 63 33zM1307 410q0 -193 -135 -319t-380 -126t-385 112t-141 302v846q0 59 -47 87
t-174 31v46h623v-46q-133 -5 -170 -29t-37 -89v-803q1 -197 113 -287t284 -90t275 98q109 113 108 310v606q0 145 -52 205t-202 82v43h537v-43q-137 -25 -177 -81t-40 -206v-649z" />
    <glyph glyph-name="uhungarumlaut" unicode="&#x171;" horiz-adv-x="1128" 
d="M584 1493q34 0 56 -23t22 -57q0 -53 -91 -139l-186 -182h-51l123 256q37 80 65 112t62 33zM891 1493q35 0 57 -23t21 -57q0 -53 -90 -139l-187 -182h-49l121 256q36 80 64 112t63 33zM432 -16q-114 0 -180 74t-66 208v535q0 49 -31 69q-32 20 -120 23v43l323 10v-612
q0 -130 45 -186t148 -56q129 0 229 135v574q0 47 -32 69t-119 23v43l323 10v-829q0 -39 32 -55t118 -19v-43h-318v170q-159 -186 -352 -186z" />
    <glyph glyph-name="Uogonek" unicode="&#x172;" horiz-adv-x="1546" 
d="M791 -35q-244 0 -384 112t-141 302v846q0 59 -47 87t-174 31v46h623v-46q-133 -5 -170 -29t-37 -89v-803q1 -197 113 -287t284 -90t275 98q109 113 108 310v606q0 145 -52 205t-202 82v43h537v-43q-137 -25 -177 -81t-40 -206v-649q0 -176 -114 -298t-325 -143l-20 -26
q-104 -123 -104 -246t116 -123q57 0 123 35l23 -41q-100 -66 -196 -66t-153 45q-55 45 -55 117t41 133t139 152l17 16h-8z" />
    <glyph glyph-name="uogonek" unicode="&#x173;" horiz-adv-x="1128" 
d="M432 -16q-114 0 -180 74t-66 208v535q0 49 -31 69q-32 20 -120 23v43l323 10v-612q0 -130 45 -186t148 -56q129 0 229 135v574q0 47 -32 69t-119 23v43l323 10v-829q0 -39 32 -55t118 -19v-43h-58l-69 -61q-135 -121 -135 -240q0 -61 32 -93t85 -32q54 0 124 35l23 -41
q-100 -66 -196 -66t-153 46t-57 119t50 139t165 149l62 45h-191v170q-159 -186 -352 -186z" />
    <glyph glyph-name="Wcircumflex" unicode="&#x174;" horiz-adv-x="2025" 
d="M745 1389h572v-43q-123 -8 -154 -40t-6 -112l291 -918h8l252 787q49 156 21 208q-29 52 -170 75v43h493v-43q-109 -20 -168 -85t-106 -212l-355 -1088h-67l-322 983l-366 -983h-70l-373 1206q-29 92 -71 125q-43 33 -160 54v43h584v-43q-117 -8 -145 -42t-5 -110
l268 -922h9l294 777l-32 106q-33 104 -76 140t-146 51v43zM764 1550l256 375h43l240 -375h-48l-221 201l-221 -201h-49z" />
    <glyph glyph-name="wcircumflex" unicode="&#x175;" horiz-adv-x="1480" 
d="M559 940h438v-41q-131 -8 -131 -80q0 -18 11 -45l198 -555h8l156 459q31 92 31 125q0 78 -127 96v41h368v-41q-69 -8 -111 -49t-71 -123l-270 -741h-62l-227 614l-254 -614h-61l-295 766q-31 78 -65 108t-105 39v41h452v-41q-127 -8 -127 -78q0 -16 11 -47l211 -557h8
l196 467l-26 68q-29 78 -61 108t-95 39v41zM512 1092l256 374h43l240 -374h-47l-222 200l-221 -200h-49z" />
    <glyph glyph-name="Ycircumflex" unicode="&#x176;" horiz-adv-x="1341" 
d="M444 1550l256 375h43l240 -375h-47l-221 201l-221 -201h-50zM893 1389h469v-43q-100 -18 -156 -62t-133 -172l-299 -500v-448q0 -59 47 -86t178 -31v-47h-643v47q131 4 179 31q47 27 47 86v418l-357 616q-41 72 -84 102t-133 46v43h598v-43q-137 -8 -169 -48t14 -108
l288 -512l250 430q76 123 60 171t-156 67v43z" />
    <glyph glyph-name="ycircumflex" unicode="&#x177;" horiz-adv-x="1001" 
d="M287 1092l256 374h43l239 -374h-47l-221 200l-221 -200h-49zM-12 940h467v-41q-92 -6 -117 -36t-2 -87l239 -575l193 477q45 113 26 160t-128 61v41h364v-41q-104 -14 -170 -172l-332 -801q-78 -190 -154 -264t-158 -74q-81 0 -124 40t-43 94t29 87t77 33q47 0 77 -32
t30 -79q0 -48 -26 -77q59 4 115 72t128 245l13 27l-332 754q-35 80 -69 110t-103 37v41z" />
    <glyph glyph-name="Ydieresis" unicode="&#x178;" horiz-adv-x="1341" 
d="M643 1678q0 -50 -32 -82t-80 -33q-49 1 -79 33t-30 81t31 83t79 34t79 -33q32 -33 32 -83zM1010 1678q0 -50 -32 -82t-80 -33q-48 1 -79 33t-31 81t31 83t79 34t80 -33t32 -83zM893 1389h469v-43q-100 -18 -156 -62t-133 -172l-299 -500v-448q0 -59 47 -86t178 -31v-47
h-643v47q131 4 179 31q47 27 47 86v418l-357 616q-41 72 -84 102t-133 46v43h598v-43q-137 -8 -169 -48t14 -108l288 -512l250 430q76 123 60 171t-156 67v43z" />
    <glyph glyph-name="Zacute" unicode="&#x179;" horiz-adv-x="1277" 
d="M561 1331q-119 0 -203 -82t-182 -280l-45 4l41 416h1018l2 -31l-864 -1301h436q68 1 117 19t96 74t81 113q34 58 95 177l45 -4l-39 -436h-1075l-2 31l864 1300h-385zM839 1952q37 0 59 -24t22 -68t-84 -127l-183 -183h-47l111 256q33 80 59 113q27 33 63 33z" />
    <glyph glyph-name="zacute" unicode="&#x17a;" horiz-adv-x="942" 
d="M455 883q-101 1 -159 -53t-138 -203l-43 4l24 309h738l4 -29l-592 -854h223q111 1 174 61t139 210l45 -4l-26 -324h-768l-4 29l594 854h-211zM675 1493q37 0 59 -24q22 -23 22 -67t-84 -128l-183 -182h-47l111 256q33 80 59 112t63 33z" />
    <glyph glyph-name="Zdotaccent" unicode="&#x17b;" horiz-adv-x="1277" 
d="M670 1563q-51 1 -83 33t-32 84t33 87t83 35t82 -33q31 -33 31 -86t-31 -87q-32 -33 -83 -33zM561 1331q-119 0 -203 -82t-182 -280l-45 4l41 416h1018l2 -31l-864 -1301h436q68 1 117 19t96 74t81 113q34 58 95 177l45 -4l-39 -436h-1075l-2 31l864 1300h-385z" />
    <glyph glyph-name="zdotaccent" unicode="&#x17c;" horiz-adv-x="942" 
d="M502 1104q-51 0 -83 33t-32 85t33 87t83 35t82 -34q31 -32 31 -85t-32 -87t-82 -34zM455 883q-101 1 -159 -53t-138 -203l-43 4l24 309h738l4 -29l-592 -854h223q111 1 174 61t139 210l45 -4l-26 -324h-768l-4 29l594 854h-211z" />
    <glyph glyph-name="Zcaron" unicode="&#x17d;" horiz-adv-x="1277" 
d="M561 1331q-119 0 -203 -82t-182 -280l-45 4l41 416h1018l2 -31l-864 -1301h436q68 1 117 19t96 74t81 113q34 58 95 177l45 -4l-39 -436h-1075l-2 31l864 1300h-385zM627 1550l-240 375h49l219 -201l224 201h47l-256 -375h-43z" />
    <glyph glyph-name="zcaron" unicode="&#x17e;" horiz-adv-x="942" 
d="M455 883q-101 1 -159 -53t-138 -203l-43 4l24 309h738l4 -29l-592 -854h223q111 1 174 61t139 210l45 -4l-26 -324h-768l-4 29l594 854h-211zM459 1092l-240 374h49l219 -200l224 200h47l-256 -374h-43z" />
    <glyph glyph-name="Aringacute" unicode="&#x1fa;" horiz-adv-x="1353" 
d="M862 2259q36 0 58 -24q23 -24 22 -58q0 -53 -84 -137l-182 -182h-47l110 256q33 80 60 112t63 33zM692 1432q57 0 89 44t32 119q0 166 -121 166t-121 -166q0 -75 32 -119t89 -44zM829 586l-200 579h-8l-226 -579h434zM418 0h-461v41q100 25 157 91q56 67 119 222
l416 1039q-76 14 -122 70t-46 137q1 82 59 142t151 60t153 -60t59 -142q0 -82 -45 -136q-45 -55 -119 -69l424 -1162q37 -100 81 -138t157 -52v-43h-615v47q137 6 171 40t4 122l-111 319h-477l-72 -186q-63 -168 -41 -223t158 -78v-41z" />
    <glyph glyph-name="aringacute" unicode="&#x1fb;" 
d="M498 1149q55 0 88 46t32 118q0 164 -120 164t-121 -164q0 -72 33 -118t88 -46zM499 1104q-97 0 -156 60q-58 60 -58 148t58 149q59 61 155 61t154 -60t58 -149t-56 -149q-58 -60 -155 -60zM665 2003q37 0 59 -24t21 -58q0 -53 -83 -137l-183 -182h-47l111 256
q33 80 59 112t63 33zM440 82q113 0 205 129v287q-221 -50 -292 -100t-71 -138q2 -178 158 -178zM342 -12q-122 0 -186 62t-64 153q0 141 116 205t352 117q75 17 85 26v94q0 137 -43 197t-144 59q-101 0 -157 -61q39 -56 39 -102t-29 -78t-78 -32t-77 32t-27 79q0 87 103 149
t251 62q334 0 334 -286v-482q0 -80 33 -106t125 0l8 -35q-106 -49 -185 -49t-109 36t-36 122h-8q-143 -162 -303 -162z" />
    <glyph glyph-name="AEacute" unicode="&#x1fc;" horiz-adv-x="2033" 
d="M965 610v678h-19l-428 -678h447zM254 137q0 -70 125 -94v-43h-459v43q102 25 184 99t170 212l533 830q27 41 27 71q0 68 -203 93v41h1239l6 -410l-45 -2q-70 199 -148 275t-243 77h-281v-579h125q127 0 187 49t100 207h41v-570h-41q-39 158 -98 206t-189 48h-125v-631
h281q195 0 290 88t166 299l46 -2l-11 -444h-1188v47q127 4 175 31q47 27 47 86v389h-484l-147 -238q-80 -121 -80 -178zM1374 1952q36 0 58 -24q23 -24 22 -58q0 -53 -84 -137l-182 -183h-47l110 256q33 80 60 113t63 33z" />
    <glyph glyph-name="aeacute" unicode="&#x1fd;" horiz-adv-x="1546" 
d="M968 1493q36 0 58 -24q22 -23 23 -67q0 -44 -84 -128l-183 -182h-47l111 256q34 80 60 112t62 33zM430 82q70 0 134 41q65 41 98 98v277q-224 -48 -302 -100t-77 -152q1 -74 39 -119t108 -45zM1080 907q-219 0 -238 -342l436 6q14 154 -38 245t-160 91zM1092 956
q188 0 287 -129t87 -309h-626v-37q0 -178 82 -291t233 -112q86 0 154 45t137 131l31 -27q-68 -113 -158 -179t-232 -64q-268 0 -364 219h-16q-61 -91 -159 -153t-213 -62t-179 62t-64 153q0 141 117 205t361 117q79 17 92 26v94q0 256 -201 256q-104 0 -160 -61
q39 -56 39 -102t-29 -78t-78 -32t-77 32t-27 79q0 87 103 149t251 62q227 0 297 -137q124 143 312 143z" />
    <glyph glyph-name="Oslashacute" unicode="&#x1fe;" horiz-adv-x="1513" 
d="M923 1952q37 0 59 -24t22 -68t-84 -127l-183 -183h-47l111 256q33 80 59 113q27 33 63 33zM766 23q430 0 430 671q0 254 -68 412l-710 -893q112 -190 348 -190zM748 1366q-428 0 -429 -672q0 -260 66 -415l711 895q-115 192 -348 192zM773 -35q-255 0 -433 150l-150 -187
h-84l185 232q-197 208 -197 530t196 527t468 204q240 0 416 -151l149 190h86l-186 -235q197 -203 197 -526t-196 -529t-451 -205z" />
    <glyph glyph-name="oslashacute" unicode="&#x1ff;" horiz-adv-x="1077" 
d="M714 1493q36 0 58 -24q22 -23 23 -67q0 -44 -84 -128l-183 -182h-47l111 256q34 80 60 112t62 33zM272 471q0 -143 33 -246l440 557q-72 125 -215 125q-258 0 -258 -436zM549 35q258 0 258 436q0 147 -35 246l-438 -555q72 -127 215 -127zM78 460q0 218 133 357t330 139
q160 0 274 -86l98 123h78l-129 -164q137 -133 137 -350t-132 -356t-326 -139q-160 0 -279 86l-96 -123h-78l127 162q-137 133 -137 351z" />
    <glyph glyph-name="Scommaaccent" unicode="&#x218;" horiz-adv-x="1132" 
d="M106 -39v471h48q86 -199 191 -302t251 -103t223 81q78 80 78 194t-81 177q-82 63 -280 134t-260 110q-143 91 -143 279t132 303t333 114q152 0 283 -55l65 66h35v-420h-47q-125 352 -369 352q-113 0 -187 -69t-75 -185q0 -116 80 -175q80 -57 214 -103t174 -61t101 -49
q175 -97 172 -300q0 -171 -103 -302q-116 -149 -388 -149q-148 0 -295 74l-115 -82h-37zM540 -354q-36 0 -63 28t-27 73q0 44 32 77t86 33t88 -42t34 -112q1 -182 -235 -299l-25 35q170 104 180 223l-12 2q-22 -18 -58 -18z" />
    <glyph glyph-name="scommaaccent" unicode="&#x219;" horiz-adv-x="841" 
d="M94 -16v323h43q86 -152 156 -212t160 -60t137 48t47 117q0 70 -53 112t-203 85q-149 43 -215 103t-66 176t90 198t222 82t221 -55l41 55h35v-286h-43q-74 129 -130 183t-134 54t-124 -44q-48 -44 -48 -110q0 -67 54 -107q56 -40 196 -80t208 -101q66 -61 66 -182
t-82 -210t-236 -89q-55 0 -126 19t-115 48l-66 -67h-35zM392 -354q-36 0 -62 28t-27 73q0 44 32 77t86 33t88 -42t34 -112q0 -182 -236 -299l-24 35q170 104 180 223l-12 2q-23 -18 -59 -18z" />
    <glyph glyph-name="schwa" unicode="&#x259;" 
d="M473 33q211 0 236 342l-441 -6q-14 -154 38 -245t167 -91zM713 459q0 178 -84 291t-238 112q-85 0 -153 -45t-138 -131l-30 27q68 113 157 178q91 65 232 65q203 0 323 -135t119 -344q0 -209 -127 -351q-128 -142 -318 -142t-289 129t-87 309h631l2 35v2z" />
    <glyph glyph-name="circumflex" unicode="&#x2c6;" horiz-adv-x="612" 
d="M37 1092l256 374h43l239 -374h-47l-221 200l-221 -200h-49z" />
    <glyph glyph-name="caron" unicode="&#x2c7;" horiz-adv-x="612" 
d="M279 1092l-240 374h49l219 -200l223 200h48l-256 -374h-43z" />
    <glyph glyph-name="breve" unicode="&#x2d8;" horiz-adv-x="688" 
d="M346 1104q-114 0 -188 88t-86 225h41q33 -94 88 -137t145 -43t144 43t85 137h41q-10 -137 -82 -225t-188 -88z" />
    <glyph glyph-name="dotaccent" unicode="&#x2d9;" horiz-adv-x="393" 
d="M197 1104q-51 0 -83 33t-32 85t33 87t83 35t82 -34q32 -32 32 -85t-32 -87t-83 -34z" />
    <glyph glyph-name="ring" unicode="&#x2da;" horiz-adv-x="528" 
d="M264 1149q55 0 88 46t33 118q0 164 -121 164t-121 -164q0 -72 33 -118t88 -46zM265 1104q-97 0 -155 60t-58 148t58 149t154 61t154 -60t59 -149q0 -88 -57 -149q-58 -60 -155 -60z" />
    <glyph glyph-name="ogonek" unicode="&#x2db;" horiz-adv-x="489" 
d="M239 -498q-96 0 -151 45t-55 117t41 133t139 152l80 76h53l-67 -82q-105 -123 -105 -246t117 -123q57 0 123 35l22 -41q-101 -66 -197 -66z" />
    <glyph glyph-name="tilde" unicode="&#x2dc;" horiz-adv-x="677" 
d="M651 1356q-45 -246 -179 -246q-68 0 -170 48t-132 48q-63 0 -94 -119h-47q23 129 65 188q43 58 129 58q51 0 153 -49t134 -49q61 0 94 121h47z" />
    <glyph glyph-name="hungarumlaut" unicode="&#x2dd;" horiz-adv-x="589" 
d="M224 1493q34 0 56 -23t21 -57q0 -53 -90 -139l-186 -182h-52l123 256q37 80 65 112q29 32 63 33zM530 1493q34 0 57 -23q22 -23 21 -57q0 -53 -90 -139l-186 -182h-49l120 256q37 80 65 112t62 33z" />
    <glyph glyph-name="commaaccent" unicode="&#x326;" horiz-adv-x="462" 
d="M208 -354q-36 0 -63 28t-27 73q0 44 33 77q31 33 85 33t88 -42t34 -112q1 -182 -235 -299l-25 35q170 104 181 223l-13 2q-22 -18 -58 -18z" />
    <glyph glyph-name="Wgrave" unicode="&#x1e80;" horiz-adv-x="2025" 
d="M754 1861q0 43 24 67t58 24q36 0 62 -33t58 -113l111 -256h-47l-182 183q-84 84 -84 128zM745 1389h572v-43q-123 -8 -154 -40t-6 -112l291 -918h8l252 787q49 156 21 208q-29 52 -170 75v43h493v-43q-109 -20 -168 -85t-106 -212l-355 -1088h-67l-322 983l-366 -983h-70
l-373 1206q-29 92 -71 125q-43 33 -160 54v43h584v-43q-117 -8 -145 -42t-5 -110l268 -922h9l294 777l-32 106q-33 104 -76 140t-146 51v43z" />
    <glyph glyph-name="wgrave" unicode="&#x1e81;" horiz-adv-x="1480" 
d="M489 1402q0 44 24 68q25 24 59 23q34 0 61 -33t59 -112l111 -256h-47l-183 182q-84 84 -84 128zM559 940h438v-41q-131 -8 -131 -80q0 -18 11 -45l198 -555h8l156 459q31 92 31 125q0 78 -127 96v41h368v-41q-69 -8 -111 -49t-71 -123l-270 -741h-62l-227 614l-254 -614
h-61l-295 766q-31 78 -65 108t-105 39v41h452v-41q-127 -8 -127 -78q0 -16 11 -47l211 -557h8l196 467l-26 68q-29 78 -61 108t-95 39v41z" />
    <glyph glyph-name="Wacute" unicode="&#x1e82;" horiz-adv-x="2025" 
d="M745 1389h572v-43q-123 -8 -154 -40t-6 -112l291 -918h8l252 787q49 156 21 208q-29 52 -170 75v43h493v-43q-109 -20 -168 -85t-106 -212l-355 -1088h-67l-322 983l-366 -983h-70l-373 1206q-29 92 -71 125q-43 33 -160 54v43h584v-43q-117 -8 -145 -42t-5 -110
l268 -922h9l294 777l-32 106q-33 104 -76 140t-146 51v43zM1228 1952q36 0 58 -24t23 -68q0 -44 -84 -127l-183 -183h-47l111 256q33 80 59 113q27 33 63 33z" />
    <glyph glyph-name="wacute" unicode="&#x1e83;" horiz-adv-x="1480" 
d="M559 940h438v-41q-131 -8 -131 -80q0 -18 11 -45l198 -555h8l156 459q31 92 31 125q0 78 -127 96v41h368v-41q-69 -8 -111 -49t-71 -123l-270 -741h-62l-227 614l-254 -614h-61l-295 766q-31 78 -65 108t-105 39v41h452v-41q-127 -8 -127 -78q0 -16 11 -47l211 -557h8
l196 467l-26 68q-29 78 -61 108t-95 39v41zM978 1493q36 0 58 -24q22 -23 23 -67q0 -44 -84 -128l-182 -182h-48l111 256q34 80 60 112t62 33z" />
    <glyph glyph-name="Wdieresis" unicode="&#x1e84;" horiz-adv-x="2025" 
d="M745 1389h572v-43q-123 -8 -154 -40t-6 -112l291 -918h8l252 787q49 156 21 208q-29 52 -170 75v43h493v-43q-109 -20 -168 -85t-106 -212l-355 -1088h-67l-322 983l-366 -983h-70l-373 1206q-29 92 -71 125q-43 33 -160 54v43h584v-43q-117 -8 -145 -42t-5 -110
l268 -922h9l294 777l-32 106q-33 104 -76 140t-146 51v43zM963 1678q0 -50 -32 -82t-80 -33q-48 1 -79 33t-31 81t31 83t79 34t80 -33t32 -83zM1218 1794q48 0 80 -33t31 -83q1 -50 -31 -82t-80 -33q-48 1 -79 33t-31 81t31 83t79 34z" />
    <glyph glyph-name="wdieresis" unicode="&#x1e85;" horiz-adv-x="1480" 
d="M559 940h438v-41q-131 -8 -131 -80q0 -18 11 -45l198 -555h8l156 459q31 92 31 125q0 78 -127 96v41h368v-41q-69 -8 -111 -49t-71 -123l-270 -741h-62l-227 614l-254 -614h-61l-295 766q-31 78 -65 108t-105 39v41h452v-41q-127 -8 -127 -78q0 -16 11 -47l211 -557h8
l196 467l-26 68q-29 78 -61 108t-95 39v41zM597 1104q-48 0 -79 33t-31 82t31 83t79 34t80 -34q32 -32 32 -82t-32 -83t-80 -33zM1075 1220q1 -50 -31 -83t-80 -33t-79 33t-31 82t31 83t79 34t80 -34q32 -32 31 -82z" />
    <glyph glyph-name="Ygrave" unicode="&#x1ef2;" horiz-adv-x="1341" 
d="M420 1861q0 43 24 67t58 24q36 0 62 -33t59 -113l110 -256h-47l-182 183q-84 84 -84 128zM893 1389h469v-43q-100 -18 -156 -62t-133 -172l-299 -500v-448q0 -59 47 -86t178 -31v-47h-643v47q131 4 179 31q47 27 47 86v418l-357 616q-41 72 -84 102t-133 46v43h598v-43
q-137 -8 -169 -48t14 -108l288 -512l250 430q76 123 60 171t-156 67v43z" />
    <glyph glyph-name="ygrave" unicode="&#x1ef3;" horiz-adv-x="1001" 
d="M240 1402q0 44 24 68t58 23q34 0 61 -33t59 -112l111 -256h-47l-182 182q-84 84 -84 128zM-12 940h467v-41q-92 -6 -117 -36t-2 -87l239 -575l193 477q45 113 26 160t-128 61v41h364v-41q-104 -14 -170 -172l-332 -801q-78 -190 -154 -264t-158 -74q-81 0 -124 40t-43 94
t29 87t77 33q47 0 77 -32t30 -79q0 -48 -26 -77q59 4 115 72t128 245l13 27l-332 754q-35 80 -69 110t-103 37v41z" />
    <glyph glyph-name="enspace" unicode="&#x2002;" horiz-adv-x="1024" 
 />
    <glyph glyph-name="emspace" unicode="&#x2003;" horiz-adv-x="2048" 
 />
    <glyph glyph-name="threeperemspace" unicode="&#x2004;" horiz-adv-x="681" 
 />
    <glyph glyph-name="fourperemspace" unicode="&#x2005;" horiz-adv-x="512" 
 />
    <glyph glyph-name="thinspace" unicode="&#x2009;" horiz-adv-x="272" 
 />
    <glyph glyph-name="hairspace" unicode="&#x200a;" horiz-adv-x="153" 
 />
    <glyph glyph-name="endash" unicode="&#x2013;" horiz-adv-x="1105" 
d="M113 483v76h880v-76h-880z" />
    <glyph glyph-name="emdash" unicode="&#x2014;" horiz-adv-x="1617" 
d="M113 483v76h1392v-76h-1392z" />
    <glyph glyph-name="quoteleft" unicode="&#x2018;" horiz-adv-x="458" 
d="M230 915q-58 0 -96 43t-38 113q0 223 305 354l23 -39q-106 -49 -169 -118q-62 -70 -73 -142l11 -4q29 18 65 18t66 -29q28 -30 28 -77t-32 -83t-90 -36z" />
    <glyph glyph-name="quoteright" unicode="&#x2019;" horiz-adv-x="458" 
d="M206 1190q-38 0 -68 31t-30 77t34 82q34 37 90 37t96 -43t39 -114q-1 -220 -306 -355l-24 39q109 51 171 121t71 139l-11 6q-24 -20 -62 -20z" />
    <glyph glyph-name="quotesinglbase" unicode="&#x201a;" horiz-adv-x="458" 
d="M206 -16q-38 0 -68 30t-30 77q0 46 34 83t90 37t96 -43t39 -115q-1 -219 -306 -354l-24 39q109 51 171 121t71 139l-11 6q-24 -20 -62 -20z" />
    <glyph glyph-name="quotedblleft" unicode="&#x201c;" horiz-adv-x="829" 
d="M230 915q-58 0 -96 43t-38 113q0 223 305 354l23 -39q-106 -49 -169 -118q-62 -70 -73 -142l11 -4q29 18 65 18t66 -29q28 -30 28 -77t-32 -83t-90 -36zM599 915q-56 0 -95 43t-39 113q0 223 305 354l25 -39q-109 -48 -171 -118t-71 -142l10 -4q27 18 65 18t66 -29
q28 -30 29 -77q0 -47 -34 -83t-90 -36z" />
    <glyph glyph-name="quotedblright" unicode="&#x201d;" horiz-adv-x="829" 
d="M206 1190q-38 0 -68 31t-30 77t34 82q34 37 90 37t96 -43t39 -114q-1 -220 -306 -355l-24 39q109 51 171 121t71 139l-11 6q-24 -20 -62 -20zM576 1190q-36 0 -67 31q-30 31 -30 77t33 83q32 36 90 36t96 -43t37 -114q0 -222 -305 -355l-22 39q106 51 169 121
q62 70 72 139l-10 6q-27 -20 -63 -20z" />
    <glyph glyph-name="quotedblbase" unicode="&#x201e;" horiz-adv-x="829" 
d="M206 -16q-38 0 -68 30t-30 77q0 46 34 83t90 37t96 -43t39 -115q-1 -219 -306 -354l-24 39q109 51 171 121t71 139l-11 6q-24 -20 -62 -20zM576 -16q-36 0 -67 30q-30 30 -30 78q0 47 33 83q32 36 90 36t96 -43t37 -115q0 -221 -305 -354l-22 39q106 51 169 121
q62 70 72 139l-10 6q-27 -20 -63 -20z" />
    <glyph glyph-name="dagger" unicode="&#x2020;" horiz-adv-x="1093" 
d="M522 817q0 102 -114 103q-47 0 -126 -36t-120 -36t-71 19t-30 61t43 66q43 26 131 26t289 -102l6 8l-34 198q-39 199 -39 244t23 80q24 35 67 35t67 -35t23 -80q0 -45 -39 -244l-35 -198l6 -8q201 102 289 102t131 -26t43 -66t-30 -60t-70 -20t-120 36q-79 36 -126 36
q-115 0 -115 -103q0 -31 17 -63l69 -133q-12 -35 -49 -369t-43 -469h-37q-6 135 -43 469t-49 369l70 133q16 33 16 63z" />
    <glyph glyph-name="daggerdbl" unicode="&#x2021;" horiz-adv-x="1093" 
d="M547 -217q-43 0 -67 34t-24 74t40 238l34 182l-6 8q-193 -100 -285 -100q-178 0 -178 96q0 39 30 59t71 19q41 0 120 -36t126 -35q115 0 114 86q0 39 -18 86l-53 139l53 141q18 45 18 82q0 90 -114 90q-47 0 -126 -36t-120 -36t-71 20t-30 60q0 41 44 67t116 26
q117 0 303 -101l6 8l-34 185q-39 176 -39 226t23 84q24 34 67 34t67 -34t23 -73q0 -39 -39 -237l-35 -185l6 -8q186 100 303 101q72 0 116 -26t44 -67t-30 -60q-30 -20 -70 -20t-120 36q-79 36 -126 36q-115 0 -115 -86q0 -41 19 -86l53 -141l-53 -139q-18 -47 -19 -86
q0 -86 115 -86q47 0 126 36t120 35q40 0 70 -19q30 -20 30 -62t-44 -68t-116 -25q-111 0 -303 100l-6 -8l35 -182q39 -199 39 -239q1 -40 -23 -73q-24 -34 -67 -34z" />
    <glyph glyph-name="bullet" unicode="&#x2022;" horiz-adv-x="983" 
d="M492 395q-111 0 -190 78t-79 190q0 113 79 191t190 78q112 0 190 -79t78 -191t-78 -189q-78 -78 -190 -78z" />
    <glyph glyph-name="ellipsis" unicode="&#x2026;" horiz-adv-x="1345" 
d="M230 -33q-50 0 -86 36t-36 86t36 85t86 35t86 -35t36 -85t-36 -86t-86 -36zM674 -33q-51 0 -87 36t-36 86t36 85t87 35t86 -35t35 -85t-35 -86t-86 -36zM1117 -33q-50 0 -86 36t-36 86t36 85t86 35t86 -35t36 -85t-36 -86t-86 -36z" />
    <glyph glyph-name="guilsinglleft" unicode="&#x2039;" horiz-adv-x="614" 
d="M84 458q0 20 39 60l356 340l35 -27l-262 -372l262 -375l-35 -23l-356 338q-39 39 -39 59z" />
    <glyph glyph-name="guilsinglright" unicode="&#x203a;" horiz-adv-x="614" 
d="M137 61l-37 25l262 373l-262 375l37 24l355 -340q40 -39 40 -59t-40 -60z" />
    <glyph glyph-name="fraction" unicode="&#x2044;" horiz-adv-x="1173" 
d="M41 -117l1008 1465h81l-1005 -1465h-84z" />
    <glyph glyph-name="Euro" unicode="&#x20ac;" horiz-adv-x="1333" 
d="M870 504h-419q31 -198 141 -310t276 -112q217 0 340 223l52 -31q-82 -141 -186 -224t-271 -83q-242 0 -385 151t-178 386h-179v59h172q-2 27 -2 84t9 107h-179v61h189q51 225 213 373t389 149q172 0 283 -80t110 -188q0 -57 -34 -99t-90 -42t-93 36t-37 87t24 86t56 51
q-27 38 -87 66t-138 28q-158 0 -266 -116t-134 -351h424v-61h-430q-2 -29 -2 -79t4 -112h428v-59z" />
    <glyph glyph-name="published" unicode="&#x2117;" horiz-adv-x="1660" 
d="M766 686h90q92 0 132 44t40 140q0 176 -170 177h-92v-361zM510 313v41q74 2 98 14t25 40v589q0 29 -26 40t-97 14v41h338q168 0 247 -60t79 -160t-80 -166t-248 -65h-80v-233q0 -31 24 -42t99 -14v-39h-379zM830 1407q-300 0 -502 -207t-203 -506q1 -298 203 -506
t502 -208t503 208t203 507q0 300 -203 506t-503 206zM1593 694q0 -324 -220 -543t-543 -219q-322 0 -542 220t-220 542q0 324 220 543t542 219t543 -219q220 -219 220 -543z" />
    <glyph glyph-name="servicemark" unicode="&#x2120;" horiz-adv-x="1353" 
d="M563 858v33q49 6 66 28q16 22 16 74v299q0 59 -82 62v35h225l136 -385h12l133 385h219v-35q-82 -6 -82 -41v-379q0 -37 82 -39v-37h-250v37q43 2 57 10q13 8 13 29v377h-18l-160 -453h-49l-166 453h-23v-318q0 -53 16 -73t64 -29v-33h-209zM98 1036h37q68 -152 174 -151
q55 -1 83 27t28 65t-33 61t-99 43q-66 21 -98 35t-58 46t-26 90t56 102q56 45 126 45t132 -25l22 29h27v-178h-33q-57 135 -149 135q-43 0 -71 -24t-28 -60t31 -55q31 -21 97 -41t97 -34t57 -48t26 -92t-50 -109t-134 -51q-85 0 -150 26l-35 -28h-29v192z" />
    <glyph glyph-name="trademark" unicode="&#x2122;" horiz-adv-x="1449" 
d="M201 858v37q96 2 96 39v416h-23q-55 0 -86 -35t-59 -113h-33l8 187h482l8 -187h-33q-23 76 -55 112q-33 36 -90 36h-23v-416q0 -37 96 -39v-37h-288zM657 858v33q49 6 66 28q16 22 16 74v299q0 59 -82 62v35h226l135 -385h12l133 385h219v-35q-82 -6 -82 -41v-379
q0 -37 82 -39v-37h-249v37q43 2 56 10t13 29v377h-18l-160 -453h-49l-166 453h-23v-318q0 -53 16 -73t64 -29v-33h-209z" />
    <glyph glyph-name="minus" unicode="&#x2212;" horiz-adv-x="1071" 
d="M109 610v74h854v-74h-854z" />
    <glyph glyph-name="registered.alt" horiz-adv-x="1660" 
d="M741 678v-270q0 -31 23 -41t96 -13v-41h-375v41q74 2 99 14t24 40v589q0 29 -24 40q-25 11 -99 14v41h359q164 0 238 -54t73 -136q0 -81 -46 -127t-155 -68v-7q92 -8 130 -45t49 -112l14 -107q9 -53 29 -69t88 -19v-39q-10 -2 -92 -2t-122 30q-38 30 -44 109l-7 93
q-8 83 -45 111t-133 28h-80zM741 723h95q98 0 137 38t39 124t-42 124t-134 38h-95v-324zM830 1407q-300 0 -502 -207t-203 -506q1 -298 203 -506t502 -208t503 208t203 507q0 300 -203 506t-503 206zM1593 694q0 -324 -220 -543t-543 -219q-322 0 -542 220t-220 542
q0 324 220 543t542 219t543 -219q220 -219 220 -543z" />
    <glyph glyph-name="percent.alt" horiz-adv-x="1691" 
d="M1102 320q0 -162 45 -232t133 -70t129 69t41 231t-45 232q-45 71 -133 71t-129 -70t-41 -231zM942 314q0 150 97 252t239 102t238 -98q94 -98 94 -246q0 -150 -98 -252t-239 -102q-143 0 -237 97t-94 247zM410 1286q-86 0 -127 -70t-41 -229q0 -303 180 -303q86 0 128 70
t42 231q0 301 -182 301zM305 -20l518 694l469 651h94l-512 -688l-475 -657h-94zM82 980q0 150 97 252t239 101q142 0 238 -97q94 -96 94 -246t-96 -252t-240 -101q-143 0 -238 97q-94 96 -94 246z" />
    <glyph glyph-name="NUL" horiz-adv-x="1024" 
 />
    <glyph glyph-name="hfjslug" horiz-adv-x="1421" 
d="M872 580q-33 0 -32 34q0 12 9 24t23 11q14 0 24 -11t9 -24q0 -34 -33 -34zM997 612h-22v35h22q20 0 21 -16q-1 -19 -21 -19zM659 823q-33 0 -33 45t33 78l41 -80q-16 -43 -41 -43zM645 1056q0 30 29 29q27 -1 27 -35t-31 -69q-25 45 -25 75zM494 662l28 -97h17l22 70h2
l23 -70h16l29 97h-17l-20 -72h-2l-23 72h-14l-23 -72h-2l-20 72h-16zM270 662v-95h17v66l51 -66h14v95h-16v-66l-51 66h-15zM395 662v-95h70v15h-53v26h47v15h-47v24h53v15h-70zM750 567h16v35l37 60h-19l-26 -46l-27 46h-18l37 -60v-35zM872 565q20 1 34 15q33 33 1 68
q-15 16 -35 16t-34 -16t-14 -34q0 -20 14 -34t34 -15zM1034 631q0 31 -35 31h-41v-95h17v31h24l21 -31h18l-24 35q20 8 20 29zM1071 662v-95h16v25l17 16l31 -41h20l-41 54l37 41h-21l-40 -50h-3v50h-16zM729 1039q0 71 -55 71q-25 0 -41 -18q-35 -39 12 -125
q-47 -37 -47 -83q0 -91 59 -89q39 0 60 49h2l24 -49l25 12l-35 65q13 29 27 80l-27 6q-8 -37 -16 -61h-2l-33 64q47 43 47 78zM985 799q63 0 64 73v281h-33v-281q0 -45 -33 -45q-16 0 -41 11v-31q20 -8 43 -8zM377 1153v-352h31v162h96v-162h31v352h-31v-162h-96v162h-31z
M819 1153v-352h31v160h78v28h-78v135h88v29h-119zM1319 -410h-426l-16 29h-334l-17 -29h-424v621q29 0 48 19q18 19 18 46q0 26 -20 46t-46 20v1135h205l62 161h684l59 -161h207v-1887z" />
    <glyph glyph-name="i.dot" horiz-adv-x="585" 
d="M70 0v45q90 2 120 16t29 60v670q0 49 -32 75t-115 27v43l319 8v-823q0 -45 30 -59t124 -17v-45h-475zM297 1159q-51 0 -83 32t-32 85t32 88t83 35t83 -33t32 -86t-32 -87t-83 -34z" />
    <glyph glyph-name="caron.alt" horiz-adv-x="309" 
d="M172 1577q34 0 58 -24q22 -25 22 -73t-27 -116l-86 -256h-35l-12 227l-6 131q0 57 26 84t60 27z" />
    </font>
</defs>
</svg>
