<?xml version="1.0" encoding="utf-8"?>
<!-- Generator: Adobe Illustrator 21.0.2, SVG Export Plug-In . SVG Version: 6.00 Build 0)  -->
<svg version="1.1" id="carat" xmlns="http://www.w3.org/2000/svg" xmlns:xlink="http://www.w3.org/1999/xlink" x="0px" y="0px"
	 viewBox="0 0 11 7" style="enable-background:new 0 0 11 7;" xml:space="preserve">
<style type="text/css">
	.st0{fill:#232B2B;}
</style>
<title>carat</title>
<g id="Article">
	<g id="mr-article-desktop_Portrait">
		<g id="body-_1">
			<g id="no-circles">
				<g id="photo-info-expanded">
					<path id="arrow-right-copy-2" class="st0" d="M7,5.7C7.3,5.4,7.7,5,8.1,4.6c0.1-0.1,0.3-0.3,0.4-0.4l0.1-0.1
						c0.3-0.4,0.6-0.7,1-1l0.5-0.6c0.2-0.2,0.4-0.4,0.6-0.6C10.8,2,10.9,1.9,11,1.8c0.1-0.1,0.1-0.2,0-0.3c0,0,0,0,0,0l-0.8-0.8
						L9.5,0.1C9.5,0,9.3,0,9.2,0.1c0,0,0,0,0,0C9,0.3,8.9,0.5,8.7,0.6C8.2,1.1,7.7,1.6,7.3,2c-0.4,0.3-0.7,0.6-1,1
						C6.1,3.2,5.9,3.4,5.7,3.6c0,0-0.1,0-0.1,0C5.4,3.4,5.1,3.2,4.9,3S4.5,2.5,4.2,2.3C3.6,1.6,2.8,0.9,2.2,0.2C2.1,0.1,2,0.1,1.9,0
						C1.8,0,1.7-0.1,1.6,0c-0.3,0.3-0.7,0.6-1,0.9S0.2,1.3,0.1,1.5C0,1.5,0,1.6,0.1,1.7C0.2,1.8,0.3,1.9,0.4,2c0,0,0.1,0,0.1,0.1
						c0.2,0.2,0.4,0.4,0.7,0.6c0.1,0.1,0.2,0.1,0.2,0.2C1.4,3,1.5,3,1.6,3.1S1.9,3.4,2,3.6C2.1,3.7,2.3,3.8,2.4,4c0,0,0,0,0.1,0.1
						c0.1,0.1,0.2,0.2,0.3,0.3C2.9,4.5,3,4.6,3.1,4.7S3.2,4.9,3.3,5c0.4,0.3,0.7,0.6,1,0.9l1,1C5.4,7,5.6,7,5.7,6.9c0,0,0,0,0,0
						c0.4-0.3,0.6-0.5,0.9-0.8L7,5.7L7,5.7"/>
				</g>
			</g>
		</g>
	</g>
</g>
</svg>
