<svg id="chanel" data-name="Layer 1" xmlns="http://www.w3.org/2000/svg" viewBox="0 0 139.01 21.71">
  <defs>
    <style>
      .cls-1 {
        fill: #fafcfc;
      }
    </style>
  </defs>
  <title>chanel</title>
  <g id="Article">
    <g id="mr-article-desktop_Collab-Video" data-name="mr-article-desktop Collab-Video">
      <g id="Parnership-A">
        <g id="Group-3">
          <g id="chanel">
            <path id="Fill-2" class="cls-1" d="M20.64,16a1.3,1.3,0,0,0-.07.15,10.62,10.62,0,0,1-9.35,5.67A10.76,10.76,0,0,1,.6,11,10.78,10.78,0,0,1,11.23.13,10.6,10.6,0,0,1,20.59,5.9a1.08,1.08,0,0,1,.12.2s-3.39,2.46-3.43,2.41a.31.31,0,0,0-.07-.15,6.32,6.32,0,0,0-6-4,6.64,6.64,0,0,0,0,13.28,6.52,6.52,0,0,0,5.89-3.83,2.13,2.13,0,0,0,.1-.21L20.64,16" transform="translate(-0.6 -0.13)"/>
            <polyline id="Fill-3" class="cls-1" points="24.45 0.2 28.54 0.2 28.54 7.78 39.28 7.78 39.28 0.2 43.4 0.2 43.4 21.29 39.28 21.29 39.28 12.03 28.54 12.03 28.54 21.29 24.45 21.29 24.45 0.2"/>
            <polyline id="Fill-4" class="cls-1" points="101.14 21.29 101.14 0.2 115.99 0.2 115.99 4.46 105.28 4.46 105.28 8.67 115.18 8.67 115.18 12.88 105.28 12.88 105.28 17.1 117.51 17.1 117.51 21.29 101.14 21.29"/>
            <polyline id="Fill-5" class="cls-1" points="123.31 21.29 123.31 0.2 127.47 0.2 127.47 17.1 139.01 17.1 139.01 21.29 123.31 21.29"/>
            <polyline id="Fill-6" class="cls-1" points="78.83 21.29 74.67 21.29 74.67 0.2 80.44 0.2 89.54 12.88 89.54 0.2 93.66 0.2 93.66 21.29 90.37 21.29 78.83 5.38 78.83 21.29"/>
            <path id="Fill-7" class="cls-1" d="M59.62,4.59,56,13h7.42ZM54.14,17.23l-1.9,4.2H47.32L56.73.33h5.75L72,21.43H67l-1.91-4.2Z" transform="translate(-0.6 -0.13)"/>
          </g>
        </g>
      </g>
    </g>
  </g>
</svg>
