<?xml version="1.0" encoding="UTF-8"?>
<svg width="49px" height="42px" viewBox="0 0 49 42" version="1.1" xmlns="http://www.w3.org/2000/svg" xmlns:xlink="http://www.w3.org/1999/xlink">
    <!-- Generator: Sketch 41.2 (35397) - http://www.bohemiancoding.com/sketch -->
    <title>chat-icon</title>
    <desc>Created with Sketch.</desc>
    <defs></defs>
    <g id="homepage" stroke="none" stroke-width="1" fill="none" fill-rule="evenodd">
        <g id="Desktop-HD" transform="translate(-213.000000, -1119.000000)" fill="#232B2B">
            <g id="trending-#3" transform="translate(-458.000000, 307.000000)">
                <g id="01" transform="translate(582.000000, 812.000000)">
                    <path d="M89.5108018,17.1775473 C89.5053944,17.0498077 89.5000654,16.9221465 89.494658,16.7944068 C89.6360336,16.766743 89.7774093,16.6596925 89.7534287,16.5470778 C89.6734151,16.1716173 89.7555446,15.8298551 89.8169067,15.4618395 C89.8877512,15.0366155 89.7757636,14.5863137 89.8404954,14.1386764 C89.8784255,13.8766926 89.827408,13.5853992 89.6793711,13.3371298 C89.6386982,13.2607211 89.6464566,13.1861933 89.6879132,13.1129193 C89.8386146,12.9355728 89.8064838,12.7501545 89.7120505,12.5619932 C89.7568769,12.3537698 89.801625,12.145468 89.8464514,11.9371662 C89.9372014,11.8884213 89.9500537,11.8349745 89.856169,11.7751014 C89.8582066,11.6176604 89.8601658,11.4602977 89.862125,11.3028566 C89.9300699,11.1274693 90.0603957,10.9612511 89.9426088,10.7583566 C89.9235654,10.6324195 90.0051463,10.5451177 90.0618063,10.448255 C90.2275543,10.3535866 90.2121159,10.2728677 90.0430764,10.2039823 C89.789713,9.87021356 89.9025628,9.4978878 89.9606334,9.14734831 C90.0682325,8.4983056 89.9517778,7.86689566 89.8773283,7.22984324 C89.8592253,7.07561527 89.8522506,6.91809585 89.8603225,6.76316257 C89.9640032,4.7680733 90.0803011,2.77361098 90.1719915,0.778051503 C90.1989501,0.191781458 90.4224552,0.000642220371 91.0818425,0.00299325651 C93.9414078,0.0132594476 96.8010514,0.0376318556 99.660695,0.0439012853 C100.835508,0.0464874251 102.010321,0.0164725304 103.185133,0.000877323985 C104.297957,-0.0138558358 105.391659,0.159650631 106.488104,0.319912928 C107.471307,0.463717972 108.46509,0.417559295 109.453544,0.407606576 C109.988091,0.402199193 110.493016,0.598432342 111.032657,0.546004236 C111.441345,0.506350094 111.813828,0.30988184 112.234036,0.332686891 C113.39247,0.395694659 114.550669,0.297107877 115.710905,0.31356513 C116.760643,0.328455026 117.813437,0.177910345 118.868425,0.179869542 C120.354593,0.182612417 121.840762,0.199304774 123.32693,0.198991302 C124.356135,0.198834567 125.385262,0.174070319 126.414467,0.170935605 C129.613052,0.161296356 132.811637,0.160355942 136.010143,0.144995839 C136.375729,0.143271746 136.697978,0.270697905 137.03159,0.374927173 C137.164267,0.416383777 137.239657,0.515597502 137.27743,0.654778842 C137.462613,1.33618748 137.563081,2.02684353 137.564962,2.73489725 C137.578441,7.73696173 137.433539,12.7358131 137.283464,17.7347429 C137.253058,18.7467856 137.295063,19.7694863 137.005729,20.74979 C136.857221,21.2528334 136.888804,21.7483534 136.888177,22.2488107 C136.887158,23.0221448 136.870544,23.7934414 136.759418,24.5598008 C136.724466,24.8004685 136.86498,25.0209174 136.842958,25.2506136 C136.724701,26.4857696 136.980259,27.690754 137.109174,28.9068666 C137.183702,29.6095913 137.106431,30.3123944 137.000321,31.0093983 C136.945934,31.3662855 136.621021,31.5206702 136.40692,31.7511502 C135.731075,32.4788742 134.833449,32.597915 133.903771,32.613902 C132.154601,32.6440737 130.405665,32.6412524 128.656337,32.6157045 C127.638339,32.600893 126.61791,32.6673489 125.602028,32.6208768 C124.758398,32.5822414 123.916256,32.5278541 123.072548,32.5615523 C122.517233,32.5837304 121.975084,32.7369396 121.411306,32.7267518 C121.18592,32.722755 120.989687,32.6370206 120.775821,32.6092783 C119.887129,32.4938425 119.020537,32.7417984 118.138428,32.7149182 C117.717671,32.7020659 117.334139,32.9657738 116.891596,32.9759616 C116.476873,32.9854441 116.06168,33.0681222 115.646722,32.995005 C115.306527,32.9349752 114.97699,33.0317595 114.641419,33.0406935 C111.946583,33.1119299 109.252295,33.1460199 106.55887,33.0120108 C105.818372,32.9750996 106.562789,32.8493975 105.816961,32.8600555 C105.518537,32.8642874 105.317837,32.9772939 105.115256,33.1920218 C104.594423,33.744437 104.165437,34.3778061 103.602677,34.8919777 C103.535046,34.9537316 99.8468971,38.3458849 99.2788084,38.874006 C98.3808693,39.7087805 97.651813,40.7177669 96.6285637,41.4231561 C96.3299037,41.6290285 96.0208992,41.6513633 95.6973966,41.6070855 C95.4999096,41.5799702 95.2485838,40.9263038 95.3586123,40.6929243 C95.4880761,40.4184016 95.4807095,40.2060247 95.229227,40.0205279 C95.1608118,39.9699806 95.1303267,39.8918479 95.1470191,39.8124612 C95.2503079,39.3201543 94.9752367,38.8334114 95.0748423,38.3633609 C95.3145696,37.2326693 94.9917723,38.4487035 95.0347179,37.3151123 C95.092475,35.7907788 94.9036085,34.2756928 94.7166227,32.763663 C94.6746959,32.4248004 94.4957821,32.3298185 94.1735334,32.3109319 C93.6364784,32.2795063 91.6269694,32.3919642 91.0854474,32.3231572 C90.7139837,32.2759014 90.40686,32.2103859 90.2139967,31.8585925 C89.9306185,31.3418348 89.4459132,30.9472525 89.29866,30.3463277 C89.2314203,30.0721969 89.0713148,29.8263569 89.0467856,29.5382766 C89.0617539,29.3619489 89.1253886,29.1812326 89,29.0175221 C89.2376898,27.5391122 89.2968575,26.0494957 89.2788329,24.5550987 C89.6151878,24.352126 89.5599384,23.9772924 89.5771794,23.688115 C89.5901884,23.46892 89.638463,23.1236312 89.311669,22.9827258 C89.3120609,22.9295924 89.3125311,22.8763806 89.3129229,22.8232472 C89.6036677,22.5799149 89.5542176,22.2261623 89.6297642,21.9066565 C89.7024896,21.5989843 89.5749067,21.4816676 89.3194274,21.4127822 C89.2392571,21.1160031 89.4117448,20.8442233 89.4042998,20.554654 C89.524046,20.5396074 89.5339987,20.4533244 89.5419922,20.3563833 C89.5987305,19.6692538 89.6908912,18.9851807 89.6994333,18.293976 C89.7042137,17.9086412 89.6653432,17.5342779 89.5108018,17.1775473" id="chat-icon"></path>
                </g>
            </g>
        </g>
    </g>
</svg>