<svg id="manstagram" data-name="Layer 1" xmlns="http://www.w3.org/2000/svg" viewBox="0 0 299.7 36.1">
  <defs>
    <style>
      .cls-1 {
        fill: #232b2b;
      }
    </style>
  </defs>
  <title>manstagram</title>
  <g id="Home">
    <g id="mr-home-desktop_v99" data-name="mr-home-desktop v99">
      <g id="Manstagram">
        <g id="Overlay">
          <g id="Group-3">
            <g id="Page-1">
              <path id="Fill-1" class="cls-1" d="M113.37,25.47c0,1.39-.92,2.21-2.82,2.21a3,3,0,0,1-3.13-3.29v-.51h-10V13.38c2,8.73,15.92,8.43,15.92,12.09ZM51.76,23.36l1.85-9.29L55,23.36ZM151.78.92H123.33v4.6C121.4,2.22,117.37,0,111.22,0c-8.58,0-12.74,3.81-13.76,8.64V.92H86.62V15.3l-1.54-2.77L78.15.92H67.88V28.83L60.59.92H47.14L39.89,28.48V.92H24.18l-3,12.43-.87,3.9-.87-3.9L16.33.92H0v34.2H10.22V16.89L11.5,22l3.13,13.14h8.88L26.9,22l1.28-5.08V35.12H49L50.22,30h6.06l1,5.08H78.76V20.23l1.9,3.54,6.57,11.35H97.45V29c1.51,4.17,5.89,7.13,13.35,7.13,9.86,0,14.07-5.39,14.07-11.35,0-11-16.17-9.91-16.17-14.27,0-1.34.92-2.16,2.52-2.16a2.88,2.88,0,0,1,2.88,3.18v.72h10.58V10.68c0-.19,0-.38,0-.56h6.8v25h12.22v-25h8.11Z"/>
              <path id="Fill-4" class="cls-1" d="M159.22,23l1.85-9.29L162.51,23ZM154.6.58l-9,34.2H156.5l1.18-5.08h6.06l1,5.08H177L168.05.58Z"/>
              <path id="Fill-6" class="cls-1" d="M189.21,0c-10,0-14.94,5.7-14.94,13.66V23c0,8.11,5.13,13.09,13.14,13.09,4.31,0,6.93-1.54,8.63-4.26l.92,3.29h6.21V17.25H189.47V22.9h3.59v1.64a2.68,2.68,0,0,1-3,2.67A3,3,0,0,1,186.75,24V12.43c0-2.21.77-3.44,2.72-3.44a2.54,2.54,0,0,1,2.82,2.72v2.67h10.88V11.45c0-6-5-11.45-14-11.45"/>
              <path id="Fill-9" class="cls-1" d="M243.68,23l1.85-9.29L247,23Zm-23.52-9.34c0,1.34-.62,2-2.05,2h-1.85v-7h1.85c1.44,0,2.05.51,2.05,1.9ZM284,.58,281,13l-.87,3.9-.87-3.9L276.13.58H259.8V28.49L252.51.58H239.06l-7,26.77V24.61c0-3.24-1.49-5.8-5.29-6.37,3.7-.87,5.34-3.23,5.34-6.67V9.52c0-5.8-4.36-8.93-10.78-8.93h-17.2v34.2h12.17V22h1.28c2.26,0,2.72,1.13,2.72,3.08v4.36c0,2.62,1.08,5.29,2.67,5.29h18l1.18-5.08h6.06l1,5.08H270V16.55l1.28,5.08,3.13,13.14h8.88l3.39-13.14L288,16.55V34.78H299.7V.58Z"/>
            </g>
          </g>
        </g>
      </g>
    </g>
  </g>
</svg>
