<svg id="shuffle" data-name="Layer 1" xmlns="http://www.w3.org/2000/svg" viewBox="0 0 19 16">
  <defs>
    <style>
      .cls-1 {
        fill: #fff;
      }
    </style>
  </defs>
  <title>shuffle</title>
  <g id="slide-show">
    <g id="Slide-Show---Lookbook-Copy">
      <g id="Shuffle">
        <path id="Shape" class="cls-1" d="M14.34,4.89h1.23v2L19,3.39,15.56,0V2.25H14.34c-3.51,0-5.49,2.58-7.24,4.85-1.57,2-2.93,4-5.11,4H0v2.64H2c3.51,0,5.49-2.74,7.24-5C10.79,6.65,12.15,4.89,14.34,4.89ZM5.14,6.4l.45-.59c.37-.48.76-1,1.19-1.5A6.83,6.83,0,0,0,2,2.28H0V4.92s.56,0,2,0A4.31,4.31,0,0,1,5.14,6.4Zm10.42,4.7H14.34A4.55,4.55,0,0,1,11,9.46l-.29.38c-.42.55-.87,1.13-1.37,1.71a6.93,6.93,0,0,0,5,2.19h1.23V16L19,12.61,15.56,9.14Z"/>
      </g>
    </g>
  </g>
</svg>
