<svg id="Layer_1" data-name="Layer 1" xmlns="http://www.w3.org/2000/svg" viewBox="0 0 390.36 497.08">
  <defs>
    <style>
      .cls-1 {
        fill: #c00;
      }
    </style>
  </defs>
  <title>target</title>
  <g>
    <path class="cls-1" d="M196.25,322.47a129,129,0,1,1,129-129,129,129,0,0,1-129,129M196.25,0C89.46,0,2.85,86.63,2.85,193.5s86.6,193.39,193.4,193.39,193.58-86.6,193.58-193.39S303.09,0,196.25,0Z"/>
    <path class="cls-1" d="M196.25,127.19a66.29,66.29,0,1,0,66.37,66.31,66.22,66.22,0,0,0-66.37-66.31"/>
    <polyline class="cls-1" points="21.33 437.36 0 437.36 0 424.19 58.31 424.19 58.31 437.36 36.98 437.36 36.98 495.37 21.33 495.37 21.33 437.36"/>
    <path class="cls-1" d="M51.54,495.37H67.38L73,479.52H99.58L105,495.37h16.25L94.6,424.19h-16l-27,71.18m34.79-53.64h.2l9,26.12H77.06Z"/>
    <path class="cls-1" d="M127.39,495.37H143V467.56h15.64c7.88,0,10.77,3.29,11.86,10.76.81,5.68.6,12.56,2.5,17.05h15.64c-2.79-4-2.68-12.37-3-16.85-.5-7.19-2.68-14.66-10.37-16.65v-.2c7.88-3.19,11.27-9.46,11.27-17.85,0-10.76-8.08-19.63-20.84-19.63H127.39v71.18m15.66-59h17.15c7,0,10.76,3,10.76,9.86,0,7.17-3.79,10.17-10.76,10.17H143Z"/>
    <path class="cls-1" d="M248.8,487.29a24.08,24.08,0,0,1-19.54,9.79c-22,0-35-16.47-35-37,0-21.12,13-37.56,35-37.56,14.55,0,28.31,9,30,25.11h-15c-1.8-7.88-7.68-12-15.05-12-14.06,0-19.35,12-19.35,24.41,0,11.87,5.29,23.83,19.35,23.83,10.17,0,16-5.48,16.94-15.35H230.47V456.89h29.9v38.48h-10l-1.59-8.08"/>
    <polyline class="cls-1" points="271.04 424.19 324.25 424.19 324.25 437.36 286.68 437.36 286.68 452.6 321.17 452.6 321.17 464.77 286.68 464.77 286.68 482.21 325.06 482.21 325.06 495.37 271.04 495.37 271.04 424.19"/>
    <polyline class="cls-1" points="353.37 437.36 332.03 437.36 332.03 424.19 390.36 424.19 390.36 437.36 369.01 437.36 369.01 495.37 353.37 495.37 353.37 437.36"/>
  </g>
</svg>
