<svg id="timberland" data-name="Layer 1" xmlns="http://www.w3.org/2000/svg" viewBox="0 0 59.93 60.92">
  <title>timberland</title>
  <g id="Article">
    <g id="mr-article-desktop_Collab-Video" data-name="mr-article-desktop Collab-Video">
      <g id="Parnership-b">
        <g id="Group-3">
          <g id="Group-4">
            <path id="Fill-11" class="cls-1" d="M56.09,26.37l-2.61.74c.69,1.39,2.26,4.16,2.26,4.16l-3.15.1L49.8,28c-1.38.3-4.5,1-4.5,1l1.26,2.37-2.27.27-1.76-2.3s-6.45,1.88-9.59,2.87l-.2.3A104.47,104.47,0,0,0,33.42,43l.3.74a138.71,138.71,0,0,0,18.4,1.78l.59-.25a30.49,30.49,0,0,0,3.64-8.07c1-3.27,1.23-7.78-.25-10.85ZM4.15,24.89a7.5,7.5,0,0,0-.3,3.47c.59-.94,2-2.82,2-2.82Zm17.66-.15-7.38,6.09L10.88,31a20.62,20.62,0,0,0,1.92-2.51,31.29,31.29,0,0,0-4-1.6L6.16,30.39a8.93,8.93,0,0,0-2.41.3,31.44,31.44,0,0,0,1,8.37c.25.69.44,1.88,1.48,1.78,7.28,0,14.12,1.14,21.3,1.88V31.62a16.91,16.91,0,0,0-1.79-2.67l-3.32,2-6.1,0c0-.1,5-2.92,7.33-4.46-.64-.64-1-1.39-1.82-1.78ZM38.34,24l-2.16,3.57,2.46-.23,2.2-3.65Zm-35-2.66,4.06,1.89L8.7,21.1ZM13,20.63l-2.3,3.57L15.37,26l3.88-3.41L17.77,21Zm17.08-.29-1.64.8.1,2.29,1.35.47Zm-6-2.43-1.33,2.68L25.3,23.5c-.35-1.93-.74-3.76-1.23-5.6Zm9.25.74.25,5.74,4.28-5.5a2.59,2.59,0,0,0,.51-1.15l-.81-2.59ZM45.59,15l-2,.24-3.12,5,2-.06Zm-25.7-2.34.2,5.59L22.2,13.4ZM36,11.35l-1.38.92.29,1,1.26-1.18ZM12,9.93v.2c1.57,1.58,4.73,5.12,4.73,5.12v-4Zm7.72-3.62v3l1.48.35a20.63,20.63,0,0,0-1.48-3.37ZM28.94,6l-3.16,6,1.88,6.2,2.76-1.95.73-5.18c-.74-1.73-1.43-3.52-2.22-5.1Zm4.43,2.87L35,8.5S32.53,2.95,31.5.13A8.35,8.35,0,0,1,34,.32c1.23,2.09,3.44,6.24,3.44,6.24s3.84-2.18,5.81-3.22a3.21,3.21,0,0,1,1.62.94L39,9.55l1.73,4.91s4.17-5.91,6.23-8.73A3.1,3.1,0,0,1,48.72,7c-.84,1.54-2.12,3-2.75,4.46,2.51.2,5,.1,7.48.3a7.76,7.76,0,0,1,1.67,2.53l-6.25.5-3,5.18,4-.9s3.15-1.32,6.46-2.6A7.2,7.2,0,0,1,57.57,19l-6.74,2.72-6,1.29a24.81,24.81,0,0,0-2.07,3.17c5.36-1,10.58-2.72,16-3.81a30.28,30.28,0,0,1-3.34,24.27c-14.61,3.71-30.11-1-45.21,1l-4.38.55C2.72,44.45,1.14,39.8.31,34.94A31.47,31.47,0,0,1,2.08,19.19c.44-.06,7.1-.66,7.1-.66l-4.1-5a5.57,5.57,0,0,1,1.43-2.18c2.14,2.25,6.15,6.83,6.15,6.83l2.26-.2-7-8.07a11.86,11.86,0,0,1,2.9-3l6,1.09s0-3.22,0-5a13.27,13.27,0,0,1,3.94-1.53C21.9,3.64,22.79,5.92,24.07,8,25.59,5.57,26.92,2.8,28.3.13a.59.59,0,0,1,.64,0Z" transform="translate(0 0)"/>
            <path id="Fill-14" class="cls-1" d="M54.28,48.51a28.86,28.86,0,0,1-6.84,6.79c-13.78-.2-26.42-4-39.85-4.61a3,3,0,0,1-1-1.44C17,47.42,27.66,48.46,38,49.11A71.29,71.29,0,0,0,54.32,48Z" transform="translate(0 0)"/>
            <path id="Fill-16" class="cls-1" d="M33.66,55.1c4,.45,8,.79,12,1.29-8.31,5.84-21.55,5.94-30.16.84a27.76,27.76,0,0,1-6.74-5.3c.1-.3.59,0,.88-.2l5.71.5Z" transform="translate(0 0)"/>
          </g>
        </g>
      </g>
    </g>
  </g>
</svg>
