<svg width="17px" height="24px" viewBox="0 0 17 24" version="1.1" xmlns="http://www.w3.org/2000/svg" xmlns:xlink="http://www.w3.org/1999/xlink">
    <title>arrow-left</title>
    <g id="Page-1" stroke="none" stroke-width="1" fill="none" fill-rule="evenodd">
        <g id="Winter-essentials" transform="translate(-696.000000, -987.000000)">
            <path class="cls-1" d="M712.453253,1007.0578 C711.344042,1007.0578 710.234148,1007.08058 709.126019,1007.04618 C708.703131,1007.03308 708.287989,1007.02403 707.871024,1007.08974 C707.805934,1007.1 707.736686,1007.10523 707.672279,1007.09476 C706.672178,1006.93212 705.671736,1007.12813 704.672091,1007.08883 C704.126255,1007.06736 703.580533,1007.02841 703.035552,1006.99664 C702.447177,1006.96235 701.851683,1007.0316 701.260518,1007.07346 C701.004542,1007.09157 700.748566,1007.10706 700.49481,1007.08678 C700.173459,1007.06116 700.001764,1006.83929 700.002846,1006.51299 C700.00558,1005.71619 700.004612,1004.91933 700.003928,1004.12253 C700.003359,1003.48694 699.998518,1002.85142 700.000455,1002.21589 C700.001366,1001.91117 700.221295,1001.66738 700.513944,1001.70844 C701.032104,1001.78116 701.549523,1001.75496 702.067056,1001.75439 C703.49107,1001.7528 704.915311,1001.72182 706.339039,1001.73799 C707.333332,1001.74927 708.331155,1001.74847 709.320378,1001.86299 C709.899585,1001.93007 710.480044,1001.8696 711.056745,1001.93548 C711.193076,1001.95103 711.22229,1001.84226 711.221379,1001.75724 C711.21409,1001.08846 711.378438,1000.433 711.339259,999.758291 C711.297972,999.048107 711.207427,998.343162 711.162894,997.632977 C711.030322,995.519452 711.13499,993.406153 711.092052,991.293482 C711.087383,991.06205 711.130036,990.841494 711.183566,990.624014 C711.246208,990.369405 711.348655,990.121173 711.683901,990.145718 C712.649777,990.216332 713.599366,989.98097 714.564217,990.001243 C715.094905,990.012405 715.621891,990.07106 716.152009,990.077097 C716.343521,990.079261 716.460775,990.165307 716.510547,990.369917 C716.590272,990.697931 716.605648,991.024692 716.545911,991.352479 C716.531161,991.433685 716.54574,991.500085 716.557129,991.572237 C716.659634,992.221886 716.663335,992.867493 716.490501,993.508031 C716.428315,993.738609 716.489021,993.980633 716.53156,994.19333 C716.588849,994.479886 716.489932,994.745942 716.526435,995.013991 C716.579794,995.405558 716.597049,995.800541 716.643916,996.192507 C716.696991,996.636009 716.63583,997.09278 716.664531,997.544311 C716.668916,997.614014 716.657242,997.680186 716.681786,997.754103 C716.788903,998.075967 716.756842,998.412922 716.696877,998.730116 C716.63378,999.064109 716.774609,999.369572 716.748528,999.696048 C716.733607,999.882265 716.739416,1000.07668 716.70633,1000.25977 C716.524271,1001.26636 716.628313,1002.27785 716.632755,1003.28786 C716.637367,1004.33124 716.643461,1005.3749 716.626946,1006.41806 C716.620511,1006.82534 716.420001,1007.00973 716.009927,1007.04669 C715.214607,1007.11833 714.416838,1007.06657 713.620265,1007.07955 C713.231375,1007.08587 712.842257,1007.08063 712.453253,1007.08063 L712.453253,1007.0578" id="arrow-left" transform="translate(708.376073, 998.550240) scale(-1, 1) rotate(-45.000000) translate(-708.376073, -998.550240) "></path>
        </g>
    </g>
</svg>
