<?xml version="1.0" encoding="UTF-8"?>
<svg width="64px" height="11px" viewBox="0 0 64 11" version="1.1" xmlns="http://www.w3.org/2000/svg" xmlns:xlink="http://www.w3.org/1999/xlink">
    <!-- Generator: Sketch 41.2 (35397) - http://www.bohemiancoding.com/sketch -->
    <title>chanel-logo</title>
    <desc>Created with Sketch.</desc>
    <defs></defs>
    <g id="Page-1" stroke="none" stroke-width="1" fill="none" fill-rule="evenodd">
        <g id="branded-story" transform="translate(-1210.000000, -467.000000)" fill="#FFFFFF">
            <g id="chanel-logo" transform="translate(1210.000000, 467.000000)">
                <g id="svg2">
                    <path d="M4.93357146,0.272643602 C2.23021146,0.272643602 0,2.37542498 0,5.33076614 C0,8.2859215 2.23021146,10.3888889 4.93357146,10.3888889 C6.78536584,10.3888889 8.42089427,9.37237451 9.25892865,7.80516763 L7.58285708,6.82928086 C7.09627438,7.84625456 6.10952584,8.46471751 4.93357146,8.46471751 C3.24397146,8.46471751 1.96,7.18638498 1.96,5.33076614 C1.96,3.47514729 3.24397146,2.19681476 4.93357146,2.19681476 C6.10952584,2.19681476 7.09627438,2.81545515 7.58285708,3.83261464 L9.25892865,2.85672788 C8.42089427,1.28989302 6.78536584,0.272643602 4.93357146,0.272643602 Z M11.6239284,0.51997478 L11.6239284,10.1411943 L13.5164285,10.1411943 L13.5164285,6.01791817 L18.2471427,6.01791817 L18.2471427,10.1415577 L20.1392858,10.1415577 L20.1392858,0.51997478 L18.2471427,0.51997478 L18.2471427,4.09374701 L13.5164285,4.09374701 L13.5164285,0.51997478 L11.6239284,0.51997478 L11.6239284,0.51997478 Z M26.2217859,0.51997478 L22.0314292,10.1415577 L24.0996432,10.1415577 L25.0321427,7.94245278 L29.9789297,7.94245278 L30.9117859,10.1415577 L32.9796432,10.1415577 L28.79,0.51997478 L26.2217859,0.51997478 L26.2217859,0.51997478 Z M34.8721427,0.51997478 L34.8721427,10.1415577 L36.6289276,10.1415577 L36.6289276,2.56799315 L41.6978573,10.1415577 L43.3875005,10.1415577 L43.3875005,0.51997478 L41.6303589,0.51997478 L41.6303589,6.89792333 L37.3728562,0.51997478 L34.8721427,0.51997478 L34.8721427,0.51997478 Z M47.0364281,0.51997478 L47.0364281,10.1415577 L54.0653578,10.1419293 L54.0653578,8.35504308 L48.7935697,8.35504308 L48.7935697,6.15593815 L53.1189276,6.15593815 L53.1189276,4.36868891 L48.7935697,4.36868891 L48.7935697,2.30686914 L53.7946422,2.30686914 L53.7946422,0.519983136 L47.0364281,0.519983136 L47.0364281,0.51997478 Z M57.1064281,0.51997478 L57.1064281,10.1415577 L57.1064281,10.1419293 L64,10.1419293 L64,8.21775792 L58.9989276,8.21775792 L58.9989276,0.519983136 L57.1064281,0.519983136 L57.1064281,0.51997478 Z M27.5057146,2.10056992 L29.2225016,6.15556678 L25.7889276,6.15556678 L27.5057146,2.10056992 L27.5057146,2.10056992 Z" id="path6"></path>
                </g>
            </g>
        </g>
    </g>
</svg>