<?xml version="1.0" encoding="UTF-8"?>
<svg width="65px" height="110px" viewBox="0 0 65 110" version="1.1" xmlns="http://www.w3.org/2000/svg" xmlns:xlink="http://www.w3.org/1999/xlink">
    <!-- Generator: Sketch 41.2 (35397) - http://www.bohemiancoding.com/sketch -->
    <title>divider</title>
    <desc>Created with Sketch.</desc>
    <defs></defs>
    <g id="homepage" stroke="none" stroke-width="1" fill="none" fill-rule="evenodd">
        <g id="Desktop-HD" transform="translate(-368.000000, -1138.000000)" fill="#131313">
            <g id="trending-#3" transform="translate(-458.000000, 307.000000)">
                <path d="M903.432733,841.377956 C903.662014,841.521673 903.6439,841.790783 903.555988,841.978512 C903.372463,842.370522 903.283776,842.790933 903.145509,843.194127 C902.988021,843.653401 902.722623,844.006825 902.396622,844.347848 C902.129285,844.627421 901.895684,844.943477 901.675599,845.262965 C901.319408,845.780091 900.922557,846.251932 900.455631,846.678267 C900.070081,847.030307 899.695499,847.401114 899.372933,847.822798 C899.107202,848.170188 898.79361,848.485303 898.410276,848.718206 C898.336379,848.763159 898.279322,848.844872 898.230186,848.919886 C897.950884,849.346442 897.485453,849.569048 897.138624,849.922361 C896.741829,850.326662 896.341654,850.726756 895.959705,851.145949 C895.641072,851.495719 895.302441,851.830985 894.94553,852.141559 C894.052394,852.918661 893.171998,853.702018 892.424164,854.630531 C891.995017,855.16338 891.483942,855.630737 891.005715,856.123671 C890.139446,857.016642 889.271736,857.908175 888.401644,858.797437 C887.700231,859.514306 886.977822,860.209861 886.259901,860.910121 C885.547353,861.605122 884.896017,862.362293 884.204186,863.078996 C883.637549,863.665932 883.083986,864.266543 882.451373,864.787711 C882.088479,865.08666 881.732288,865.399726 881.450493,865.779446 C881.311894,865.966234 881.105049,866.055421 880.936924,866.196314 C880.190696,866.821727 879.494102,867.498292 878.814016,868.191577 C878.531943,868.479177 878.262058,868.790472 877.985415,869.075525 C877.716804,869.352219 877.514279,869.737144 877.089232,869.88003 C876.926315,869.934782 876.792646,870.134746 876.640365,870.263903 C876.332589,870.524985 875.944435,870.724616 875.71942,871.035745 C875.507866,871.328272 875.236818,871.547391 875.014129,871.818548 C874.392374,872.575775 873.710459,873.2829 873.08117,874.031989 C872.74614,874.430809 872.333668,874.749024 872.024618,875.176078 C871.814615,875.466224 871.43466,875.634854 871.230529,875.941498 C870.907963,876.426127 870.426357,876.755193 870.07072,877.205166 C869.965636,877.338199 869.767155,877.393947 869.646781,877.519063 C869.26749,877.913399 868.89108,878.306959 868.486973,878.679317 C867.957506,879.167213 867.521158,879.748503 867.10093,880.337377 C866.940284,880.56253 866.743576,880.763656 866.551023,880.963952 C866.227958,881.300159 866.001613,881.709885 865.673951,882.047697 C865.253225,882.48145 864.838315,882.922898 864.428779,883.367557 C864.134187,883.687377 863.927397,884.086086 863.651141,884.425006 C862.593038,885.723164 861.373625,886.871128 860.215589,888.07617 C859.506752,888.813799 858.790936,889.544618 858.07656,890.276933 C857.81515,890.544879 857.503275,890.743957 857.194503,890.954661 C856.542336,891.399707 855.902355,891.856823 855.366573,892.460146 C855.108044,892.751234 854.911557,893.063359 854.708423,893.381961 C854.32531,893.745627 854.120293,894.008591 853.938375,894.300841 C853.681286,894.713889 853.2389,894.949671 852.921708,895.308023 C852.649441,895.615553 852.366537,895.91428 852.106014,896.231388 C851.96531,896.402619 851.740295,896.386121 851.583028,896.528786 C851.174378,896.899372 850.745897,897.240174 850.407986,897.690535 C850.145579,898.04025 849.801243,898.329899 849.485103,898.637816 C848.594238,899.505377 847.700215,900.369617 846.805473,901.233136 C845.80426,902.199461 844.799835,903.162409 843.798845,904.1289 C843.215312,904.692364 842.641197,905.265681 842.051515,905.822557 C841.838632,906.023628 841.648405,906.253154 841.320521,906.317594 C841.145693,906.351918 841.018285,906.552602 840.928489,906.713314 C840.751003,907.030975 840.494911,907.316582 840.246187,907.528947 C839.932373,907.796894 839.57164,908.042032 839.285801,908.336773 C838.839039,908.797542 838.261544,909.119577 837.896712,909.660619 C837.677125,909.986308 837.312902,910.146024 837.048113,910.41469 C836.766097,910.700796 836.479482,911.005281 836.172648,911.237077 C835.638694,911.640437 835.362272,912.292145 834.782784,912.611357 C834.385767,912.830032 834.209555,913.221489 833.902832,913.504107 C833.34539,914.017801 832.797421,914.541017 832.203862,915.015128 C831.424507,915.637606 830.651689,916.273316 830.029491,917.059164 C829.773288,917.382693 829.485289,917.679317 829.252518,918.02488 C828.985015,918.421984 828.47056,918.565645 828.203722,918.975704 C827.467022,919.287164 827.022032,919.948506 826.441713,920.447086 C825.854801,920.951314 825.234209,921.428359 824.718037,921.998355 C824.394252,922.35582 824.006154,922.617733 823.669849,922.947186 C823.121991,923.483855 822.554468,923.999874 822.008216,924.538923 C821.717613,924.825748 821.349568,925.039552 821.064061,925.339497 C820.759665,925.659207 820.43444,925.961644 820.117469,926.263748 C819.708043,926.653877 819.340773,927.132361 818.763832,927.31317 C818.612604,927.360559 818.595265,927.493093 818.522476,927.591469 C818.325989,927.85698 818.065743,928.050965 817.795082,928.2305 C817.363886,928.51655 817.027693,928.911772 816.627019,929.233253 C816.428483,929.392526 816.361732,929.655878 816.168957,929.838514 C815.761581,930.224269 815.246295,930.379058 814.74868,930.564406 C814.531143,930.645399 814.342246,930.560642 814.203703,930.289871 C814.106041,930.098987 814.048319,929.940101 814.062279,929.737314 C814.070034,929.625153 814.106484,929.540395 814.172127,929.442019 C814.377367,929.134323 814.579337,928.82718 814.603767,928.427807 C814.62814,928.029153 814.895034,927.742383 815.188573,927.497577 C815.460342,927.270929 815.747012,927.061887 816.029527,926.848249 C816.413637,926.557825 816.868875,926.371979 817.208502,926.012686 C817.627567,925.569301 818.142853,925.205856 818.440657,924.662544 C818.823604,923.963889 819.410239,923.448091 819.972056,922.920059 C820.452942,922.468203 820.903027,921.982411 821.405628,921.555689 C821.983732,921.06497 822.513642,920.514295 823.168191,920.115253 C823.28646,920.043173 823.394757,919.962402 823.395699,919.773289 C823.396862,919.539776 823.663424,919.519016 823.810165,919.420252 C824.568691,918.909547 825.352644,918.43671 826.115435,917.932095 C826.584577,917.621742 826.993504,917.235599 827.366978,916.814026 C827.617863,916.530855 827.929627,916.32159 828.232749,916.101918 C828.629821,915.814097 828.900538,915.396565 829.280825,915.089256 C829.632308,914.805199 829.972766,914.505918 830.300927,914.195177 C830.48495,914.020901 830.653185,913.822598 830.794498,913.612337 C831.013198,913.286871 831.361357,913.119238 831.64703,912.879248 C832.23865,912.382273 832.685467,911.755975 833.222524,911.211888 C833.68956,910.738718 834.150836,910.259846 834.613607,909.782413 C835.832522,908.525056 837.122731,907.340775 838.377486,906.120177 C839.500125,905.028017 840.642262,903.955897 841.768612,902.867557 C842.021325,902.623415 842.278081,902.388131 842.560154,902.178313 C842.654048,902.108448 842.747555,902.014999 842.796026,901.911252 C842.997775,901.47916 843.391912,901.248582 843.726886,900.946865 C844.022697,900.680358 844.295019,900.379637 844.57543,900.091871 C845.012941,899.642838 845.456767,899.205266 845.947402,898.812258 C846.427844,898.427445 846.853112,897.99264 847.188032,897.461341 C847.43382,897.07149 847.79976,896.770049 848.163263,896.478242 C848.690791,896.054786 849.24646,895.66344 849.698983,895.152348 C849.93336,894.887612 850.293595,894.804626 850.55013,894.560595 C850.901446,894.226436 851.276859,893.916028 851.655984,893.612926 C852.159581,893.210286 852.445753,892.606133 852.951677,892.215008 C853.462974,891.819786 853.763603,891.226594 854.288417,890.850804 C854.961912,890.368499 855.417592,889.674938 855.98988,889.094146 C856.566322,888.509203 857.17661,887.96279 857.770779,887.397998 C858.21178,886.978861 858.61417,886.524071 858.973906,886.024106 C859.355745,885.493361 859.77071,884.974076 860.305717,884.578024 C860.449135,884.471897 860.521093,884.313343 860.649776,884.198248 C861.105734,883.790459 861.585511,883.403597 862.000088,882.956779 C862.624613,882.283701 863.189478,881.555649 863.802038,880.870945 C864.801089,879.754205 865.726299,878.57236 866.823068,877.541207 C867.648124,876.765434 868.432187,875.945595 869.2219,875.133118 C869.666834,874.675338 870.05532,874.158544 870.52773,873.733206 C870.845532,873.447156 871.168486,873.165756 871.462912,872.857009 C872.021516,872.271235 872.686092,871.803767 873.245362,871.215723 C873.547099,870.89845 873.895645,870.614504 874.221203,870.315776 C874.762857,869.818801 875.259807,869.272278 875.764567,868.736273 C876.257252,868.213113 876.732986,867.674894 877.179803,867.110434 C877.335131,866.914235 877.549123,866.763487 877.741122,866.597459 C878.200625,866.200189 878.609331,865.753759 879.019421,865.307384 C879.302213,864.999466 879.620735,864.724101 879.899151,864.412585 C880.217729,864.056172 880.4849,863.651428 880.820484,863.313394 C881.103608,863.028175 881.313722,862.688037 881.603993,862.4078 C881.990651,862.034446 882.322136,861.608665 882.621547,861.15465 C882.792939,860.894786 883.070857,860.706005 883.296149,860.480631 C883.75964,860.016983 884.21521,859.545253 884.683355,859.086366 C885.021653,858.754754 885.409641,858.467708 885.713815,858.108692 C886.21204,857.520593 886.772362,856.995716 887.307091,856.445262 C887.676134,856.065376 888.088661,855.727951 888.465459,855.355095 C888.806195,855.018002 889.136572,854.668675 889.447671,854.3044 C889.578348,854.151327 889.737166,854.047802 889.903185,853.97074 C890.048764,853.903199 890.17235,853.829403 890.260041,853.70163 C890.547099,853.283323 890.948935,852.97535 891.298146,852.617054 C891.91619,851.98295 892.594725,851.41146 893.224125,850.790421 C893.582587,850.436775 893.954344,850.087614 894.247606,849.668365 C894.348702,849.523818 894.486581,849.430701 894.700462,849.405623 C894.949408,849.376392 895.147833,849.151461 895.205056,848.918059 C895.260618,848.691301 895.401986,848.553452 895.533162,848.399327 C895.855229,848.020714 896.181618,847.646031 896.520027,847.28076 C897.012877,846.748741 897.52772,846.2294 897.951438,845.626132 C898.127151,845.375956 898.417532,845.173003 898.609809,844.910149 C898.829728,844.609484 899.095015,844.352554 899.347119,844.083002 C899.455416,843.967242 899.473641,843.812896 899.570915,843.688555 C899.966381,843.182833 900.44001,842.747198 900.868491,842.273641 C901.255704,841.845811 901.774368,841.526656 902.23088,841.154187 C902.320676,841.080945 902.496943,841.113552 902.713261,841.08781 C902.970405,840.987883 903.192374,841.227264 903.432733,841.377956 Z" id="divider" transform="translate(858.838447, 885.828968) rotate(-15.000000) translate(-858.838447, -885.828968) "></path>
            </g>
        </g>
    </g>
</svg>