<svg width="24px" height="24px" viewBox="0 0 24 24" version="1.1" xmlns="http://www.w3.org/2000/svg" xmlns:xlink="http://www.w3.org/1999/xlink">
    <!-- Generator: Sketch 41.2 (35397) - http://www.bohemiancoding.com/sketch -->
    <title>facebook</title>
    <desc>Created with Sketch.</desc>
    <defs>
        <style>
            .cls-1 {
                fill: red;
            }
        </style>
    </defs>
    <g id="homepage" stroke="none" stroke-width="1" fill="none" fill-rule="evenodd">
        <g id="Desktop-HD" transform="translate(-158.000000, -410.000000)" fill="#232B2B">
            <g id="top-nav-B" transform="translate(-668.000000, -550.000000)">
                <g id="nav-items" transform="translate(755.000000, 959.000000)">
                    <g id="Group">
                        <g id="facebook" transform="translate(71.000000, 1.000000)">
                            <path class="cls-1" d="M22.6754292,0.0004 L1.3245708,0.0004 C0.592954506,0.0004 0,0.593354506 0,1.3249708 L0,22.6758292 C0,23.4073556 0.592954506,24.0004899 1.3245708,24.0004899 L12.8192016,24.0004899 L12.8192016,14.7063732 L9.69148801,14.7063732 L9.69148801,11.084261 L12.8192016,11.084261 L12.8192016,8.41308818 C12.8192016,5.31325079 14.7124476,3.62529977 17.4777702,3.62529977 C18.8024309,3.62529977 19.9408604,3.72385575 20.2725876,3.76791819 L20.2725876,7.00749645 L18.3547026,7.00839568 C16.8508247,7.00839568 16.559563,7.72301647 16.559563,8.77170246 L16.559563,11.084261 L20.1463352,11.084261 L19.6793633,14.7063732 L16.559563,14.7063732 L16.559563,24.0004899 L22.6754292,24.0004899 C23.4069556,24.0004899 24,23.4073556 24,22.6758292 L24,1.3249708 C24,0.593354506 23.4069556,0.0004 22.6754292,0.0004" id="Fill-1"></path>
                        </g>
                    </g>
                </g>
            </g>
        </g>
    </g>
</svg>
