<?xml version="1.0" encoding="UTF-8"?>
<svg width="60px" height="12px" viewBox="0 0 60 12" version="1.1" xmlns="http://www.w3.org/2000/svg" xmlns:xlink="http://www.w3.org/1999/xlink">
    <!-- Generator: Sketch 42 (36781) - http://www.bohemiancoding.com/sketch -->
    <title>Shape</title>
    <desc>Created with Sketch.</desc>
    <defs></defs>
    <g id="Article" stroke="none" stroke-width="1" fill="none" fill-rule="evenodd">
        <g id="mr-article-desktop_Feature-Portrait" transform="translate(-535.000000, -1872.000000)" fill-rule="nonzero" fill="#162271">
            <g id="Asset-2" transform="translate(535.000000, 1872.000000)">
                <g id="Layer_2">
                    <g>
                        <g id="Layer_1-2">
                            <path d="M55.1254479,6.21346306 C55.3163573,6.21346306 55.1254479,5.98161517 55.2909027,5.96229451 C55.4563575,5.94297385 55.7236306,6.20380273 55.876358,6.1265201 C56.0290855,6.04923747 56.1690857,5.65316399 56.3981769,5.59520202 C56.6272682,5.53724004 56.8436321,5.78840859 56.9836323,5.75942761 C58.0018155,5.59520202 58.9309076,5.06388393 60,5.16048722 C59.694545,4.31037829 59.2745445,4.80305506 59.032726,4.80305506 C57.6072695,4.80305506 56.1309038,5.04456328 55.0363569,4.58086749 L54.7945384,4.13649237 C54.7945384,4.13649237 54.5272653,3.93362547 54.4127197,3.94328579 C54.2981741,3.95294612 54.1836285,4.20411467 54.1581739,4.213775 C53.2799909,4.46494355 53.0254451,4.213775 52.3890806,3.72109823 C52.0421809,3.47982908 51.7460188,3.19965051 51.5108976,2.89030996 C51.3708974,2.67778272 51.1545335,1.47990195 50.9254422,1.07416815 C50.6302363,0.652175934 50.1905552,0.298423342 49.6527132,0.0501732946 C49.0163487,-0.143033281 48.2399841,0.282021185 47.5272558,0.311002172 C47.105649,0.264458858 46.6805202,0.238644191 46.2545268,0.233719541 C45.7072533,0.339983158 45.1981617,0.745716967 44.5745245,0.909942556 C44.3836152,0.9582442 44.0908875,0.697415323 43.8745236,0.755377296 C43.6581597,0.813339268 43.7345234,1.19975242 43.5690686,1.26737472 C43.4036139,1.33499702 42.9963406,1.07416815 42.7672494,1.13213012 C42.5381581,1.19009209 42.6017946,1.34465735 42.398158,1.41227965 C41.6727024,1.63446722 40.7945194,1.50888294 40.5527009,1.86631511 C40.1072458,2.53287779 38.9999715,1.86631511 38.6945166,1.86631511 C38.3890616,1.86631511 37.969061,2.33967122 37.5363332,2.47491582 C37.307242,2.55219845 36.9890597,2.47491582 36.7981504,2.56185878 C36.607241,2.64880174 36.5690591,2.94827193 36.3908771,3.08351653 C35.7163307,3.59551396 34.5708746,3.74041889 33.9217828,4.04954941 C33.5633261,4.19689218 33.243985,4.3934228 32.9799634,4.62916914 C32.7285557,4.95536536 32.390482,5.23829025 31.9872347,5.45995741 C31.7454162,5.5565607 31.4781431,5.45995741 31.2490519,5.54690037 C31.0199607,5.63384333 30.9945061,5.97195484 30.8417786,6.06855813 C30.2985642,6.31721277 29.7377135,6.54296254 29.1617764,6.74478114 C28.6908666,6.98628936 28.3090479,7.38236284 27.8890474,7.6045504 C27.4690468,7.82673797 26.9854098,7.81707764 26.6163184,8.00062388 C26.247227,8.18417013 26.1199541,8.58024361 25.7763172,8.57058328 C25.4326804,8.56092295 25.4708623,8.57058328 25.2035892,8.8797138 C24.9363161,9.18884432 24.6054066,9.02461873 24.3126789,9.22748564 C24.0199512,9.43035254 24.0072239,9.72016241 23.79086,9.75880372 C23.5744961,9.79744504 23.2690411,9.4496732 22.9254043,9.39171123 C22.5817674,9.33374926 22.6581312,9.67186076 22.5563129,9.67186076 C21.7926755,9.67186076 22.1363123,8.40635769 22.3272216,7.57556942 C22.3272216,7.35338186 22.5817674,7.27609922 22.6326766,7.06357199 C22.6835858,6.85104476 22.6326766,6.31972668 22.7090403,6.09753911 C22.7854041,5.87535155 22.8872224,6.09753911 22.9254043,6.09753911 C22.9635861,6.09753911 22.9254043,5.6918053 22.9254043,5.63384333 C23.0399499,5.41165577 23.3581321,5.46961774 23.396314,5.34403347 C23.4344959,5.21844919 23.396314,4.61950881 23.396314,4.16547336 C23.396314,4.0109081 23.6381325,4.04954941 23.6508598,3.89498415 C23.6508598,3.89498415 23.5490415,3.04487522 23.5744961,3.19944048 C23.1290409,1.51854327 22.3526762,0.890621899 21.4744932,0.620132693 C20.939947,0.455907103 20.367219,0.774697953 20.0999459,0.784358282 C19.5213072,0.73726687 18.9362432,0.796919152 18.394489,0.9582442 C18.1908524,1.05484749 18.0635795,1.4605813 17.9872158,1.47990195 C17.910852,1.49922261 17.7708518,1.08382847 17.7708518,1.07416815 C17.7708518,1.06450782 17.5290333,1.07416815 17.4526696,1.07416815 C16.854487,1.13213012 16.243577,1.57650524 15.5563034,1.77937215 C15.2508484,1.86631511 14.9072116,1.77937215 14.6017566,1.89529609 C14.2963017,2.01122004 13.7872101,2.57151911 13.3290276,2.75506535 C13.1635729,2.81302733 12.8962998,2.55219845 12.7435723,2.59083976 C12.5908448,2.62948108 12.1453897,3.04487522 11.8017528,3.18011982 C11.458116,3.31536442 11.3308431,3.18011982 11.06357,3.26706278 C9.86720476,3.65347593 8.51811202,4.32969895 7.48720153,4.63882947 C6.74901871,4.86101703 6.21447253,4.31037829 5.66719906,4.38766092 C5.45083513,4.38766092 5.33628952,4.83203604 5.14538017,4.918979 C4.29265174,5.3536938 2.96901358,5.00592196 1.86173936,5.31505248 C1.35264776,5.45029708 0.970829057,5.82704991 0.499919328,5.95263418 C0.499919328,5.95263418 -1.20553753,7.76877599 1.6835573,7.88469994 C1.92537581,7.88469994 1.89992123,7.4016835 2.09083058,7.36304218 C2.21561255,7.45940436 2.35196048,7.54672528 2.49810386,7.62387106 C3.24901396,7.86537928 3.93628762,7.24711824 4.66174315,7.12153396 C4.86537979,7.12153396 5.14538017,7.27609922 5.3617441,7.27609922 C5.57810803,7.27609922 5.71810822,6.99594969 5.93447215,6.9669687 C6.15083608,6.93798772 6.69810955,7.11187364 7.05447367,7.06357199 C7.20720115,7.06357199 7.37265592,6.79308279 7.5253834,6.77376213 C7.67811088,6.75444147 7.93265668,6.99594969 8.11083874,6.93798772 C8.2890208,6.88002574 8.32720267,6.51293325 8.51811202,6.41632996 C8.70902137,6.31972668 8.73447595,6.63851753 8.89993072,6.60953654 C9.06538549,6.58055555 9.307204,6.08787878 9.42174961,6.07821846 C9.53629522,6.06855813 9.65084083,6.35836799 9.80356831,6.27142503 C9.95629579,6.18448207 10.1344778,5.78840859 10.3508418,5.74010695 C10.5672057,5.6918053 11.1144792,5.80772925 11.4072068,5.61452267 C11.6999345,5.4213161 11.5090252,5.25709051 11.6108435,5.12184591 C11.9799349,4.56154684 12.8072087,4.99626163 13.3544822,4.67747078 C13.5963007,4.54222618 13.6472099,4.19445434 13.8763011,4.1461527 C14.1053923,4.09785105 14.5253929,4.37800059 14.7799387,4.27173697 C15.0344845,4.16547336 14.9835753,3.87566349 15.0853936,3.75973955 C15.2159841,3.64076839 15.3759533,3.5423193 15.5563034,3.46992968 C15.75994,3.36366607 16.0272131,3.68245692 16.2563043,3.62449494 C16.4853955,3.56653297 16.638123,3.18011982 16.8799415,3.0738562 C17.280188,2.90116352 17.7079049,2.76805794 18.1526705,2.67778272 C18.610853,2.61016042 19.1963083,2.90963061 19.5908543,2.7357447 C19.9854003,2.56185878 19.9344911,2.20442661 20.2144915,2.19476628 C20.4944919,2.18510596 20.761765,2.53287779 20.9654016,2.57151911 C21.4490386,2.65846207 21.7799482,2.17544563 22.2381306,2.64880174 C22.1490396,3.16079916 22.0726758,3.78872053 21.9199484,4.33935927 C21.7672209,4.88999802 21.5890388,5.24743018 21.4235841,5.78840859 C21.4235841,5.94297385 21.4235841,6.13618043 21.334493,6.27142503 C21.245402,6.40666963 21.1054018,6.38734898 21.0799472,6.54191424 C21.0163108,6.86070509 21.0799472,7.50794712 21.0799472,7.72047435 C21.0799472,7.93300158 20.6599467,7.63353139 20.6599467,7.76877599 C20.7225362,8.70135845 20.927545,9.62527355 21.2708566,10.5219697 C21.2708566,10.5219697 21.5635843,10.8890622 21.6017661,10.9566845 C21.9835848,11.5169836 21.9454029,11.352758 22.3144944,11.5749455 C22.4035854,11.6329075 22.5054037,11.9613587 22.6454039,12 C22.7833038,11.974724 22.9238293,11.9585631 23.0654045,11.9516984 C23.5744961,11.9516984 23.879951,11.6908695 24.1726787,11.5846059 C24.758134,11.3624183 25.4454077,11.3720786 25.8144991,11.1498911 C26.1835905,10.9277035 26.030863,10.7248366 26.2217724,10.6282333 C27.12541,10.1548772 28.0163203,10.0196326 28.4235936,9.42069221 C28.5317509,9.23521525 28.6684602,9.06011049 28.8308668,8.89903446 C28.9581397,8.79277084 29.3399584,8.89903446 29.4672313,8.82175183 C29.5945042,8.7444692 29.6072315,8.35805605 29.7726863,8.3097544 C29.9381411,8.26145276 30.3072325,8.55126262 30.4726872,8.46431967 C30.638142,8.37737671 30.8799605,7.84605862 31.1345063,7.6721727 C31.3890521,7.49828679 31.8345073,7.6721727 32.0890531,7.55624876 C32.3435989,7.44032481 32.2672351,7.17949594 32.394508,7.04425133 C32.5815669,6.85062811 32.7996016,6.67539948 33.0435998,6.52259358 C33.3745094,6.52259358 33.3745094,7.08289265 33.6290552,6.68681917 C33.883601,6.29074569 34.2145105,5.82704991 34.7236021,5.84637056 C35.2326937,5.86569122 35.0926935,6.01059615 35.1945118,5.5565607 C35.3726939,4.77407407 36.8999687,5.14116656 37.090878,4.86101703 C37.790879,3.79838086 39.636336,4.86101703 40.5908828,4.43596256 C40.9472469,4.27173697 41.1508835,3.54721231 41.5199749,3.38298672 C41.6727024,3.31536442 42.0799757,3.81770152 42.2708851,3.75973955 C42.4617944,3.70177757 42.3727034,3.38298672 42.4745217,3.26706278 C42.6789769,2.97866059 43.10789,2.82568865 43.5308868,2.89030996 C43.8108871,2.89030996 44.1417967,3.28638344 44.3963425,3.25740245 C44.6508883,3.22842146 44.7781612,2.79370667 45.0199797,2.71642404 C45.2617982,2.63914141 45.8472535,2.71642404 46.2927087,2.56185878 C47.1454371,2.32035056 47.9345291,1.7310705 48.7236211,1.7986928 C48.8636213,1.7986928 49.1563489,2.12714398 49.3727129,2.19476628 C49.8308953,2.32035056 50.1618048,2.07884234 50.3908961,2.31069023 C50.3908961,2.3686522 50.7727148,3.15113883 50.8999877,3.42162804 C51.1447243,4.0470671 51.5230906,4.63776349 52.0199892,5.17014755 C52.5799899,5.79806892 52.7708993,6.13618043 53.1654453,6.20380273 C53.820256,6.26854318 54.4833645,6.26854318 55.1381752,6.20380273" id="Shape"></path>
                        </g>
                    </g>
                </g>
            </g>
        </g>
    </g>
</svg>