<?xml version="1.0" encoding="UTF-8"?>
<svg width="26px" height="26px" viewBox="0 0 26 26" version="1.1" xmlns="http://www.w3.org/2000/svg" xmlns:xlink="http://www.w3.org/1999/xlink">
    <!-- Generator: Sketch 41.2 (35397) - http://www.bohemiancoding.com/sketch -->
    <title>Pinterest-badge-144px</title>
    <desc>Created with Sketch.</desc>
    <defs></defs>
    <g id="homepage" stroke="none" stroke-width="1" fill="none" fill-rule="evenodd">
        <g id="Desktop-HD" transform="translate(-366.000000, -409.000000)" fill="#232B2B">
            <g id="top-nav-B" transform="translate(-668.000000, -550.000000)">
                <g id="nav-items" transform="translate(755.000000, 959.000000)">
                    <g id="Group">
                        <g id="Pinterest-badge-144px" transform="translate(279.000000, 0.000000)">
                            <path d="M12.8665507,0.358967742 C5.91844777,0.358967742 0.286,5.99141551 0.286,12.9395184 C0.286,18.2692257 3.60178354,22.8214831 8.28178921,24.6545562 C8.17180483,23.6592164 8.07259211,22.1324744 8.32544281,21.0458589 C8.5541045,20.0639365 9.80078318,14.792434 9.80078318,14.792434 C9.80078318,14.792434 9.42434178,14.0387953 9.42434178,12.9245893 C9.42434178,11.1752328 10.4383903,9.86921548 11.700754,9.86921548 C12.7741411,9.86921548 13.2926929,10.6750117 13.2926929,11.6414381 C13.2926929,12.7208725 12.605385,14.3345437 12.2506759,15.8301046 C11.9541716,17.0824526 12.8786452,18.1034932 14.1136073,18.1034932 C16.3495785,18.1034932 18.0683208,15.745821 18.0683208,12.3425413 C18.0683208,9.3302542 15.9039717,7.22429889 12.8134482,7.22429889 C9.23385336,7.22429889 7.13281144,9.90908955 7.13281144,12.6838331 C7.13281144,13.7651572 7.54931589,14.9247177 8.06900155,15.5549547 C8.17180483,15.6794902 8.18692296,15.7887187 8.15630875,15.915711 C8.06068658,16.3131288 7.84846585,17.167681 7.806891,17.3424844 C7.75189881,17.5728469 7.62452857,17.6216028 7.38622907,17.5106736 C5.81488859,16.7793341 4.83239921,14.4821345 4.83239921,12.6369669 C4.83239921,8.66845812 7.71580428,5.02385528 13.1449132,5.02385528 C17.509139,5.02385528 20.9007021,8.13365433 20.9007021,12.2898168 C20.9007021,16.6255071 18.1669665,20.1149602 14.3725053,20.1149602 C13.0976691,20.1149602 11.8991794,19.4527861 11.4889112,18.670423 C11.4889112,18.670423 10.8581073,21.0725046 10.7052252,21.6609778 C10.4211934,22.7538295 9.65451529,24.123532 9.14163277,24.9591865 C10.3187681,25.3235334 11.5696042,25.5202581 12.8665507,25.5202581 C19.8146536,25.5202581 25.4472903,19.8876213 25.4472903,12.9395184 C25.4472903,5.99141551 19.8146536,0.358967742 12.8665507,0.358967742" id="Fill-4"></path>
                        </g>
                    </g>
                </g>
            </g>
        </g>
    </g>
</svg>