<?xml version="1.0" encoding="UTF-8"?>
<svg width="24px" height="23px" viewBox="0 0 24 23" version="1.1" xmlns="http://www.w3.org/2000/svg" xmlns:xlink="http://www.w3.org/1999/xlink">
    <!-- Generator: Sketch 41.2 (35397) - http://www.bohemiancoding.com/sketch -->
    <title>snap</title>
    <desc>Created with Sketch.</desc>
    <defs></defs>
    <g id="homepage" stroke="none" stroke-width="1" fill="none" fill-rule="evenodd">
        <g id="Desktop-HD" transform="translate(-493.000000, -411.000000)" fill="#232B2B">
            <g id="top-nav-B" transform="translate(-668.000000, -550.000000)">
                <g id="nav-items" transform="translate(755.000000, 959.000000)">
                    <g id="Group">
                        <g id="snap" transform="translate(406.000000, 2.000000)">
                            <path d="M12.1514535,22.5269613 C12.0895706,22.5269613 12.0288449,22.5251912 11.9680512,22.5222639 L11.9679151,22.5222639 C11.9291787,22.5252593 11.8886722,22.5269613 11.8481658,22.5269613 C10.4263555,22.5269613 9.51376918,21.8818536 8.63134139,21.2579182 C8.0219747,20.8273925 7.44698742,20.4208985 6.76947459,20.3080931 C6.43888754,20.2533584 6.10986629,20.2255825 5.79187368,20.2255825 C5.21899682,20.2255825 4.7670266,20.3140159 4.43705225,20.3785539 C4.23656237,20.4177669 4.06357603,20.4514655 3.9321173,20.4514655 C3.79480385,20.4514655 3.64598522,20.4217835 3.58131107,20.2008021 C3.52507859,20.0093666 3.48443599,19.823922 3.44535918,19.6445363 C3.34453558,19.182899 3.27298554,18.8989454 3.0795077,18.8692634 C0.824490115,18.520976 0.179042049,18.0459954 0.0351250345,17.709009 C0.0147696952,17.6608098 0.00319642538,17.6125424 0.000405225008,17.5647516 C-0.00687912718,17.4352672 0.0848220167,17.3209641 0.212740687,17.3000641 C3.67927539,16.7292296 5.23383784,13.1861752 5.29837584,13.0357227 C5.30014587,13.0315699 5.30198398,13.0275533 5.30389016,13.0234005 C5.51608947,12.5934195 5.55761708,12.2202156 5.42779223,11.9142728 C5.18992749,11.35365 4.41404187,11.1072074 3.900461,10.9442967 C3.77478891,10.9045391 3.6556523,10.86696 3.56170459,10.8298574 C2.5368575,10.4246568 2.4515557,10.0088361 2.49185791,9.79684099 C2.56054867,9.43568689 3.04315402,9.18400231 3.4335136,9.18400231 C3.54053231,9.18400231 3.63475234,9.20299609 3.7139952,9.23996247 C4.17501981,9.45597415 4.59056827,9.56537559 4.94906733,9.56537559 C5.44440327,9.56537559 5.66061919,9.35719289 5.68703347,9.32989359 C5.67443903,9.0952966 5.65884916,8.85028367 5.64291889,8.59744176 C5.53964448,6.9585306 5.41172581,4.92204358 5.93020829,3.75961074 C7.48422612,0.27517151 10.7797487,0.00449315182 11.7527203,0.00449315182 C11.7776369,0.00449315182 12.1792975,0.000204234173 12.1792975,0.000204234173 L12.2368915,0 C13.2121097,0 16.5147805,0.271154904 18.0696833,3.75750032 C18.588302,4.92054586 18.4600429,6.95873483 18.3566323,8.59642059 L18.3523434,8.66763024 C18.338047,8.89569174 18.3241591,9.11735389 18.3125858,9.3295532 C18.3373663,9.35481016 18.5362223,9.54631373 18.9853332,9.5634694 L18.9858098,9.5634694 C19.3270851,9.55039842 19.7193508,9.44160968 20.1498084,9.23996247 C20.275957,9.18107495 20.4160617,9.16868475 20.511439,9.16868475 C20.6571261,9.16868475 20.8047874,9.19686906 20.927396,9.24799568 L20.9348165,9.2510592 C21.2830357,9.37441664 21.5110972,9.61847648 21.5159988,9.87349688 C21.520492,10.1136082 21.3372259,10.4746261 20.4379828,10.8298574 C20.3447839,10.8664834 20.2256473,10.9043348 20.0994987,10.9442967 C19.5853732,11.1074798 18.8096918,11.35365 18.5719632,11.9142047 C18.4420703,12.2199433 18.483666,12.592943 18.6957291,13.0231282 C18.6976353,13.027281 18.6998138,13.0312976 18.7014477,13.0357227 C18.7659176,13.186039 20.3191185,16.7280723 23.7871509,17.2995876 C23.9152058,17.3206918 24.0066346,17.4348587 23.9996226,17.5644793 C23.9966952,17.613019 23.9849177,17.6619671 23.9641539,17.7094856 C23.8211219,18.0440892 23.1762184,18.5184571 20.9203839,18.8670168 C20.7360966,18.8953373 20.6646827,19.1354486 20.5546686,19.639022 C20.5147068,19.8222881 20.4742003,20.0022865 20.4184444,20.1916116 C20.3704494,20.3558839 20.26806,20.432744 20.0958225,20.432744 L20.0677743,20.432744 C19.9482293,20.432744 19.7783064,20.4113675 19.5629755,20.3690911 C19.1810576,20.2944094 18.7528466,20.2255825 18.208086,20.2255825 C17.8899573,20.2255825 17.5607318,20.2533584 17.2299405,20.3080931 C16.5531765,20.4208985 15.9785296,20.8265756 15.3703203,21.2565566 C14.4861224,21.8818536 13.5736722,22.5269613 12.1514535,22.5269613" id="Fill-1"></path>
                        </g>
                    </g>
                </g>
            </g>
        </g>
    </g>
</svg>