<?xml version="1.0" encoding="UTF-8"?>
<svg width="14px" height="24px" viewBox="0 0 14 24" version="1.1" xmlns="http://www.w3.org/2000/svg" xmlns:xlink="http://www.w3.org/1999/xlink">
    <!-- Generator: Sketch 41.2 (35397) - http://www.bohemiancoding.com/sketch -->
    <title>Tumblr</title>
    <desc>Created with Sketch.</desc>
    <defs></defs>
    <g id="homepage" stroke="none" stroke-width="1" fill="none" fill-rule="evenodd">
        <g id="Desktop-HD" transform="translate(-436.000000, -410.000000)" fill="#232B2B">
            <g id="top-nav-B" transform="translate(-668.000000, -550.000000)">
                <g id="nav-items" transform="translate(755.000000, 959.000000)">
                    <g id="Group">
                        <g id="Tumblr" transform="translate(349.000000, 1.000000)">
                            <g id="logo">
                                <path d="M13.8960145,22.1023545 C13.0987051,22.9537566 11.2510008,23.5316475 9.5964313,23.5589269 L9.41478405,23.5589269 C3.85623466,23.5589269 2.64896254,19.4727713 2.64896254,17.0876251 L2.64896254,10.4612619 L0.459143934,10.4612619 C0.337371391,10.4612619 0.220586335,10.4128944 0.134480145,10.3267998 C0.0483739541,10.2407052 0,10.1239358 0,10.0021796 L0,6.87295394 C0.000216965255,6.5428944 0.208282485,6.24873758 0.519453692,6.13856581 C3.37303862,5.13353808 4.26799236,2.64358187 4.40045843,0.750899292 C4.4363571,0.245154979 4.70093027,0 5.13997095,0 L8.40387763,0 C8.65745582,0 8.86302156,0.205538152 8.86302156,0.459082311 L8.86302156,5.75880891 L12.6837165,5.75880891 C12.9368751,5.75860976 13.1424278,5.96333203 13.1432195,6.21645546 L13.1432195,9.97705388 C13.1431243,10.0988101 13.094659,10.2155417 13.0084855,10.301569 C12.922312,10.3875963 12.8054891,10.4358725 12.6837165,10.4357772 L8.84543121,10.4357772 L8.84543121,16.5639338 C8.84543121,18.1027031 9.85956852,18.5273273 10.4860002,18.5273273 C11.0869439,18.5129698 11.6785539,18.3299111 11.9750769,18.2107436 C12.1951357,18.1224447 12.3886295,18.0639377 12.5616611,18.1073693 C12.7228461,18.1475704 12.8287472,18.2617128 12.9001855,18.4698972 L13.9128869,21.4275502 C13.9950948,21.6644496 14.0658152,21.9210906 13.8960145,22.1023545 Z" id="Shape"></path>
                            </g>
                        </g>
                    </g>
                </g>
            </g>
        </g>
    </g>
</svg>