<?xml version="1.0" encoding="UTF-8"?>
<svg width="26px" height="22px" viewBox="0 0 26 22" version="1.1" xmlns="http://www.w3.org/2000/svg" xmlns:xlink="http://www.w3.org/1999/xlink">
    <!-- Generator: Sketch 41.2 (35397) - http://www.bohemiancoding.com/sketch -->
    <title>Twit</title>
    <desc>Created with Sketch.</desc>
    <defs></defs>
    <g id="homepage" stroke="none" stroke-width="1" fill="none" fill-rule="evenodd">
        <g id="Desktop-HD" transform="translate(-226.000000, -412.000000)" fill="#232B2B">
            <g id="top-nav-B" transform="translate(-668.000000, -550.000000)">
                <g id="nav-items" transform="translate(755.000000, 959.000000)">
                    <g id="Group">
                        <g id="Twit" transform="translate(139.000000, 3.000000)">
                            <path d="M26,2.50133 C25.04346,2.92552 24.01529,3.2123 22.93642,3.34126 C24.03752,2.68099 24.88343,1.63566 25.28175,0.39 C24.25098,1.00139 23.10945,1.44534 21.89434,1.68441 C20.92142,0.64779 19.5351,0 18.00084,0 C15.05504,0 12.66655,2.38823 12.66655,5.33416 C12.66655,5.75211 12.71374,6.15927 12.80474,6.54979 C8.37148,6.32723 4.44093,4.20368 1.81012,0.97643 C1.35096,1.76423 1.08784,2.68047 1.08784,3.65807 C1.08784,5.50875 2.02956,7.14142 3.46086,8.09796 C2.58648,8.07027 1.76397,7.83029 1.04481,7.4308 C1.04429,7.45303 1.04429,7.47539 1.04429,7.49788 C1.04429,10.08241 2.88301,12.2382 5.32324,12.72843 C4.87565,12.85024 4.4044,12.9155 3.91794,12.9155 C3.57422,12.9155 3.23999,12.88196 2.91421,12.81982 C3.59307,14.93882 5.56296,16.48127 7.89724,16.52417 C6.07165,17.95495 3.77169,18.80762 1.27244,18.80762 C0.84188,18.80762 0.4173,18.7824 0,18.733 C2.36067,20.24659 5.16451,21.12981 8.17687,21.12981 C17.98836,21.12981 23.35385,13.00156 23.35385,5.95257 C23.35385,5.72143 23.34852,5.49133 23.33825,5.26253 C24.38059,4.51048 25.28487,3.57097 26,2.50133" id="Fill-3"></path>
                        </g>
                    </g>
                </g>
            </g>
        </g>
    </g>
</svg>